<?xml version="1.0" encoding="utf-8"?>
<!-- Generator: Adobe Illustrator 24.2.3, SVG Export Plug-In . SVG Version: 6.00 Build 0)  -->
<svg version="1.1" id="Layer_1" xmlns="http://www.w3.org/2000/svg" xmlns:xlink="http://www.w3.org/1999/xlink" x="0px" y="0px"
	 viewBox="0 0 75 75" style="enable-background:new 0 0 75 75;" xml:space="preserve">
<style type="text/css">
	.st0{fill:#231F20;stroke:#231F20;stroke-width:0.75;stroke-miterlimit:10;}
	.st1{fill:#FFFFFF;}
	.st2{fill:#231F20;}
	.st3{fill:#231F20;stroke:#231F20;stroke-width:0.25;stroke-miterlimit:10;}
</style>
<g>
	<path class="st0" d="M53.8,17.3c-2.5-1.8-5.5-2.6-8.4-2.1c-3,0.5-5.7,2.2-7.6,4.9c-1.3,1.8-2.1,3.8-2.5,5.9c0,0,0,0,0,0.1
		c0,0,0,0,0,0c-0.1,0.9-0.2,1.9-0.1,2.8l-0.1,1.3c-0.2,4.6-0.2,4.6-1.6,6.8l-0.7,1c-0.6,0.8-0.4,2,0.4,2.6l0.2,0.1l-1.1,1.5
		C31.6,42,31,41.9,30.3,42c-0.9,0.1-1.6,0.6-2.2,1.3c-0.5,0.7-0.7,1.6-0.6,2.5c0.1,0.9,0.6,1.7,1.3,2.2c0.7,0.5,1.5,0.7,2.3,0.6
		c0.2,0.8,0.6,1.5,1.3,2c0.7,0.5,1.6,0.7,2.5,0.6c0.9-0.1,1.7-0.6,2.2-1.3c1-1.3,0.8-3.1-0.3-4.2l1.1-1.5l0.2,0.1
		c0.4,0.3,0.9,0.4,1.4,0.3c0.5-0.1,0.9-0.3,1.2-0.8l0.7-1c1.6-2.1,1.6-2.1,5.9-3.7l1.2-0.5c0.9-0.2,1.8-0.6,2.6-1c0,0,0.1,0,0.1,0
		c1.9-1,3.6-2.4,4.8-4.2c1.9-2.7,2.7-5.8,2.3-8.8C58,21.7,56.3,19.1,53.8,17.3z M35.8,45.4c-0.2,0.2-0.1,0.5,0.1,0.7
		c1,0.8,1.2,2.1,0.4,3.1c-0.4,0.5-0.9,0.8-1.5,0.9c-0.6,0.1-1.2,0-1.7-0.4c-0.6-0.4-0.9-1.1-0.9-1.8c0-0.2-0.1-0.3-0.2-0.4
		c-0.1-0.1-0.3-0.1-0.4-0.1c0,0,0,0-0.1,0c-0.7,0.2-1.4,0.1-2-0.3c-0.5-0.4-0.8-0.9-0.9-1.5c-0.1-0.6,0-1.2,0.4-1.7
		c0.4-0.5,0.9-0.8,1.5-0.9c0.6-0.1,1.1,0,1.6,0.4c0.2,0.2,0.5,0.1,0.7-0.1l1.4-1.9l3,2.1L35.8,45.4z M55.3,32.8
		c-1.2,1.7-2.8,3-4.5,3.9c0,0,0,0,0,0c-0.8,0.4-1.6,0.7-2.5,0.9c0,0,0,0-0.1,0L47,38.1c-4.3,1.6-4.6,1.7-6.4,4l-0.7,1
		c-0.3,0.4-0.8,0.4-1.1,0.2l-5-3.6c-0.4-0.3-0.5-0.8-0.2-1.2l0.7-1c1.6-2.4,1.6-2.7,1.8-7.3l0.1-1.3c0,0,0,0,0-0.1
		c-0.1-0.9,0-1.8,0.1-2.6c0,0,0,0,0,0c0.3-2,1.1-3.9,2.3-5.5c1.8-2.5,4.2-4,6.9-4.5c2.6-0.4,5.3,0.3,7.6,1.9c2.3,1.6,3.8,4,4.2,6.6
		C57.8,27.4,57.1,30.3,55.3,32.8z"/>
	<g>
		<path class="st1" d="M41.6,31.7c2.5,0,3.4,0.7,3.4,0.7c1.5,0.7,2.9,0.6,4.1,0c0,0,1.2-0.7,3.4-0.7c3.9,0,7,3.6,7,7.6
			c0,8.9-5.6,13.7-12.5,13.7c-6.9,0-12.5-4.7-12.5-13.7C34.6,35.3,37.7,31.7,41.6,31.7z"/>
		<path class="st1" d="M54.8,32.1c1.3,1.3,1.9,3.2,1.9,5.1c0,8.9-5.6,13.7-12.5,13.7c-2.2,0-4.2-0.5-6-1.4c2.3,2.3,5.4,3.5,8.8,3.5
			c6.9,0,12.5-4.8,12.5-13.7C59.5,36.1,57.6,33.2,54.8,32.1z"/>
		<path class="st1" d="M42.6,34.7c1,1,0.8,2.7-0.4,3.9C41,39.8,39.3,40,38.3,39c-1-1-0.8-2.7,0.4-3.9S41.7,33.7,42.6,34.7z"/>
		<g>
			<path class="st1" d="M51.5,30.2C51.5,30.2,51.5,30.2,51.5,30.2c2.1-2.1,1.7-4.6,1.7-4.6s-2.7-0.3-4.6,1.7c0,0,0,0,0,0
				c0,0,0,0,0,0c-1.9,1.9-1.7,4.6-1.7,4.6S49.6,32.1,51.5,30.2C51.5,30.2,51.5,30.2,51.5,30.2z"/>
			<path class="st1" d="M51.5,30.2C51.5,30.2,51.5,30.2,51.5,30.2c2.1-2.1,1.7-4.6,1.7-4.6l-6.3,6.3C46.9,31.9,49.6,32.1,51.5,30.2
				C51.5,30.2,51.5,30.2,51.5,30.2z"/>
		</g>
	</g>
	<g>
		<g id="XMLID_1_">
			<g>
				<path class="st2" d="M38.2,36.4v10.6c0,4.8-3.7,8.7-8.2,8.7h-1.2h-2.3c-6,0-10.9-5.1-10.9-11.4V31.8c0-0.5,0.4-0.9,0.9-0.9h1.7
					v-5.7c0-4.4,3.6-8,8-8h0.9c4.4,0,8,3.6,8,8v10.3c0.2,0,0.3,0,0.5,0h1.7C37.8,35.5,38.2,35.9,38.2,36.4z M36.4,47.1v-9.7h-0.8
					c-0.2,0-0.3,0-0.5,0v8c0,4.3-1.9,6.9-5.4,7.7v0.9H30C33.6,53.9,36.4,50.8,36.4,47.1z M33.3,45.3V25.2c0-3.4-2.8-6.2-6.2-6.2
					h-0.9c-3.4,0-6.2,2.8-6.2,6.2V31c5.4,0.6,9.7,5.5,9.7,11.3v8.8C32.2,50.4,33.3,48.5,33.3,45.3z M27.9,53.9v-1.6v-10
					c0-5.3-4.1-9.6-9-9.6h-1.4v11.6c0,5.3,4.1,9.6,9,9.6H27.9z"/>
				<path class="st1" d="M33.3,25.2v20.1c0,3.2-1.2,5.1-3.6,5.8v-8.8c0-5.9-4.2-10.7-9.7-11.3v-5.7c0-3.4,2.8-6.2,6.2-6.2h0.9
					C30.6,19.1,33.3,21.8,33.3,25.2z M31.6,24.6c0-0.5-0.4-0.9-0.9-0.9h-2.2c-0.5,0-0.9,0.4-0.9,0.9c0,0.5,0.4,0.9,0.9,0.9h2.2
					C31.2,25.5,31.6,25.1,31.6,24.6z M31.6,27.9c0-0.5-0.4-0.9-0.9-0.9h-2.2c-0.5,0-0.9,0.4-0.9,0.9c0,0.5,0.4,0.9,0.9,0.9h2.2
					C31.2,28.8,31.6,28.4,31.6,27.9z M31.6,31.1c0-0.5-0.4-0.9-0.9-0.9h-2.2c-0.5,0-0.9,0.4-0.9,0.9c0,0.5,0.4,0.9,0.9,0.9h2.2
					C31.2,32,31.6,31.6,31.6,31.1z M25.8,23c0-0.5-0.4-0.9-0.9-0.9h-2.2c-0.5,0-0.9,0.4-0.9,0.9c0,0.5,0.4,0.9,0.9,0.9h2.2
					C25.4,23.9,25.8,23.5,25.8,23z M25.8,26.3c0-0.5-0.4-0.9-0.9-0.9h-2.2c-0.5,0-0.9,0.4-0.9,0.9c0,0.5,0.4,0.9,0.9,0.9h2.2
					C25.4,27.2,25.8,26.8,25.8,26.3z M25.8,29.6c0-0.5-0.4-0.9-0.9-0.9h-2.2c-0.5,0-0.9,0.4-0.9,0.9s0.4,0.9,0.9,0.9h2.2
					C25.4,30.5,25.8,30.1,25.8,29.6z"/>
				<path class="st2" d="M30.7,23.7c0.5,0,0.9,0.4,0.9,0.9c0,0.5-0.4,0.9-0.9,0.9h-2.2c-0.5,0-0.9-0.4-0.9-0.9
					c0-0.5,0.4-0.9,0.9-0.9H30.7z"/>
				<path class="st2" d="M30.7,27c0.5,0,0.9,0.4,0.9,0.9c0,0.5-0.4,0.9-0.9,0.9h-2.2c-0.5,0-0.9-0.4-0.9-0.9c0-0.5,0.4-0.9,0.9-0.9
					H30.7z"/>
				<path class="st2" d="M30.7,30.2c0.5,0,0.9,0.4,0.9,0.9c0,0.5-0.4,0.9-0.9,0.9h-2.2c-0.5,0-0.9-0.4-0.9-0.9
					c0-0.5,0.4-0.9,0.9-0.9H30.7z"/>
				<path class="st1" d="M27.9,52.3v1.6h-1.4c-5,0-9-4.3-9-9.6V32.7h1.4c5,0,9,4.3,9,9.6V52.3z"/>
				<path class="st2" d="M24.9,22.1c0.5,0,0.9,0.4,0.9,0.9c0,0.5-0.4,0.9-0.9,0.9h-2.2c-0.5,0-0.9-0.4-0.9-0.9
					c0-0.5,0.4-0.9,0.9-0.9H24.9z"/>
				<path class="st2" d="M24.9,25.4c0.5,0,0.9,0.4,0.9,0.9c0,0.5-0.4,0.9-0.9,0.9h-2.2c-0.5,0-0.9-0.4-0.9-0.9
					c0-0.5,0.4-0.9,0.9-0.9H24.9z"/>
				<path class="st2" d="M24.9,28.7c0.5,0,0.9,0.4,0.9,0.9s-0.4,0.9-0.9,0.9h-2.2c-0.5,0-0.9-0.4-0.9-0.9s0.4-0.9,0.9-0.9H24.9z"/>
			</g>
			<g>
			</g>
		</g>
	</g>
	<path class="st3" d="M52.5,30.6c-0.1,0-0.1,0-0.2,0c1.8-2.2,1.5-4.7,1.5-4.8c0-0.3-0.3-0.5-0.6-0.6c0,0-0.2,0-0.5,0
		c-0.8,0-3,0.2-4.7,1.9c0,0,0,0,0,0c-1.6,1.6-1.8,3.6-1.9,4.6c-0.3-0.1-0.6-0.2-0.8-0.3c-0.3-0.2-1.4-0.8-3.8-0.8
		c-4.2,0-7.7,3.8-7.7,8.3c0,8.6,5.3,14.3,13.1,14.3c7.9,0,13.1-5.8,13.1-14.3C60.2,34.4,56.7,30.6,52.5,30.6z M49,28.1
		C49,28.1,49,28.1,49,28.1c1.3-1.3,2.8-1.5,3.6-1.5c0,0.8-0.2,2.2-1.5,3.5c0,0,0,0,0,0c-0.4,0.4-0.9,0.7-1.3,0.9
		c-0.3,0.1-0.6,0.2-0.7,0.3c-0.5,0.2-1.1,0.2-1.4,0.3C47.6,30.8,47.8,29.3,49,28.1z M47.1,51.9c-7.2,0-11.8-5.1-11.8-13
		c0-3.7,3-7,6.3-7c2.2,0,3.1,0.6,3.1,0.6c0,0,0.1,0,0.1,0.1c1.5,0.7,3.2,0.7,4.6,0c0,0,0,0,0,0c0,0,0,0,0,0c0.2-0.1,0.5-0.2,0.7-0.3
		c0.5-0.2,1.3-0.3,2.4-0.3c3.4,0,6.3,3.2,6.3,7C58.9,46.8,54.2,51.9,47.1,51.9z"/>
	<g>
		<g>
			<rect x="16.7" y="49.8" class="st1" width="42.4" height="7.8"/>
			<rect x="16.7" y="37.6" class="st1" width="42.4" height="7.8"/>
		</g>
		<g>
			<path d="M59.1,48.7H16.7c-0.6,0-1.2,0.5-1.2,1.2c0,0.6,0.5,1.2,1.2,1.2h41.2v5.5H17.8v-6.7c0-0.6-0.5-1.2-1.2-1.2
				c-0.6,0-1.2,0.5-1.2,1.2v7.8c0,0.6,0.5,1.2,1.2,1.2h42.4c0.6,0,1.2-0.5,1.2-1.2v-7.8C60.2,49.2,59.7,48.7,59.1,48.7z"/>
			<path d="M21.8,42.4c0.2-0.2,0.3-0.5,0.3-0.8c0-0.3-0.1-0.6-0.3-0.8c-0.4-0.4-1.2-0.4-1.6,0c-0.2,0.2-0.3,0.5-0.3,0.8
				c0,0.3,0.1,0.6,0.3,0.8c0.2,0.2,0.5,0.3,0.8,0.3C21.3,42.7,21.6,42.6,21.8,42.4z"/>
			<path d="M55.5,42.4c0.2-0.2,0.3-0.5,0.3-0.8c0-0.3-0.1-0.6-0.3-0.8c-0.4-0.4-1.2-0.4-1.6,0c-0.2,0.2-0.3,0.5-0.3,0.8
				c0,0.3,0.1,0.6,0.3,0.8c0.2,0.2,0.5,0.3,0.8,0.3C55,42.7,55.3,42.6,55.5,42.4z"/>
			<path d="M21.8,54.6c0.2-0.2,0.3-0.5,0.3-0.8c0-0.3-0.1-0.6-0.3-0.8c-0.4-0.4-1.2-0.4-1.6,0c-0.2,0.2-0.3,0.5-0.3,0.8
				c0,0.3,0.1,0.6,0.3,0.8c0.2,0.2,0.5,0.3,0.8,0.3C21.3,54.9,21.6,54.8,21.8,54.6z"/>
			<path d="M55.5,54.6c0.2-0.2,0.3-0.5,0.3-0.8c0-0.3-0.1-0.6-0.3-0.8c-0.4-0.4-1.2-0.4-1.6,0c-0.2,0.2-0.3,0.5-0.3,0.8
				c0,0.3,0.1,0.6,0.3,0.8c0.2,0.2,0.5,0.3,0.8,0.3C55,54.9,55.3,54.8,55.5,54.6z"/>
			<path d="M18.3,36.5h-1.7c-0.6,0-1.2,0.5-1.2,1.2c0,0.6,0.5,1.2,1.2,1.2h41.2v5.5H17.8v-6.7c0-0.6-0.5-1.2-1.2-1.2
				c-0.6,0-1.2,0.5-1.2,1.2v7.8c0,0.6,0.5,1.2,1.2,1.2h42.4c0.6,0,1.2-0.5,1.2-1.2v-7.8c0-0.6-0.5-1.2-1.2-1.2h-1.8 M26.9,36.5h-6.1
				 M34,36.5h-4.4 M44.8,36.5h-8 M54.7,36.5h-4.5"/>
		</g>
	</g>
</g>
</svg>
