<?xml version="1.0" encoding="utf-8"?>
<!-- Generator: Adobe Illustrator 24.2.3, SVG Export Plug-In . SVG Version: 6.00 Build 0)  -->
<svg version="1.1" id="Layer_1" xmlns="http://www.w3.org/2000/svg" xmlns:xlink="http://www.w3.org/1999/xlink" x="0px" y="0px"
	 viewBox="0 0 75 75" style="enable-background:new 0 0 75 75;" xml:space="preserve">
<style type="text/css">
	.st0{fill:#231F20;stroke:#000000;stroke-width:0.75;stroke-miterlimit:10;}
</style>
<g>
	<path class="st0" d="M46.8,40.2c-0.3-0.1-0.6-0.1-0.9-0.1c-2.1-0.1-3.5,1.5-3.5,3.6c0,2.4,1.8,4.6,4.2,5c0.3,0.1,0.6,0.1,0.9,0.1
		c1,0,1.9-0.4,2.6-1c0.7-0.7,1-1.6,1-2.6C51,42.8,49.1,40.6,46.8,40.2z M49,46.9c-0.5,0.5-1.3,0.7-2.2,0.6c-1.7-0.4-3.1-2-3.1-3.7
		c0-1.3,0.9-2.3,2.2-2.3c0.2,0,0.4,0,0.6,0.1c1.7,0.4,3.1,2,3.1,3.7C49.6,45.8,49.4,46.4,49,46.9z"/>
	<path class="st0" d="M36.4,33.2c-0.2-0.1-0.4-0.1-0.7-0.1c-1.5,0-2.8,1.2-2.8,2.8c0,1.8,1.4,3.5,3.2,3.8c0.2,0.1,0.4,0.1,0.7,0.1
		l0,0c0.7,0,1.5-0.3,2-0.8c0.5-0.5,0.8-1.3,0.8-2C39.5,35.3,38.1,33.6,36.4,33.2z M37.8,38.1c-0.3,0.3-0.6,0.4-1,0.4l0,0
		c-0.1,0-0.3,0-0.4-0.1c-1.1-0.2-2.1-1.4-2.1-2.5c0-0.9,0.6-1.5,1.4-1.5c0.1,0,0.3,0,0.4,0.1c1.1,0.2,2.1,1.4,2.1,2.5
		C38.2,37.5,38.1,37.9,37.8,38.1z"/>
	<path class="st0" d="M28.3,39.7c-0.3-0.1-0.7-0.1-1-0.1c-2.3,0-3.9,1.7-3.9,4c0,2.5,2.1,5,4.6,5.5c0.3,0.1,0.7,0.1,1,0.1
		c1.1,0,2.1-0.4,2.8-1.1c0.7-0.7,1.1-1.7,1.1-2.9C32.9,42.7,30.9,40.2,28.3,39.7z M30.8,47.2c-0.4,0.4-1.1,0.7-1.8,0.7
		c-0.2,0-0.4,0-0.7-0.1c-1.9-0.4-3.5-2.3-3.5-4.2c0-1.5,1-2.6,2.6-2.6c0.2,0,0.4,0,0.7,0.1c1.9,0.4,3.5,2.3,3.5,4.2
		C31.6,46,31.3,46.7,30.8,47.2z"/>
	<path class="st0" d="M52.7,16.8c-0.2,0-0.5,0-0.7,0.1L22,23c-1.5,0.3-2.7,1.6-2.7,3.2v0.1c0,0,0,0,0,0.1v5.5c0,0.3,0.2,0.6,0.5,0.7
		c1.4,0.3,2.5,1.7,2.5,3c0,1.1-0.7,1.8-1.8,1.8c-0.1,0-0.3,0-0.5-0.1c-0.2-0.1-0.4,0-0.6,0.1c-0.1,0.1-0.2,0.3-0.2,0.5v9.8
		c0,2.1,1.6,3.9,3.6,4.4l28.9,5.9c0.2,0.1,0.5,0.1,0.7,0.1c0.9,0,1.6-0.3,2.2-0.9c0.6-0.6,0.9-1.4,0.9-2.3V32.4v-1V20
		C55.8,18.2,54.4,16.8,52.7,16.8z M22.3,24.4l29.9-6.1c0.1,0,0.3-0.1,0.5-0.1c1,0,1.8,0.7,1.8,1.8v12.4c0,0.5-0.1,1-0.5,1.3
		c-0.4,0.4-1.1,0.6-1.8,0.4l-30-6.2c-0.9-0.1-1.5-1-1.5-1.8C20.6,25.3,21.3,24.5,22.3,24.4z M53.9,56.4c-0.4,0.4-1.1,0.6-1.8,0.4
		l-28.9-5.9c-1.4-0.3-2.5-1.7-2.5-3v-9.2c1.8,0,3.1-1.3,3.1-3.2c0-1.8-1.3-3.6-3.1-4.2v-2.5c0.4,0.3,0.8,0.4,1.3,0.5l29.9,6.1
		c0.2,0.1,0.5,0.1,0.7,0.1c0.7,0,1.3-0.2,1.8-0.5v20C54.4,55.6,54.2,56,53.9,56.4z"/>
	<path class="st0" d="M46.9,30.7c2.6,0,4.6-1.3,4.6-3s-2-3-4.6-3s-4.6,1.3-4.6,3S44.3,30.7,46.9,30.7z M46.9,26
		c1.9,0,3.2,0.9,3.2,1.7s-1.3,1.7-3.2,1.7c-1.9,0-3.2-0.9-3.2-1.7C43.7,26.9,45,26,46.9,26z"/>
	<path class="st0" d="M35.5,27.1c1.8,0,3.2-1,3.2-2.2s-1.4-2.2-3.2-2.2c-1.8,0-3.2,1-3.2,2.2C32.3,26.1,33.7,27.1,35.5,27.1z
		 M35.5,24c1.2,0,1.9,0.5,1.9,0.9c0,0.4-0.7,0.9-1.9,0.9c-1.2,0-1.9-0.5-1.9-0.9C33.6,24.5,34.4,24,35.5,24z"/>
</g>
</svg>
