<?xml version="1.0" encoding="utf-8"?>
<!-- Generator: Adobe Illustrator 24.2.3, SVG Export Plug-In . SVG Version: 6.00 Build 0)  -->
<svg version="1.1" id="Layer_1" xmlns="http://www.w3.org/2000/svg" xmlns:xlink="http://www.w3.org/1999/xlink" x="0px" y="0px"
	 viewBox="0 0 75 75" style="enable-background:new 0 0 75 75;" xml:space="preserve">
<style type="text/css">
	.st0{fill:#F7B000;}
	.st1{fill:#E28C10;}
	.st2{fill:#FFE000;}
	.st3{fill:#231F20;stroke:#000000;stroke-width:0.75;stroke-miterlimit:10;}
</style>
<g>
	<path class="st0" d="M17.9,24.7v5.9c1.9,0.4,3.4,2.2,3.4,3.9c0,1.8-1.5,3-3.4,2.6v10.6c0,1.9,1.5,3.7,3.4,3.9l31.3,6.4
		c1.9,0.4,3.4-0.8,3.4-2.6V30.2L17.9,24.7z"/>
	<path class="st1" d="M42.8,43.5c0,2.2,1.8,4.3,3.9,4.7c2.2,0.5,3.9-0.9,3.9-3.1c0-2.2-1.8-4.3-3.9-4.7C44.6,40,42.8,41.4,42.8,43.5
		z"/>
	<path class="st1" d="M32.6,35.2c0,1.6,1.3,3.1,2.9,3.5c1.6,0.3,2.9-0.8,2.9-2.3c0-1.6-1.3-3.1-2.9-3.5
		C33.9,32.6,32.6,33.6,32.6,35.2z"/>
	<path class="st1" d="M22.4,43.4c0,2.3,1.9,4.8,4.4,5.3c2.3,0.5,4.4-1,4.4-3.5c0-2.4-1.9-4.8-4.4-5.3C24.4,39.5,22.4,41,22.4,43.4z"
		/>
	<path class="st2" d="M52.5,15.2l-32.3,6.7c-1.3,0.3-2.3,1.3-2.3,2.7c0,1.3,0.9,2.4,2.3,2.7L52.5,34c1.9,0.4,3.4-0.8,3.4-2.6V17.9
		C55.8,16.1,54.3,14.9,52.5,15.2z"/>
	<path class="st0" d="M51.2,26.3c0,1.4-1.9,2.5-4.2,2.5c-2.3,0-4.2-1.1-4.2-2.5c0-1.4,1.9-2.5,4.2-2.5
		C49.3,23.6,51.2,24.7,51.2,26.3z"/>
	<path class="st0" d="M37.4,23.2c0,0.9-1.3,1.7-2.8,1.7s-2.8-0.8-2.8-1.7s1.3-1.7,2.8-1.7C36.2,21.6,37.4,22.2,37.4,23.2z"/>
</g>
<g>
	<path class="st3" d="M46.9,39.7c-0.3-0.1-0.7-0.1-0.9-0.1c-2.3-0.1-3.8,1.6-3.8,3.9c0,2.5,2,5,4.5,5.4c0.3,0.1,0.7,0.1,0.9,0.1
		c1,0,2.1-0.4,2.8-1.1s1.1-1.8,1.1-2.8C51.4,42.5,49.4,40.1,46.9,39.7z M49.2,46.9c-0.6,0.6-1.4,0.8-2.3,0.7
		c-1.9-0.4-3.4-2.2-3.4-3.9c0-1.4,0.9-2.4,2.3-2.4c0.3,0,0.4,0,0.7,0.1c1.9,0.4,3.4,2.2,3.4,3.9C50,45.8,49.7,46.4,49.2,46.9z"/>
	<path class="st3" d="M35.6,32.2c-0.3-0.1-0.5-0.1-0.8-0.1c-1.7,0-3,1.3-3,3c0,1.9,1.5,3.8,3.5,4.1c0.3,0.1,0.5,0.1,0.8,0.1l0,0
		c0.8,0,1.6-0.3,2.2-0.8c0.6-0.6,0.8-1.3,0.8-2.2C39,34.4,37.5,32.5,35.6,32.2z M37.1,37.4c-0.3,0.3-0.7,0.4-1.1,0.4l0,0
		c-0.2,0-0.3,0-0.4-0.1c-1.2-0.3-2.3-1.5-2.3-2.7c0-0.9,0.7-1.6,1.5-1.6c0.2,0,0.3,0,0.4,0.1c1.2,0.3,2.3,1.5,2.3,2.7
		C37.6,36.8,37.4,37.1,37.1,37.4z"/>
	<path class="st3" d="M26.9,39.1c-0.3,0-0.7,0-1,0c-2.4,0-4.2,1.9-4.2,4.3c0,2.7,2.3,5.4,5,6c0.3,0.1,0.8,0.1,1,0.1
		c1.2,0,2.3-0.4,3-1.2c0.8-0.8,1.2-1.9,1.2-3.1C31.9,42.4,29.7,39.7,26.9,39.1z M29.6,47.2c-0.5,0.5-1.2,0.8-2,0.8
		c-0.3,0-0.5,0-0.8-0.1c-2.1-0.4-3.8-2.4-3.8-4.5c0-1.7,1.1-2.8,2.8-2.8c0.3,0,0.5,0,0.8,0.1c2.1,0.4,3.8,2.4,3.8,4.5
		C30.5,46,30.2,46.6,29.6,47.2z"/>
	<path class="st3" d="M53.3,14.4c-0.3,0-0.6,0-0.8,0.1l-32.3,6.7c-1.7,0.3-2.9,1.8-2.9,3.5v0.1c0,0,0,0,0,0.1v5.8
		c0,0.3,0.3,0.7,0.6,0.8c1.5,0.3,2.7,1.9,2.7,3.3c0,1.2-0.8,2-1.9,2c-0.2,0-0.3,0-0.6-0.1c-0.3-0.1-0.4,0-0.7,0.2
		c-0.2,0.2-0.3,0.3-0.3,0.6v10.6c0,2.3,1.8,4.2,3.9,4.7L52.3,59c0.3,0.1,0.6,0.1,0.8,0.1c0.9,0,1.8-0.3,2.3-0.9
		c0.7-0.7,0.9-1.5,0.9-2.4V31.3v-1V17.9C56.6,15.8,55.2,14.4,53.3,14.4z M20.3,22.6l32.3-6.7c0.2,0,0.3-0.1,0.6-0.1
		c1.1,0,1.9,0.8,1.9,2v13.4c0,0.6-0.2,1.1-0.6,1.4c-0.5,0.5-1.2,0.7-1.9,0.5l-32.4-6.7c-0.9-0.2-1.7-1-1.7-2
		C18.6,23.5,19.3,22.7,20.3,22.6z M54.6,57.2c-0.5,0.5-1.2,0.7-1.9,0.5l-31.3-6.4C20,51,18.7,49.4,18.7,48v-10
		c1.9,0,3.4-1.4,3.4-3.5s-1.4-3.9-3.4-4.5v-2.7c0.4,0.3,0.8,0.5,1.4,0.6l32.3,6.7c0.3,0.1,0.6,0.1,0.8,0.1c0.8,0,1.3-0.3,1.9-0.6
		v21.6C55.2,56.3,54.9,56.8,54.6,57.2z"/>
	<path class="st3" d="M47,29.4c2.8,0,5-1.4,5-3.3c0-1.9-2.2-3.3-5-3.3c-2.8,0-5,1.4-5,3.3C42,28,44.3,29.4,47,29.4z M47,24.3
		c2.1,0,3.5,0.9,3.5,1.9c0,0.8-1.4,1.9-3.5,1.9s-3.5-0.9-3.5-1.9S44.9,24.3,47,24.3z"/>
	<path class="st3" d="M34.7,25.5c2,0,3.5-1,3.5-2.3s-1.5-2.3-3.5-2.3c-2,0-3.5,1-3.5,2.3S32.7,25.5,34.7,25.5z M34.7,22.1
		c1.3,0,2.1,0.6,2.1,0.9S36,24,34.7,24s-2.1-0.6-2.1-0.9S33.5,22.1,34.7,22.1z"/>
</g>
</svg>
