<?xml version="1.0" encoding="utf-8"?>
<!-- Generator: Adobe Illustrator 24.2.3, SVG Export Plug-In . SVG Version: 6.00 Build 0)  -->
<svg version="1.1" id="Layer_1" xmlns="http://www.w3.org/2000/svg" xmlns:xlink="http://www.w3.org/1999/xlink" x="0px" y="0px"
	 viewBox="0 0 75 75" style="enable-background:new 0 0 75 75;" xml:space="preserve">
<style type="text/css">
	.st0{fill:#E83636;}
	.st1{fill:#BF202E;}
	.st2{fill:#68A643;}
	.st3{fill:#91C13E;}
	.st4{fill:#F89F61;}
	.st5{fill:#231F20;}
</style>
<g>
	<g>
		<path class="st0" d="M55.9,36.5c0.1-1.5-0.1-2.8-0.7-4.1c-1.4-3.4-4.7-5.7-8.7-5.7H28.4c-3.9,0-7.3,2.4-8.7,5.7
			c-2.9,6.9,2.9,13.9,6.2,19.5c2.9,4.9,6.6,10.3,12.5,9.8c5.4-0.5,8.5-5.8,11-10.2c1.8-3,3.7-5.9,5.1-9.1
			C55.1,40.9,55.9,38.6,55.9,36.5z"/>
		<path class="st1" d="M55.2,32.5c-1.2-3-4.1-5.3-7.4-5.7c0.6,0.7,1.1,1.5,1.5,2.4c0.6,1.2,0.8,2.6,0.7,4.1c-0.2,2.1-0.8,4.3-1.6,6
			c-1.4,3.1-3.3,6-5.1,9.1c-2.5,4.3-5.6,9.6-11,10.2c-0.6,0.1-1.2,0.1-1.8,0c2.1,2.1,4.7,3.6,7.8,3.3c5.4-0.5,8.5-5.8,11-10.2
			c1.8-3,3.7-5.9,5.1-9.1c0.7-1.8,1.5-4,1.6-6C56,35.1,55.9,33.7,55.2,32.5z"/>
	</g>
	<g>
		<g>
			<path class="st2" d="M41.7,20.8L41.7,20.8c0-5-4.2-7.7-4.2-7.7s-4.2,2.8-4.2,7.7l0,0l0,0c0,4.7,4.2,7.7,4.2,7.7
				S41.7,25.5,41.7,20.8L41.7,20.8z"/>
		</g>
		<g>
			<path class="st3" d="M46.9,25.8L46.9,25.8c4.2-3.5,3.4-7.9,3.4-7.9s-5.4-0.5-9.4,2.9l0,0l0,0c-4,3.3-3.4,7.9-3.4,7.9
				S42.9,29.1,46.9,25.8L46.9,25.8z"/>
			<path class="st2" d="M46.9,25.8L46.9,25.8c4.2-3.5,3.4-7.9,3.4-7.9L37.4,28.7C37.5,28.7,42.9,29.1,46.9,25.8L46.9,25.8z"/>
		</g>
		<g>
			<path class="st3" d="M28,25.8L28,25.8c4.2,3.5,9.4,2.9,9.4,2.9s0.6-4.5-3.4-7.9l0,0l0,0c-4-3.3-9.4-2.9-9.4-2.9S24,22.5,28,25.8
				L28,25.8z"/>
			<path class="st2" d="M28,25.8L28,25.8c4.2,3.5,9.4,2.9,9.4,2.9L24.5,17.9C24.5,17.9,24,22.5,28,25.8L28,25.8z"/>
		</g>
	</g>
	<path class="st4" d="M30.1,34.5c0.3,1.5-0.7,2.9-2.1,3.1c-1.5,0.3-2.9-0.7-3.1-2.1c-0.3-1.5,0.7-2.9,2.1-3.1
		C28.4,32.1,29.8,33,30.1,34.5z"/>
	<path class="st4" d="M39.5,34.5c0.3,1.5-0.7,2.9-2.1,3.1c-1.5,0.3-2.9-0.7-3.1-2.1C34,34,35,32.6,36.4,32.4
		C37.8,32.1,39.2,33,39.5,34.5z"/>
	<path class="st4" d="M34.8,41.8c0.3,1.5-0.7,2.9-2.1,3.1c-1.5,0.3-2.9-0.7-3.1-2.1c-0.3-1.5,0.7-2.9,2.1-3.1
		C33,39.3,34.5,40.3,34.8,41.8z"/>
</g>
<path class="st5" d="M56.4,32c-1.4-3.2-4.2-5.5-7.6-6.3c3.4-3.8,2.8-7.9,2.8-8c-0.1-0.6-0.6-1-1.1-1c0,0-0.4-0.1-0.9-0.1
	c-1.3,0-4.1,0.2-6.9,1.6c-1.1-3.9-4.3-5.9-4.4-6c-0.5-0.3-0.9-0.3-1.4,0c-0.2,0.1-3.3,2.2-4.4,6c-2.8-1.4-5.7-1.6-7-1.6
	c-0.5,0-0.8,0-0.8,0c-0.6,0.1-1.1,0.5-1.1,1.1c0,0.2-0.5,4.4,2.8,8c-3.4,0.7-6.3,3-7.6,6.3c-2.7,6.5,1.4,12.8,4.6,18
	c0.6,0.9,1.1,1.8,1.7,2.7C28,58,31.8,63.1,37.5,63.1l0,0c0.3,0,0.6,0,0.9-0.1c6-0.6,9.3-6.2,11.9-10.8c0.5-0.8,0.9-1.7,1.5-2.4
	c1.3-2.1,2.7-4.4,3.7-6.7c1-2.3,1.6-4.5,1.8-6.5C57.4,34.9,57.1,33.3,56.4,32z M46.2,24.8L46.2,24.8c-2.5,2.1-5.7,2.6-7.4,2.7
	c0.2-1.4,0.6-3.8,2.9-5.6l0,0c0.1,0,0.1-0.1,0.1-0.1c2.6-2.1,5.8-2.5,7.4-2.6C49.1,20.4,48.6,22.8,46.2,24.8z M37.5,14.8
	c0.9,0.8,2.4,2.4,2.9,4.8c-0.1,0.1-0.2,0.1-0.2,0.2l-0.1,0.1c-1.2,1-2,2.1-2.6,3.1c-0.6-1.1-1.4-2.1-2.6-3.1l-0.1-0.1
	c-0.1-0.1-0.2-0.2-0.2-0.2C35,17.3,36.6,15.6,37.5,14.8z M33.2,21.6L33.2,21.6c2.4,2.1,3,4.4,3,5.8c-1.8,0-4.7-0.5-7.3-2.6l-0.2-0.1
	c-2.3-1.9-2.8-4.3-3-5.7C27.5,19.2,30.7,19.6,33.2,21.6z M54.7,36.5c-0.1,1.6-0.6,3.6-1.5,5.6c-0.9,2.2-2.2,4.4-3.5,6.5
	c-0.5,0.8-1,1.7-1.5,2.4c-2.4,4.2-5.3,9.1-10,9.5c-0.2,0-0.5,0.1-0.7,0.1l0,0c-4.4,0-7.7-4.4-10.5-9.2c-0.5-0.8-1.1-1.8-1.7-2.8
	c-3.1-4.9-6.6-10.4-4.4-15.7c1.2-3,4.2-5,7.5-5H29c2.8,1.7,5.7,1.9,7.4,1.9c0.5,0,0.7,0,0.9,0l0,0c0,0,0.3,0,0.8,0l0,0
	c1.5,0,4.7-0.2,7.8-1.9h0.6c3.3,0,6.3,1.9,7.5,5c0,0.1,0,0.1,0.1,0.2C54.6,34,54.8,35.2,54.7,36.5z"/>
</svg>
