<?xml version="1.0" encoding="utf-8"?>
<!-- Generator: Adobe Illustrator 24.2.3, SVG Export Plug-In . SVG Version: 6.00 Build 0)  -->
<svg version="1.1" id="Layer_1" xmlns="http://www.w3.org/2000/svg" xmlns:xlink="http://www.w3.org/1999/xlink" x="0px" y="0px"
	 viewBox="0 0 75 75" style="enable-background:new 0 0 75 75;" xml:space="preserve">
<style type="text/css">
	.st0{fill:#68A643;}
	.st1{fill:#91C13E;}
	.st2{fill:#EF9421;}
	.st3{fill:#DC6A26;}
	.st4{fill:#231F20;}
</style>
<g>
	<path class="st0" d="M31.5,27.9c1,1,1,2.6,0,3.6l0,0c-1,1-2.6,1-3.6,0L25,28.6c-1-1-1-2.6,0-3.6l0,0c1-1,2.6-1,3.6,0L31.5,27.9z"/>
	<g>
		<g>
			<path class="st0" d="M25.9,20.8L25.9,20.8c3,3,2.2,7,2.2,7s-4.2,0.7-7-2.2l0,0l0,0c-2.9-2.9-2.2-7-2.2-7S23,18,25.9,20.8
				L25.9,20.8z"/>
		</g>
		<g>
			<path class="st1" d="M31.6,20.9L31.6,20.9c-0.2,4.4-3.6,7-3.6,7s-3-2.3-2.9-6.6l0,0l0,0c0.2-4.2,3.6-7,3.6-7S31.8,16.8,31.6,20.9
				L31.6,20.9z"/>
			<path class="st0" d="M31.6,20.9L31.6,20.9c-0.2,4.4-3.6,7-3.6,7l0.7-13.6C28.8,14.3,31.8,16.8,31.6,20.9L31.6,20.9z"/>
		</g>
		<g>
			<path class="st0" d="M21.3,25.2L21.3,25.2c4.4-0.2,6.7,2.9,6.7,2.9s-2.7,3.3-6.9,3.5l0,0l0,0c-4.2,0.2-6.6-2.9-6.6-2.9
				S17.1,25.4,21.3,25.2L21.3,25.2z"/>
			<path class="st1" d="M21.3,25.2L21.3,25.2c4.4-0.2,6.7,2.9,6.7,2.9l-13.6,0.7C14.3,28.7,17.1,25.4,21.3,25.2L21.3,25.2z"/>
		</g>
	</g>
	<path class="st2" d="M28.8,28.8L28.8,28.8L28.8,28.8L28.8,28.8L28.8,28.8c-5.9,5.9-1.9,11.2-0.3,12.5l26.1,17.8
		c1.7,1.2,3,1.7,4.5,0.2l0,0l0,0l0,0l0,0c1.5-1.5,1-2.9-0.2-4.5L41.2,28.6C40.1,26.9,34.8,22.9,28.8,28.8z"/>
	<path class="st3" d="M31.6,26.6c3.1,0,5.5,1.9,6.1,2.9l18.9,27.2c0.9,1.1,1.7,2.5,1.1,3.1c0.4-0.2,1-0.3,1.5-0.9l0,0l0,0l0,0l0,0
		c1.5-1.5,1-2.9-0.2-4.5l-17.7-26C40.3,27.2,36.4,24.1,31.6,26.6z"/>
	<path class="st3" d="M30.2,37.5c-0.4,0.4-1,0.4-1.4,0l0,0c-0.4-0.4-0.4-1,0-1.4l1.7-1.7c0.4-0.4,1-0.4,1.4,0l0,0
		c0.4,0.4,0.4,1,0,1.4L30.2,37.5z"/>
	<path class="st3" d="M39.6,36.2c-0.4,0.4-1,0.4-1.4,0l0,0c-0.4-0.4-0.4-1,0-1.4l1.7-1.7c0.4-0.4,1-0.4,1.4,0l0,0
		c0.4,0.4,0.4,1,0,1.4L39.6,36.2z"/>
	<path class="st3" d="M41.3,45.3c-0.4,0.4-1,0.4-1.4,0l0,0c-0.4-0.4-0.4-1,0-1.4l1.7-1.7c0.4-0.4,1-0.4,1.4,0l0,0
		c0.4,0.4,0.4,1,0,1.4L41.3,45.3z"/>
	<path class="st3" d="M50,50c-0.4,0.4-1,0.4-1.4,0l0,0c-0.4-0.4-0.4-1,0-1.4l1.7-1.7c0.4-0.4,1-0.4,1.4,0l0,0c0.4,0.4,0.4,1,0,1.4
		L50,50z"/>
</g>
<g>
	<path class="st4" d="M31.3,25.7c0.7-1.2,1.2-2.7,1.4-4.6c0-0.1,0-0.1,0-0.2c0.2-4.7-3.1-7.4-3.3-7.5c-0.4-0.3-1-0.3-1.5,0
		c0,0-0.2,0.2-0.4,0.4c-0.8,0.8-2.2,2.3-2.9,4.8c-2.9-1.6-5.8-1.1-6.1-1c-0.4,0.1-0.9,0.4-1,1c0,0.2-0.4,3.2,1.1,6.1
		c-2.3,0.8-4.2,2.2-4.9,3c-0.3,0.2-0.4,0.4-0.4,0.4c-0.3,0.4-0.3,1,0,1.5c0.2,0.2,2.9,3.5,7.6,3.3H21c1.8-0.2,3.3-0.7,4.5-1.4
		c-0.8,1.5-1,2.9-1,4.5c0.2,3.1,2.2,5.5,3.3,6.2l12.5,8.5c0.1,0.1,0.1,0.2,0.2,0.2c0.2,0.2,0.4,0.3,0.6,0.3L54,59.9
		c0.9,0.6,3.5,2.5,5.9,0.2c0.1,0,0.1-0.1,0.2-0.1c0,0,0,0,0.1-0.1c0,0,0.1-0.1,0.1-0.2c2.3-2.5,0.4-5.1-0.2-5.8l-18.2-26
		c-0.8-1-3-3-6.1-3.2C34.2,24.6,32.8,25,31.3,25.7z M30.3,21c0,0.1,0,0.1,0,0.2c-0.2,2.5-1.5,4.3-2.3,5.4c-0.8-0.9-1.8-2.5-1.7-4.9
		v-0.1l0,0c0.2-2.4,1.5-4.3,2.3-5.4C29.3,16.9,30.4,18.7,30.3,21z M19.6,19.9c1,0,2.8,0.2,4.3,1.3c0,0.1,0,0.2,0,0.2v0.1l0,0
		c-0.1,1.3,0.2,2.2,0.4,3.2c-1-0.3-2-0.4-3.3-0.4h-0.1C19.8,22.7,19.6,20.9,19.6,19.9z M20.5,30.6c-2.2,0.1-4-1-4.9-1.7
		c1-1,2.9-2.2,5.4-2.3h0.1c2.4-0.2,4.1,1,4.9,1.7C25.1,29.1,23.1,30.4,20.5,30.6C20.6,30.6,20.5,30.6,20.5,30.6z M40,29.3l11.3,16.5
		l-1.7,1.7c-0.4,0.4-0.4,1.2,0,1.7c0.4,0.4,1.2,0.4,1.7,0l1.4-1.4l5.3,7.7c1.2,1.7,1,2.2,0.3,3l0,0c-0.8,0.8-1.5,1-3-0.3L43,49.9
		l1-1c0.4-0.4,0.4-1.2,0-1.7c-0.4-0.4-1.2-0.4-1.7,0l-1.3,1.3l-12-8.1c-0.5-0.4-2.1-2.1-2.2-4.6c-0.2-2,0.8-4.1,2.8-6.1
		c1.9-1.9,4.1-2.9,6.1-2.8C38,27.1,39.7,28.8,40,29.3z"/>
	<path class="st4" d="M32.2,35.3l-2,2c-0.4,0.4-0.4,1.2,0,1.7c0.4,0.4,1.2,0.4,1.7,0l2-2c0.4-0.4,0.4-1.2,0-1.7
		C33.5,34.8,32.8,34.8,32.2,35.3z"/>
	<path class="st4" d="M41.3,36.9l-2,2c-0.4,0.4-0.4,1.2,0,1.7c0.4,0.4,1.2,0.4,1.7,0l2-2c0.4-0.4,0.4-1.2,0-1.7
		C42.5,36.3,41.7,36.3,41.3,36.9z"/>
</g>
</svg>
