<?xml version="1.0" encoding="utf-8"?>
<!-- Generator: Adobe Illustrator 24.2.3, SVG Export Plug-In . SVG Version: 6.00 Build 0)  -->
<svg version="1.1" id="Layer_1" xmlns="http://www.w3.org/2000/svg" xmlns:xlink="http://www.w3.org/1999/xlink" x="0px" y="0px"
	 viewBox="0 0 75 75" style="enable-background:new 0 0 75 75;" xml:space="preserve">
<style type="text/css">
	.st0{fill:#DDDDDD;}
</style>
<path class="st0" d="M43.5,18.2c-10.6,0-19.3,8.7-19.3,19.3s8.7,19.3,19.3,19.3s19.3-8.7,19.3-19.3S54.1,18.2,43.5,18.2z M28.6,37.5
	c0-3.3,1.1-6.4,2.9-8.9l20.9,20.9c-2.5,1.9-5.6,2.9-8.9,2.9C35.3,52.4,28.6,45.7,28.6,37.5z M55.5,46.4L34.6,25.5
	c2.5-1.9,5.6-2.9,8.9-2.9c8.2,0,14.9,6.7,14.9,14.9C58.4,40.8,57.3,43.9,55.5,46.4z"/>
</svg>
