<?xml version="1.0" encoding="utf-8"?>
<!-- Generator: Adobe Illustrator 24.2.3, SVG Export Plug-In . SVG Version: 6.00 Build 0)  -->
<svg version="1.1" id="Layer_1" xmlns="http://www.w3.org/2000/svg" xmlns:xlink="http://www.w3.org/1999/xlink" x="0px" y="0px"
	 viewBox="0 0 133.8 86.5" style="enable-background:new 0 0 133.8 86.5;" xml:space="preserve">
<style type="text/css">
	.st0{fill:#231F20;}
	.st1{fill:#68A508;}
	.st2{fill:#873E97;}
	.st3{fill:#FFE000;}
	.st4{fill:#F2C300;}
	.st5{fill:#92C100;}
	.st6{fill:#809600;}
	.st7{fill:#B9CC00;}
	.st8{fill:#8C6128;}
	.st9{fill:#75481C;}
	.st10{fill:#AA793F;}
	.st11{fill:#FFFFFF;}
	.st12{fill:#67A7BC;}
	.st13{fill:#7A9C4E;}
	.st14{fill:#73B05A;}
	.st15{fill:#FDC24E;}
	.st16{fill:#EF4E4C;}
	.st17{fill:#B6DFE0;}
	.st18{fill:#EFEFEF;}
	.st19{fill:#ABC3C6;}
	.st20{fill:#97BEBF;}
	.st21{fill:#CCCCCC;}
	.st22{fill:#DBF288;}
	.st23{fill:#C0DB6E;}
	.st24{fill:#79A500;}
	.st25{fill:#97C130;}
	.st26{fill:#E83636;}
	.st27{fill:#BF132C;}
	.st28{fill:#FFA05F;}
	.st29{fill:#F09300;}
	.st30{fill:#DD6900;}
</style>
<g id="eggplant_1_">
	<g id="XMLID_1_">
		<g>
			<path class="st0" d="M52.8,9.5c-6.5,0.3-9,6.9-9.4,10.5l-0.2,3.1c0.1,0.1,0.2,0.3,0.4,0.3c0.5,0.2,0.9,0.7,1.5,0.6l0,0l5.2-2.2
				l4.3,3.9c0.4,0.3,1,0.4,1.4,0l3.7-3.3l5,3.3c0-0.1,0-0.2,0-0.3c0.3,0.2,1,0.7,1.6,1c0.2,0.1,0.4,0.1,0.6,0.1c0,0,0,0,0,0.1l0,0
				c0.3-0.2,0.6-0.5,0.6-0.9l0.3-4.1c-0.3-7.5-4.5-10.2-7-11.2c-0.8-0.3-1.4-0.5-1.9-0.6c-0.2-2.1,1.1-3.3,1.2-3.3
				c0.2-0.2,0.4-0.6,0.3-0.9c0-0.3-0.2-0.6-0.5-0.8L56,2.6c-0.4-0.2-0.9-0.2-1.2,0.1C52.9,4.3,52.8,7.6,52.8,9.5z M45.5,20.2
				c0-0.3,1.1-9.1,8.4-8.6c0.3,0,0.6-0.1,0.8-0.3s0.3-0.6,0.3-0.9c-0.1-1.1-0.3-4,0.7-5.6L57.8,6c-0.7,1-1.4,2.7-0.8,5
				c0.1,0.4,0.5,0.7,0.9,0.8c0,0,0.9,0.1,2.1,0.5c2.5,1,5.5,3.4,5.7,9.2l-0.1,2.2l-5.3-3.5c-0.4-0.3-0.9-0.2-1.3,0.1l-3.6,3.2
				l-4.1-3.8c-0.1-0.1-0.2-0.1-0.3-0.2c-0.2-0.1-0.5-0.1-0.8,0l-4.7,2L45.5,20.2z"/>
			<path class="st0" d="M43.6,23.4c-0.1-0.1-0.3-0.2-0.4-0.3c0,0.4,0.1,0.7,0.4,0.9c0.1,0,0.1,0.1,0.2,0.1c0.2,0.1,0.5,0.1,0.8,0
				l0.4-0.2C44.6,24.1,44.2,23.6,43.6,23.4z"/>
			<path class="st0" d="M43.7,24c-0.3-0.2-0.5-0.6-0.4-0.9c-0.9,5.1-1.7,12-1.6,16.6c0.1,8,2.3,16.1,6.2,22.8
				c3.4,5.7,9.1,10.8,15.5,13.3c4.7,1.9,9.8,2.3,14.5,0.5c9.7-3.8,14.2-13,11.5-23.6c-1.9-7.1-7-11-12.6-14.8
				c-4.8-3.2-8.9-6.4-9.8-11.3c-0.3,0.1-0.7,0.1-1-0.1l-1.2-0.8c0.1,6.4,6.6,11.1,10.9,14c5.2,3.5,10,7.2,11.7,13.6
				c3,11.5-3.6,18.5-10.2,21.1c-9.7,3.8-22.1-3.6-27.5-12.9c-3.8-6.4-5.9-14.1-5.9-21.7c0-4.5,0.6-10.8,1.4-15.7l0,0l0,0l-0.4,0.2
				c-0.2,0.1-0.5,0.1-0.8,0C43.8,24.1,43.8,24.1,43.7,24z"/>
			<path class="st1" d="M53.9,11.6c-7.3-0.5-8.3,8.3-8.4,8.6l-0.1,1.4l4.7-2c0.3-0.1,0.5-0.1,0.8,0c0.1,0,0.2,0.1,0.3,0.2l4.1,3.8
				l3.6-3.2c0.4-0.3,0.9-0.4,1.3-0.1l5.3,3.5l0.1-2.2c-0.2-5.9-3.2-8.2-5.7-9.2c-1.2-0.5-2.1-0.5-2.1-0.5c-0.4,0-0.8-0.3-0.9-0.8
				c-0.6-2.2,0.1-4,0.8-5l-2.1-1.2c-0.9,1.6-0.8,4.5-0.7,5.6c0,0.3-0.1,0.6-0.3,0.9C54.5,11.5,54.2,11.6,53.9,11.6z"/>
			<path class="st2" d="M50.4,21.7l-5.2,2.2l0,0c-0.9,5-1.5,11.2-1.4,15.7c0.1,7.6,2.2,15.3,5.9,21.7c5.4,9.3,17.8,16.7,27.5,12.9
				c6.6-2.5,13.2-9.6,10.2-21.1c-1.7-6.4-6.5-10.1-11.7-13.6c-4.3-2.9-10.8-7.6-10.9-14l-5-3.3l-3.7,3.3c-0.4,0.4-1,0.3-1.4,0
				L50.4,21.7z M78.8,49.9c-0.4-0.4-0.4-1.1,0-1.5s1.1-0.4,1.5,0c2.3,2.3,5.8,8.1,2.2,13.6c-0.3,0.4-0.8,0.6-1.2,0.4
				c-0.1,0-0.1-0.1-0.2-0.1c-0.5-0.3-0.6-1-0.3-1.5C84.3,55.4,79,50.2,78.8,49.9z"/>
			<path class="st0" d="M64.8,25.4c0,0.1,0,0.2,0,0.3l1.2,0.8c0.3,0.2,0.7,0.2,1,0.1c0,0,0,0,0-0.1c-0.2,0-0.4,0-0.6-0.1
				C65.8,26.2,65.1,25.6,64.8,25.4z"/>
			<path d="M78.8,48.5c-0.4,0.4-0.4,1.1,0,1.5c0.2,0.2,5.5,5.5,1.9,11c-0.3,0.5-0.2,1.1,0.3,1.5c0.1,0,0.1,0.1,0.2,0.1
				c0.5,0.2,1,0,1.2-0.4c3.7-5.6,0.2-11.3-2.2-13.6C79.8,48,79.2,48,78.8,48.5z"/>
		</g>
	</g>
</g>
<g>
	<g>
		<path class="st1" d="M67.5,39.8h-1.1v20.3c0,6.9,5.2,12.4,11.6,12.4h0.3V52C78.3,45.2,73.9,39.8,67.5,39.8z"/>
		<path class="st3" d="M69.7,58.2c0,6.2,5.1,11.3,11.3,11.3h1.5c6.2,0,11.3-5.1,11.3-11.3V21.9c0-6.2-5.1-11.3-11.3-11.3H81
			c-6.2,0-11.3,5.1-11.3,11.3V58.2z"/>
		<path class="st4" d="M77.4,11.2c-1.7,2-2.8,4.6-2.8,7.4v36.3c0,6.2,1.1,11.3,11.3,11.3h1.5c1.2,0,2.4-0.2,3.6-0.6
			c-2.1,2.4-5.1,3.9-8.5,3.9H81c-6.2,0-11.3-3.8-11.3-11.3V21.9C69.7,16.9,72.9,12.7,77.4,11.2z"/>
		<path class="st5" d="M79.3,49.2v23.3h2.9c8.8,0,15.9-7.5,15.9-16.8V32.4h-2.9C86.5,32.4,79.3,39.9,79.3,49.2z"/>
		<path class="st1" d="M94.3,32.4h2.9l0,0c-8.7,0.2-15.7,7.6-15.7,16.8v23.3c-0.1,0-0.2,0-0.3,0h-2.9V49.2
			C78.3,39.9,85.5,32.4,94.3,32.4z"/>
		<g>
			<path class="st4" d="M77.3,28.4h3.5c0.8,0,1.4-0.6,1.4-1.4s-0.6-1.4-1.4-1.4h-3.5c-0.8,0-1.4,0.6-1.4,1.4S76.5,28.4,77.3,28.4z"
				/>
			<path class="st4" d="M86,31.8h3.5c0.8,0,1.4-0.6,1.4-1.4S90.3,29,89.5,29H86c-0.8,0-1.4,0.6-1.4,1.4C84.5,31.1,85.2,31.8,86,31.8
				z"/>
			<path class="st4" d="M86,25.1h3.5c0.8,0,1.4-0.6,1.4-1.4s-0.6-1.4-1.4-1.4H86c-0.8,0-1.4,0.6-1.4,1.4S85.2,25.1,86,25.1z"/>
			<path class="st4" d="M77.3,35.1h3.5c0.8,0,1.4-0.6,1.4-1.4s-0.6-1.4-1.4-1.4h-3.5c-0.8,0-1.4,0.6-1.4,1.4S76.5,35.1,77.3,35.1z"
				/>
			<path class="st4" d="M77.3,21.8h3.5c0.8,0,1.4-0.6,1.4-1.4S81.6,19,80.8,19h-3.5c-0.8,0-1.4,0.6-1.4,1.4S76.5,21.8,77.3,21.8z"/>
			<path class="st4" d="M86,18.4h3.5c0.8,0,1.4-0.6,1.4-1.4s-0.6-1.4-1.4-1.4H86c-0.8,0-1.4,0.6-1.4,1.4S85.2,18.4,86,18.4z"/>
		</g>
	</g>
	<g>
		<path class="st0" d="M64.4,40.8v17c0,7.6,5.9,13.9,13.1,13.9h1.9h3.7c9.6,0,17.4-8.2,17.4-18.3v-20c0-0.8-0.6-1.4-1.4-1.4h-2.7
			v-9.1c0-7-5.7-12.8-12.7-12.8h-1.5c-7,0-12.8,5.7-12.8,12.8v16.5c-0.3,0-0.5,0-0.8,0h-2.7C65,39.3,64.4,40,64.4,40.8z M93.4,22.9
			V32C84.7,33,78,40.8,78,50.2v14.1c-3.9-1.1-5.7-4.2-5.7-9.3V22.9c0-5.4,4.4-9.9,9.9-9.9h1.5C89,13,93.4,17.4,93.4,22.9z
			 M83.1,68.8h-2.2v-2.5V50.2c0-8.5,6.5-15.4,14.5-15.4h2.2v18.5C97.6,61.9,91.1,68.8,83.1,68.8z M67.3,42.2h1.3c0.3,0,0.5,0,0.8,0
			V55c0,6.8,3,11,8.6,12.3v1.4h-0.5c-5.6,0-10.2-4.9-10.2-11C67.3,57.7,67.3,42.2,67.3,42.2z"/>
		<path class="st0" d="M89.2,27h-3.6c-0.8,0-1.4-0.6-1.4-1.4s0.6-1.4,1.4-1.4h3.6c0.8,0,1.4,0.6,1.4,1.4S90,27,89.2,27z"/>
		<path class="st0" d="M89.2,32.3h-3.6c-0.8,0-1.4-0.6-1.4-1.4s0.6-1.4,1.4-1.4h3.6c0.8,0,1.4,0.6,1.4,1.4S90,32.3,89.2,32.3z"/>
		<path class="st0" d="M89.2,21.8h-3.6c-0.8,0-1.4-0.6-1.4-1.4s0.6-1.4,1.4-1.4h3.6c0.8,0,1.4,0.6,1.4,1.4
			C90.6,21.2,90,21.8,89.2,21.8z"/>
		<path class="st0" d="M80,29.5h-3.6c-0.8,0-1.4-0.6-1.4-1.4s0.6-1.4,1.4-1.4H80c0.8,0,1.4,0.6,1.4,1.4S80.8,29.5,80,29.5z"/>
		<path class="st0" d="M80,34.8h-3.6c-0.8,0-1.4-0.6-1.4-1.4s0.6-1.4,1.4-1.4H80c0.8,0,1.4,0.6,1.4,1.4S80.8,34.8,80,34.8z"/>
		<path class="st0" d="M80,24.3h-3.6c-0.8,0-1.4-0.6-1.4-1.4s0.6-1.4,1.4-1.4H80c0.8,0,1.4,0.6,1.4,1.4S80.8,24.3,80,24.3z"/>
	</g>
</g>
<g>
	<g>
		<path class="st6" d="M121,50.9c0,0-1.5-1.8-1.5-4.1c0-5.1-4.1-9.3-9.3-9.3c-5.1,0-9.3,4.1-9.3,9.3c0,2.4-1.5,4.1-1.5,4.1
			c-1.7,2.2-2.6,5.5-2.6,8.4c0,7.2,5.7,13.1,13.4,13.1c7.8,0,13.4-5.9,13.4-13.1C123.6,56.4,122.6,53.1,121,50.9z"/>
		<path class="st6" d="M110.2,73.3c-8,0-14.2-6.1-14.2-13.9c0-3.2,1.1-6.7,2.8-8.9l0,0c0,0,1.3-1.5,1.3-3.6c0-5.5,4.5-10,10-10
			c5.5,0,10,4.5,10,10c0,2,1.3,3.6,1.3,3.6c1.8,2.3,2.8,5.7,2.8,8.9C124.4,67.2,118.1,73.3,110.2,73.3z M100,51.4
			c-1.5,2-2.5,5.1-2.5,8c0,7,5.4,12.4,12.6,12.4c7.2,0,12.6-5.3,12.6-12.4c0-2.9-1-6-2.5-8c0,0-1.7-2-1.7-4.6c0-4.7-3.8-8.5-8.5-8.5
			c-4.7,0-8.5,3.8-8.5,8.5C101.7,49.4,100.2,51.2,100,51.4z"/>
	</g>
	<path class="st7" d="M120.4,50.9c0,0-1.5-1.8-1.5-4.1c0-5.1-4.1-9.3-9.3-9.3c-5.1,0-9.3,4.1-9.3,9.3c0,2.4-1.5,4.1-1.5,4.1
		c-1.7,2.2-2.6,5.5-2.6,8.4c0,7.2,5.7,13.1,13.4,13.1c7.8,0,13.4-5.9,13.4-13.1C123,56.4,122,53.1,120.4,50.9z"/>
	<g>
		<path class="st8" d="M116.9,59.1c0,4.1-3.3,7.4-7.4,7.4c-4.1,0-7.4-3.3-7.4-7.4c0-4.1,3.3-7.4,7.4-7.4
			C113.7,51.8,116.9,55.1,116.9,59.1z"/>
		<path class="st9" d="M113.6,52.9c0.7,1.1,1.2,2.5,1.2,4c0,4.1-3.3,7.4-7.4,7.4c-1.5,0-2.8-0.4-4-1.2c1.3,2,3.6,3.4,6.2,3.4
			c4.1,0,7.4-3.3,7.4-7.4C116.9,56.5,115.6,54.3,113.6,52.9z"/>
		<path class="st10" d="M110.2,56.9c0,1.5-1.2,2.8-2.8,2.8c-1.5,0-2.8-1.2-2.8-2.8c0-1.5,1.2-2.8,2.8-2.8
			C108.9,54.1,110.2,55.4,110.2,56.9z"/>
	</g>
</g>
<g>
	<path class="st0" d="M121.9,50.4c0,0-1.4-1.7-1.4-3.7c0-5.9-4.8-10.6-10.6-10.6c-5.9,0-10.6,4.8-10.6,10.6c0,2.1-1.3,3.7-1.3,3.7
		c0,0,0,0,0,0.1c-1.8,2.4-3,6-3,9.4c0,8.2,6.6,14.7,15,14.7c8.4,0,15-6.4,15-14.7C124.9,56.4,123.8,52.8,121.9,50.4z M109.9,72.6
		c-7.5,0-13.1-5.5-13.1-12.8c0-2.9,1-6.2,2.6-8.2c0.2-0.3,1.8-2.2,1.8-4.9c0-4.8,3.9-8.7,8.7-8.7c4.8,0,8.7,3.9,8.7,8.7
		c0,2.8,1.7,4.8,1.8,4.9c1.6,2.1,2.6,5.3,2.6,8.2C123,67.1,117.4,72.6,109.9,72.6z"/>
	<path class="st0" d="M109.9,51c-4.8,0-8.6,3.9-8.6,8.6c0,4.8,3.9,8.6,8.6,8.6c4.8,0,8.6-3.9,8.6-8.6C118.6,54.9,114.7,51,109.9,51z
		 M109.9,66.4c-3.7,0-6.8-3-6.8-6.8c0-3.7,3-6.8,6.8-6.8c3.7,0,6.8,3,6.8,6.8C116.7,63.4,113.7,66.4,109.9,66.4z"/>
</g>
<g>
	<g>
		<path class="st11" d="M3319.2,2904.7c0-41.2-33.4-74.6-74.6-74.6c-41.2,0-74.6,33.4-74.6,74.6c0,41.2,33.4,74.6,74.6,74.6
			S3319.2,2945.9,3319.2,2904.7z"/>
		<g>
			<path class="st12" d="M3277.3,2904.7c0-18.1-14.7-32.8-32.8-32.8s-32.8,14.7-32.8,32.8s14.7,32.8,32.8,32.8
				S3277.3,2922.8,3277.3,2904.7z"/>
		</g>
		<path class="st13" d="M3420.1,2510.9c-11.4-2-23,8.6-28.2,24.6c-10.4-13.2-24.9-19.2-34.9-13.4c-11.5,6.7-12.6,26.5-2.4,44.2
			c14.3,24.7,49.3,37,49.3,37s28.7-23.5,33.6-51.6C3440.9,2531.5,3433.2,2513.2,3420.1,2510.9z"/>
		<g>
			<path class="st14" d="M3525.3,2713.8l-14.7,97.6c-3.4,22.5-24.8,41-47.6,41h-138.8c-22.8,0-53-14.6-67.2-32.4l-84.2-106.1h352.5
				V2713.8z"/>
		</g>
		<path class="st15" d="M3397.6,2713.8L3397.6,2713.8c0-40.7-13.7-73.8-48.2-73.8c-9.6,0-17.2,1.7-23.4,4.7
			c-5.7-6.3-13.7-9.9-24.8-9.9s-19.1,3.6-24.8,9.9c-6.2-3-13.8-4.7-23.4-4.7c-34.5,0-48.2,33-48.2,73.8l0,0H3397.6z"/>
		<path class="st11" d="M3530.6,2618c-14.5-14.3-37.9-14-52.2,0.5c-2.8,2.9-4.9,6.5-6.6,9.7c-13.4,25.4-45.4,51.2-75.4,65.3
			c0.8,6.4,1.3,13.2,1.3,20.3l0,0H3510c14.4-18.7,25.8-39.6,30.5-60.8C3543.1,2640.9,3540.2,2627.4,3530.6,2618z"/>
		<path class="st16" d="M3460.3,2642.7c-4.7-26.5-21.4-45.7-56.5-39.5c-27.1,4.8-38.7,20.1-40.4,39c19.3,6.2,29.6,25.9,33,51.3
			c23.4-11,48.1-29.1,64.1-48.7C3460.4,2644.1,3460.4,2643.4,3460.3,2642.7z"/>
	</g>
	<g>
		<path d="M3244.5,2863c-23,0-41.8,18.7-41.8,41.8c0,5,4,9,9,9s9-4,9-9c0-13.1,10.7-23.8,23.8-23.8s23.8,10.7,23.8,23.8
			s-10.7,23.8-23.8,23.8c-5,0-9,4-9,9s4,9,9,9c23,0,41.8-18.7,41.8-41.7C3286.3,2881.7,3267.6,2863,3244.5,2863z"/>
		<path d="M3741.8,2701.3H3695c-3.7,0-6.9,1.6-9.2,4.1c-68.9,6.1-121.5,79.4-141.9,107.7l-2.7,3.7c-9.4,12.9-16.6,20.2-34.7,23.8
			c6.7-7.9,11.4-17.4,13-27.7l8.5-56.8c0.7-4.9-2.6-9.5-7.6-10.2c-4.9-0.7-9.5,2.6-10.2,7.6l-8.5,56.8
			c-2.7,18.1-20.4,33.3-38.7,33.3h-138.8c-20.1,0-47.7-13.3-60.2-29l-72.6-91.5h348.3c5,0,9-4,9-9s-4-9-9-9h-12.5
			c10.9-16.8,18.3-33.6,21.9-49.9c3.5-16.1-1.1-32.3-12.4-43.4c-2.1-2-4.3-3.9-6.7-5.4c4.5-15.5,1-32.5-9.8-45
			c-3.3-3.7-8.9-4.2-12.7-0.9c-3.8,3.2-4.2,8.9-0.9,12.7c6.3,7.4,8.6,17.1,6.6,26.4c-2.8-0.5-5.7-0.8-8.6-0.8c-0.2,0-0.3,0-0.5,0
			c-12.2,0.1-23.7,5-32.3,13.8c-3.7,3.7-6.2,8.1-8.1,11.6c-7.5-16.9-20.8-27.2-38.5-29.9c8.6-10.3,18-24.7,20.8-40.7
			c4.5-25.4-6.3-47.9-24.6-51.1c-12.2-2.1-24.4,5.1-32.5,18.1c-7.4-5.8-15.7-9.3-23.7-9.3c-4.7,0-9.1,1.1-13,3.4
			c-16.1,9.3-18.6,34.1-5.7,56.4c8.2,14.1,21.9,24.4,33.5,31.2c-12.2,6.6-20.5,16.6-24,29.6c-2.2-0.3-4.4-0.4-6.7-0.4
			c-8,0-15.2,1.1-21.5,3.2c-4.6-3.6-10.2-6.2-17.1-7.5c2.4-8.7,8.6-16.1,17.2-19.8c4.6-2,6.7-7.3,4.7-11.8c-2-4.6-7.2-6.7-11.8-4.7
			c-15.2,6.5-25.7,20.2-28.5,36.1c-7.2,1.2-13.1,3.9-17.9,7.7c-6.3-2.1-13.5-3.2-21.5-3.2c-33.7,0-54.5,27.4-56.9,73.8h-37.6
			c-5,0-9,4-9,9s4,9,9,9h10.2l78.1,98.4c-0.7,0-1.4-0.1-2.1-0.1c-46.1,0-83.6,37.5-83.6,83.6s37.5,83.6,83.6,83.6
			s83.6-37.5,83.6-83.6c0-16.2-4.7-31.2-12.7-44c3,0.4,5.9,0.6,8.8,0.6h138.8c12,0,22.2-0.3,31-1.1l-9.4,66.7
			c-3.4,24-12,40-23.1,42.8c-10.9,2.8-25.2-6.4-39.3-25.1l-42.8-56.9c-3-4-8.6-4.8-12.6-1.8s-4.8,8.6-1.8,12.6l42.8,56.9
			c16.1,21.4,33.5,32.8,49.6,32.8c2.9,0,5.7-0.4,8.4-1.1c18.8-4.8,31.8-25.3,36.4-57.7l10.2-71.9c19.5-4.4,30.8-13.4,43.1-30.3
			l2.7-3.7c17.1-23.8,67.8-94.2,128.3-100.2c2.2,1.9,5.1,3.1,8.2,3.1h46.8c7,0,12.6-5.6,12.6-12.6
			C3754.3,2706.9,3748.7,2701.3,3741.8,2701.3z M3406.4,2704.9c-0.1-2.1-0.3-4-0.5-6c24.9-12.8,53.5-34.7,69.3-59
			c13.5,7.7,15.9,17.4,15.9,17.7c0.6,3,2.6,5.4,5.3,6.6c1.1,0.5,2.3,0.7,3.5,0.7c1.7,0,3.5-0.5,5-1.5c0.1-0.1,9-5.5,23.7-1.9
			c-4.7,14.1-12.6,28.8-23.3,43.4H3406.4z M3504.5,2616.5c0.1,0,0.2,0,0.3,0c7.3,0,14.3,2.8,19.5,8c5.2,5.1,8,12,8.1,19.4
			c-11.6-2.7-21.1-1.5-27.6,0.4c-3.3-5.8-9.4-13.3-19.9-19.5C3490.1,2619.5,3497.1,2616.5,3504.5,2616.5z M3418.5,2519.8
			c7,1.2,12.8,14.5,10,30.3c-1.9,10.8-8,21-14.2,29c-0.4-12.9-2.7-28.5-10.2-41.5c-0.7-1.2-1.5-2.3-2.2-3.4
			C3406,2524.9,3412.8,2518.8,3418.5,2519.8z M3362.3,2561.7c-8-13.9-7.1-28.3-0.9-31.9c1.2-0.7,2.5-1,4-1c6.2,0,16.1,5.6,23.1,17.7
			c7.8,13.6,8.3,31.9,7.6,43.6C3385.7,2584.9,3370.2,2575.4,3362.3,2561.7z M3405.3,2612.1c25.2-4.5,40.5,5.8,45.5,30.1
			c-12.2,13.9-29.5,27.6-47.9,37.9c-5.1-20.9-15.2-35.9-29.6-43.4C3376.9,2623.4,3387.4,2615.3,3405.3,2612.1z M3388.4,2704.9h-39.3
			c-0.2-17.7-1.4-39-9.1-55c2.9-0.5,6-0.8,9.5-0.8C3379.6,2649.1,3387.1,2680.8,3388.4,2704.9z M3301.3,2643.8
			c21,0,28.9,15.6,29.8,61h-59.6C3272.4,2659.5,3280.3,2643.8,3301.3,2643.8z M3253.1,2649.1c3.4,0,6.5,0.3,9.4,0.7
			c-7.7,16.1-8.9,37.4-9.1,55h-39.3C3215.5,2680.8,3223,2649.1,3253.1,2649.1z M3244.5,2970.4c-36.2,0-65.6-29.4-65.6-65.6
			c0-36.2,29.4-65.6,65.6-65.6c36.2,0,65.6,29.4,65.6,65.6C3310.2,2940.9,3280.7,2970.4,3244.5,2970.4z"/>
	</g>
</g>
<g>
	<g>
		<g>
			<path class="st15" d="M2594.7,2743c0,55.5-45,100.4-100.4,100.4s-100.4-45-100.4-100.4c0-55.5,45-100.4,100.4-100.4
				S2594.7,2687.6,2594.7,2743z"/>
		</g>
		<g>
			<path class="st11" d="M2553.7,2743c0,25.7-8.6,46.6-19.2,46.6c-10.6,0-19.3-20.9-19.3-46.6c0-25.7,8.6-46.6,19.3-46.6
				C2545.1,2696.5,2553.7,2717.3,2553.7,2743z"/>
		</g>
		<g>
			<path class="st14" d="M2495,2844.8c77.2-33.3,162.1-52,251.3-52.6l0,0c-22.9,118.3-127,207.6-252,207.6h-0.3
				c-125,0-229.1-89.3-252-207.6c25.4,0,50.4,1.6,75,4.5L2495,2844.8z"/>
		</g>
		<g>
			<g>
				<polygon class="st11" points="2486.1,2841 2486.1,2775.3 2435.2,2716.4 2368.7,2716.4 2317,2771.8 2317,2830.1 2384.4,2841.8 
									"/>
			</g>
		</g>
	</g>
	<g>
		<path d="M2751,2734.1h-111.6c-5,0-9,4-9,9s4,9,9,9H2751c5,0,9-4,9-9S2755.9,2734.1,2751,2734.1z"/>
		<path d="M2292.9,2752c5,0,9-4,9-9s-4-9-9-9h-55.3c-5,0-9,4-9,9s4,9,9,9H2292.9z"/>
		<path d="M2622.2,2696.5c1.3,3.7,4.8,5.9,8.4,5.9c1,0,2.1-0.2,3.1-0.5l104.8-38.1c4.7-1.7,7.1-6.9,5.4-11.5
			c-1.7-4.7-6.8-7-11.5-5.4l-104.8,38.1C2622.9,2686.7,2620.5,2691.8,2622.2,2696.5z"/>
		<path d="M2598.6,2655.6c1.8,2.1,4.3,3.2,6.9,3.2c2,0,4.1-0.7,5.8-2.1l85.5-71.7c3.8-3.2,4.3-8.9,1.1-12.7s-8.9-4.3-12.7-1.1
			l-85.5,71.7C2595.9,2646.1,2595.4,2651.8,2598.6,2655.6z"/>
		<path d="M2562.4,2625.2c1.4,0.8,3,1.2,4.5,1.2c3.1,0,6.1-1.6,7.8-4.5l55.8-96.6c2.5-4.3,1-9.8-3.3-12.3s-9.8-1-12.3,3.3
			l-55.8,96.6C2556.6,2617.2,2558.1,2622.7,2562.4,2625.2z"/>
		<path d="M2518,2609c0.5,0.1,1.1,0.1,1.6,0.1c4.3,0,8.1-3.1,8.8-7.4l19.4-109.9c0.9-4.9-2.4-9.5-7.3-10.4
			c-4.9-0.8-9.5,2.4-10.4,7.3l-19.4,109.9C2509.8,2603.5,2513.1,2608.1,2518,2609z"/>
		<path d="M2469.1,2609.1c0.5,0,1,0,1.6-0.1c4.9-0.9,8.2-5.5,7.3-10.4l-19.4-109.9c-0.9-4.9-5.6-8.1-10.4-7.3
			c-4.9,0.9-8.2,5.5-7.3,10.4l19.4,109.9C2461,2606.1,2464.8,2609.1,2469.1,2609.1z"/>
		<path d="M2414,2621.9c1.7,2.9,4.7,4.5,7.8,4.5c1.5,0,3.1-0.4,4.5-1.2c4.3-2.5,5.8-8,3.3-12.3l-55.8-96.6c-2.5-4.3-8-5.8-12.3-3.3
			s-5.8,8-3.3,12.3L2414,2621.9z"/>
		<path d="M2377.4,2656.7c1.7,1.4,3.7,2.1,5.8,2.1c2.6,0,5.1-1.1,6.9-3.2c3.2-3.8,2.7-9.5-1.1-12.7l-85.5-71.7
			c-3.8-3.2-9.5-2.7-12.7,1.1s-2.7,9.5,1.1,12.7L2377.4,2656.7z"/>
		<path d="M2250.1,2663.7l91.9,33.4c1,0.4,2.1,0.5,3.1,0.5c3.7,0,7.1-2.3,8.4-5.9c1.7-4.7-0.7-9.8-5.4-11.5l-91.9-33.4
			c-4.7-1.7-9.8,0.7-11.5,5.4S2245.4,2662,2250.1,2663.7z"/>
		<path d="M2413.8,2682.3c3.7,3.3,9.4,3.1,12.7-0.6c17.3-19.1,42-30.1,67.8-30.1c50.4,0,91.4,41,91.4,91.5c0,8.4-1.1,16.7-3.4,24.7
			c-1.3,4.8,1.5,9.7,6.2,11.1c0.8,0.2,1.6,0.3,2.4,0.3c3.9,0,7.5-2.6,8.6-6.6c2.7-9.6,4-19.5,4-29.6c0-60.3-49.1-109.4-109.4-109.4
			c-30.8,0-60.4,13.1-81.1,36C2409.8,2673.3,2410.1,2679,2413.8,2682.3z"/>
		<path d="M2746.3,2783.2L2746.3,2783.2c-69.8,0.5-137.8,11.9-202.9,33.7v-20.5c12.7-7.4,19.2-30.3,19.2-53.1
			c0-27.6-9.7-55.5-28.2-55.5s-28.2,27.9-28.2,55.5c0,22.7,6.6,45.7,19.3,53.1v26.7c-10.2,3.7-20.3,7.7-30.3,12l0,0v-59.8
			c0-2.2-0.8-4.2-2.2-5.9l-50.9-58.8c-0.1-0.2-0.3-0.3-0.5-0.5l0,0c-0.1-0.1-0.1-0.1-0.2-0.2l0,0l0,0l0,0l0,0
			c-1.6-1.5-3.7-2.4-6.1-2.4l0,0l0,0l0,0l0,0l0,0h-66.5c-2.5,0-4.9,1-6.6,2.9l-51.7,55.4c-1.6,1.7-2.4,3.9-2.4,6.1v14.9
			c-21.8-2.2-43.9-3.5-65.9-3.5l0,0c-2.7,0-5.2,1.2-6.9,3.3s-2.4,4.8-1.9,7.4c24.1,124.5,133.8,214.9,261.1,214.9
			c127,0,236.7-90.3,260.8-214.8c0.5-2.6-0.2-5.4-1.9-7.5C2751.5,2784.4,2749,2783.2,2746.3,2783.2z M2534.2,2705.7
			c2.9,0.9,10.5,13.9,10.5,37.6c0,23.2-7.3,36.1-10.3,37.5c-3-1.4-10.3-14.3-10.3-37.5C2524.1,2719.6,2531.7,2706.6,2534.2,2705.7z
			 M2435.2,2730.2l41.9,48.5v62.4c0,3.6,2.2,6.9,5.5,8.3c56.6,23.6,109.2,55.4,156.7,94.4c-18.7,13.5-39.2,24.4-61.2,32.3
			c-53.3-57.9-115.4-104.9-184.9-139.6v-57.8L2435.2,2730.2z M2326,2781.3l49.4,2.5v47.4l-49.4-8.6V2781.3z M2372.6,2725.4h42.9
			l-35.1,40.7l-43.7-2.2L2372.6,2725.4z M2271.9,2852.7c64.4,34.3,121.4,78.7,170,132.5C2368,2969.3,2305.2,2920.1,2271.9,2852.7z
			 M2494,2990.7c-8.2,0-16.3-0.4-24.4-1.2c-57.7-68.3-127.9-123-208.7-162.6c-3-8.3-5.6-16.9-7.7-25.6c18.3,0.4,36.7,1.6,54.8,3.6
			v25.3c0,4.4,3.1,8.1,7.4,8.9l66,11.5c66.5,32.7,126.2,77,177.7,131.6C2538.3,2987.7,2516.5,2990.7,2494,2990.7z M2653.9,2932.4
			c-41.7-34.7-87.3-64-136.1-87.1c26.4-10.4,53.3-18.9,80.7-25.6c-5.3,9.5-10.4,19.1-15.1,28.8c-2.2,4.5-0.4,9.8,4.1,12
			c1.3,0.6,2.6,0.9,4,0.9c3.3,0,6.5-1.8,8.1-5c7-14.3,14.7-28.4,22.7-42.1c16.6-3.4,33.3-6.2,50.2-8.3c-15,25.6-28.3,52.2-39.6,79.3
			c-1.9,4.6,0.3,9.8,4.8,11.7c1.1,0.5,2.3,0.7,3.4,0.7c3.5,0,6.9-2.1,8.3-5.5c12.6-30.4,27.9-60.1,45.2-88.4
			c13.4-1.2,26.9-2.1,40.5-2.4C2722.5,2853.8,2693.3,2899.2,2653.9,2932.4z"/>
		<path d="M2435.2,2839.5c5,0,9-4,9-9V2808c0-5-4-9-9-9s-9,4-9,9v22.6C2426.2,2835.5,2430.2,2839.5,2435.2,2839.5z"/>
	</g>
</g>
<g>
	<g>
		<g>
			<path class="st17" d="M40.8,31.1l-8.5-9.3v-5.2c1.9-0.6,3.3-2.4,3.3-4.6c0-2.6-2.1-4.8-4.8-4.8H14.7C12,7.2,9.9,9.3,9.9,12
				c0,2.1,1.4,3.9,3.3,4.6v5.2l-8.7,9.5c-1.3,1.4-2.1,3.1-2.1,5v40.5c0,4,3.2,7.2,7.2,7.2h26.3c4,0,7.2-3.2,7.2-7.2V36.2
				C43,34.3,42.3,32.4,40.8,31.1z"/>
			<path class="st18" d="M38.7,36.9c-0.1-1.6-1.5-2.9-3.1-2.9H9.9c-1.7,0-3,1.3-3.1,2.9l0,0V74c0,3.1,2.5,5.6,5.6,5.6h20.7
				c3.1,0,5.6-2.5,5.6-5.6L38.7,36.9L38.7,36.9z"/>
			<path class="st19" d="M40.8,31.1l-8.5-9.3v-5.2c1.9-0.6,3.3-2.4,3.3-4.6c0-2.6-2.1-4.8-4.8-4.8h-5c2.6,0,4.8,2.2,4.8,4.8
				c0,2.1-1.4,3.9-3.3,4.6v5.2l3.6,9.3c1.4,1.4,2.2,3.2,2.2,5.2v40.5c0,4-3.2,7.2-7.2,7.2h10c4,0,7.2-3.2,7.2-7.2V36.2
				C43,34.3,42.3,32.4,40.8,31.1z"/>
			<path class="st20" d="M40.8,31.1l-8.5-9.3v-5.2c1.9-0.6,3.3-2.4,3.3-4.6c0-2.6-2.1-4.8-4.8-4.8h-5c2.6,0,4.8,2.2,4.8,4.8
				c0,2.1-1.4,3.9-3.3,4.6v5.2c0,0,2.2,10.3,2.2,12.2h0.6l-0.3,45.4L29,79.6c-1.1,2.6-3.6,4.4-6.6,4.4h13.5c4,0,7.2-3.2,7.2-7.2
				V36.2C43,34.3,42.3,32.4,40.8,31.1z"/>
			<path class="st21" d="M38.7,36.9c-0.1-1.6-1.5-2.9-3.1-2.9h-6v6.3v36.5c0,1-0.2,2-0.6,2.8h4.1c3.1,0,5.6-2.5,5.6-5.6V36.9
				L38.7,36.9z"/>
		</g>
		<path class="st11" d="M18.6,29.4c2.3,1.3,2.9,4.7,1.3,7.5c-1.6,2.8-4.8,4.1-7.1,2.8s-2.9-4.7-1.3-7.5
			C13.1,29.3,16.2,28.1,18.6,29.4z"/>
		<path class="st11" d="M20.8,11.3c0,1.4-1.4,2.6-3.2,2.6s-3.2-1.2-3.2-2.6s1.4-2.6,3.2-2.6C19.3,8.7,20.8,9.9,20.8,11.3z"/>
	</g>
	<path class="st0" d="M35.9,84.4H9.6c-4.5,0-8.2-3.7-8.2-8.2V35.7c0-2.1,0.8-4.2,2.3-5.7l8.4-9.2v-4.1c-2-1-3.3-3-3.3-5.2
		c0-3.2,2.6-5.8,5.8-5.8h16.1c3.2,0,5.8,2.6,5.8,5.8c0,2.3-1.3,4.3-3.3,5.2v4.1l8.2,9c1.6,1.6,2.5,3.7,2.5,5.9v40.5
		C44.1,80.7,40.4,84.4,35.9,84.4z M14.7,7.6c-2.1,0-3.8,1.7-3.8,3.8c0,1.6,1,3.1,2.6,3.6c0.4,0.1,0.7,0.5,0.7,1v5.2
		c0,0.3-0.1,0.5-0.3,0.7l-8.7,9.5c-1.2,1.2-1.8,2.7-1.8,4.3v40.5c0,3.4,2.8,6.1,6.1,6.1h26.3c3.4,0,6.1-2.8,6.1-6.1V35.7
		c0-1.7-0.7-3.3-1.9-4.4c0,0,0,0-0.1-0.1l-8.5-9.3c-0.2-0.2-0.3-0.4-0.3-0.7V16c0-0.4,0.3-0.8,0.7-1c1.5-0.5,2.6-2,2.6-3.6
		c0-2.1-1.7-3.8-3.8-3.8C30.6,7.6,14.7,7.6,14.7,7.6z"/>
	<path class="st0" d="M33.1,80.1H12.4c-3.7,0-6.7-3-6.7-6.7V36.3c0-0.1,0-0.2,0-0.3c0.3-2.1,2-3.7,4.1-3.7h25.6
		c2.1,0,3.9,1.6,4.1,3.7c0,0.1,0,0.2,0,0.3v37.1C39.7,77.1,36.7,80.1,33.1,80.1z M7.8,36.5v36.9c0,2.5,2.1,4.6,4.6,4.6h20.7
		c2.5,0,4.6-2.1,4.6-4.6V36.5v-0.1c-0.1-1.1-1-2-2.1-2H9.9C8.8,34.4,7.9,35.3,7.8,36.5C7.8,36.5,7.8,36.5,7.8,36.5z"/>
</g>
<g>
	<g>
		<path class="st22" d="M61.2,79.5c0,2.5-2,4.6-4.6,4.6h-6.4c-2.5,0-4.6-2-4.6-4.6V78c0-2.5,2-4.6,4.6-4.6h6.4c2.5,0,4.6,2,4.6,4.6
			V79.5z"/>
		<path class="st23" d="M56.7,73.4c0.6,0.8,1,1.7,1,2.8v1.5c0,2.5-2,4.6-4.6,4.6h-6.4h-0.1c0.8,1.1,2.1,1.8,3.6,1.8h6.4
			c2.5,0,4.6-2,4.6-4.6V78C61.2,75.5,59.2,73.5,56.7,73.4z"/>
		<g>
			<path class="st24" d="M81.4,59.8c0,10-8.1,18.1-18.1,18.1s-18.1-8.1-18.1-18.1s8.1-18.1,18.1-18.1C73.3,41.6,81.4,49.8,81.4,59.8
				z"/>
			<path class="st24" d="M61.7,59.8c0,10-8.1,18.1-18.1,18.1c-10.1,0-18.2-8.1-18.2-18.1s8.1-18.1,18.1-18.1
				C53.6,41.6,61.7,49.8,61.7,59.8z"/>
			<path class="st25" d="M75.3,56.1c0,12.1-9.8,21.9-21.9,21.9s-21.9-9.8-21.9-21.9s9.8-21.9,21.9-21.9S75.3,44,75.3,56.1z"/>
		</g>
		<path class="st22" d="M51.6,58.7c0-1,3.7-1,3.7,0v16.6c0,1-0.8,1.9-1.9,1.9l0,0c-1,0-1.9-0.8-1.9-1.9L51.6,58.7L51.6,58.7z"/>
		<g>
			<path class="st22" d="M66.6,61L66.6,61c-0.6-0.6-1.5-0.6-2.1,0l-10,10c0,1.3,0,2.7,0.1,4l12-12C67.2,62.5,67.2,61.6,66.6,61z"/>
			<path class="st22" d="M54.3,61.5l8.8-8.8c0.6-0.6,0.6-1.5,0-2l0,0c-0.6-0.6-1.5-0.6-2,0l-7.6,7.6l-7.6-7.6c-0.6-0.6-1.5-0.6-2,0
				l0,0c-0.6,0.6-0.6,1.5,0,2l8.8,8.8c0.1,0.4,0.2,0.9,0.2,1.3l0.5-0.5l0.5,0.5C54.1,62.4,54.2,61.9,54.3,61.5z"/>
			<path class="st22" d="M40.4,61L40.4,61c-0.6,0.6-0.6,1.5,0,2.1l12,12c0-1.3,0.1-2.7,0.1-4L42.4,61C41.9,60.4,41,60.4,40.4,61z"/>
		</g>
		<path class="st22" d="M53.4,42L53.4,42c-0.8,0-1.5,0.6-1.5,1.4v14.2c1,0.9,1.9,1.9,2.9,2.8v-17C54.8,42.6,54.2,42,53.4,42z"/>
		<path class="st22" d="M50.8,72.5c0-0.4,5.2-0.4,5.2,0v5.2c0,0.4-1.2,0.8-2.6,0.8l0,0c-1.4,0-2.6-0.3-2.6-0.8
			C50.8,77.7,50.8,72.5,50.8,72.5z"/>
	</g>
	<path class="st0" d="M71.7,42.6C67.5,36.8,60.7,33,53,33s-14.5,3.8-18.7,9.6c-6.2,3.2-10.5,9.7-10.5,17.2
		c0,10.7,8.7,19.4,19.4,19.4c0.3,0,0.6,0,0.9,0c0.2,3,2.7,5.5,5.8,5.5h6.4c3.1,0,5.6-2.4,5.8-5.5c0.3,0,0.6,0,0.8,0
		c10.7,0,19.4-8.7,19.4-19.4C82.3,52.3,78,45.8,71.7,42.6z M53,35.5c11.4,0,20.6,9.2,20.6,20.6C73.6,67,65,76,54.2,76.7v-4.9l11-11
		c0.5-0.5,0.5-1.3,0-1.8s-1.3-0.5-1.8,0l-9.3,9.3V58.1l6.7-6.7c0.5-0.5,0.5-1.3,0-1.8s-1.3-0.5-1.8,0l-4.9,4.9V43.1
		c0-0.7-0.6-1.2-1.2-1.2c-0.6,0-1.2,0.6-1.2,1.2v11.5l-4.9-4.9c-0.5-0.5-1.3-0.5-1.8,0s-0.5,1.3,0,1.8l6.7,6.7v10.2L42.5,59
		c-0.5-0.5-1.3-0.5-1.8,0s-0.5,1.3,0,1.8l11,11v4.9C41,76,32.4,67.1,32.4,56.1C32.4,44.7,41.7,35.5,53,35.5z M26.3,59.8
		c0-4.8,2-9.2,5.3-12.3c-1.1,2.7-1.7,5.5-1.7,8.6c0,9,5.2,16.8,12.7,20.6C33.5,76.4,26.3,68.9,26.3,59.8z M56.2,82.2h-6.4
		c-1.8,0-3.3-1.5-3.3-3.3c0.4-0.1,0.9-0.2,1.3-0.3c1.7,0.4,3.4,0.6,5.1,0.6c1.8,0,3.5-0.2,5.1-0.6c0.5,0.1,0.9,0.2,1.4,0.3
		C59.5,80.7,58,82.2,56.2,82.2z M63.5,76.7c7.5-3.8,12.7-11.6,12.7-20.6c0-3-0.6-5.9-1.7-8.6c3.3,3.1,5.3,7.4,5.3,12.3
		C79.8,68.9,72.5,76.4,63.5,76.7z"/>
</g>
<g>
	<g>
		<path class="st26" d="M85.2,51.7H74.6c-7.1,0-12.8,5.7-12.8,12.8v2.6c0,9.6,8.1,17.4,18.1,17.4S98,76.7,98,67.1v-2.6
			C98,57.4,92.3,51.7,85.2,51.7z"/>
		<path class="st27" d="M91,53.1c1.6,2.1,2.5,4.7,2.5,7.6v2.6c0,9.6-8.1,17.4-18.1,17.4c-3.6,0-6.9-1-9.7-2.7
			c3.3,4,8.4,6.5,14.2,6.5c10,0,18.1-7.8,18.1-17.4v-2.6C98,59.5,95.2,55.2,91,53.1z"/>
		<path class="st28" d="M74.9,57.4c1.5,1.5,1.2,4.3-0.6,6.1c-1.9,1.9-4.6,2.2-6.1,0.6c-1.5-1.5-1.2-4.3,0.6-6.1
			C70.6,56.1,73.4,55.8,74.9,57.4z"/>
		<g>
			<path class="st1" d="M81.9,52.4c0,0.6-0.5,1.1-1.1,1.1h-1.7c-0.6,0-1.1-0.5-1.1-1.1v-7.5c0-0.6,0.5-1.1,1.1-1.1h1.7
				c0.6,0,1.1,0.5,1.1,1.1V52.4z"/>
			<g>
				<path class="st1" d="M75,47.6L75,47.6c4.6,2,4.9,6,4.9,6s-4.7,1.8-9.2-0.2l0,0l0,0c-4.3-1.9-4.9-6-4.9-6S70.6,45.7,75,47.6
					L75,47.6z"/>
				<path class="st5" d="M75,47.6L75,47.6c4.6,2,4.9,6,4.9,6l-14.1-6.2C65.8,47.4,70.6,45.7,75,47.6L75,47.6z"/>
			</g>
			<g>
				<path class="st1" d="M84.8,47.6L84.8,47.6c-4.6,2-4.9,6-4.9,6s4.7,1.8,9.2-0.2l0,0l0,0c4.3-1.9,4.9-6,4.9-6S89.1,45.7,84.8,47.6
					L84.8,47.6z"/>
				<path class="st5" d="M84.8,47.6L84.8,47.6c-4.6,2-4.9,6-4.9,6L94,47.4C94,47.4,89.1,45.7,84.8,47.6L84.8,47.6z"/>
			</g>
		</g>
	</g>
	<path class="st0" d="M92.3,52c2.3-2.2,2.8-4.9,2.8-5c0.1-0.5-0.2-1-0.7-1.1c-0.1,0-2.2-0.8-4.9-0.8c-1.8,0-3.5,0.3-4.9,1l0,0h-0.1
		c-0.5,0.2-1,0.5-1.4,0.8v-2.4c0-1.2-1-2.2-2.2-2.2h-1.7c-1.2,0-2.2,1-2.2,2.2v2.4c-0.4-0.3-0.9-0.5-1.4-0.8h-0.1l0,0
		c-1.5-0.6-3.1-1-4.9-1c-2.7,0-4.9,0.7-4.9,0.8c-0.5,0.2-0.8,0.6-0.7,1.1c0,0.1,0.4,2.8,2.8,5c-4.1,2.4-6.8,6.9-6.8,11.9v2.6
		c0,10.2,8.6,18.4,19.2,18.4s19.2-8.3,19.2-18.4V64C99.1,58.9,96.3,54.5,92.3,52z M85.1,48.1C85.2,48,85.2,48,85.1,48.1
		C85.2,48,85.2,48,85.1,48.1c1.3-0.6,2.7-0.8,4.2-0.8c1.3,0,2.5,0.2,3.3,0.4c-0.4,1.2-1.4,3.1-4,4.3h-0.1c-1.2,0.5-2.7,0.8-4.2,0.8
		c-1.4,0-2.5-0.2-3.3-0.4C81.5,51.2,82.5,49.3,85.1,48.1z M79,44.4h1.7c0,0,0.1,0,0.1,0.1v4.2c-0.4,0.4-0.7,0.9-0.9,1.3
		c-0.3-0.4-0.6-0.9-0.9-1.3L79,44.4C78.9,44.4,79,44.4,79,44.4z M67.1,47.6c0.8-0.2,1.9-0.4,3.3-0.4c1.5,0,2.9,0.3,4.1,0.8
		c0,0,0,0,0.1,0l0,0c2.7,1.2,3.7,3.2,4,4.3c-0.8,0.2-1.9,0.4-3.3,0.4c-1.5,0-2.9-0.3-4.2-0.8H71C68.5,50.7,67.5,48.7,67.1,47.6z
		 M96.9,66.6c0,9-7.7,16.3-17.1,16.3s-17.1-7.3-17.1-16.3V64c0-4.6,2.7-8.6,6.6-10.6c0.3,0.1,0.5,0.3,0.8,0.4h0.1l0,0
		c1.5,0.6,3.2,1,5,1c2.1,0,3.8-0.5,4.5-0.7c0.7,0.2,2.4,0.7,4.6,0.7c1.8,0,3.5-0.3,5-1l0,0c0,0,0,0,0.1,0c0.3-0.1,0.6-0.3,0.8-0.4
		c3.9,1.9,6.6,5.9,6.6,10.6L96.9,66.6L96.9,66.6z"/>
</g>
<g>
	<g>
		<path class="st1" d="M117.1,75.2c-1.4,0.4-2.9-0.6-3.2-2l0,0c-0.4-1.4,0.6-2.9,2-3.2l4.3-1c1.4-0.4,2.9,0.6,3.2,2l0,0
			c0.4,1.4-0.6,2.9-2,3.2L117.1,75.2z"/>
		<g>
			<g>
				<path class="st1" d="M126.5,74.1L126.5,74.1c-4.4,1.1-7.6-1.9-7.6-1.9s1.7-4.1,5.9-5.1l0,0l0,0c4.1-0.9,7.6,1.9,7.6,1.9
					S130.7,73.1,126.5,74.1L126.5,74.1z"/>
			</g>
			<g>
				<path class="st5" d="M123.3,79.2L123.3,79.2c-3.8-2.7-4.3-7-4.3-7s3.8-1.4,7.5,1.2l0,0l0,0c3.6,2.5,4.3,7,4.3,7
					S126.9,81.7,123.3,79.2L123.3,79.2z"/>
				<path class="st1" d="M123.3,79.2L123.3,79.2c-3.8-2.7-4.3-7-4.3-7l11.8,8.2C130.8,80.3,126.9,81.7,123.3,79.2L123.3,79.2z"/>
			</g>
			<g>
				<path class="st1" d="M125.2,67.6L125.2,67.6c-2.2,4-6.2,4.3-6.2,4.3s-1.4-4.2,0.7-8.2l0,0l0,0c2.1-3.8,6.2-4.3,6.2-4.3
					S127.3,63.7,125.2,67.6L125.2,67.6z"/>
				<path class="st5" d="M125.2,67.6L125.2,67.6c-2.2,4-6.2,4.3-6.2,4.3l6.9-12.5C125.9,59.4,127.3,63.7,125.2,67.6L125.2,67.6z"/>
			</g>
		</g>
		<path class="st29" d="M117.7,72.3L117.7,72.3L117.7,72.3L117.7,72.3L117.7,72.3c-2.1-8.6-9-7.9-10.9-7.2L76.5,78.5
			c-2,0.8-3.1,1.8-2.6,3.9l0,0l0,0l0,0l0,0c0.5,2.1,2,2.5,4.1,2.3l33.2-1.4C113.2,83.3,119.7,81,117.7,72.3z"/>
		<path class="st30" d="M118.1,76c-1.7,2.8-4.8,3.8-6.1,3.8l-34.7,1.7c-1.5,0.2-3.2,0-3.4-0.8c-0.2,0.5-0.2,1.1-0.1,1.8l0,0l0,0l0,0
			l0,0c0.5,2.1,2,2.5,4.1,2.3l33.2-1.4C112.9,83.4,117.8,81.6,118.1,76z"/>
		<path class="st30" d="M109.3,68.7c-0.2-0.6,0.2-1.1,0.7-1.3l0,0c0.6-0.2,1.1,0.2,1.3,0.7l0.5,2.4c0.2,0.6-0.2,1.1-0.7,1.3l0,0
			c-0.6,0.2-1.1-0.2-1.3-0.7L109.3,68.7z"/>
		<path class="st30" d="M105.2,77.9c-0.2-0.6,0.2-1.1,0.7-1.3l0,0c0.6-0.2,1.1,0.2,1.3,0.7l0.5,2.4c0.2,0.6-0.2,1.1-0.7,1.3l0,0
			c-0.6,0.2-1.1-0.2-1.3-0.7L105.2,77.9z"/>
		<path class="st30" d="M96.2,74.2c-0.2-0.6,0.2-1.1,0.7-1.3l0,0c0.6-0.2,1.1,0.2,1.3,0.7l0.5,2.4c0.2,0.6-0.2,1.1-0.7,1.3l0,0
			c-0.6,0.2-1.1-0.2-1.3-0.7L96.2,74.2z"/>
		<path class="st30" d="M87.1,79.6c-0.2-0.6,0.2-1.1,0.7-1.3l0,0c0.6-0.2,1.1,0.2,1.3,0.7l0.5,2.4c0.2,0.6-0.2,1.1-0.7,1.3l0,0
			c-0.6,0.2-1.1-0.2-1.3-0.7L87.1,79.6z"/>
	</g>
	<g>
		<path class="st0" d="M118.6,75.7c0.7,1.2,1.7,2.6,3.3,3.7c0,0,0,0.1,0.1,0c4.1,2.8,8.4,1.3,8.5,1.2c0.6-0.2,0.8-0.8,0.8-1.3
			c0,0,0-0.2-0.1-0.6c-0.2-1.1-1-3.3-2.5-5.3c3-1.7,4.2-4.6,4.3-4.7c0.2-0.4,0-1-0.4-1.4c-0.2-0.1-2.6-2.1-6-2.4c0.6-2.5,0.3-5,0-6
			c-0.1-0.4-0.2-0.7-0.2-0.7c-0.2-0.6-0.7-0.9-1.3-0.8c-0.2,0-4.7,0.6-7.2,4.9c0,0,0,0-0.1,0c-0.9,1.7-1.3,3.3-1.3,4.8
			c-0.9-1.4-2.1-2.5-3.5-3.4c-2.9-1.6-6.1-1.1-7.4-0.5l-14.4,6.3c-0.1,0-0.2,0-0.3,0c-0.2,0-0.4,0.2-0.6,0.3l-15.1,6.7
			c-1,0.4-4.1,1.6-3.4,5.2l0,0.1c0,0,0,0,0,0.1l0,0.1c0.9,3.4,4.3,3.2,5.4,3.1l33.3-1.3c1.3-0.1,4.4-1.1,6.3-3.7
			C117.9,78.9,118.5,77.3,118.6,75.7z M123.4,77.3C123.4,77.3,123.2,77.3,123.4,77.3c-2.2-1.6-3.1-3.8-3.6-5.1
			c1.3-0.2,3.3-0.2,5.4,1.2c0,0,0,0,0,0.1l0,0c2.1,1.4,3,3.8,3.4,5.1C127.4,78.8,125.3,78.7,123.4,77.3z M130.3,68.5
			c-0.5,0.9-1.7,2.3-3.5,3.1c0-0.1-0.1,0-0.2-0.1c0,0,0,0,0-0.1l0,0c-1-0.7-2.1-1.2-3.2-1.4c0.8-0.7,1.6-1.6,2.2-2.7c0,0,0,0,0.1,0
			C127.6,67.2,129.3,67.9,130.3,68.5z M120.1,63.4c1.2-2.1,3.1-3,4.2-3.4c0.3,1.4,0.4,3.8-0.9,6.1c0,0-0.1,0,0,0.1
			c-1.3,2.2-3.1,3.1-4.2,3.4C119,68.4,118.8,65.8,120.1,63.4L120.1,63.4z M110.4,81.5l-21,0.9l-0.5-2.4c-0.1-0.7-0.8-1.1-1.5-0.9
			c-0.7,0.1-1.1,0.8-0.9,1.5l0.5,2l-9.8,0.4c-2.1,0.1-2.6-0.4-2.8-1.4l0,0c-0.2-1.1,0-1.8,2-2.5l14.3-6.3l0.4,1.4
			c0.1,0.7,0.8,1.1,1.5,0.9c0.7-0.1,1.1-0.8,0.9-1.5l-0.6-1.9l13.9-6.2c0.7-0.2,3.1-0.8,5.4,0.4c2,1,3.3,3,3.9,5.9
			c0.7,2.9,0.4,5.2-0.9,6.9C113.5,80.8,111.1,81.5,110.4,81.5z"/>
		<path class="st0" d="M109.5,71.2l-0.7-2.9c-0.1-0.7-0.8-1.1-1.5-0.9c-0.7,0.1-1.1,0.8-0.9,1.5l0.7,2.9c0.1,0.7,0.8,1.1,1.5,0.9
			C109.2,72.5,109.6,71.8,109.5,71.2z"/>
		<path class="st0" d="M103.1,78.4l-0.7-2.9c-0.1-0.7-0.8-1.1-1.5-0.9c-0.7,0.1-1.1,0.8-0.9,1.5l0.7,2.9c0.1,0.7,0.8,1.1,1.5,0.9
			C102.9,79.8,103.2,79.1,103.1,78.4z"/>
	</g>
</g>
</svg>
