<?xml version="1.0" encoding="utf-8"?>
<!-- Generator: Adobe Illustrator 24.2.3, SVG Export Plug-In . SVG Version: 6.00 Build 0)  -->
<svg version="1.1" id="Layer_1" xmlns="http://www.w3.org/2000/svg" xmlns:xlink="http://www.w3.org/1999/xlink" x="0px" y="0px"
	 viewBox="0 0 75 75" style="enable-background:new 0 0 75 75;" xml:space="preserve">
<style type="text/css">
	.st0{fill:#FFDFC7;}
	.st1{fill:#D3A390;}
	.st2{fill:#F09300;}
	.st3{fill:#CE6E0F;}
	.st4{fill:#F7B000;}
	.st5{fill:#FFBC15;}
	.st6{fill:#231F20;stroke:#231F20;stroke-width:0.75;stroke-miterlimit:10;}
	.st7{fill:#E83636;}
	.st8{fill:#BF132C;}
	.st9{fill:#FFA05F;}
	.st10{fill:#92C100;}
	.st11{fill:#68A508;}
	.st12{fill:#FFE000;}
	.st13{fill:#F2C300;}
	.st14{fill:#231F20;}
	.st15{fill:#FDD6A9;}
</style>
<g>
	<path class="st0" d="M33.7,41.1l-2.2,3.1c-1.4-0.9-3.2-0.6-4.2,0.8c-1,1.4-0.7,3.3,0.7,4.3c0.8,0.6,1.8,0.7,2.7,0.4
		c0,0.9,0.5,1.8,1.3,2.4c1.4,1,3.3,0.7,4.3-0.7c1-1.3,0.7-3.2-0.6-4.2l2.2-3.1L33.7,41.1z"/>
	<path class="st1" d="M37.8,44.2L36.2,43l-2.3,3.1c1,0.8,1.2,2.3,0.5,3.3c-0.8,1.1-2.3,1.3-3.4,0.6c-0.6-0.5-1-1.2-1-1.9
		c-0.7,0.2-1.5,0.1-2.1-0.4c-0.7-0.5-1-1.2-1-2c-0.5,1.3,0,2.7,1.1,3.5c0.8,0.6,1.8,0.7,2.7,0.4c0,0.9,0.5,1.8,1.3,2.4
		c1.4,1,3.3,0.7,4.3-0.7c1-1.3,0.7-3.2-0.6-4.2L37.8,44.2z"/>
	<g>
		<g>
			<path class="st2" d="M51.8,37.9C51.8,37.9,51.8,37.9,51.8,37.9L51.8,37.9c2-1,3.7-2.5,5.1-4.4c4.3-5.9,2.8-13-2.5-16.8
				c-5.3-3.8-12.4-3-16.7,2.9c-1.4,1.9-2.3,4.1-2.6,6.3l0,0c0,0,0,0,0,0c-0.2,1-0.2,2-0.1,3c-0.3,6.5-0.1,6.4-2,9.2l-0.8,1.1
				c-0.5,0.7-0.3,1.6,0.3,2.1l5.4,3.9c0.7,0.5,1.6,0.3,2.1-0.3l0.8-1.1c2-2.6,2-2.4,8.1-4.7C49.9,38.7,50.9,38.4,51.8,37.9z"/>
		</g>
	</g>
	<g>
		<path class="st3" d="M54.5,16.7c-0.6-0.4-1.2-0.8-1.8-1.1c4,4,4.7,10.1,0.9,15.4c-1.4,1.9-3.2,3.4-5.1,4.4l0,0c0,0,0,0,0,0
			c-0.9,0.5-1.9,0.8-2.8,1.1c-6.1,2.3-6,2.2-8.1,4.7l-0.8,1.1c-0.5,0.7-1.4,0.8-2.1,0.3l3.3,2.4c0.7,0.5,1.6,0.3,2.1-0.3l0.8-1.1
			c2-2.6,2-2.4,8.1-4.7c1-0.2,1.9-0.6,2.8-1.1c0,0,0,0,0,0l0,0c1.9-1,3.7-2.5,5.1-4.4C61.2,27.5,59.8,20.5,54.5,16.7z"/>
	</g>
	<path class="st4" d="M44,19c1.1,0.8,1.2,2.6,0.2,4c-1,1.4-2.7,1.8-3.9,1c-1.1-0.8-1.2-2.6-0.2-4C41.2,18.6,42.9,18.2,44,19z"/>
	<path class="st5" d="M44,19c1.1,0.8,1.2,2.6,0.2,4c-1,1.4-2.7,1.8-3.9,1c-1.1-0.8-1.2-2.6-0.2-4C41.2,18.6,42.9,18.2,44,19z"/>
</g>
<path class="st6" d="M54.8,16.3c-2.7-2-6-2.8-9.1-2.3c-3.2,0.5-6.1,2.4-8.2,5.3c-1.4,1.9-2.3,4.1-2.7,6.4c0,0,0,0,0,0.1c0,0,0,0,0,0
	c-0.2,1-0.2,2-0.1,3l-0.1,1.4c-0.2,5-0.2,5-1.8,7.3L32,38.7c-0.7,0.9-0.4,2.2,0.5,2.8l0.2,0.1l-1.2,1.6C30.8,43,30,42.9,29.3,43
	c-1,0.2-1.8,0.7-2.3,1.4c-0.6,0.8-0.8,1.7-0.6,2.7c0.2,1,0.7,1.8,1.5,2.4c0.7,0.5,1.6,0.8,2.5,0.7c0.2,0.9,0.7,1.6,1.4,2.2
	c0.8,0.6,1.7,0.8,2.7,0.6c1-0.2,1.8-0.7,2.3-1.5c1-1.4,0.9-3.3-0.3-4.6l1.2-1.6l0.2,0.1c0.4,0.3,1,0.4,1.5,0.4
	c0.5-0.1,1-0.4,1.3-0.8l0.8-1.1c1.8-2.2,1.8-2.2,6.4-4l1.3-0.5c1-0.2,2-0.6,2.8-1.1c0,0,0.1,0,0.1-0.1c2-1.1,3.9-2.6,5.2-4.5
	c2.1-2.9,3-6.3,2.4-9.5C59.3,21.1,57.5,18.3,54.8,16.3z M35.2,46.7c-0.2,0.2-0.1,0.6,0.1,0.8c1,0.8,1.3,2.3,0.5,3.4
	c-0.4,0.5-1,0.9-1.6,1c-0.7,0.1-1.3,0-1.8-0.4c-0.6-0.5-1-1.2-1-2c0-0.2-0.1-0.3-0.2-0.4c-0.1-0.1-0.3-0.1-0.4-0.1c0,0-0.1,0-0.1,0
	c-0.7,0.2-1.5,0.1-2.2-0.4c-0.5-0.4-0.9-1-1-1.6c-0.1-0.7,0-1.3,0.4-1.8c0.4-0.5,1-0.9,1.6-1c0.6-0.1,1.2,0,1.8,0.4
	c0.3,0.2,0.6,0.1,0.8-0.1l1.5-2.1l3.2,2.3L35.2,46.7z M56.4,33.1c-1.3,1.8-3,3.2-4.9,4.2c0,0,0,0,0,0c-0.9,0.4-1.8,0.8-2.7,1
	c0,0,0,0-0.1,0l-1.4,0.5c-4.6,1.8-4.9,1.9-6.9,4.4l-0.8,1.1c-0.3,0.4-0.9,0.5-1.2,0.2l-5.4-3.9c-0.4-0.3-0.5-0.8-0.2-1.2l0.8-1.1
	c1.7-2.6,1.8-2.9,2-7.9l0.1-1.5c0,0,0,0,0-0.1c-0.1-0.9,0-1.9,0.1-2.9c0,0,0,0,0,0c0.3-2.1,1.2-4.2,2.5-6c1.9-2.7,4.5-4.4,7.5-4.9
	c2.8-0.5,5.8,0.3,8.3,2.1c2.5,1.8,4.1,4.3,4.6,7.2C59.1,27.3,58.3,30.4,56.4,33.1z"/>
<g>
	<path class="st7" d="M41.5,31.9c2.7,0,3.7,0.8,3.7,0.8c1.6,0.8,3.2,0.6,4.4,0c0,0,1.3-0.8,3.7-0.8c4.2,0,7.6,3.9,7.6,8.2
		c0,9.6-6,14.8-13.5,14.8C40,54.9,34,49.8,34,40.1C34,35.8,37.4,31.9,41.5,31.9z"/>
	<path class="st8" d="M55.8,32.4c1.4,1.4,2,3.4,2,5.5c0,9.6-6,14.8-13.5,14.8c-2.3,0-4.5-0.5-6.4-1.5c2.4,2.5,5.8,3.8,9.5,3.8
		c7.5,0,13.5-5.2,13.5-14.8C61,36.7,58.8,33.5,55.8,32.4z"/>
	<path class="st9" d="M42.7,35.1c1.1,1.1,0.9,3-0.4,4.2c-1.3,1.3-3.2,1.5-4.2,0.4c-1.1-1.1-0.9-3,0.4-4.2
		C39.7,34.3,41.6,34.1,42.7,35.1z"/>
	<g>
		<path class="st10" d="M52.3,30.3C52.3,30.3,52.3,30.3,52.3,30.3c2.2-2.2,1.8-5,1.8-5s-2.9-0.3-5,1.8c0,0,0,0,0,0c0,0,0,0,0,0
			c-2.1,2.1-1.8,5-1.8,5S50.2,32.4,52.3,30.3C52.3,30.3,52.3,30.3,52.3,30.3z"/>
		<path class="st11" d="M52.3,30.3C52.3,30.3,52.3,30.3,52.3,30.3c2.2-2.2,1.8-5,1.8-5l-6.8,6.8C47.3,32.1,50.2,32.4,52.3,30.3
			C52.3,30.3,52.3,30.3,52.3,30.3z"/>
	</g>
</g>
<g>
	<path class="st11" d="M28,44.2V58h0.2c4.3,0,7.9-3.8,7.9-8.4V35.9h-0.7C31,35.9,28,39.5,28,44.2z"/>
	<path class="st12" d="M33.9,48.3c0,4.2-3.4,7.6-7.6,7.6h-1c-4.2,0-7.6-3.4-7.6-7.6V23.8c0-4.2,3.4-7.6,7.6-7.6h1
		c4.2,0,7.6,3.4,7.6,7.6V48.3z"/>
	<path class="st13" d="M28.6,16.5c1.2,1.3,1.9,3.1,1.9,5v24.5c0,4.2-0.8,7.6-7.6,7.6h-1c-0.8,0-1.6-0.1-2.4-0.4
		c1.4,1.6,3.5,2.6,5.8,2.6h1c4.2,0,7.6-2.6,7.6-7.6V23.8C33.9,20.4,31.7,17.5,28.6,16.5z"/>
	<path class="st10" d="M17.2,30.9h-1.9v15.8c0,6.3,4.8,11.4,10.8,11.4H28V42.3C28,36,23.2,30.9,17.2,30.9z"/>
	<path class="st11" d="M17.2,30.9h-1.9v0c5.9,0.1,10.6,5.1,10.6,11.4V58c0.1,0,0.1,0,0.2,0H28V42.3C28,36,23.2,30.9,17.2,30.9z"/>
	<g>
		<path class="st13" d="M28.7,28.2h-2.3c-0.5,0-1-0.4-1-1s0.4-1,1-1h2.3c0.5,0,1,0.4,1,1S29.2,28.2,28.7,28.2z"/>
		<path class="st13" d="M22.8,30.5h-2.3c-0.5,0-1-0.4-1-1s0.4-1,1-1h2.3c0.5,0,1,0.4,1,1S23.4,30.5,22.8,30.5z"/>
		<path class="st13" d="M22.8,26h-2.3c-0.5,0-1-0.4-1-1s0.4-1,1-1h2.3c0.5,0,1,0.4,1,1S23.4,26,22.8,26z"/>
		<path class="st13" d="M28.7,32.7h-2.3c-0.5,0-1-0.4-1-1s0.4-1,1-1h2.3c0.5,0,1,0.4,1,1S29.2,32.7,28.7,32.7z"/>
		<path class="st13" d="M28.7,23.7h-2.3c-0.5,0-1-0.4-1-1c0-0.5,0.4-1,1-1h2.3c0.5,0,1,0.4,1,1C29.7,23.3,29.2,23.7,28.7,23.7z"/>
		<path class="st13" d="M22.8,21.4h-2.3c-0.5,0-1-0.4-1-1s0.4-1,1-1h2.3c0.5,0,1,0.4,1,1S23.4,21.4,22.8,21.4z"/>
	</g>
</g>
<g>
	<path class="st14" d="M36.9,36h-1.8c-0.2,0-0.4,0-0.5,0V24.9c0-4.8-3.9-8.6-8.6-8.6h-1c-4.8,0-8.6,3.9-8.6,8.6V31h-1.8
		c-0.5,0-1,0.4-1,1v13.5c0,6.8,5.3,12.4,11.7,12.4h2.5h1.3c4.9,0,8.8-4.2,8.8-9.4V37C37.9,36.5,37.5,36,36.9,36z M24.9,18.2h1
		c3.7,0,6.7,3,6.7,6.7v21.7c0,3.5-1.3,5.5-3.9,6.3v-9.5c0-6.3-4.6-11.6-10.4-12.3v-6.2C18.3,21.2,21.3,18.2,24.9,18.2z M15.5,45.5
		V33H17c5.4,0,9.8,4.7,9.8,10.4v10.9v1.7h-1.5C19.8,55.9,15.5,51.3,15.5,45.5z M35.9,48.5c0,4.1-3.1,7.4-6.9,7.4h-0.3v-1
		c3.8-0.9,5.8-3.7,5.8-8.3V38c0.2,0,0.3,0,0.5,0h0.9V48.5z"/>
	<path class="st14" d="M21.1,27.1h2.4c0.5,0,1-0.4,1-1s-0.4-1-1-1h-2.4c-0.5,0-1,0.4-1,1S20.6,27.1,21.1,27.1z"/>
	<path class="st14" d="M21.1,30.6h2.4c0.5,0,1-0.4,1-1s-0.4-1-1-1h-2.4c-0.5,0-1,0.4-1,1S20.6,30.6,21.1,30.6z"/>
	<path class="st14" d="M21.1,23.5h2.4c0.5,0,1-0.4,1-1s-0.4-1-1-1h-2.4c-0.5,0-1,0.4-1,1S20.6,23.5,21.1,23.5z"/>
	<path class="st14" d="M27.3,28.7h2.4c0.5,0,1-0.4,1-1s-0.4-1-1-1h-2.4c-0.5,0-1,0.4-1,1S26.8,28.7,27.3,28.7z"/>
	<path class="st14" d="M27.3,32.3h2.4c0.5,0,1-0.4,1-1s-0.4-1-1-1h-2.4c-0.5,0-1,0.4-1,1S26.8,32.3,27.3,32.3z"/>
	<path class="st14" d="M27.3,25.2h2.4c0.5,0,1-0.4,1-1s-0.4-1-1-1h-2.4c-0.5,0-1,0.4-1,1S26.8,25.2,27.3,25.2z"/>
</g>
<path class="st14" d="M53.4,30.7c-0.1,0-0.1,0-0.2,0c2-2.4,1.6-5.1,1.6-5.2c0-0.3-0.3-0.6-0.6-0.6c0,0-0.2,0-0.5,0
	c-0.9,0-3.2,0.2-5.1,2c0,0,0,0,0,0c-1.7,1.7-2,3.9-2,4.9c-0.3-0.1-0.6-0.2-0.9-0.3c-0.3-0.2-1.5-0.9-4.1-0.9c-4.5,0-8.3,4.1-8.3,9
	c0,9.3,5.7,15.5,14.2,15.5c8.5,0,14.2-6.2,14.2-15.5C61.7,34.8,57.9,30.7,53.4,30.7z M49.5,28C49.6,28,49.6,28,49.5,28
	c1.4-1.4,3-1.6,3.9-1.7c0,0.8-0.3,2.4-1.6,3.8c0,0,0,0-0.1,0c-0.5,0.5-1,0.8-1.4,1c-0.4,0.1-0.6,0.2-0.8,0.3
	c-0.6,0.2-1.1,0.3-1.5,0.3C48,30.9,48.3,29.3,49.5,28z M47.5,53.8c-7.8,0-12.8-5.5-12.8-14.1c0-4,3.2-7.5,6.9-7.5
	c2.3,0,3.3,0.6,3.3,0.6c0,0,0.1,0,0.1,0.1c1.6,0.8,3.4,0.8,5,0c0,0,0,0,0,0c0,0,0,0,0,0c0.3-0.1,0.5-0.2,0.8-0.3
	c0.6-0.2,1.4-0.3,2.5-0.3c3.7,0,6.9,3.5,6.9,7.5C60.2,48.2,55.2,53.8,47.5,53.8z"/>
<g>
	<g>
		<rect x="14.6" y="51.5" class="st15" width="45.9" height="8.5"/>
		<rect x="14.6" y="38.3" class="st15" width="45.9" height="8.5"/>
	</g>
	<g>
		<path d="M60.4,50.3H14.6c-0.7,0-1.2,0.6-1.2,1.2s0.6,1.2,1.2,1.2h44.6v6H15.8v-7.2c0-0.7-0.6-1.2-1.2-1.2c-0.7,0-1.2,0.6-1.2,1.2
			V60c0,0.7,0.6,1.2,1.2,1.2h45.9c0.7,0,1.2-0.6,1.2-1.2v-8.5C61.7,50.8,61.1,50.3,60.4,50.3z"/>
		<path d="M20.2,43.5c0.2-0.2,0.4-0.6,0.4-0.9c0-0.3-0.1-0.6-0.4-0.9c-0.5-0.5-1.3-0.5-1.8,0c-0.2,0.2-0.4,0.5-0.4,0.9
			c0,0.3,0.1,0.6,0.4,0.9c0.2,0.2,0.6,0.4,0.9,0.4C19.6,43.8,19.9,43.7,20.2,43.5z"/>
		<path d="M56.6,43.5c0.2-0.2,0.4-0.6,0.4-0.9c0-0.3-0.1-0.6-0.4-0.9c-0.5-0.5-1.3-0.5-1.8,0c-0.2,0.2-0.4,0.5-0.4,0.9
			c0,0.3,0.1,0.6,0.4,0.9c0.2,0.2,0.6,0.4,0.9,0.4C56.1,43.8,56.4,43.7,56.6,43.5z"/>
		<path d="M20.2,56.7c0.2-0.2,0.4-0.5,0.4-0.9c0-0.3-0.1-0.6-0.4-0.9c-0.5-0.5-1.3-0.5-1.8,0c-0.2,0.2-0.4,0.6-0.4,0.9
			c0,0.3,0.1,0.6,0.4,0.9c0.2,0.2,0.6,0.4,0.9,0.4C19.6,57,19.9,56.9,20.2,56.7z"/>
		<path d="M56.6,56.7c0.2-0.2,0.4-0.5,0.4-0.9c0-0.3-0.1-0.6-0.4-0.9c-0.5-0.5-1.3-0.5-1.8,0c-0.2,0.2-0.4,0.6-0.4,0.9
			c0,0.3,0.1,0.6,0.4,0.9c0.2,0.2,0.6,0.4,0.9,0.4C56.1,57,56.4,56.9,56.6,56.7z"/>
		<path d="M16.4,37.1h-1.8c-0.7,0-1.2,0.6-1.2,1.2c0,0.7,0.6,1.2,1.2,1.2h44.6v6H15.8v-7.2c0-0.7-0.6-1.2-1.2-1.2
			c-0.7,0-1.2,0.6-1.2,1.2v8.5c0,0.7,0.6,1.2,1.2,1.2h45.9c0.7,0,1.2-0.6,1.2-1.2v-8.5c0-0.7-0.6-1.2-1.2-1.2h-2 M25.7,37.1h-6.6
			 M33.3,37.1h-4.8 M45,37.1h-8.6 M55.7,37.1h-4.9"/>
	</g>
</g>
</svg>
