<?xml version="1.0" encoding="utf-8"?>
<!-- Generator: Adobe Illustrator 24.2.3, SVG Export Plug-In . SVG Version: 6.00 Build 0)  -->
<svg version="1.1" id="Layer_1" xmlns="http://www.w3.org/2000/svg" xmlns:xlink="http://www.w3.org/1999/xlink" x="0px" y="0px"
	 viewBox="0 0 55.1 55.5" style="enable-background:new 0 0 55.1 55.5;" xml:space="preserve">
<style type="text/css">
	.st0{fill:#FFFFFF;}
	.st1{fill:#67A7BC;}
	.st2{fill:#7A9C4E;}
	.st3{fill:#73B05A;}
	.st4{fill:#FDC24E;}
	.st5{fill:#EF4E4C;}
	.st6{fill:#9B9B9B;}
	.st7{fill:#901AC1;}
</style>
<g>
	<g>
		<path class="st0" d="M3296.8,2873.7c0-41.2-33.4-74.6-74.6-74.6c-41.2,0-74.6,33.4-74.6,74.6c0,41.2,33.4,74.6,74.6,74.6
			C3263.4,2948.3,3296.8,2914.9,3296.8,2873.7z"/>
		<g>
			<path class="st1" d="M3254.9,2873.7c0-18.1-14.7-32.8-32.8-32.8s-32.8,14.7-32.8,32.8s14.7,32.8,32.8,32.8
				S3254.9,2891.8,3254.9,2873.7z"/>
		</g>
		<path class="st2" d="M3397.7,2479.9c-11.4-2-23,8.6-28.2,24.6c-10.4-13.2-24.9-19.2-34.9-13.4c-11.5,6.7-12.6,26.5-2.4,44.2
			c14.3,24.7,49.3,37,49.3,37s28.7-23.5,33.6-51.6C3418.5,2500.5,3410.8,2482.2,3397.7,2479.9z"/>
		<g>
			<path class="st3" d="M3502.9,2682.8l-14.7,97.6c-3.4,22.5-24.8,41-47.6,41h-138.8c-22.8,0-53-14.6-67.2-32.4l-84.2-106.1h352.5
				V2682.8z"/>
		</g>
		<path class="st4" d="M3375.2,2682.8L3375.2,2682.8c0-40.7-13.7-73.8-48.2-73.8c-9.6,0-17.2,1.7-23.4,4.7
			c-5.7-6.3-13.7-9.9-24.8-9.9s-19.1,3.6-24.8,9.9c-6.2-3-13.8-4.7-23.4-4.7c-34.5,0-48.2,33-48.2,73.8l0,0H3375.2z"/>
		<path class="st0" d="M3508.2,2587c-14.5-14.3-37.9-14-52.2,0.5c-2.8,2.9-4.9,6.5-6.6,9.7c-13.4,25.4-45.4,51.2-75.4,65.3
			c0.8,6.4,1.3,13.2,1.3,20.3l0,0h112.3c14.4-18.7,25.8-39.6,30.5-60.8C3520.7,2609.9,3517.8,2596.4,3508.2,2587z"/>
		<path class="st5" d="M3437.9,2611.7c-4.7-26.5-21.4-45.7-56.5-39.5c-27.1,4.8-38.7,20.1-40.4,39c19.3,6.2,29.6,25.9,33,51.3
			c23.4-11,48.1-29.1,64.1-48.7C3438,2613.1,3438,2612.4,3437.9,2611.7z"/>
	</g>
	<g>
		<path d="M3222.1,2832c-23,0-41.8,18.7-41.8,41.8c0,5,4,9,9,9s9-4,9-9c0-13.1,10.7-23.8,23.8-23.8s23.8,10.7,23.8,23.8
			s-10.7,23.8-23.8,23.8c-5,0-9,4-9,9s4,9,9,9c23,0,41.8-18.7,41.8-41.7C3263.9,2850.7,3245.2,2832,3222.1,2832z"/>
		<path d="M3719.4,2670.3h-46.8c-3.7,0-6.9,1.6-9.2,4.1c-68.9,6.1-121.5,79.4-141.9,107.7l-2.7,3.7c-9.4,12.9-16.6,20.2-34.7,23.8
			c6.7-7.9,11.4-17.4,13-27.7l8.5-56.8c0.7-4.9-2.6-9.5-7.6-10.2c-4.9-0.7-9.5,2.6-10.2,7.6l-8.5,56.8
			c-2.7,18.1-20.4,33.3-38.7,33.3h-138.8c-20.1,0-47.7-13.3-60.2-29l-72.6-91.5h348.3c5,0,9-4,9-9s-4-9-9-9h-12.5
			c10.9-16.8,18.3-33.6,21.9-49.9c3.5-16.1-1.1-32.3-12.4-43.4c-2.1-2-4.3-3.9-6.7-5.4c4.5-15.5,1-32.5-9.8-45
			c-3.3-3.7-8.9-4.2-12.7-0.9c-3.8,3.2-4.2,8.9-0.9,12.7c6.3,7.4,8.6,17.1,6.6,26.4c-2.8-0.5-5.7-0.8-8.6-0.8c-0.2,0-0.3,0-0.5,0
			c-12.2,0.1-23.7,5-32.3,13.8c-3.7,3.7-6.2,8.1-8.1,11.6c-7.5-16.9-20.8-27.2-38.5-29.9c8.6-10.3,18-24.7,20.8-40.7
			c4.5-25.4-6.3-47.9-24.6-51.1c-12.2-2.1-24.4,5.1-32.5,18.1c-7.4-5.8-15.7-9.3-23.7-9.3c-4.7,0-9.1,1.1-13,3.4
			c-16.1,9.3-18.6,34.1-5.7,56.4c8.2,14.1,21.9,24.4,33.5,31.2c-12.2,6.6-20.5,16.6-24,29.6c-2.2-0.3-4.4-0.4-6.7-0.4
			c-8,0-15.2,1.1-21.5,3.2c-4.6-3.6-10.2-6.2-17.1-7.5c2.4-8.7,8.6-16.1,17.2-19.8c4.6-2,6.7-7.3,4.7-11.8c-2-4.6-7.2-6.7-11.8-4.7
			c-15.2,6.5-25.7,20.2-28.5,36.1c-7.2,1.2-13.1,3.9-17.9,7.7c-6.3-2.1-13.5-3.2-21.5-3.2c-33.7,0-54.5,27.4-56.9,73.8H3136
			c-5,0-9,4-9,9s4,9,9,9h10.2l78.1,98.4c-0.7,0-1.4-0.1-2.1-0.1c-46.1,0-83.6,37.5-83.6,83.6s37.5,83.6,83.6,83.6
			s83.6-37.5,83.6-83.6c0-16.2-4.7-31.2-12.7-44c3,0.4,5.9,0.6,8.8,0.6h138.8c12,0,22.2-0.3,31-1.1l-9.4,66.7
			c-3.4,24-12,40-23.1,42.8c-10.9,2.8-25.2-6.4-39.3-25.1l-42.8-56.9c-3-4-8.6-4.8-12.6-1.8s-4.8,8.6-1.8,12.6l42.8,56.9
			c16.1,21.4,33.5,32.8,49.6,32.8c2.9,0,5.7-0.4,8.4-1.1c18.8-4.8,31.8-25.3,36.4-57.7l10.2-71.9c19.5-4.4,30.8-13.4,43.1-30.3
			l2.7-3.7c17.1-23.8,67.8-94.2,128.3-100.2c2.2,1.9,5.1,3.1,8.2,3.1h46.8c7,0,12.6-5.6,12.6-12.6
			C3731.9,2675.9,3726.3,2670.3,3719.4,2670.3z M3384,2673.9c-0.1-2.1-0.3-4-0.5-6c24.9-12.8,53.5-34.7,69.3-59
			c13.5,7.7,15.9,17.4,15.9,17.7c0.6,3,2.6,5.4,5.3,6.6c1.1,0.5,2.3,0.7,3.5,0.7c1.7,0,3.5-0.5,5-1.5c0.1-0.1,9-5.5,23.7-1.9
			c-4.7,14.1-12.6,28.8-23.3,43.4H3384z M3482.1,2585.5c0.1,0,0.2,0,0.3,0c7.3,0,14.3,2.8,19.5,8c5.2,5.1,8,12,8.1,19.4
			c-11.6-2.7-21.1-1.5-27.6,0.4c-3.3-5.8-9.4-13.3-19.9-19.5C3467.7,2588.5,3474.7,2585.5,3482.1,2585.5z M3396.1,2488.8
			c7,1.2,12.8,14.5,10,30.3c-1.9,10.8-8,21-14.2,29c-0.4-12.9-2.7-28.5-10.2-41.5c-0.7-1.2-1.5-2.3-2.2-3.4
			C3383.6,2493.9,3390.4,2487.8,3396.1,2488.8z M3339.9,2530.7c-8-13.9-7.1-28.3-0.9-31.9c1.2-0.7,2.5-1,4-1
			c6.2,0,16.1,5.6,23.1,17.7c7.8,13.6,8.3,31.9,7.6,43.6C3363.3,2553.9,3347.8,2544.4,3339.9,2530.7z M3382.9,2581.1
			c25.2-4.5,40.5,5.8,45.5,30.1c-12.2,13.9-29.5,27.6-47.9,37.9c-5.1-20.9-15.2-35.9-29.6-43.4
			C3354.5,2592.4,3365,2584.3,3382.9,2581.1z M3366,2673.9h-39.3c-0.2-17.7-1.4-39-9.1-55c2.9-0.5,6-0.8,9.5-0.8
			C3357.2,2618.1,3364.7,2649.8,3366,2673.9z M3278.9,2612.8c21,0,28.9,15.6,29.8,61h-59.6C3250,2628.5,3257.9,2612.8,3278.9,2612.8
			z M3230.7,2618.1c3.4,0,6.5,0.3,9.4,0.7c-7.7,16.1-8.9,37.4-9.1,55h-39.3C3193.1,2649.8,3200.6,2618.1,3230.7,2618.1z
			 M3222.1,2939.4c-36.2,0-65.6-29.4-65.6-65.6c0-36.2,29.4-65.6,65.6-65.6c36.2,0,65.6,29.4,65.6,65.6
			C3287.8,2909.9,3258.3,2939.4,3222.1,2939.4z"/>
	</g>
</g>
<g>
	<g>
		<path class="st6" d="M44.8,50.2c4.1,0,7.5-3.4,7.5-7.5s-3.4-7.5-7.5-7.5s-7.5,3.4-7.5,7.5C37.3,46.9,40.7,50.2,44.8,50.2z"/>
		<g>
			<path class="st1" d="M45.1,46.1c2,0,3.4-1.5,3.4-3.4c0-2-1.4-3.4-3.4-3.4s-3.4,1.5-3.4,3.4C41.7,44.7,43.1,46.1,45.1,46.1z"/>
		</g>
		<path class="st2" d="M25.7,7.5c0.5,2.7,3.4,5.1,3.4,5.1s3.4-1.2,4.8-3.6c1-1.9,0.8-3.9-0.2-4.6c-1.2-0.5-2.6,0.2-3.6,1.4
			c-0.5-1.4-1.7-2.6-2.9-2.4C26,3.6,25.3,5.3,25.7,7.5z"/>
		<g>
			<path class="st3" d="M16.8,23.9h35.3l-8.4,10.7c-1.5,1.7-4.6,3.1-6.8,3.1H23c-2.4,0-4.6-1.9-4.8-4.1l-1.4-9.9V23.9z"/>
		</g>
		<path class="st4" d="M48.8,23.7L48.8,23.7c0-4.1-1.4-7.5-4.8-7.5c-1,0-1.7,0.3-2.4,0.5c-0.5-0.5-1.2-1-2.4-1c-1,0-1.9,0.3-2.4,1
			c-0.7-0.3-1.4-0.5-2.4-0.5c-3.4,0-4.8,3.4-4.8,7.5l0,0H48.8z"/>
		<path class="st7" d="M14.9,17.4c0.4,2.1,1.7,4.1,3.1,6h11.4l0,0c0-0.7,0.2-1.2,0.2-1.9c-2.9-1.4-6.1-3.8-7.5-6.5
			c-0.2-0.3-0.5-0.8-0.7-1c-1.4-1.4-3.9-1.4-5.3,0C15.1,15,14.9,16.4,14.9,17.4z"/>
		<path class="st5" d="M23.3,16.4c1.5,2.2,3.9,4.1,6.3,5.1c0.5-2.4,1.5-4.4,3.4-5.1c-0.2-2-1.4-3.4-4.1-3.9
			C25.5,11.8,23.8,13.7,23.3,16.4C23.3,16.7,23.3,16.7,23.3,16.4z"/>
	</g>
	<g>
		<g id="XMLID_1_">
			<g>
				<path d="M1.9,22.5v-0.3h4.6c0.5,0,0.8,0.3,1,0.5c7,0.8,5.6,8,7.5,10.9l0.2,0.5c0.7,1.2,1.5,2.2,3.4,2.4c-0.5-1-1-1.9-1.2-2.9
					l-1-5.8c0-0.5,0.2-1,0.7-1s1,0.2,1,0.7l1,5.8c0.3,2,2,3.4,3.9,3.4h14c1.9,0,4.8-1.2,6-2.9l7.2-9.2H15.6c-0.5,0-1-0.5-1-1
					s0.5-1,1-1h1.2c-1-1.7-2-3.4-2.2-5.1c-0.5-1.6,0-3.1,1.2-4.3c0.2-0.3,0.5-0.3,0.7-0.5c-0.4-1.7,0-3.4,1-4.6
					c0.2-0.2,0.7-0.2,1.2,0c0.2,0.2,0.2,0.7,0,1.2C18,10.1,17.8,11,18,12c0.5,0,0.8,0,1,0l0,0c1.2,0,2.1,0.4,3.1,1.4
					c0.2,0.3,0.5,0.8,1.2,1c0.8-1.7,2.2-2.7,3.9-2.9c-1-1-2-2.4-2.2-4.1c-0.5-2.4,0.5-4.9,2.4-5.1c1.2,0,2.4,0.7,3.1,1.9
					c0.7-0.8,1.7-1,2.4-1c0.5,0,0.7,0,1.2,0.2c1.5,0.8,1.7,3.4,0.5,5.6c-1,1.5-2.2,2.7-3.4,3.4c1.2,0.5,2.2,1.7,2.4,2.9
					c0.2,0,0.5,0,0.7,0c0.8,0,1.5,0,2.2,0.2c0.3-0.5,1-0.7,1.7-0.7c-0.2-0.9-0.9-1.7-1.9-1.9c-0.5-0.2-0.7-0.7-0.5-1.2
					s0.7-0.7,1.2-0.5c1.5,0.7,2.7,1.9,2.9,3.6c0.7,0,1.5,0.3,1.7,0.5c0.8-0.2,1.5-0.2,2.2-0.2c3.4,0,5.6,2.9,5.8,7.5h3.9
					c0.5,0,1,0.5,1,0.7c0,0.5-0.5,1-1,1h-1.2l-7.7,9.9h0.2c4.6,0,8.5,3.9,8.5,8.5s-3.6,8.5-8.2,8.5s-8.5-3.9-8.5-8.5
					c0-1.4,0.5-3.1,1.2-4.3c-0.5,0-0.8,0-1,0h-14c-1.2,0-2.1,0-3.1,0l1,6.8c0.5,2.4,1.2,4.1,2.4,4.3c1,0.5,2.4-0.5,3.8-2.5l4.3-5.8
					c0.2-0.4,0.7-0.4,1.2-0.2c0.4,0.2,0.4,0.7,0.2,1.2L28.3,48c-1.7,2.2-3.4,3.4-5.1,3.4c-0.5,0-0.8,0-1,0c-1.9-0.5-3.1-2.7-3.6-5.8
					l-1-7.2c-1.9-0.4-3.1-1.4-4.3-3.1l-0.2-0.5c-1.7-2.4,0-9.6-6-10.1c-0.2,0-0.5,0.2-0.7,0.2H1.8c-0.7,0-1.2-0.5-1.2-1.2
					S1.1,22.5,1.9,22.5L1.9,22.5z M18.7,16.7c0.2-0.5,0.9-1.2,1.9-1.9c-0.5-0.5-1.2-0.7-1.9-0.7l0,0c-0.7,0-1.4,0.2-1.9,0.7
					s-0.7,1.2-0.7,1.9C17.1,16.4,18,16.4,18.7,16.7z M28.6,22.7c0,0,0-0.3,0-0.5c-2.7-1.2-5.3-3.4-7-5.8c-1.5,0.7-1.7,1.7-1.7,1.7
					c0,0.2-0.3,0.7-0.5,0.7h-0.2c-0.3,0-0.3-0.2-0.5-0.2c0,0-1-0.4-2.4-0.2c0.5,1.4,1.4,2.9,2.4,4.3H28.6z M31.8,15.9
					c-0.2-1.2-1.4-2.2-3.1-2.4C26,13,24.6,14,24.1,16.4c1.2,1.5,2.9,2.9,4.8,3.9C29.6,18.1,30.6,16.7,31.8,15.9z M28,9.8
					c0-1.2,0.3-2.9,1-4.1l0.2-0.2c-0.5-0.9-1.2-1.4-1.7-1.4c-0.8,0.2-1.2,1.4-1,3.1C26.7,8.2,27.2,9.4,28,9.8z M33.2,8.2
					c0.7-1.4,0.7-2.9,0-3.1c-0.3,0-0.3,0-0.5,0c-0.7,0-1.7,0.5-2.4,1.7c-0.7,1.4-0.7,3.1-0.7,4.3C30.8,10.6,32.3,9.6,33.2,8.2z
					 M35.4,17.1c-0.3,0-0.8,0-1,0c-2.9,0-3.7,3.2-3.9,5.6h3.9C34.4,21,34.4,18.8,35.4,17.1z M39.1,16.7c-1.9,0-2.9,1.4-2.9,6h6
					C42.2,18.1,41,16.7,39.1,16.7z M44.8,49.2c3.6,0,6.5-2.9,6.5-6.5s-2.9-6.5-6.5-6.5c-3.6,0-6.5,2.9-6.5,6.5
					C38.3,46.4,41.2,49.2,44.8,49.2z M48,22.7c0-2.5-0.8-5.6-3.9-5.6c-0.3,0-0.8,0-1,0c0.8,1.7,0.8,3.9,1,5.6H48z"/>
				<path class="st2" d="M18.8,14L18.8,14c0.7,0,1.4,0.2,1.9,0.7c-0.9,0.5-1.7,1.4-1.9,1.9c-0.5-0.2-1.5-0.2-2.7,0
					c0-0.7,0.2-1.4,0.7-1.9S18,13.8,18.8,14z"/>
				<path d="M49.2,42.4c0,0.5-0.5,1-1,1s-1-0.5-1-1c0-1.4-1.2-2.4-2.4-2.4c-1.4,0-2.4,1-2.4,2.4s1.2,2.4,2.4,2.4c0.5,0,1,0.5,1,1
					s-0.5,1-1,1c-2.2,0-4.1-1.7-4.1-4.1c0-2.2,1.7-4.1,4.1-4.1C47.3,38.6,49.2,40.6,49.2,42.4z"/>
			</g>
		</g>
	</g>
</g>
</svg>
