<?xml version="1.0" encoding="utf-8"?>
<!-- Generator: Adobe Illustrator 24.2.3, SVG Export Plug-In . SVG Version: 6.00 Build 0)  -->
<svg version="1.1" id="Layer_1" xmlns="http://www.w3.org/2000/svg" xmlns:xlink="http://www.w3.org/1999/xlink" x="0px" y="0px"
	 viewBox="0 0 75 75" style="enable-background:new 0 0 75 75;" xml:space="preserve">
<style type="text/css">
	.st0{fill:#231F20;}
</style>
<path class="st0" d="M63.7,29.8c-1.9-4.5-5.8-7.7-10.5-8.7c4.8-5.2,3.9-11,3.9-11.2c-0.1-0.8-0.8-1.4-1.6-1.4c0,0-0.5-0.1-1.3-0.1
	c-1.8,0-5.7,0.3-9.6,2.2c-1.5-5.4-6-8.2-6.2-8.4c-0.6-0.4-1.3-0.4-1.9,0c-0.2,0.1-4.6,3.1-6.1,8.4c-3.9-1.9-8-2.2-9.8-2.2
	c-0.7,0-1.1,0-1.1,0c-0.8,0.1-1.5,0.7-1.6,1.5c0,0.3-0.6,6.2,3.9,11.2c-4.7,1-8.7,4.2-10.5,8.7c-3.7,9,1.9,17.8,6.4,25
	c0.8,1.3,1.6,2.5,2.3,3.7c4.4,7.5,9.6,14.5,17.6,14.5h0c0.4,0,0.9,0,1.3-0.1c8.4-0.8,13-8.6,16.6-15c0.7-1.1,1.3-2.3,2-3.4
	c1.8-3,3.7-6.1,5.1-9.4c1.4-3.3,2.2-6.3,2.4-9C65.1,33.8,64.7,31.6,63.7,29.8z M49.6,19.8c0,0-0.1,0.1-0.1,0.1
	c-3.4,2.9-7.8,3.5-10.2,3.6c0.2-1.9,0.9-5.2,4-7.8v0c0.1,0,0.1-0.1,0.1-0.1c3.6-3,8.1-3.5,10.3-3.6C53.6,13.7,52.9,17,49.6,19.8z
	 M37.5,5.9c1.3,1.1,3.4,3.3,4,6.7c-0.1,0.1-0.2,0.1-0.3,0.2c0,0-0.1,0.1-0.1,0.1c-1.7,1.4-2.8,2.9-3.6,4.4c-0.8-1.5-1.9-3-3.6-4.4
	c0,0-0.1-0.1-0.1-0.1c-0.1-0.1-0.2-0.2-0.3-0.3C34.1,9.3,36.3,7,37.5,5.9z M31.5,15.4c0,0,0.1,0.1,0.1,0.1c3.3,2.8,4,6.1,4.1,8
	c-2.4,0-6.6-0.6-10.2-3.6c0,0-0.1-0.1-0.1-0.1c-3.2-2.7-3.9-6-4.1-7.9C23.7,12,28.1,12.6,31.5,15.4z M61.4,36
	c-0.1,2.2-0.9,5-2.1,7.8c-1.3,3.1-3.1,6.1-4.9,9c-0.7,1.1-1.4,2.3-2,3.4c-3.4,5.9-7.3,12.6-13.9,13.2c-0.3,0-0.7,0.1-1,0.1h0
	c-6.2,0-10.7-6.2-14.6-12.8c-0.7-1.2-1.5-2.5-2.3-3.8c-4.3-6.8-9.1-14.5-6.1-21.8c1.7-4.2,5.8-6.9,10.4-6.9h0.9
	c3.9,2.3,8,2.7,10.3,2.7c0.6,0,1,0,1.3,0c0,0,0,0,0,0c0,0,0.4,0,1.1,0h0c2,0,6.6-0.3,10.8-2.7h0.9c4.6,0,8.7,2.7,10.4,6.9
	c0,0.1,0,0.1,0.1,0.2C61.3,32.6,61.5,34.2,61.4,36z"/>
</svg>
