<?xml version="1.0" encoding="utf-8"?>
<!-- Generator: Adobe Illustrator 24.2.3, SVG Export Plug-In . SVG Version: 6.00 Build 0)  -->
<svg version="1.1" id="Layer_1" xmlns="http://www.w3.org/2000/svg" xmlns:xlink="http://www.w3.org/1999/xlink" x="0px" y="0px"
	 viewBox="0 0 75 75" style="enable-background:new 0 0 75 75;" xml:space="preserve">
<style type="text/css">
	.st0{fill:#231F20;}
</style>
<path class="st0" d="M54.5,32.5c-1.2-2.9-3.7-5-6.8-5.7c3.1-3.4,2.5-7.2,2.5-7.2c-0.1-0.5-0.5-0.9-1-0.9c0,0-0.3-0.1-0.8-0.1
	c-1.2,0-3.7,0.2-6.2,1.4c-1-3.5-3.9-5.3-4-5.4c-0.4-0.2-0.8-0.2-1.2,0c-0.2,0.1-3,2-4,5.4c-2.5-1.2-5.2-1.4-6.3-1.4
	c-0.4,0-0.7,0-0.7,0c-0.5,0.1-1,0.4-1,1c0,0.2-0.4,4,2.5,7.2c-3.1,0.7-5.7,2.7-6.8,5.7c-2.4,5.8,1.2,11.6,4.2,16.2
	c0.5,0.8,1,1.6,1.5,2.4c2.8,4.8,6.2,9.4,11.4,9.4l0,0c0.2,0,0.6,0,0.8-0.1c5.4-0.5,8.4-5.6,10.7-9.7c0.4-0.7,0.8-1.5,1.3-2.2
	c1.2-1.9,2.4-4,3.3-6.1s1.4-4.1,1.6-5.8C55.4,35.2,55.2,33.7,54.5,32.5z M45.3,26L45.3,26c-2.2,1.9-5.2,2.3-6.7,2.4
	c0.2-1.2,0.6-3.4,2.6-5.1l0,0c0.1,0,0.1-0.1,0.1-0.1c2.3-1.9,5.2-2.2,6.7-2.3C47.9,22.1,47.5,24.3,45.3,26z M37.5,17
	c0.8,0.7,2.2,2.2,2.6,4.3c-0.1,0.1-0.2,0.1-0.2,0.2l-0.1,0.1c-1.1,0.9-1.8,1.9-2.3,2.8c-0.5-1-1.2-1.9-2.3-2.8l-0.1-0.1
	c-0.1-0.1-0.2-0.2-0.2-0.2C35.3,19.3,36.7,17.8,37.5,17z M33.6,23.2L33.6,23.2c2.2,1.9,2.7,4,2.7,5.2c-1.6,0-4.2-0.4-6.6-2.3
	L29.6,26c-2.1-1.7-2.5-3.9-2.7-5.2C28.5,21,31.3,21.3,33.6,23.2z M53,36.6c-0.1,1.4-0.6,3.2-1.3,5.1c-0.8,2-2,4-3.2,5.8
	c-0.4,0.7-0.9,1.5-1.3,2.2c-2.2,3.8-4.7,8.2-9,8.6c-0.2,0-0.4,0.1-0.7,0.1l0,0c-4,0-6.9-4-9.5-8.3c-0.4-0.7-1-1.6-1.5-2.5
	c-2.8-4.4-5.9-9.4-4-14.2c1.1-2.7,3.7-4.5,6.7-4.5h0.6c2.5,1.5,5.2,1.7,6.7,1.7c0.4,0,0.7,0,0.8,0l0,0c0,0,0.2,0,0.7,0l0,0
	c1.3,0,4.2-0.2,7-1.7h0.6c3,0,5.7,1.7,6.7,4.5c0,0.1,0,0.1,0.1,0.2C52.9,34.3,53.1,35.4,53,36.6z"/>
</svg>
