<?xml version="1.0" encoding="utf-8"?>
<!-- Generator: Adobe Illustrator 24.2.3, SVG Export Plug-In . SVG Version: 6.00 Build 0)  -->
<svg version="1.1" id="Layer_1" xmlns="http://www.w3.org/2000/svg" xmlns:xlink="http://www.w3.org/1999/xlink" x="0px" y="0px"
	 viewBox="0 0 75 75" style="enable-background:new 0 0 75 75;" xml:space="preserve">
<style type="text/css">
	.st0{fill:#E83636;}
	.st1{fill:#BF202E;}
	.st2{fill:#68A643;}
	.st3{fill:#91C13E;}
	.st4{fill:#F89F61;}
	.st5{fill:#231F20;}
</style>
<g>
	<g>
		<path class="st0" d="M63.2,36.1c0.1-2-0.1-3.9-1-5.6c-1.9-4.7-6.6-8-12-8H24.9c-5.4,0-10.1,3.3-12,8c-4,9.6,4,19.3,8.6,27.1
			c4,6.8,9.2,14.4,17.3,13.6c7.5-0.7,11.8-8.1,15.3-14.1c2.4-4.2,5.1-8.2,7-12.6C62,42.1,63,39.1,63.2,36.1z"/>
		<path class="st1" d="M62.2,30.6c-1.7-4.2-5.6-7.3-10.3-7.9c0.8,1,1.5,2.1,2,3.3c0.9,1.7,1.1,3.6,1,5.6c-0.2,3-1.2,6-2.2,8.4
			c-1.9,4.4-4.6,8.4-7,12.6c-3.5,6-7.8,13.4-15.3,14.1c-0.9,0.1-1.7,0.1-2.5,0c2.9,3,6.5,5,10.8,4.6c7.5-0.7,11.8-8.1,15.3-14.1
			c2.4-4.2,5.1-8.2,7-12.6c1-2.4,2.1-5.5,2.2-8.4C63.3,34.2,63,32.2,62.2,30.6z"/>
	</g>
	<g>
		<g>
			<path class="st2" d="M43.4,14.3C43.4,14.3,43.4,14.3,43.4,14.3c0-6.9-5.9-10.6-5.9-10.6s-5.9,3.9-5.9,10.6c0,0,0,0,0,0
				c0,0,0,0,0,0c0,6.5,5.9,10.6,5.9,10.6S43.4,20.8,43.4,14.3C43.4,14.3,43.4,14.3,43.4,14.3z"/>
		</g>
		<g>
			<path class="st3" d="M50.6,21.2C50.6,21.2,50.6,21.2,50.6,21.2c5.8-4.9,4.7-11,4.7-11s-7.5-0.7-13.1,4c0,0,0,0,0,0c0,0,0,0,0,0
				c-5.5,4.6-4.7,11-4.7,11S45.1,25.8,50.6,21.2C50.6,21.2,50.6,21.2,50.6,21.2z"/>
			<path class="st2" d="M50.6,21.2C50.6,21.2,50.6,21.2,50.6,21.2c5.8-4.9,4.7-11,4.7-11l-17.9,15C37.5,25.2,45.1,25.8,50.6,21.2
				C50.6,21.2,50.6,21.2,50.6,21.2z"/>
		</g>
		<g>
			<path class="st3" d="M24.3,21.2C24.3,21.2,24.3,21.2,24.3,21.2c5.8,4.9,13.1,4,13.1,4s0.9-6.3-4.7-11c0,0,0,0,0,0c0,0,0,0,0,0
				c-5.5-4.6-13.1-4-13.1-4S18.8,16.6,24.3,21.2C24.3,21.2,24.3,21.2,24.3,21.2z"/>
			<path class="st2" d="M24.3,21.2C24.3,21.2,24.3,21.2,24.3,21.2c5.8,4.9,13.1,4,13.1,4l-17.9-15C19.6,10.2,18.8,16.6,24.3,21.2
				C24.3,21.2,24.3,21.2,24.3,21.2z"/>
		</g>
	</g>
	<path class="st4" d="M27.3,33.3c0.4,2.1-1,4-3,4.4c-2.1,0.4-4-1-4.4-3c-0.4-2.1,1-4,3-4.4C24.9,29.9,26.9,31.3,27.3,33.3z"/>
	<path class="st4" d="M40.3,33.3c0.4,2.1-1,4-3,4.4c-2.1,0.4-4-1-4.4-3c-0.4-2.1,1-4,3-4.4C37.9,29.9,39.9,31.3,40.3,33.3z"/>
	<path class="st4" d="M33.8,43.4c0.4,2.1-1,4-3,4.4c-2.1,0.4-4-1-4.4-3c-0.4-2.1,1-4,3-4.4C31.4,40,33.4,41.4,33.8,43.4z"/>
</g>
<path class="st5" d="M63.7,29.8c-1.9-4.5-5.8-7.7-10.5-8.7c4.8-5.2,3.9-11,3.9-11.2c-0.1-0.8-0.8-1.4-1.6-1.4c0,0-0.5-0.1-1.3-0.1
	c-1.8,0-5.7,0.3-9.6,2.2c-1.5-5.4-6-8.2-6.2-8.4c-0.6-0.4-1.3-0.4-1.9,0c-0.2,0.1-4.6,3.1-6.1,8.4c-3.9-1.9-8-2.2-9.8-2.2
	c-0.7,0-1.1,0-1.1,0c-0.8,0.1-1.5,0.7-1.6,1.5c0,0.3-0.6,6.2,3.9,11.2c-4.7,1-8.7,4.2-10.5,8.7c-3.7,9,1.9,17.8,6.4,25
	c0.8,1.3,1.6,2.5,2.3,3.7c4.4,7.5,9.6,14.5,17.6,14.5h0c0.4,0,0.9,0,1.3-0.1c8.4-0.8,13-8.6,16.6-15c0.7-1.1,1.3-2.3,2-3.4
	c1.8-3,3.7-6.1,5.1-9.4c1.4-3.3,2.2-6.3,2.4-9C65.1,33.8,64.7,31.6,63.7,29.8z M49.6,19.8c0,0-0.1,0.1-0.1,0.1
	c-3.4,2.9-7.8,3.5-10.2,3.6c0.2-1.9,0.9-5.2,4-7.8v0c0.1,0,0.1-0.1,0.1-0.1c3.6-3,8.1-3.5,10.3-3.6C53.6,13.7,52.9,17,49.6,19.8z
	 M37.5,5.9c1.3,1.1,3.4,3.3,4,6.7c-0.1,0.1-0.2,0.1-0.3,0.2c0,0-0.1,0.1-0.1,0.1c-1.7,1.4-2.8,2.9-3.6,4.4c-0.8-1.5-1.9-3-3.6-4.4
	c0,0-0.1-0.1-0.1-0.1c-0.1-0.1-0.2-0.2-0.3-0.3C34.1,9.3,36.3,7,37.5,5.9z M31.5,15.4c0,0,0.1,0.1,0.1,0.1c3.3,2.8,4,6.1,4.1,8
	c-2.4,0-6.6-0.6-10.2-3.6c0,0-0.1-0.1-0.1-0.1c-3.2-2.7-3.9-6-4.1-7.9C23.7,12,28.1,12.6,31.5,15.4z M61.4,36
	c-0.1,2.2-0.9,5-2.1,7.8c-1.3,3.1-3.1,6.1-4.9,9c-0.7,1.1-1.4,2.3-2,3.4c-3.4,5.9-7.3,12.6-13.9,13.2c-0.3,0-0.7,0.1-1,0.1h0
	c-6.2,0-10.7-6.2-14.6-12.8c-0.7-1.2-1.5-2.5-2.3-3.8c-4.3-6.8-9.1-14.5-6.1-21.8c1.7-4.2,5.8-6.9,10.4-6.9h0.9
	c3.9,2.3,8,2.7,10.3,2.7c0.6,0,1,0,1.3,0c0,0,0,0,0,0c0,0,0.4,0,1.1,0h0c2,0,6.6-0.3,10.8-2.7h0.9c4.6,0,8.7,2.7,10.4,6.9
	c0,0.1,0,0.1,0.1,0.2C61.3,32.6,61.5,34.2,61.4,36z"/>
</svg>
