<?xml version="1.0" encoding="utf-8"?>
<!-- Generator: Adobe Illustrator 24.2.3, SVG Export Plug-In . SVG Version: 6.00 Build 0)  -->
<svg version="1.1" id="Layer_1" xmlns="http://www.w3.org/2000/svg" xmlns:xlink="http://www.w3.org/1999/xlink" x="0px" y="0px"
	 viewBox="0 0 78.7 55.5" style="enable-background:new 0 0 78.7 55.5;" xml:space="preserve">
<style type="text/css">
	.st0{fill:#68A508;}
	.st1{fill:#FFE000;}
	.st2{fill:#F2C300;}
	.st3{fill:#92C100;}
	.st4{fill:#231F20;}
	.st5{fill:#E83636;}
	.st6{fill:#BF132C;}
	.st7{fill:#FFA05F;}
</style>
<g>
	<g>
		<g>
			<path class="st0" d="M9.4,26.9l-0.9,0l0.9,17c0.3,5.8,5,10.2,10.6,9.9l0.3,0l-0.9-17.2C19,31,15,26.6,9.4,26.9z"/>
			<path class="st1" d="M12.1,41c0.3,5,4.8,8.8,10.2,8.5l1.3-0.1c5.4-0.3,9.5-4.5,9.3-9.5l-1.5-28.8c-0.3-5-4.8-8.8-10.2-8.5
				l-1.3,0.1c-5.4,0.3-9.5,4.5-9.3,9.5L12.1,41z"/>
			<path class="st2" d="M16.9,4.1c-1.4,1.6-2.2,3.7-2.1,5.9l1.4,28.3c0.2,4.9,1.4,8.8,10.2,8.3l1.3-0.1c1.1-0.1,2.1-0.3,3-0.6
				c-1.7,1.9-4.2,3.3-7.2,3.4l-1.3,0.1c-5.4,0.3-9.9-2.5-10.2-8.3l-1.4-28.3C10.5,8.9,13.1,5.5,16.9,4.1z"/>
			<path class="st3" d="M19.2,34.7l1.1,19.3l2.6-0.1c8.1-0.4,14.4-6.9,13.9-14.6L35.8,20l-2.6,0.1C25,20.5,18.8,27,19.2,34.7z"/>
			<path class="st0" d="M32.2,19.9l2.5-0.1l0,0c-7.5,0.5-13.2,7-12.8,14.6l1,19.3c-0.1,0-0.2,0-0.2,0l-2.5,0.1l-1-19.3
				C18.8,26.9,24.7,20.3,32.2,19.9z"/>
			<g>
				<path class="st2" d="M17.4,16l3-0.2c0.7,0,1.2-0.6,1.2-1.3c0-0.7-0.6-1.2-1.3-1.2l-3,0.2c-0.7,0-1.2,0.6-1.2,1.3
					C16.2,15.5,16.8,16.1,17.4,16z"/>
				<path class="st2" d="M25,18.5l3-0.2c0.7,0,1.2-0.6,1.2-1.3c0-0.7-0.6-1.2-1.3-1.2l-3,0.2c-0.7,0-1.2,0.6-1.2,1.3
					C23.7,18,24.3,18.6,25,18.5z"/>
				<path class="st2" d="M24.7,12.8l3-0.2c0.7,0,1.2-0.6,1.2-1.3c0-0.7-0.6-1.2-1.3-1.2l-3,0.2c-0.7,0-1.2,0.6-1.2,1.3
					C23.5,12.3,24,12.8,24.7,12.8z"/>
				<path class="st2" d="M17.7,21.8l3-0.2c0.7,0,1.2-0.6,1.2-1.3c0-0.7-0.6-1.2-1.3-1.2l-3,0.2c-0.7,0-1.2,0.6-1.2,1.3
					C16.5,21.3,17.1,21.8,17.7,21.8z"/>
				<path class="st2" d="M17.2,10.3l3-0.2c0.7,0,1.2-0.6,1.2-1.3c0-0.7-0.6-1.2-1.3-1.2l-3,0.2c-0.7,0-1.2,0.6-1.2,1.3
					S16.5,10.3,17.2,10.3z"/>
				<path class="st2" d="M24.4,7l3-0.2c0.7,0,1.2-0.6,1.2-1.3c0-0.7-0.6-1.2-1.3-1.2l-3,0.2c-0.7,0-1.2,0.6-1.2,1.3
					C23.2,6.5,23.7,7,24.4,7z"/>
			</g>
		</g>
		<g>
			<path class="st4" d="M6.7,27.8l0.7,14.6c0.3,6.6,5.7,11.7,11.9,11.4l1.7-0.1l3.2-0.2c8.2-0.4,14.6-7.8,14.1-16.5l-0.9-17.2
				c0-0.7-0.6-1.2-1.3-1.2l-2.3,0.1L33.4,11c-0.3-6-5.5-10.7-11.5-10.4l-1.3,0.1c-6,0.3-10.7,5.5-10.4,11.5l0.7,14.2
				c-0.2,0-0.4,0-0.7,0l-2.3,0.1C7.2,26.5,6.7,27.1,6.7,27.8z M30.9,11.1l0.4,7.9c-7.4,1.3-12.9,8.2-12.5,16.3l0.6,12.1
				c-3.4-0.8-5.1-3.3-5.3-7.8L12.7,12c-0.2-4.7,3.4-8.7,8-8.9L22,3.1C26.7,2.8,30.7,6.4,30.9,11.1z M24,51l-1.9,0.1L22,49l-0.7-13.8
				c-0.4-7.3,4.9-13.5,11.8-13.9l1.9-0.1l0.8,16C36.2,44.5,30.9,50.7,24,51z M9.3,28.9l1.1-0.1c0.2,0,0.5,0,0.7,0l0.6,11
				c0.3,5.9,3,9.3,8,10.2l0.1,1.2l-0.4,0c-4.8,0.2-9-3.8-9.2-9L9.3,28.9z"/>
			<path class="st4" d="M27.4,13l-3.1,0.2c-0.7,0-1.3-0.5-1.3-1.2s0.5-1.3,1.2-1.3l3.1-0.2c0.7,0,1.3,0.5,1.3,1.2
				C28.6,12.4,28.1,13,27.4,13z"/>
			<path class="st4" d="M27.7,17.5l-3.1,0.2c-0.7,0-1.3-0.5-1.3-1.2c0-0.7,0.5-1.3,1.2-1.3l3.1-0.2c0.7,0,1.3,0.5,1.3,1.2
				C28.9,16.9,28.3,17.5,27.7,17.5z"/>
			<path class="st4" d="M27.2,8.5l-3.1,0.2c-0.7,0-1.3-0.5-1.3-1.2c0-0.7,0.5-1.3,1.2-1.3L27.1,6c0.7,0,1.3,0.5,1.3,1.2
				C28.4,7.9,27.9,8.5,27.2,8.5z"/>
			<path class="st4" d="M19.6,15.6l-3.1,0.2c-0.7,0-1.3-0.5-1.3-1.2s0.5-1.3,1.2-1.3l3.1-0.2c0.7,0,1.3,0.5,1.3,1.2
				C20.8,15,20.3,15.5,19.6,15.6z"/>
			<path class="st4" d="M19.8,20.1l-3.1,0.2c-0.7,0-1.3-0.5-1.3-1.2s0.5-1.3,1.2-1.3l3.1-0.2c0.7,0,1.3,0.5,1.3,1.2
				C21,19.5,20.5,20,19.8,20.1z"/>
			<path class="st4" d="M19.4,11.1l-3.1,0.2c-0.7,0-1.3-0.5-1.3-1.2c0-0.7,0.5-1.3,1.2-1.3l3.1-0.2c0.7,0,1.3,0.5,1.3,1.2
				C20.6,10.5,20.1,11,19.4,11.1z"/>
		</g>
	</g>
	<g>
		<g>
			<path class="st5" d="M57.6,20H46.4c-7.6,0-13.7,6.1-13.7,13.7v2.8c0,10.2,8.7,18.5,19.3,18.5c10.7,0,19.3-8.3,19.3-18.5v-2.8
				C71.3,26.1,65.2,20,57.6,20z"/>
			<path class="st6" d="M63.9,21.5c1.7,2.3,2.6,5,2.6,8.1v2.8c0,10.2-8.7,18.5-19.3,18.5c-3.8,0-7.3-1-10.3-2.9c3.5,4.2,9,7,15.1,7
				c10.7,0,19.3-8.3,19.3-18.5v-2.8C71.3,28.4,68.3,23.8,63.9,21.5z"/>
			<path class="st7" d="M46.7,26.1c1.6,1.6,1.3,4.6-0.7,6.6c-2,2-4.9,2.3-6.6,0.7c-1.6-1.6-1.3-4.6,0.7-6.6
				C42.1,24.7,45,24.4,46.7,26.1z"/>
			<g>
				<path class="st0" d="M54.1,20.8c0,0.7-0.5,1.2-1.2,1.2h-1.8c-0.7,0-1.2-0.5-1.2-1.2v-8c0-0.7,0.5-1.2,1.2-1.2h1.8
					c0.7,0,1.2,0.5,1.2,1.2V20.8z"/>
				<g>
					<path class="st0" d="M46.8,15.6C46.8,15.6,46.8,15.6,46.8,15.6C51.7,17.7,52,22,52,22s-5.1,1.9-9.8-0.2c0,0,0,0,0,0
						c0,0,0,0,0,0c-4.6-2-5.2-6.4-5.2-6.4S42.1,13.6,46.8,15.6C46.8,15.6,46.8,15.6,46.8,15.6z"/>
					<path class="st3" d="M46.8,15.6C46.8,15.6,46.8,15.6,46.8,15.6C51.7,17.7,52,22,52,22l-15-6.6C37,15.4,42.1,13.6,46.8,15.6
						C46.8,15.6,46.8,15.6,46.8,15.6z"/>
				</g>
				<g>
					<path class="st0" d="M57.2,15.6C57.2,15.6,57.2,15.6,57.2,15.6C52.4,17.7,52,22,52,22s5.1,1.9,9.8-0.2c0,0,0,0,0,0c0,0,0,0,0,0
						c4.6-2,5.2-6.4,5.2-6.4S61.9,13.6,57.2,15.6C57.3,15.6,57.3,15.6,57.2,15.6z"/>
					<path class="st3" d="M57.2,15.6C57.2,15.6,57.2,15.6,57.2,15.6C52.4,17.7,52,22,52,22l15-6.6C67,15.4,61.9,13.6,57.2,15.6
						C57.3,15.6,57.3,15.6,57.2,15.6z"/>
				</g>
			</g>
		</g>
		<path class="st4" d="M65.2,19.7c2.5-2.3,2.9-5.2,3-5.4c0.1-0.5-0.2-1-0.7-1.2c-0.1,0-2.4-0.8-5.3-0.8c-1.9,0-3.7,0.3-5.3,1
			c0,0,0,0,0,0c0,0-0.1,0-0.1,0c-0.6,0.2-1,0.5-1.5,0.8v-2.6c0-1.3-1.1-2.4-2.4-2.4h-1.8c-1.3,0-2.4,1.1-2.4,2.4v2.6
			c-0.5-0.3-0.9-0.6-1.5-0.8c0,0-0.1,0-0.1,0c0,0,0,0,0,0c-1.6-0.7-3.3-1-5.3-1c-2.9,0-5.2,0.8-5.3,0.8c-0.5,0.2-0.8,0.7-0.7,1.2
			c0,0.2,0.5,3,3,5.4c-4.3,2.6-7.3,7.3-7.3,12.7v2.8c0,10.8,9.2,19.6,20.5,19.6c11.3,0,20.5-8.8,20.5-19.6v-2.8
			C72.5,27.1,69.6,22.3,65.2,19.7z M57.6,15.5C57.6,15.5,57.6,15.5,57.6,15.5c0.1,0,0.1,0,0.1,0c1.3-0.6,2.8-0.9,4.4-0.9
			c1.4,0,2.7,0.2,3.5,0.4c-0.4,1.2-1.5,3.3-4.2,4.6c0,0-0.1,0-0.1,0c-1.3,0.6-2.8,0.9-4.5,0.9c-1.5,0-2.7-0.2-3.5-0.4
			C53.7,18.8,54.8,16.8,57.6,15.5z M51.1,11.5h1.8c0,0,0.1,0,0.1,0.1v4.5c-0.4,0.5-0.7,1-1,1.4c-0.3-0.5-0.6-0.9-1-1.4L51.1,11.5
			C51,11.6,51,11.5,51.1,11.5z M38.3,15c0.8-0.2,2.1-0.4,3.5-0.4c1.6,0,3.1,0.3,4.4,0.9c0,0,0,0,0.1,0c0,0,0,0,0,0
			c2.9,1.3,3.9,3.4,4.3,4.6c-0.8,0.2-2.1,0.4-3.5,0.4c-1.6,0-3.1-0.3-4.5-0.9c0,0-0.1,0-0.1,0C39.9,18.3,38.8,16.2,38.3,15z
			 M70.2,35.2c0,9.6-8.2,17.4-18.2,17.4c-10,0-18.2-7.8-18.2-17.4v-2.8c0-4.9,2.9-9.2,7-11.3c0.3,0.2,0.6,0.3,0.9,0.4
			c0,0,0.1,0,0.1,0c0,0,0,0,0,0c1.6,0.7,3.4,1,5.3,1c2.2,0,4.1-0.5,4.9-0.7c0.8,0.2,2.6,0.7,4.9,0.7c1.9,0,3.7-0.4,5.3-1
			c0,0,0,0,0,0c0,0,0,0,0.1,0c0.3-0.1,0.6-0.3,0.9-0.4c4.2,2,7,6.3,7,11.3V35.2z"/>
	</g>
</g>
</svg>
