<?xml version="1.0" encoding="utf-8"?>
<!-- Generator: Adobe Illustrator 24.2.3, SVG Export Plug-In . SVG Version: 6.00 Build 0)  -->
<svg version="1.1" id="Layer_1" xmlns="http://www.w3.org/2000/svg" xmlns:xlink="http://www.w3.org/1999/xlink" x="0px" y="0px"
	 viewBox="0 0 78.7 55.5" style="enable-background:new 0 0 78.7 55.5;" xml:space="preserve">
<style type="text/css">
	.st0{fill:#E83636;}
	.st1{fill:#BF132C;}
	.st2{fill:#FFA05F;}
	.st3{fill:#92C100;}
	.st4{fill:#68A508;}
	.st5{fill:#231F20;}
	.st6{fill:#DDC72C;}
	.st7{fill:#FFE000;}
	.st8{fill:#F2C300;}
	.st9{fill:#EFDA48;}
</style>
<g>
	<g>
		<g>
			<path class="st0" d="M16.3,19.1c4,0,5.6,1.2,5.6,1.2c2.4,1.1,4.8,0.9,6.6,0c0,0,2-1.2,5.6-1.2c6.3,0,11.5,6,11.5,12.5
				c0,14.5-9.1,22.4-20.4,22.4C14,53.9,4.8,46.2,4.8,31.6C4.8,25.1,10,19.1,16.3,19.1z"/>
			<path class="st1" d="M37.9,19.8C40,22,41,25,41,28.1c0,14.5-9.1,22.4-20.4,22.4c-3.5,0-6.8-0.8-9.7-2.2c3.7,3.8,8.8,5.7,14.4,5.7
				c11.3,0,20.4-7.8,20.4-22.4C45.7,26.4,42.4,21.6,37.9,19.8z"/>
			<path class="st2" d="M18,24c1.6,1.6,1.3,4.5-0.7,6.4c-2,2-4.8,2.2-6.4,0.7c-1.6-1.6-1.3-4.5,0.7-6.4S16.4,22.4,18,24z"/>
			<g>
				<path class="st3" d="M32.5,16.7C32.5,16.6,32.5,16.6,32.5,16.7c3.4-3.4,2.7-7.6,2.7-7.6s-4.3-0.5-7.6,2.7c0,0,0,0,0,0
					c0,0,0,0,0,0c-3.2,3.2-2.7,7.6-2.7,7.6S29.4,19.8,32.5,16.7C32.5,16.7,32.5,16.7,32.5,16.7z"/>
				<path class="st4" d="M32.5,16.7C32.5,16.6,32.5,16.6,32.5,16.7c3.4-3.4,2.7-7.6,2.7-7.6L24.9,19.4
					C24.9,19.4,29.4,19.8,32.5,16.7C32.5,16.7,32.5,16.7,32.5,16.7z"/>
			</g>
		</g>
		<path class="st5" d="M34.2,17.9c-0.1,0-0.2,0-0.3,0c3-3.6,2.5-7.7,2.4-7.9c-0.1-0.5-0.5-0.9-1-0.9c0,0-0.3,0-0.8,0
			c-1.4,0-4.9,0.3-7.6,3c0,0-0.1,0-0.1,0.1c-2.6,2.6-3,5.9-3.1,7.5c-0.5-0.1-0.9-0.3-1.4-0.5c-0.5-0.3-2.3-1.3-6.2-1.3
			c-6.8,0-12.6,6.2-12.6,13.6c0,14,8.6,23.4,21.5,23.4c12.9,0,21.5-9.4,21.5-23.4C46.8,24.1,41,17.9,34.2,17.9z M28.4,13.8
			C28.4,13.8,28.4,13.8,28.4,13.8c2.1-2.1,4.6-2.5,5.8-2.5c0,1.3-0.4,3.7-2.4,5.7c0,0-0.1,0-0.1,0.1c-0.7,0.7-1.4,1.2-2.2,1.5
			c-0.5,0.2-0.9,0.3-1.2,0.5c-0.9,0.3-1.7,0.4-2.3,0.4C26.1,18.2,26.5,15.7,28.4,13.8z M25.2,52.8c-11.7,0-19.3-8.3-19.3-21.3
			c0-6.1,4.8-11.4,10.4-11.4c3.5,0,5,1,5,1c0.1,0,0.1,0.1,0.2,0.1c2.5,1.2,5.2,1.2,7.6,0c0,0,0,0,0.1,0c0,0,0,0,0,0
			c0.4-0.1,0.8-0.3,1.2-0.5c0.9-0.3,2.2-0.5,3.9-0.5c5.5,0,10.4,5.3,10.4,11.4C44.6,44.4,37,52.8,25.2,52.8z"/>
	</g>
	<g>
		<g>
			<g>
				<path class="st6" d="M68.8,13.9c0,1.2-0.9,2.3-2.2,2.3l-0.8,0c-1.2,0-2.3-0.9-2.3-2.2l-0.2-5.6c0-1.2,0.9-2.3,2.2-2.3l0.8,0
					c1.2,0,2.3,0.9,2.3,2.2L68.8,13.9z"/>
				<path class="st7" d="M69.5,14.7c3.3,3.1,3.8,10.2,3.7,13.9c-0.1,1.7-0.4,3.6-0.9,5.5c-0.5,1.9-1.2,3.7-2.2,5.6
					c-2.8,5.4-7.5,9.9-13.1,12.4c-5.2,2.4-11.6,3.2-17.1,1.3c-0.8-0.2-1.4-0.6-1.8-0.7c-0.4-0.2-0.6-0.3-0.6-0.3
					c-2-1.1-2.8-3.7-1.7-5.7c1.5-2.7,6.5-3.8,9.1-5.3c3.2-1.9,6.9-4.4,9-7.5c0-0.1-0.1,0.2-0.2,0.2c3.1-4,5.6-8.6,6.8-13.5
					c0.8-3.4,1.3-8.3,6.2-7.3C67.9,13.5,68.8,14,69.5,14.7z"/>
				<path class="st8" d="M69.5,14.7c-0.7-0.6-1.5-1.1-2.4-1.4c2,3.5,2.4,8.9,2.2,12c-0.1,1.7-0.4,3.6-0.9,5.5
					c-0.5,1.9-1.2,3.7-2.2,5.6c-2.8,5.4-7.5,9.9-13.1,12.4c-5.2,2.4-11.6,3.2-17.1,1.3C36,50,35.8,50,35.6,49.9c0.3,1,1,1.9,2,2.4
					c0,0,0.2,0.1,0.6,0.3c0.4,0.2,1,0.5,1.8,0.7c5.5,1.9,11.9,1.1,17.1-1.3c5.6-2.5,10.3-7,13.1-12.4c0.9-1.8,1.7-3.7,2.2-5.6
					c0.5-1.9,0.8-3.7,0.9-5.5C73.4,24.9,72.9,17.9,69.5,14.7z"/>
			</g>
			<g>
				<path class="st9" d="M65.8,14.4c-0.5,1.1-1.9,1.6-3,1.1L62,15.1c-1.1-0.5-1.6-1.9-1.1-3l2.3-5.1c0.5-1.1,1.9-1.6,3-1.1L67,6.3
					c1.1,0.5,1.6,1.9,1.1,3L65.8,14.4z"/>
				<path class="st6" d="M67,6.3l-0.2-0.1c0,0.3-0.1,0.6-0.2,1l-2.3,5.1c-0.5,1.1-1.9,1.6-3,1.1l-0.6-0.3c0,0.8,0.5,1.7,1.3,2
					l0.8,0.3c1.1,0.5,2.5,0,3-1.1l2.3-5.1C68.6,8.1,68.1,6.8,67,6.3z"/>
				<path class="st7" d="M66.1,15.4c1.6,4.3-1,10.8-2.8,14.1c-0.8,1.5-1.9,3.1-3.2,4.5c-1.3,1.5-2.8,2.8-4.4,4
					c-4.9,3.7-11.1,5.6-17.2,5.4c-5.7-0.2-11.8-2.2-15.9-6.4c-0.6-0.6-1-1.1-1.3-1.5c-0.3-0.3-0.4-0.5-0.4-0.5
					c-1.3-1.9-0.9-4.5,1-5.9c2.5-1.8,7.5-0.6,10.5-0.8c3.7-0.3,8.1-0.9,11.4-2.8c0.1,0-0.2,0.1-0.2,0.1c4.5-2.2,8.8-5.2,12-9.1
					c2.2-2.7,4.8-6.9,8.8-3.8C65.2,13.6,65.7,14.4,66.1,15.4z"/>
				<path class="st8" d="M66.1,15.4c-0.3-0.9-0.8-1.6-1.6-2.3c0.3,4.1-1.8,9-3.3,11.8c-0.8,1.5-1.9,3.1-3.2,4.5
					c-1.3,1.5-2.8,2.8-4.4,4c-4.9,3.7-11.1,5.6-17.2,5.4c-5.7-0.2-11.8-2.2-15.9-6.4c-0.2-0.2-0.3-0.3-0.5-0.5
					c-0.2,1,0.1,2.1,0.7,3.1c0,0,0.1,0.2,0.4,0.5c0.3,0.3,0.7,0.9,1.3,1.5c4.1,4.1,10.2,6.2,15.9,6.4c6.1,0.2,12.3-1.8,17.2-5.4
					c1.6-1.2,3.1-2.6,4.4-4c1.3-1.5,2.3-3,3.2-4.5C65.1,26.2,67.7,19.7,66.1,15.4z"/>
			</g>
		</g>
		<path class="st5" d="M72.8,33.4c0.5-1.9,0.8-3.9,0.9-5.7c0.2-4.5-0.8-10.9-4.3-14.2c-0.4-0.3-0.7-0.6-1.1-0.9l1.8-4
			c0.8-1.8,0-3.8-1.8-4.6l-0.8-0.4c-1.8-0.8-3.8,0-4.6,1.8L61,9.6c-2.8-0.1-4.9,2.5-6.5,4.5c-0.2,0.3-0.5,0.6-0.7,0.9
			c-2.9,3.5-6.8,6.4-11.6,8.8c-0.1,0-0.2,0.1-0.3,0.2c-3.2,1.6-7.5,2.1-10.5,2.4c-0.9,0.1-2,0-3.1-0.1c-2.8-0.2-5.9-0.4-8,1.1
			c-2.4,1.7-3,5.1-1.3,7.6c0,0,0.2,0.2,0.5,0.7c0.1,0.1,0.2,0.2,0.2,0.3c0.3,0.3,0.7,0.8,1.1,1.2c2.1,2.1,4.6,3.7,7.7,4.9
			c2.1,0.8,4.3,1.3,6.5,1.6c-0.5,0.4-0.9,0.9-1.2,1.5c-1.4,2.6-0.5,5.9,2.2,7.4c0,0,0.2,0.1,0.8,0.4c0.1,0,0.2,0.1,0.3,0.1
			c0.2,0.1,0.5,0.2,0.8,0.3c0.2,0.1,0.5,0.2,0.7,0.3c5.4,1.9,12.1,1.4,18-1.3c5.8-2.7,10.8-7.4,13.6-13
			C71.6,37.2,72.3,35.3,72.8,33.4z M66.5,5.9C66.5,5.9,66.5,5.9,66.5,5.9l0.8,0.4c0.5,0.2,0.7,0.8,0.5,1.3l-1.9,4.1
			c-0.3-0.1-0.6-0.1-0.9-0.1c-0.2-0.2-0.5-0.5-0.7-0.7c-0.3-0.2-0.6-0.4-0.9-0.6l1.8-3.9C65.4,5.9,66,5.7,66.5,5.9z M22.8,35.3
			c-0.4-0.4-0.7-0.7-0.9-1c-0.1-0.1-0.2-0.2-0.3-0.3c-0.2-0.3-0.4-0.5-0.4-0.5c-0.9-1.3-0.6-3.2,0.7-4.1c1.4-1,4-0.8,6.4-0.6
			c1.3,0.1,2.4,0.2,3.5,0.1c3.4-0.3,8.3-0.9,11.9-2.9c0,0,0.1,0,0.1-0.1c5-2.5,9-5.6,12-9.3c0.2-0.3,0.5-0.6,0.7-0.9
			c1.9-2.4,3.4-4.1,5.2-3.4c0.4,0.1,0.7,0.4,1.1,0.7c0.6,0.5,1.1,1.1,1.4,1.9c1.4,3.8-1.1,10-2.7,13.1c-0.8,1.5-1.8,2.9-3,4.3
			c-1.1,1.3-2.5,2.6-4.2,3.9c-4.6,3.4-10.6,5.3-16.4,5.2c-2.8-0.1-5.7-0.6-8.2-1.6C26.9,38.6,24.6,37.1,22.8,35.3z M68.3,38.1
			c-2.6,5.1-7.1,9.4-12.5,11.8c-5.3,2.4-11.4,2.9-16.2,1.2c-0.5-0.2-1-0.4-1.3-0.5c-0.2-0.1-0.3-0.1-0.4-0.2
			c-0.3-0.2-0.5-0.3-0.5-0.3c-1.4-0.8-2-2.6-1.2-4c0.5-1,1.9-1.8,3.3-2.5c5.8-0.2,11.6-2.2,16.2-5.7c1.8-1.4,3.4-2.8,4.6-4.2
			c1.3-1.5,2.4-3.1,3.3-4.8c0.8-1.5,4.5-8.7,3.2-14.2c0.1-0.1,0.1-0.1,0.2-0.2c0.2,0.2,0.5,0.3,0.7,0.5c3.1,2.9,3.7,9.1,3.5,12.3
			c-0.1,1.7-0.3,3.4-0.8,5.2C70,34.5,69.3,36.3,68.3,38.1z"/>
	</g>
</g>
</svg>
