<?xml version="1.0" encoding="utf-8"?>
<!-- Generator: Adobe Illustrator 24.2.3, SVG Export Plug-In . SVG Version: 6.00 Build 0)  -->
<svg version="1.1" id="Layer_1" xmlns="http://www.w3.org/2000/svg" xmlns:xlink="http://www.w3.org/1999/xlink" x="0px" y="0px"
	 viewBox="0 0 78.7 50.1" style="enable-background:new 0 0 78.7 50.1;" xml:space="preserve">
<style type="text/css">
	.st0{fill:#FFFFFF;}
	.st1{fill:#67A7BC;}
	.st2{fill:#7A9C4E;}
	.st3{fill:#73B05A;}
	.st4{fill:#FDC24E;}
	.st5{fill:#EF4E4C;}
	.st6{fill:#DBF288;}
	.st7{fill:#C0DB6E;}
	.st8{fill:#79A500;}
	.st9{fill:#97C130;}
	.st10{fill:#231F20;}
	.st11{fill:#68A508;}
	.st12{fill:#92C100;}
	.st13{fill:#F09300;}
	.st14{fill:#DD6900;}
</style>
<g>
	<g>
		<path class="st0" d="M3296.8,2868.3c0-41.2-33.4-74.6-74.6-74.6c-41.2,0-74.6,33.4-74.6,74.6c0,41.2,33.4,74.6,74.6,74.6
			C3263.4,2942.9,3296.8,2909.5,3296.8,2868.3z"/>
		<g>
			<path class="st1" d="M3254.9,2868.3c0-18.1-14.7-32.8-32.8-32.8s-32.8,14.7-32.8,32.8s14.7,32.8,32.8,32.8
				S3254.9,2886.4,3254.9,2868.3z"/>
		</g>
		<path class="st2" d="M3397.7,2474.5c-11.4-2-23,8.6-28.2,24.6c-10.4-13.2-24.9-19.2-34.9-13.4c-11.5,6.7-12.6,26.5-2.4,44.2
			c14.3,24.7,49.3,37,49.3,37s28.7-23.5,33.6-51.6C3418.5,2495.1,3410.8,2476.8,3397.7,2474.5z"/>
		<g>
			<path class="st3" d="M3502.9,2677.4l-14.7,97.6c-3.4,22.5-24.8,41-47.6,41h-138.8c-22.8,0-53-14.6-67.2-32.4l-84.2-106.1h352.5
				V2677.4z"/>
		</g>
		<path class="st4" d="M3375.2,2677.4L3375.2,2677.4c0-40.7-13.7-73.8-48.2-73.8c-9.6,0-17.2,1.7-23.4,4.7
			c-5.7-6.3-13.7-9.9-24.8-9.9s-19.1,3.6-24.8,9.9c-6.2-3-13.8-4.7-23.4-4.7c-34.5,0-48.2,33-48.2,73.8l0,0H3375.2z"/>
		<path class="st0" d="M3508.2,2581.6c-14.5-14.3-37.9-14-52.2,0.5c-2.8,2.9-4.9,6.5-6.6,9.7c-13.4,25.4-45.4,51.2-75.4,65.3
			c0.8,6.4,1.3,13.2,1.3,20.3l0,0h112.3c14.4-18.7,25.8-39.6,30.5-60.8C3520.7,2604.5,3517.8,2591,3508.2,2581.6z"/>
		<path class="st5" d="M3437.9,2606.3c-4.7-26.5-21.4-45.7-56.5-39.5c-27.1,4.8-38.7,20.1-40.4,39c19.3,6.2,29.6,25.9,33,51.3
			c23.4-11,48.1-29.1,64.1-48.7C3438,2607.7,3438,2607,3437.9,2606.3z"/>
	</g>
	<g>
		<path d="M3222.1,2826.6c-23,0-41.8,18.7-41.8,41.8c0,5,4,9,9,9s9-4,9-9c0-13.1,10.7-23.8,23.8-23.8s23.8,10.7,23.8,23.8
			s-10.7,23.8-23.8,23.8c-5,0-9,4-9,9s4,9,9,9c23,0,41.8-18.7,41.8-41.7C3263.9,2845.3,3245.2,2826.6,3222.1,2826.6z"/>
		<path d="M3719.4,2664.9h-46.8c-3.7,0-6.9,1.6-9.2,4.1c-68.9,6.1-121.5,79.4-141.9,107.7l-2.7,3.7c-9.4,12.9-16.6,20.2-34.7,23.8
			c6.7-7.9,11.4-17.4,13-27.7l8.5-56.8c0.7-4.9-2.6-9.5-7.6-10.2c-4.9-0.7-9.5,2.6-10.2,7.6l-8.5,56.8
			c-2.7,18.1-20.4,33.3-38.7,33.3h-138.8c-20.1,0-47.7-13.3-60.2-29l-72.6-91.5h348.3c5,0,9-4,9-9s-4-9-9-9h-12.5
			c10.9-16.8,18.3-33.6,21.9-49.9c3.5-16.1-1.1-32.3-12.4-43.4c-2.1-2-4.3-3.9-6.7-5.4c4.5-15.5,1-32.5-9.8-45
			c-3.3-3.7-8.9-4.2-12.7-0.9c-3.8,3.2-4.2,8.9-0.9,12.7c6.3,7.4,8.6,17.1,6.6,26.4c-2.8-0.5-5.7-0.8-8.6-0.8c-0.2,0-0.3,0-0.5,0
			c-12.2,0.1-23.7,5-32.3,13.8c-3.7,3.7-6.2,8.1-8.1,11.6c-7.5-16.9-20.8-27.2-38.5-29.9c8.6-10.3,18-24.7,20.8-40.7
			c4.5-25.4-6.3-47.9-24.6-51.1c-12.2-2.1-24.4,5.1-32.5,18.1c-7.4-5.8-15.7-9.3-23.7-9.3c-4.7,0-9.1,1.1-13,3.4
			c-16.1,9.3-18.6,34.1-5.7,56.4c8.2,14.1,21.9,24.4,33.5,31.2c-12.2,6.6-20.5,16.6-24,29.6c-2.2-0.3-4.4-0.4-6.7-0.4
			c-8,0-15.2,1.1-21.5,3.2c-4.6-3.6-10.2-6.2-17.1-7.5c2.4-8.7,8.6-16.1,17.2-19.8c4.6-2,6.7-7.3,4.7-11.8c-2-4.6-7.2-6.7-11.8-4.7
			c-15.2,6.5-25.7,20.2-28.5,36.1c-7.2,1.2-13.1,3.9-17.9,7.7c-6.3-2.1-13.5-3.2-21.5-3.2c-33.7,0-54.5,27.4-56.9,73.8H3136
			c-5,0-9,4-9,9s4,9,9,9h10.2l78.1,98.4c-0.7,0-1.4-0.1-2.1-0.1c-46.1,0-83.6,37.5-83.6,83.6s37.5,83.6,83.6,83.6
			s83.6-37.5,83.6-83.6c0-16.2-4.7-31.2-12.7-44c3,0.4,5.9,0.6,8.8,0.6h138.8c12,0,22.2-0.3,31-1.1l-9.4,66.7
			c-3.4,24-12,40-23.1,42.8c-10.9,2.8-25.2-6.4-39.3-25.1l-42.8-56.9c-3-4-8.6-4.8-12.6-1.8s-4.8,8.6-1.8,12.6l42.8,56.9
			c16.1,21.4,33.5,32.8,49.6,32.8c2.9,0,5.7-0.4,8.4-1.1c18.8-4.8,31.8-25.3,36.4-57.7l10.2-71.9c19.5-4.4,30.8-13.4,43.1-30.3
			l2.7-3.7c17.1-23.8,67.8-94.2,128.3-100.2c2.2,1.9,5.1,3.1,8.2,3.1h46.8c7,0,12.6-5.6,12.6-12.6
			C3731.9,2670.5,3726.3,2664.9,3719.4,2664.9z M3384,2668.5c-0.1-2.1-0.3-4-0.5-6c24.9-12.8,53.5-34.7,69.3-59
			c13.5,7.7,15.9,17.4,15.9,17.7c0.6,3,2.6,5.4,5.3,6.6c1.1,0.5,2.3,0.7,3.5,0.7c1.7,0,3.5-0.5,5-1.5c0.1-0.1,9-5.5,23.7-1.9
			c-4.7,14.1-12.6,28.8-23.3,43.4H3384z M3482.1,2580.1c0.1,0,0.2,0,0.3,0c7.3,0,14.3,2.8,19.5,8c5.2,5.1,8,12,8.1,19.4
			c-11.6-2.7-21.1-1.5-27.6,0.4c-3.3-5.8-9.4-13.3-19.9-19.5C3467.7,2583.1,3474.7,2580.1,3482.1,2580.1z M3396.1,2483.4
			c7,1.2,12.8,14.5,10,30.3c-1.9,10.8-8,21-14.2,29c-0.4-12.9-2.7-28.5-10.2-41.5c-0.7-1.2-1.5-2.3-2.2-3.4
			C3383.6,2488.5,3390.4,2482.4,3396.1,2483.4z M3339.9,2525.3c-8-13.9-7.1-28.3-0.9-31.9c1.2-0.7,2.5-1,4-1
			c6.2,0,16.1,5.6,23.1,17.7c7.8,13.6,8.3,31.9,7.6,43.6C3363.3,2548.5,3347.8,2539,3339.9,2525.3z M3382.9,2575.7
			c25.2-4.5,40.5,5.8,45.5,30.1c-12.2,13.9-29.5,27.6-47.9,37.9c-5.1-20.9-15.2-35.9-29.6-43.4
			C3354.5,2587,3365,2578.9,3382.9,2575.7z M3366,2668.5h-39.3c-0.2-17.7-1.4-39-9.1-55c2.9-0.5,6-0.8,9.5-0.8
			C3357.2,2612.7,3364.7,2644.4,3366,2668.5z M3278.9,2607.4c21,0,28.9,15.6,29.8,61h-59.6C3250,2623.1,3257.9,2607.4,3278.9,2607.4
			z M3230.7,2612.7c3.4,0,6.5,0.3,9.4,0.7c-7.7,16.1-8.9,37.4-9.1,55h-39.3C3193.1,2644.4,3200.6,2612.7,3230.7,2612.7z
			 M3222.1,2934c-36.2,0-65.6-29.4-65.6-65.6c0-36.2,29.4-65.6,65.6-65.6c36.2,0,65.6,29.4,65.6,65.6
			C3287.8,2904.5,3258.3,2934,3222.1,2934z"/>
	</g>
</g>
<g>
	<g>
		<g>
			<path class="st4" d="M2572.3,2706.6c0,55.5-45,100.4-100.4,100.4s-100.4-45-100.4-100.4c0-55.5,45-100.4,100.4-100.4
				S2572.3,2651.2,2572.3,2706.6z"/>
		</g>
		<g>
			<path class="st0" d="M2531.3,2706.6c0,25.7-8.6,46.6-19.2,46.6c-10.6,0-19.3-20.9-19.3-46.6c0-25.7,8.6-46.6,19.3-46.6
				C2522.7,2660.1,2531.3,2680.9,2531.3,2706.6z"/>
		</g>
		<g>
			<path class="st3" d="M2472.6,2808.4c77.2-33.3,162.1-52,251.3-52.6l0,0c-22.9,118.3-127,207.6-252,207.6h-0.3
				c-125,0-229.1-89.3-252-207.6c25.4,0,50.4,1.6,75,4.5L2472.6,2808.4z"/>
		</g>
		<g>
			<g>
				<polygon class="st0" points="2463.7,2804.6 2463.7,2738.9 2412.8,2680 2346.3,2680 2294.6,2735.4 2294.6,2793.7 2362,2805.4 
									"/>
			</g>
		</g>
	</g>
	<g>
		<path d="M2728.6,2697.7H2617c-5,0-9,4-9,9s4,9,9,9h111.6c5,0,9-4,9-9S2733.5,2697.7,2728.6,2697.7z"/>
		<path d="M2270.5,2715.6c5,0,9-4,9-9s-4-9-9-9h-55.3c-5,0-9,4-9,9s4,9,9,9H2270.5z"/>
		<path d="M2599.8,2660.1c1.3,3.7,4.8,5.9,8.4,5.9c1,0,2.1-0.2,3.1-0.5l104.8-38.1c4.7-1.7,7.1-6.9,5.4-11.5
			c-1.7-4.7-6.8-7-11.5-5.4l-104.8,38.1C2600.5,2650.3,2598.1,2655.4,2599.8,2660.1z"/>
		<path d="M2576.2,2619.2c1.8,2.1,4.3,3.2,6.9,3.2c2,0,4.1-0.7,5.8-2.1l85.5-71.7c3.8-3.2,4.3-8.9,1.1-12.7s-8.9-4.3-12.7-1.1
			l-85.5,71.7C2573.5,2609.7,2573,2615.4,2576.2,2619.2z"/>
		<path d="M2540,2588.8c1.4,0.8,3,1.2,4.5,1.2c3.1,0,6.1-1.6,7.8-4.5l55.8-96.6c2.5-4.3,1-9.8-3.3-12.3s-9.8-1-12.3,3.3l-55.8,96.6
			C2534.2,2580.8,2535.7,2586.3,2540,2588.8z"/>
		<path d="M2495.6,2572.6c0.5,0.1,1.1,0.1,1.6,0.1c4.3,0,8.1-3.1,8.8-7.4l19.4-109.9c0.9-4.9-2.4-9.5-7.3-10.4
			c-4.9-0.8-9.5,2.4-10.4,7.3l-19.4,109.9C2487.4,2567.1,2490.7,2571.7,2495.6,2572.6z"/>
		<path d="M2446.7,2572.7c0.5,0,1,0,1.6-0.1c4.9-0.9,8.2-5.5,7.3-10.4l-19.4-109.9c-0.9-4.9-5.6-8.1-10.4-7.3
			c-4.9,0.9-8.2,5.5-7.3,10.4l19.4,109.9C2438.6,2569.7,2442.4,2572.7,2446.7,2572.7z"/>
		<path d="M2391.6,2585.5c1.7,2.9,4.7,4.5,7.8,4.5c1.5,0,3.1-0.4,4.5-1.2c4.3-2.5,5.8-8,3.3-12.3l-55.8-96.6
			c-2.5-4.3-8-5.8-12.3-3.3s-5.8,8-3.3,12.3L2391.6,2585.5z"/>
		<path d="M2355,2620.3c1.7,1.4,3.7,2.1,5.8,2.1c2.6,0,5.1-1.1,6.9-3.2c3.2-3.8,2.7-9.5-1.1-12.7l-85.5-71.7
			c-3.8-3.2-9.5-2.7-12.7,1.1s-2.7,9.5,1.1,12.7L2355,2620.3z"/>
		<path d="M2227.7,2627.3l91.9,33.4c1,0.4,2.1,0.5,3.1,0.5c3.7,0,7.1-2.3,8.4-5.9c1.7-4.7-0.7-9.8-5.4-11.5l-91.9-33.4
			c-4.7-1.7-9.8,0.7-11.5,5.4S2223,2625.6,2227.7,2627.3z"/>
		<path d="M2391.4,2645.9c3.7,3.3,9.4,3.1,12.7-0.6c17.3-19.1,42-30.1,67.8-30.1c50.4,0,91.4,41,91.4,91.5c0,8.4-1.1,16.7-3.4,24.7
			c-1.3,4.8,1.5,9.7,6.2,11.1c0.8,0.2,1.6,0.3,2.4,0.3c3.9,0,7.5-2.6,8.6-6.6c2.7-9.6,4-19.5,4-29.6c0-60.3-49.1-109.4-109.4-109.4
			c-30.8,0-60.4,13.1-81.1,36C2387.4,2636.9,2387.7,2642.6,2391.4,2645.9z"/>
		<path d="M2723.9,2746.8L2723.9,2746.8c-69.8,0.5-137.8,11.9-202.9,33.7V2760c12.7-7.4,19.2-30.3,19.2-53.1
			c0-27.6-9.7-55.5-28.2-55.5s-28.2,27.9-28.2,55.5c0,22.7,6.6,45.7,19.3,53.1v26.7c-10.2,3.7-20.3,7.7-30.3,12l0,0v-59.8
			c0-2.2-0.8-4.2-2.2-5.9l-50.9-58.8c-0.1-0.2-0.3-0.3-0.5-0.5l0,0c-0.1-0.1-0.1-0.1-0.2-0.2l0,0l0,0l0,0l0,0
			c-1.6-1.5-3.7-2.4-6.1-2.4l0,0l0,0l0,0l0,0l0,0h-66.5c-2.5,0-4.9,1-6.6,2.9l-51.7,55.4c-1.6,1.7-2.4,3.9-2.4,6.1v14.9
			c-21.8-2.2-43.9-3.5-65.9-3.5l0,0c-2.7,0-5.2,1.2-6.9,3.3s-2.4,4.8-1.9,7.4c24.1,124.5,133.8,214.9,261.1,214.9
			c127,0,236.7-90.3,260.8-214.8c0.5-2.6-0.2-5.4-1.9-7.5C2729.1,2748,2726.6,2746.8,2723.9,2746.8z M2511.8,2669.3
			c2.9,0.9,10.5,13.9,10.5,37.6c0,23.2-7.3,36.1-10.3,37.5c-3-1.4-10.3-14.3-10.3-37.5C2501.7,2683.2,2509.3,2670.2,2511.8,2669.3z
			 M2412.8,2693.8l41.9,48.5v62.4c0,3.6,2.2,6.9,5.5,8.3c56.6,23.6,109.2,55.4,156.7,94.4c-18.7,13.5-39.2,24.4-61.2,32.3
			c-53.3-57.9-115.4-104.9-184.9-139.6v-57.8L2412.8,2693.8z M2303.6,2744.9l49.4,2.5v47.4l-49.4-8.6V2744.9z M2350.2,2689h42.9
			l-35.1,40.7l-43.7-2.2L2350.2,2689z M2249.5,2816.3c64.4,34.3,121.4,78.7,170,132.5C2345.6,2932.9,2282.8,2883.7,2249.5,2816.3z
			 M2471.6,2954.3c-8.2,0-16.3-0.4-24.4-1.2c-57.7-68.3-127.9-123-208.7-162.6c-3-8.3-5.6-16.9-7.7-25.6c18.3,0.4,36.7,1.6,54.8,3.6
			v25.3c0,4.4,3.1,8.1,7.4,8.9l66,11.5c66.5,32.7,126.2,77,177.7,131.6C2515.9,2951.3,2494.1,2954.3,2471.6,2954.3z M2631.5,2896
			c-41.7-34.7-87.3-64-136.1-87.1c26.4-10.4,53.3-18.9,80.7-25.6c-5.3,9.5-10.4,19.1-15.1,28.8c-2.2,4.5-0.4,9.8,4.1,12
			c1.3,0.6,2.6,0.9,4,0.9c3.3,0,6.5-1.8,8.1-5c7-14.3,14.7-28.4,22.7-42.1c16.6-3.4,33.3-6.2,50.2-8.3c-15,25.6-28.3,52.2-39.6,79.3
			c-1.9,4.6,0.3,9.8,4.8,11.7c1.1,0.5,2.3,0.7,3.4,0.7c3.5,0,6.9-2.1,8.3-5.5c12.6-30.4,27.9-60.1,45.2-88.4
			c13.4-1.2,26.9-2.1,40.5-2.4C2700.1,2817.4,2670.9,2862.8,2631.5,2896z"/>
		<path d="M2412.8,2803.1c5,0,9-4,9-9v-22.5c0-5-4-9-9-9s-9,4-9,9v22.6C2403.8,2799.1,2407.8,2803.1,2412.8,2803.1z"/>
	</g>
</g>
<g>
	<g>
		<g>
			<path class="st6" d="M58.9,43.2c0,2.3-1.9,4.2-4.2,4.2h-5.9c-2.3,0-4.2-1.9-4.2-4.2v-1.4c0-2.3,1.9-4.2,4.2-4.2h5.9
				c2.3,0,4.2,1.9,4.2,4.2V43.2z"/>
			<path class="st7" d="M54.7,37.5c0.6,0.7,0.9,1.6,0.9,2.6v1.4c0,2.3-1.9,4.2-4.2,4.2h-5.9c0,0,0,0-0.1,0c0.8,1,2,1.6,3.3,1.6h5.9
				c2.3,0,4.2-1.9,4.2-4.2v-1.4C58.9,39.4,57,37.6,54.7,37.5z"/>
			<g>
				<path class="st8" d="M77.7,24.8c0,9.3-7.5,16.9-16.9,16.9c-9.3,0-16.9-7.5-16.9-16.9C44,15.5,51.5,8,60.8,8S77.7,15.5,77.7,24.8
					z"/>
				<path class="st8" d="M59.4,24.8c0,9.3-7.5,16.9-16.9,16.9c-9.3,0-16.9-7.5-16.9-16.9C25.7,15.5,33.2,8,42.5,8
					S59.4,15.5,59.4,24.8z"/>
				<path class="st9" d="M72,21.4c0,11.2-9.1,20.3-20.3,20.3s-20.3-9.1-20.3-20.3S40.5,1.1,51.7,1.1C62.9,1.1,72,10.2,72,21.4z"/>
			</g>
			<path class="st6" d="M50,23.8c0-1,3.5-1,3.5,0v15.4c0,1-0.8,1.7-1.7,1.7l0,0c-1,0-1.7-0.8-1.7-1.7L50,23.8L50,23.8z"/>
			<g>
				<path class="st6" d="M63.9,26L63.9,26c-0.5-0.5-1.4-0.5-1.9,0l-9.3,9.3c0,1.2,0,2.5,0.1,3.7L64,27.8
					C64.5,27.3,64.5,26.5,63.9,26z"/>
				<path class="st6" d="M52.5,26.4l8.2-8.2c0.5-0.5,0.5-1.4,0-1.9l0,0c-0.5-0.5-1.4-0.5-1.9,0l-7,7l-7-7c-0.5-0.5-1.4-0.5-1.9,0
					l0,0c-0.5,0.5-0.5,1.4,0,1.9l8.2,8.2c0.1,0.4,0.2,0.8,0.2,1.2l0.5-0.5l0.5,0.5C52.3,27.2,52.4,26.8,52.5,26.4z"/>
				<path class="st6" d="M39.6,26L39.6,26c-0.5,0.5-0.5,1.4,0,1.9L50.7,39c0-1.2,0.1-2.5,0.1-3.7L41.5,26C41,25.4,40.1,25.4,39.6,26
					z"/>
			</g>
			<path class="st6" d="M51.7,8.3L51.7,8.3c-0.8,0-1.4,0.6-1.4,1.3v13.2c0.9,0.9,1.8,1.7,2.7,2.6V9.6C53,8.9,52.4,8.3,51.7,8.3z"/>
			<path class="st6" d="M49.3,36.6c0-0.4,4.9-0.4,4.9,0v4.8c0,0.4-1.1,0.7-2.4,0.7l0,0c-1.3,0-2.4-0.3-2.4-0.7L49.3,36.6L49.3,36.6z
				"/>
		</g>
		<path class="st10" d="M68.7,9.3C64.8,4,58.5,0.4,51.3,0.4c-7.1,0-13.5,3.5-17.4,8.9c-5.8,3-9.8,9-9.8,16c0,9.9,8.1,18,18,18
			c0.3,0,0.6,0,0.9,0c0.2,2.8,2.5,5.1,5.4,5.1h5.9c2.9,0,5.2-2.3,5.4-5.1c0.3,0,0.5,0,0.8,0c9.9,0,18-8.1,18-18
			C78.5,18.4,74.5,12.3,68.7,9.3z M51.3,2.8c10.6,0,19.1,8.6,19.1,19.1c0,10.2-8,18.5-18,19.1v-4.5l10.3-10.3c0.5-0.5,0.5-1.2,0-1.6
			s-1.2-0.5-1.6,0l-8.6,8.6v-9.4l6.2-6.2c0.5-0.5,0.5-1.2,0-1.6s-1.2-0.5-1.6,0l-4.5,4.5V9.8c0-0.6-0.5-1.2-1.2-1.2
			s-1.2,0.5-1.2,1.2v10.7L45.7,16c-0.5-0.5-1.2-0.5-1.6,0s-0.5,1.2,0,1.6l6.2,6.2v9.4l-8.6-8.6c-0.5-0.5-1.2-0.5-1.6,0
			c-0.5,0.5-0.5,1.2,0,1.6l10.3,10.3V41c-10-0.6-18-8.9-18-19.1C32.2,11.3,40.8,2.8,51.3,2.8z M26.5,25.3c0-4.5,1.9-8.5,4.9-11.4
			c-1,2.5-1.5,5.1-1.5,8c0,8.3,4.8,15.6,11.8,19.1C33.2,40.7,26.5,33.8,26.5,25.3z M54.3,46.1h-5.9c-1.7,0-3-1.4-3.1-3
			c0.4-0.1,0.8-0.2,1.2-0.3c1.5,0.4,3.1,0.5,4.8,0.5c1.6,0,3.2-0.2,4.8-0.5c0.4,0.1,0.9,0.2,1.3,0.3C57.4,44.8,56,46.1,54.3,46.1z
			 M61,41c7-3.5,11.8-10.8,11.8-19.1c0-2.8-0.5-5.5-1.5-8c3,2.9,4.9,6.9,4.9,11.4C76.2,33.8,69.4,40.7,61,41z"/>
	</g>
	<g>
		<g>
			<path class="st11" d="M15.7,41c1.4,0.2,2.7-0.7,3-2.1l0,0c0.2-1.4-0.7-2.7-2.1-3l-4.2-0.7c-1.4-0.2-2.7,0.7-3,2.1l0,0
				c-0.2,1.4,0.7,2.7,2.1,3L15.7,41z"/>
			<g>
				<g>
					<path class="st11" d="M6.6,40.3L6.6,40.3c4.2,0.7,7.1-2.3,7.1-2.3s-1.8-3.8-5.9-4.5l0,0l0,0c-4-0.7-7.1,2.3-7.1,2.3
						S2.6,39.7,6.6,40.3L6.6,40.3z"/>
				</g>
				<g>
					<path class="st12" d="M10,45.1C10,45.1,10,45,10,45.1c3.5-2.7,3.7-6.9,3.7-6.9S10,37,6.6,39.6l0,0l0,0C3.3,42.2,3,46.5,3,46.5
						S6.7,47.6,10,45.1L10,45.1z"/>
					<path class="st11" d="M10,45.1C10,45.1,10,45,10,45.1c3.5-2.7,3.7-6.9,3.7-6.9L2.9,46.6C2.9,46.6,6.7,47.6,10,45.1L10,45.1z"/>
				</g>
				<g>
					<path class="st11" d="M7.6,34.1L7.6,34.1c2.4,3.7,6.2,3.8,6.2,3.8s1.2-4.1-1.1-7.7l0,0l0,0c-2.2-3.5-6.2-3.8-6.2-3.8
						S5.3,30.5,7.6,34.1L7.6,34.1z"/>
					<path class="st12" d="M7.6,34.1L7.6,34.1c2.4,3.7,6.2,3.8,6.2,3.8L6.4,26.3C6.4,26.3,5.3,30.5,7.6,34.1L7.6,34.1z"/>
				</g>
			</g>
			<path class="st13" d="M14.9,38.2L14.9,38.2L14.9,38.2L14.9,38.2L14.9,38.2c1.4-8.3,8.1-8.1,9.9-7.5l29.8,11.1
				c1.9,0.6,3.1,1.6,2.8,3.6l0,0l0,0l0,0l0,0c-0.4,2-1.8,2.5-3.8,2.5l-31.8,0.6C19.9,48.5,13.5,46.5,14.9,38.2z"/>
			<path class="st14" d="M14.8,41.7c1.8,2.5,4.8,3.3,6,3.3L54,44.7c1.4,0,3.1-0.1,3.2-0.9c0.2,0.5,0.3,1,0.2,1.7l0,0l0,0l0,0l0,0
				c-0.4,2-1.8,2.5-3.8,2.5l-31.8,0.6C20.2,48.5,15.4,47.1,14.8,41.7z"/>
			<path class="st14" d="M22.8,34.2c0.1-0.5-0.3-1-0.8-1.1l0,0c-0.5-0.1-1,0.3-1.1,0.8l-0.4,2.3c-0.1,0.5,0.3,1,0.8,1.1l0,0
				c0.5,0.1,1-0.3,1.1-0.8L22.8,34.2z"/>
			<path class="st14" d="M27.2,42.8c0.1-0.5-0.3-1-0.8-1.1l0,0c-0.5-0.1-1,0.3-1.1,0.8l-0.4,2.3c-0.1,0.5,0.3,1,0.8,1.1l0,0
				c0.5,0.1,1-0.3,1.1-0.8L27.2,42.8z"/>
			<path class="st14" d="M35.6,38.8c0.1-0.5-0.3-1-0.8-1.1l0,0c-0.5-0.1-1,0.3-1.1,0.8l-0.4,2.3c-0.1,0.5,0.3,1,0.8,1.1l0,0
				c0.5,0.1,1-0.3,1.1-0.8L35.6,38.8z"/>
			<path class="st14" d="M44.5,43.4c0.1-0.5-0.3-1-0.8-1.1l0,0c-0.5-0.1-1,0.3-1.1,0.8l-0.4,2.3c-0.1,0.5,0.3,1,0.8,1.1l0,0
				c0.5,0.1,1-0.3,1.1-0.8L44.5,43.4z"/>
		</g>
		<g>
			<path class="st10" d="M15.7,46.5c2,2.5,5,3.2,6.2,3.2l31.8-0.6c1,0,4.2,0.1,4.9-3.3v-0.1c0,0,0,0,0-0.1v-0.1
				c0.5-3.4-2.6-4.4-3.6-4.7l-14.8-5.5c0-0.2-0.2-0.3-0.4-0.3c-0.1,0-0.2,0-0.3,0l-14.1-5.2c-1.3-0.4-4.3-0.7-7,0.9
				c-1.3,0.8-2.4,1.9-3.2,3.4c-0.2-1.4-0.6-2.9-1.5-4.4c0,0,0,0,0-0.1c-2.5-4-6.9-4.3-7.1-4.3c-0.6,0-1,0.3-1.2,0.9
				c0,0-0.1,0.2-0.1,0.6c-0.2,1-0.4,3.3,0.4,5.7c-3.2,0.4-5.5,2.5-5.6,2.6c-0.4,0.4-0.5,0.9-0.2,1.4c0.1,0.1,1.5,2.8,4.4,4.3
				c-1.4,2-2,4.2-2.1,5.2C2,46.3,2,46.5,2,46.5c0,0.5,0.3,1.1,0.8,1.2c0.2,0,4.4,1.2,8-1.7c0,0,0.1,0,0.1-0.1c1.4-1.1,2.3-2.4,3-3.7
				C14.2,43.9,14.8,45.3,15.7,46.5z M4.5,45.6c0.3-1.3,1.1-3.5,3-5l0,0c0,0,0,0,0.1,0c1.9-1.5,3.9-1.6,5.1-1.5c-0.3,1.3-1,3.4-3,5
				c0,0-0.1,0-0.1,0.1C7.7,45.6,5.7,45.7,4.5,45.6z M6.7,34.7C6.7,34.7,6.8,34.7,6.7,34.7c0.7,1.1,1.5,1.9,2.3,2.5
				c-0.9,0.3-1.9,0.8-2.9,1.5l0,0c0,0,0,0-0.1,0s-0.1,0.1-0.2,0.1C4.2,38.3,3,37,2.4,36.1C3.3,35.5,4.9,34.7,6.7,34.7z M11.8,30.8
				c1.4,2.1,1.3,4.5,1.2,5.8c-1.1-0.3-2.9-1-4.2-3v-0.1c-1.3-2.1-1.3-4.4-1.2-5.8C8.7,28,10.5,28.8,11.8,30.8
				C11.8,30.7,11.8,30.7,11.8,30.8z M17.5,45c-1.3-1.6-1.7-3.8-1.3-6.6c0.5-2.8,1.6-4.8,3.4-5.8c2.1-1.3,4.4-0.9,5-0.7L38.2,37
				L38,38.7c-0.1,0.6,0.3,1.2,0.9,1.3c0.6,0.1,1.2-0.3,1.3-0.9l0.2-1.4l14,5.3c1.9,0.6,2.2,1.3,2,2.3l0,0c-0.2,1-0.7,1.6-2.6,1.5
				L44.5,47l0.3-1.9c0.1-0.6-0.3-1.2-0.9-1.3c-0.6-0.1-1.2,0.3-1.3,0.9L42.1,47L22,47.4C21.4,47.4,19.1,46.9,17.5,45z"/>
			<path class="st10" d="M22.4,37.5l0.5-2.8c0.1-0.6,0.7-1.1,1.3-0.9c0.6,0.1,1.1,0.7,0.9,1.3l-0.5,2.8c-0.1,0.6-0.7,1.1-1.3,0.9
				C22.7,38.8,22.3,38.2,22.4,37.5z"/>
			<path class="st10" d="M28.8,44.1l0.5-2.8c0.1-0.6,0.7-1.1,1.3-0.9s1.1,0.7,0.9,1.3L31,44.5c-0.1,0.6-0.7,1.1-1.3,0.9
				C29.2,45.3,28.7,44.7,28.8,44.1z"/>
		</g>
	</g>
</g>
</svg>
