<?xml version="1.0" encoding="utf-8"?>
<!-- Generator: Adobe Illustrator 24.2.3, SVG Export Plug-In . SVG Version: 6.00 Build 0)  -->
<svg version="1.1" id="Layer_1" xmlns="http://www.w3.org/2000/svg" xmlns:xlink="http://www.w3.org/1999/xlink" x="0px" y="0px"
	 viewBox="0 0 78.7 51.8" style="enable-background:new 0 0 78.7 51.8;" xml:space="preserve">
<style type="text/css">
	.st0{fill:#FFFFFF;}
	.st1{fill:#67A7BC;}
	.st2{fill:#7A9C4E;}
	.st3{fill:#73B05A;}
	.st4{fill:#FDC24E;}
	.st5{fill:#EF4E4C;}
	.st6{fill:#E83636;}
	.st7{fill:#BF132C;}
	.st8{fill:#FFA05F;}
	.st9{fill:#92C100;}
	.st10{fill:#68A508;}
	.st11{fill:#231F20;}
	.st12{fill:#809600;}
	.st13{fill:#B9CC00;}
	.st14{fill:#8C6128;}
	.st15{fill:#75481C;}
	.st16{fill:#AA793F;}
</style>
<g>
	<g>
		<path class="st0" d="M3296.8,2870c0-41.2-33.4-74.6-74.6-74.6c-41.2,0-74.6,33.4-74.6,74.6c0,41.2,33.4,74.6,74.6,74.6
			C3263.4,2944.6,3296.8,2911.2,3296.8,2870z"/>
		<g>
			<path class="st1" d="M3254.9,2870c0-18.1-14.7-32.8-32.8-32.8s-32.8,14.7-32.8,32.8s14.7,32.8,32.8,32.8
				S3254.9,2888.1,3254.9,2870z"/>
		</g>
		<path class="st2" d="M3397.7,2476.2c-11.4-2-23,8.6-28.2,24.6c-10.4-13.2-24.9-19.2-34.9-13.4c-11.5,6.7-12.6,26.5-2.4,44.2
			c14.3,24.7,49.3,37,49.3,37s28.7-23.5,33.6-51.6C3418.5,2496.8,3410.8,2478.5,3397.7,2476.2z"/>
		<g>
			<path class="st3" d="M3502.9,2679.1l-14.7,97.6c-3.4,22.5-24.8,41-47.6,41h-138.8c-22.8,0-53-14.6-67.2-32.4l-84.2-106.1h352.5
				V2679.1z"/>
		</g>
		<path class="st4" d="M3375.2,2679.1L3375.2,2679.1c0-40.7-13.7-73.8-48.2-73.8c-9.6,0-17.2,1.7-23.4,4.7
			c-5.7-6.3-13.7-9.9-24.8-9.9s-19.1,3.6-24.8,9.9c-6.2-3-13.8-4.7-23.4-4.7c-34.5,0-48.2,33-48.2,73.8l0,0H3375.2z"/>
		<path class="st0" d="M3508.2,2583.3c-14.5-14.3-37.9-14-52.2,0.5c-2.8,2.9-4.9,6.5-6.6,9.7c-13.4,25.4-45.4,51.2-75.4,65.3
			c0.8,6.4,1.3,13.2,1.3,20.3l0,0h112.3c14.4-18.7,25.8-39.6,30.5-60.8C3520.7,2606.2,3517.8,2592.7,3508.2,2583.3z"/>
		<path class="st5" d="M3437.9,2608c-4.7-26.5-21.4-45.7-56.5-39.5c-27.1,4.8-38.7,20.1-40.4,39c19.3,6.2,29.6,25.9,33,51.3
			c23.4-11,48.1-29.1,64.1-48.7C3438,2609.4,3438,2608.7,3437.9,2608z"/>
	</g>
	<g>
		<path d="M3222.1,2828.3c-23,0-41.8,18.7-41.8,41.8c0,5,4,9,9,9s9-4,9-9c0-13.1,10.7-23.8,23.8-23.8s23.8,10.7,23.8,23.8
			s-10.7,23.8-23.8,23.8c-5,0-9,4-9,9s4,9,9,9c23,0,41.8-18.7,41.8-41.7C3263.9,2847,3245.2,2828.3,3222.1,2828.3z"/>
		<path d="M3719.4,2666.6h-46.8c-3.7,0-6.9,1.6-9.2,4.1c-68.9,6.1-121.5,79.4-141.9,107.7l-2.7,3.7c-9.4,12.9-16.6,20.2-34.7,23.8
			c6.7-7.9,11.4-17.4,13-27.7l8.5-56.8c0.7-4.9-2.6-9.5-7.6-10.2c-4.9-0.7-9.5,2.6-10.2,7.6l-8.5,56.8
			c-2.7,18.1-20.4,33.3-38.7,33.3h-138.8c-20.1,0-47.7-13.3-60.2-29l-72.6-91.5h348.3c5,0,9-4,9-9s-4-9-9-9h-12.5
			c10.9-16.8,18.3-33.6,21.9-49.9c3.5-16.1-1.1-32.3-12.4-43.4c-2.1-2-4.3-3.9-6.7-5.4c4.5-15.5,1-32.5-9.8-45
			c-3.3-3.7-8.9-4.2-12.7-0.9c-3.8,3.2-4.2,8.9-0.9,12.7c6.3,7.4,8.6,17.1,6.6,26.4c-2.8-0.5-5.7-0.8-8.6-0.8c-0.2,0-0.3,0-0.5,0
			c-12.2,0.1-23.7,5-32.3,13.8c-3.7,3.7-6.2,8.1-8.1,11.6c-7.5-16.9-20.8-27.2-38.5-29.9c8.6-10.3,18-24.7,20.8-40.7
			c4.5-25.4-6.3-47.9-24.6-51.1c-12.2-2.1-24.4,5.1-32.5,18.1c-7.4-5.8-15.7-9.3-23.7-9.3c-4.7,0-9.1,1.1-13,3.4
			c-16.1,9.3-18.6,34.1-5.7,56.4c8.2,14.1,21.9,24.4,33.5,31.2c-12.2,6.6-20.5,16.6-24,29.6c-2.2-0.3-4.4-0.4-6.7-0.4
			c-8,0-15.2,1.1-21.5,3.2c-4.6-3.6-10.2-6.2-17.1-7.5c2.4-8.7,8.6-16.1,17.2-19.8c4.6-2,6.7-7.3,4.7-11.8c-2-4.6-7.2-6.7-11.8-4.7
			c-15.2,6.5-25.7,20.2-28.5,36.1c-7.2,1.2-13.1,3.9-17.9,7.7c-6.3-2.1-13.5-3.2-21.5-3.2c-33.7,0-54.5,27.4-56.9,73.8H3136
			c-5,0-9,4-9,9s4,9,9,9h10.2l78.1,98.4c-0.7,0-1.4-0.1-2.1-0.1c-46.1,0-83.6,37.5-83.6,83.6s37.5,83.6,83.6,83.6
			s83.6-37.5,83.6-83.6c0-16.2-4.7-31.2-12.7-44c3,0.4,5.9,0.6,8.8,0.6h138.8c12,0,22.2-0.3,31-1.1l-9.4,66.7
			c-3.4,24-12,40-23.1,42.8c-10.9,2.8-25.2-6.4-39.3-25.1l-42.8-56.9c-3-4-8.6-4.8-12.6-1.8s-4.8,8.6-1.8,12.6l42.8,56.9
			c16.1,21.4,33.5,32.8,49.6,32.8c2.9,0,5.7-0.4,8.4-1.1c18.8-4.8,31.8-25.3,36.4-57.7l10.2-71.9c19.5-4.4,30.8-13.4,43.1-30.3
			l2.7-3.7c17.1-23.8,67.8-94.2,128.3-100.2c2.2,1.9,5.1,3.1,8.2,3.1h46.8c7,0,12.6-5.6,12.6-12.6
			C3731.9,2672.2,3726.3,2666.6,3719.4,2666.6z M3384,2670.2c-0.1-2.1-0.3-4-0.5-6c24.9-12.8,53.5-34.7,69.3-59
			c13.5,7.7,15.9,17.4,15.9,17.7c0.6,3,2.6,5.4,5.3,6.6c1.1,0.5,2.3,0.7,3.5,0.7c1.7,0,3.5-0.5,5-1.5c0.1-0.1,9-5.5,23.7-1.9
			c-4.7,14.1-12.6,28.8-23.3,43.4H3384z M3482.1,2581.8c0.1,0,0.2,0,0.3,0c7.3,0,14.3,2.8,19.5,8c5.2,5.1,8,12,8.1,19.4
			c-11.6-2.7-21.1-1.5-27.6,0.4c-3.3-5.8-9.4-13.3-19.9-19.5C3467.7,2584.8,3474.7,2581.8,3482.1,2581.8z M3396.1,2485.1
			c7,1.2,12.8,14.5,10,30.3c-1.9,10.8-8,21-14.2,29c-0.4-12.9-2.7-28.5-10.2-41.5c-0.7-1.2-1.5-2.3-2.2-3.4
			C3383.6,2490.2,3390.4,2484.1,3396.1,2485.1z M3339.9,2527c-8-13.9-7.1-28.3-0.9-31.9c1.2-0.7,2.5-1,4-1c6.2,0,16.1,5.6,23.1,17.7
			c7.8,13.6,8.3,31.9,7.6,43.6C3363.3,2550.2,3347.8,2540.7,3339.9,2527z M3382.9,2577.4c25.2-4.5,40.5,5.8,45.5,30.1
			c-12.2,13.9-29.5,27.6-47.9,37.9c-5.1-20.9-15.2-35.9-29.6-43.4C3354.5,2588.7,3365,2580.6,3382.9,2577.4z M3366,2670.2h-39.3
			c-0.2-17.7-1.4-39-9.1-55c2.9-0.5,6-0.8,9.5-0.8C3357.2,2614.4,3364.7,2646.1,3366,2670.2z M3278.9,2609.1c21,0,28.9,15.6,29.8,61
			h-59.6C3250,2624.8,3257.9,2609.1,3278.9,2609.1z M3230.7,2614.4c3.4,0,6.5,0.3,9.4,0.7c-7.7,16.1-8.9,37.4-9.1,55h-39.3
			C3193.1,2646.1,3200.6,2614.4,3230.7,2614.4z M3222.1,2935.7c-36.2,0-65.6-29.4-65.6-65.6c0-36.2,29.4-65.6,65.6-65.6
			c36.2,0,65.6,29.4,65.6,65.6C3287.8,2906.2,3258.3,2935.7,3222.1,2935.7z"/>
	</g>
</g>
<g>
	<g>
		<g>
			<path class="st4" d="M2572.3,2708.3c0,55.5-45,100.4-100.4,100.4s-100.4-45-100.4-100.4c0-55.5,45-100.4,100.4-100.4
				S2572.3,2652.9,2572.3,2708.3z"/>
		</g>
		<g>
			<path class="st0" d="M2531.3,2708.3c0,25.7-8.6,46.6-19.2,46.6c-10.6,0-19.3-20.9-19.3-46.6c0-25.7,8.6-46.6,19.3-46.6
				C2522.7,2661.8,2531.3,2682.6,2531.3,2708.3z"/>
		</g>
		<g>
			<path class="st3" d="M2472.6,2810.1c77.2-33.3,162.1-52,251.3-52.6l0,0c-22.9,118.3-127,207.6-252,207.6h-0.3
				c-125,0-229.1-89.3-252-207.6c25.4,0,50.4,1.6,75,4.5L2472.6,2810.1z"/>
		</g>
		<g>
			<g>
				<polygon class="st0" points="2463.7,2806.3 2463.7,2740.6 2412.8,2681.7 2346.3,2681.7 2294.6,2737.1 2294.6,2795.4 
					2362,2807.1 				"/>
			</g>
		</g>
	</g>
	<g>
		<path d="M2728.6,2699.4H2617c-5,0-9,4-9,9s4,9,9,9h111.6c5,0,9-4,9-9S2733.5,2699.4,2728.6,2699.4z"/>
		<path d="M2270.5,2717.3c5,0,9-4,9-9s-4-9-9-9h-55.3c-5,0-9,4-9,9s4,9,9,9H2270.5z"/>
		<path d="M2599.8,2661.8c1.3,3.7,4.8,5.9,8.4,5.9c1,0,2.1-0.2,3.1-0.5l104.8-38.1c4.7-1.7,7.1-6.9,5.4-11.5
			c-1.7-4.7-6.8-7-11.5-5.4l-104.8,38.1C2600.5,2652,2598.1,2657.1,2599.8,2661.8z"/>
		<path d="M2576.2,2620.9c1.8,2.1,4.3,3.2,6.9,3.2c2,0,4.1-0.7,5.8-2.1l85.5-71.7c3.8-3.2,4.3-8.9,1.1-12.7s-8.9-4.3-12.7-1.1
			l-85.5,71.7C2573.5,2611.4,2573,2617.1,2576.2,2620.9z"/>
		<path d="M2540,2590.5c1.4,0.8,3,1.2,4.5,1.2c3.1,0,6.1-1.6,7.8-4.5l55.8-96.6c2.5-4.3,1-9.8-3.3-12.3s-9.8-1-12.3,3.3l-55.8,96.6
			C2534.2,2582.5,2535.7,2588,2540,2590.5z"/>
		<path d="M2495.6,2574.3c0.5,0.1,1.1,0.1,1.6,0.1c4.3,0,8.1-3.1,8.8-7.4l19.4-109.9c0.9-4.9-2.4-9.5-7.3-10.4
			c-4.9-0.8-9.5,2.4-10.4,7.3l-19.4,109.9C2487.4,2568.8,2490.7,2573.4,2495.6,2574.3z"/>
		<path d="M2446.7,2574.4c0.5,0,1,0,1.6-0.1c4.9-0.9,8.2-5.5,7.3-10.4l-19.4-109.9c-0.9-4.9-5.6-8.1-10.4-7.3
			c-4.9,0.9-8.2,5.5-7.3,10.4l19.4,109.9C2438.6,2571.4,2442.4,2574.4,2446.7,2574.4z"/>
		<path d="M2391.6,2587.2c1.7,2.9,4.7,4.5,7.8,4.5c1.5,0,3.1-0.4,4.5-1.2c4.3-2.5,5.8-8,3.3-12.3l-55.8-96.6
			c-2.5-4.3-8-5.8-12.3-3.3s-5.8,8-3.3,12.3L2391.6,2587.2z"/>
		<path d="M2355,2622c1.7,1.4,3.7,2.1,5.8,2.1c2.6,0,5.1-1.1,6.9-3.2c3.2-3.8,2.7-9.5-1.1-12.7l-85.5-71.7
			c-3.8-3.2-9.5-2.7-12.7,1.1s-2.7,9.5,1.1,12.7L2355,2622z"/>
		<path d="M2227.7,2629l91.9,33.4c1,0.4,2.1,0.5,3.1,0.5c3.7,0,7.1-2.3,8.4-5.9c1.7-4.7-0.7-9.8-5.4-11.5l-91.9-33.4
			c-4.7-1.7-9.8,0.7-11.5,5.4S2223,2627.3,2227.7,2629z"/>
		<path d="M2391.4,2647.6c3.7,3.3,9.4,3.1,12.7-0.6c17.3-19.1,42-30.1,67.8-30.1c50.4,0,91.4,41,91.4,91.5c0,8.4-1.1,16.7-3.4,24.7
			c-1.3,4.8,1.5,9.7,6.2,11.1c0.8,0.2,1.6,0.3,2.4,0.3c3.9,0,7.5-2.6,8.6-6.6c2.7-9.6,4-19.5,4-29.6c0-60.3-49.1-109.4-109.4-109.4
			c-30.8,0-60.4,13.1-81.1,36C2387.4,2638.6,2387.7,2644.3,2391.4,2647.6z"/>
		<path d="M2723.9,2748.5L2723.9,2748.5c-69.8,0.5-137.8,11.9-202.9,33.7v-20.5c12.7-7.4,19.2-30.3,19.2-53.1
			c0-27.6-9.7-55.5-28.2-55.5s-28.2,27.9-28.2,55.5c0,22.7,6.6,45.7,19.3,53.1v26.7c-10.2,3.7-20.3,7.7-30.3,12l0,0v-59.8
			c0-2.2-0.8-4.2-2.2-5.9l-50.9-58.8c-0.1-0.2-0.3-0.3-0.5-0.5l0,0c-0.1-0.1-0.1-0.1-0.2-0.2l0,0l0,0l0,0l0,0
			c-1.6-1.5-3.7-2.4-6.1-2.4l0,0l0,0l0,0l0,0l0,0h-66.5c-2.5,0-4.9,1-6.6,2.9l-51.7,55.4c-1.6,1.7-2.4,3.9-2.4,6.1v14.9
			c-21.8-2.2-43.9-3.5-65.9-3.5l0,0c-2.7,0-5.2,1.2-6.9,3.3s-2.4,4.8-1.9,7.4c24.1,124.5,133.8,214.9,261.1,214.9
			c127,0,236.7-90.3,260.8-214.8c0.5-2.6-0.2-5.4-1.9-7.5C2729.1,2749.7,2726.6,2748.5,2723.9,2748.5z M2511.8,2671
			c2.9,0.9,10.5,13.9,10.5,37.6c0,23.2-7.3,36.1-10.3,37.5c-3-1.4-10.3-14.3-10.3-37.5C2501.7,2684.9,2509.3,2671.9,2511.8,2671z
			 M2412.8,2695.5l41.9,48.5v62.4c0,3.6,2.2,6.9,5.5,8.3c56.6,23.6,109.2,55.4,156.7,94.4c-18.7,13.5-39.2,24.4-61.2,32.3
			c-53.3-57.9-115.4-104.9-184.9-139.6V2744L2412.8,2695.5z M2303.6,2746.6l49.4,2.5v47.4l-49.4-8.6V2746.6z M2350.2,2690.7h42.9
			l-35.1,40.7l-43.7-2.2L2350.2,2690.7z M2249.5,2818c64.4,34.3,121.4,78.7,170,132.5C2345.6,2934.6,2282.8,2885.4,2249.5,2818z
			 M2471.6,2956c-8.2,0-16.3-0.4-24.4-1.2c-57.7-68.3-127.9-123-208.7-162.6c-3-8.3-5.6-16.9-7.7-25.6c18.3,0.4,36.7,1.6,54.8,3.6
			v25.3c0,4.4,3.1,8.1,7.4,8.9l66,11.5c66.5,32.7,126.2,77,177.7,131.6C2515.9,2953,2494.1,2956,2471.6,2956z M2631.5,2897.7
			c-41.7-34.7-87.3-64-136.1-87.1c26.4-10.4,53.3-18.9,80.7-25.6c-5.3,9.5-10.4,19.1-15.1,28.8c-2.2,4.5-0.4,9.8,4.1,12
			c1.3,0.6,2.6,0.9,4,0.9c3.3,0,6.5-1.8,8.1-5c7-14.3,14.7-28.4,22.7-42.1c16.6-3.4,33.3-6.2,50.2-8.3c-15,25.6-28.3,52.2-39.6,79.3
			c-1.9,4.6,0.3,9.8,4.8,11.7c1.1,0.5,2.3,0.7,3.4,0.7c3.5,0,6.9-2.1,8.3-5.5c12.6-30.4,27.9-60.1,45.2-88.4
			c13.4-1.2,26.9-2.1,40.5-2.4C2700.1,2819.1,2670.9,2864.5,2631.5,2897.7z"/>
		<path d="M2412.8,2804.8c5,0,9-4,9-9v-22.5c0-5-4-9-9-9s-9,4-9,9v22.6C2403.8,2800.8,2407.8,2804.8,2412.8,2804.8z"/>
	</g>
</g>
<g>
	<g>
		<path class="st6" d="M45.4,13.2c4.3,0,6,1.2,6,1.2c2.6,1.2,5.1,1,7,0c0,0,2.1-1.2,6-1.2c6.7,0,12.2,6.3,12.2,13.2
			c0,15.4-9.7,23.7-21.7,23.7s-21.7-8.2-21.7-23.7C33.2,19.6,38.6,13.2,45.4,13.2z"/>
		<path class="st7" d="M68.3,14c2.3,2.3,3.2,5.5,3.2,8.8c0,15.4-9.7,23.7-21.7,23.7c-3.7,0-7.3-0.8-10.3-2.4c3.9,4,9.3,6,15.3,6
			c12,0,21.7-8.3,21.7-23.7C76.5,21,73.1,15.9,68.3,14z"/>
		<path class="st8" d="M47.2,18.4c1.7,1.7,1.4,4.7-0.7,6.8c-2.1,2.1-5.1,2.4-6.8,0.7c-1.7-1.7-1.4-4.7,0.7-6.8
			C42.4,17.1,45.5,16.8,47.2,18.4z"/>
		<g>
			<path class="st9" d="M62.6,10.6L62.6,10.6c3.6-3.6,2.9-8.1,2.9-8.1S60.9,2,57.4,5.4l0,0l0,0c-3.4,3.4-2.9,8.1-2.9,8.1
				S59.2,14,62.6,10.6C62.6,10.7,62.6,10.6,62.6,10.6z"/>
			<path class="st10" d="M62.6,10.6L62.6,10.6c3.6-3.6,2.9-8.1,2.9-8.1l-11,11C54.5,13.6,59.2,14,62.6,10.6
				C62.6,10.7,62.6,10.6,62.6,10.6z"/>
		</g>
	</g>
	<path class="st11" d="M64.4,11.6c-0.1,0-0.2,0-0.3,0c3.2-3.8,2.6-8.2,2.6-8.3c-0.1-0.5-0.5-0.9-1-1c0,0-0.3,0-0.8,0
		c-1.5,0-5.2,0.3-8.1,3.2c0,0-0.1,0-0.1,0.1c-2.7,2.7-3.2,6.2-3.3,7.9c-0.5-0.1-1-0.3-1.5-0.5c-0.5-0.3-2.5-1.4-6.5-1.4
		c-7.2,0-13.3,6.6-13.3,14.4c0,14.9,9.2,24.9,22.8,24.9c13.7,0,22.8-10,22.8-24.9C77.7,18.2,71.6,11.6,64.4,11.6z M58.2,7.3
		C58.2,7.2,58.3,7.2,58.2,7.3c2.2-2.2,4.8-2.6,6.2-2.7c0,1.4-0.4,3.9-2.6,6.1c0,0-0.1,0-0.1,0.1c-0.7,0.7-1.5,1.2-2.3,1.6
		c-0.6,0.2-1,0.4-1.3,0.5c-1,0.3-1.8,0.4-2.5,0.5C55.8,11.9,56.2,9.3,58.2,7.3z M54.9,48.6c-12.5,0-20.5-8.9-20.5-22.6
		c0-6.4,5.1-12.1,11-12.1c3.7,0,5.3,1,5.3,1c0.1,0,0.1,0.1,0.2,0.1c2.6,1.2,5.5,1.2,8,0H59c0,0,0,0,0.1,0c0.4-0.1,0.8-0.3,1.3-0.5
		c0.9-0.3,2.3-0.6,4.1-0.6c5.9,0,11,5.6,11,12.1C75.4,39.7,67.3,48.6,54.9,48.6z"/>
	<g>
		<g>
			<g>
				<path class="st12" d="M35.9,22.8c0,0-1.9-2.3-1.9-5.3c0-6.6-5.3-11.9-11.9-11.9s-11.9,5.3-11.9,11.9c0,3.1-1.9,5.3-1.9,5.3
					C6,25.6,4.8,29.9,4.8,33.6c0,9.3,7.3,16.9,17.3,16.9s17.3-7.6,17.3-16.9C39.3,29.9,38,25.6,35.9,22.8z"/>
				<path class="st12" d="M22,51.5c-10.2,0-18.3-7.9-18.3-17.9c0-4.1,1.4-8.6,3.6-11.5V22c0,0,1.7-2,1.7-4.6
					c0-7.1,5.8-12.9,12.9-12.9s12.9,5.8,12.9,12.9c0,2.6,1.7,4.6,1.7,4.6c2.3,3,3.6,7.4,3.6,11.5C40.3,43.7,32.3,51.5,22,51.5z
					 M8.9,23.4C7,26,5.7,30,5.7,33.6c0,9.1,7,15.9,16.3,15.9s16.3-6.8,16.3-15.9c0-3.7-1.3-7.7-3.2-10.3c-0.1,0-2.1-2.5-2.1-5.8
					c0-6-4.9-10.9-10.9-10.9s-10.9,4.9-10.9,10.9C11.1,20.7,9.2,23.1,8.9,23.4z"/>
			</g>
			<path class="st13" d="M33.8,21.4c0,0-1.9-2.3-1.9-5.3c0-6.6-5.3-11.9-11.9-11.9S8.1,9.5,8.1,16.1c0,3.1-1.9,5.3-1.9,5.3
				C4,24.2,2.7,28.5,2.7,32.3c0,9.3,7.3,16.9,17.3,16.9s17.3-7.6,17.3-16.9C37.2,28.5,36,24.2,33.8,21.4z"/>
			<g>
				<path class="st14" d="M30.1,32c0,5.2-4.2,9.5-9.5,9.5c-5.2,0-9.5-4.2-9.5-9.5c0-5.2,4.2-9.5,9.5-9.5
					C25.9,22.6,30.1,26.8,30.1,32z"/>
				<path class="st15" d="M25.7,24.1c0.9,1.5,1.5,3.2,1.5,5.1c0,5.2-4.2,9.5-9.5,9.5c-1.9,0-3.6-0.6-5.1-1.5c1.7,2.6,4.6,4.4,8,4.4
					c5.2,0,9.5-4.2,9.5-9.5C30.1,28.7,28.4,25.8,25.7,24.1z"/>
				<path class="st16" d="M21.4,29.2c0,2-1.6,3.6-3.6,3.6s-3.6-1.6-3.6-3.6s1.6-3.6,3.6-3.6S21.4,27.2,21.4,29.2z"/>
			</g>
		</g>
		<g>
			<path class="st11" d="M36.3,21c0,0-1.7-2.1-1.7-4.8c0-7.5-6.1-13.7-13.7-13.7c-7.5,0-13.7,6.1-13.7,13.7c0,2.7-1.7,4.7-1.7,4.7
				s0,0-0.1,0.1c-2.3,3.1-3.8,7.7-3.8,12.1C1.6,43.7,10.1,52,20.9,52s19.3-8.3,19.3-18.9C40.2,28.8,38.7,24.1,36.3,21z M20.9,49.6
				C11.3,49.6,4,42.5,4,33.1c0-3.8,1.3-7.9,3.3-10.6c0.3-0.4,2.3-2.8,2.3-6.3c0-6.2,5.1-11.3,11.3-11.3S32.2,10,32.2,16.2
				c0,3.5,2.2,6.2,2.3,6.3c2,2.6,3.3,6.8,3.3,10.6C37.8,42.5,30.5,49.6,20.9,49.6z"/>
			<path class="st11" d="M20.9,21.8c-6.1,0-11.1,5-11.1,11.1S14.8,44,20.9,44S32,39,32,32.9S27,21.8,20.9,21.8z M20.9,41.6
				c-4.8,0-8.7-3.9-8.7-8.7s3.9-8.7,8.7-8.7s8.7,3.9,8.7,8.7C29.6,37.7,25.7,41.6,20.9,41.6z"/>
		</g>
	</g>
</g>
</svg>
