<?xml version="1.0" encoding="utf-8"?>
<!-- Generator: Adobe Illustrator 24.2.3, SVG Export Plug-In . SVG Version: 6.00 Build 0)  -->
<svg version="1.1" id="Layer_1" xmlns="http://www.w3.org/2000/svg" xmlns:xlink="http://www.w3.org/1999/xlink" x="0px" y="0px"
	 viewBox="0 0 81.2 48.8" style="enable-background:new 0 0 81.2 48.8;" xml:space="preserve">
<style type="text/css">
	.st0{fill:#441A53;}
	.st1{fill:#582569;}
	.st2{fill:#56883D;}
	.st3{fill:#679E42;}
	.st4{fill:#873E97;}
	.st5{fill:#DD7726;}
	.st6{fill:#F68932;}
	.st7{fill:#F78F20;}
	.st8{fill:#FAAA57;}
	.st9{fill:#F89D53;}
	.st10{fill:#E2B124;}
	.st11{fill:#FFC810;}
	.st12{fill:#84C041;}
	.st13{fill:#FEE48A;}
	.st14{fill:#C32026;}
	.st15{fill:#B92025;}
	.st16{fill:#D22026;}
	.st17{fill:#588D3F;}
	.st18{fill:#F15A5A;}
	.st19{fill:#58A245;}
	.st20{fill:#B2D680;}
	.st21{fill:#DBEAB6;}
	.st22{fill:#82C454;}
	.st23{fill:#314921;}
	.st24{fill:#FFFEFD;}
	.st25{clip-path:url(#SVGID_2_);}
</style>
<g>
	<g>
		<path class="st0" d="M25.6,27.3c-1.4-2.2-6.1-5.9-7.4-8.4c-2.8-5.3-4.5-9.3-8.4-7.7S7.6,18.3,9,23.3s3.6,8,5.7,10.4
			c3,3.7,7.1,5.7,10.1,3.8C27.8,35.6,28.2,31.4,25.6,27.3z"/>
		<path class="st1" d="M25.6,27.3c-1.4-2.2-6.1-5.9-7.4-8.4c-2.8-5.3-4.5-9.3-8.4-7.7c-0.4,0.2-0.7,0.4-1,0.6
			c-0.3,2.4,0.7,5.8,1.5,8.9c1.4,5,3.6,8,5.7,10.4c3,3.7,7.1,5.7,10.1,3.8c0.4-0.2,0.7-0.5,1-0.9C27.6,32.1,27.1,29.7,25.6,27.3z"/>
		<g>
			<path class="st2" d="M15.7,14.1c0,0-2.1,0.7-3.6-0.2s-2.4-2.3-2-3.1c0.5-0.8,2.1-0.7,3.6,0.2C15.2,11.9,15.7,14.1,15.7,14.1z"/>
			<path class="st2" d="M6.8,15.8c0,0-0.4-2.1,0.6-3.6c1.1-1.4,2.5-2.2,3.2-1.6c0.7,0.5,0.4,2.1-0.6,3.6C9,15.6,6.8,15.8,6.8,15.8z"
				/>
			<path class="st2" d="M12.8,17.3c0,0-2.2-0.9-2.8-2.8c-0.6-1.8-0.4-3.6,0.5-3.9c0.9-0.3,2.2,0.9,2.8,2.8
				C14,15.2,12.8,17.3,12.8,17.3z"/>
		</g>
		<path class="st3" d="M13,10.7c-1.3-0.6-2.6-0.6-3,0.1c-0.4,0.7,0.2,1.9,1.5,2.8c1.5,0.5,3.1,0,3.1,0S14.3,11.7,13,10.7z"/>
		<path class="st3" d="M10.7,10.6L10.7,10.6c-0.8-0.6-2.2,0.2-3.3,1.6c-0.7,0.9-0.7,2-0.7,2.8c0.6-0.1,2.1-0.5,3-1.6
			C10.4,12.5,10.8,11.4,10.7,10.6z"/>
		<path class="st3" d="M12.1,16c0,0,1.2-2.1,0.5-3.9c0-0.1,0-0.1-0.1-0.2c-0.7-1-1.5-1.5-2.1-1.3c-0.9,0.3-1.2,1.9-0.6,3.7
			C10.8,15.4,12.1,16,12.1,16z"/>
		<path class="st3" d="M9.5,11.3l-0.2-0.6c-0.1-0.4,0.1-0.9,0.5-1l0.7-0.2c0.4-0.1,0.9,0.1,1,0.5l0.2,0.6c0.1,0.4-0.1,0.9-0.5,1
			l-0.7,0.2C10.1,11.9,9.6,11.7,9.5,11.3z"/>
		<path class="st4" d="M22.4,28.5c-0.8,1.5-3.6,0.2-5.8-3.6c-1.8-3.3-2.8-6.4-2-6.9c0.7-0.6,1.4,2.2,3.8,5.2
			C20.6,26.1,23.3,27,22.4,28.5z"/>
	</g>
	<g>
		<path class="st3" d="M55.8,13.5l-2.5-0.2c0,0,0.3-1,0.1-3.1c-0.2-1.7-1.8-4-1.8-4l3.6,0.2c0,0,0.8,0.7,1.1,2.8
			C56.5,10.7,55.8,13.5,55.8,13.5z"/>
		
			<ellipse transform="matrix(6.233798e-02 -0.9981 0.9981 6.233798e-02 33.4179 85.5837)" class="st5" cx="62.3" cy="25" rx="11.8" ry="10.2"/>
		
			<ellipse transform="matrix(6.234546e-02 -0.9981 0.9981 6.234546e-02 18.9914 67.4973)" class="st5" cx="45.4" cy="23.6" rx="11.8" ry="10.2"/>
		<path class="st6" d="M62.1,13.2c-5.2,0.2-9.6,5-10,11.2c-0.4,5.9,3.1,11.1,8,12.2c5.2-0.2,9.6-5,10-11.2
			C70.4,19.5,67,14.4,62.1,13.2z"/>
		<path class="st6" d="M47.5,12c-5.2,0.2-9.6,5-10,11.2c-0.4,5.9,3.1,11.1,8,12.2c5.2-0.2,9.6-5,10-11.2
			C55.8,18.3,52.4,13.1,47.5,12z"/>
		<path class="st5" d="M55.1,36.3L51,36.1c-4.3-0.3-7.7-4.1-7.5-7.1l0.6-10c0.2-3,4-6.8,8.3-6.5l4.1,0.3c4.3,0.3,7.6,4.5,7.4,7.5
			l-0.6,10C63.2,33.2,59.5,36.6,55.1,36.3z"/>
		<path class="st7" d="M53.1,36.2L53.1,36.2c-3.8-0.2-6.7-3.7-6.5-6.4l0.7-11.5c0.2-2.6,3.5-6,7.3-5.7l0,0c3.8,0.2,6.7,4,6.5,6.6
			l-0.7,11.5C60.1,33.3,56.8,36.4,53.1,36.2z"/>
		<path class="st8" d="M53.2,21.1c-0.2,3-1.2,5.4-2.3,5.3c-1.1-0.1-1.8-2.6-1.6-5.6s1.2-5.4,2.3-5.3S53.4,18.1,53.2,21.1z"/>
	</g>
	<g>
		<g>
			<polygon class="st3" points="21,13.1 20.4,13.3 17.9,6.7 19.2,6.2 			"/>
			<polygon class="st3" points="21.5,13.1 20.8,13.1 19.7,6.1 21.1,6 			"/>
			<polygon class="st3" points="20,13.6 20.7,13.3 17.5,7 16.2,7.6 			"/>
		</g>
		<path class="st3" d="M22.6,12.8c0.3,0.8-0.3,1.8-1.3,2.1c-1,0.3-2-0.1-2.3-0.9c-0.3-0.8,0.3-1.8,1.3-2.1
			C21.3,11.6,22.3,12,22.6,12.8z"/>
		<g>
			<path class="st5" d="M26.6,16.5c1,3.1,4.8,25.8,3.6,26.3c-1.3,0.4-11.3-20.4-12.3-23.5s0.3-5.7,2.7-6.5
				C23,12.1,25.6,13.4,26.6,16.5z"/>
			<path class="st6" d="M17.9,19.3c0.8,2.6,7.9,17.4,11,22.1c0-5-3-22.2-3.8-24.9c-0.7-2.2-2.2-3.5-3.9-3.8c-0.2,0-0.4,0.1-0.5,0.1
				C18.2,13.6,16.9,16.2,17.9,19.3z"/>
		</g>
		<path class="st5" d="M20.5,15.5c0,0.1-0.4,0.4-1,0.6s-1.1,0.2-1.2,0.1c0-0.1,0.4-0.4,1-0.6C20,15.4,20.5,15.4,20.5,15.5z"/>
		<path class="st5" d="M23.7,17.4c0,0.1-0.4,0.4-1,0.6s-1.1,0.2-1.2,0.1c0-0.1,0.4-0.4,1-0.6S23.6,17.3,23.7,17.4z"/>
		<path class="st5" d="M26.3,20.8c0,0.1-0.4,0.4-1,0.6s-1.1,0.2-1.2,0.1c0-0.1,0.4-0.4,1-0.6C25.8,20.7,26.3,20.6,26.3,20.8z"/>
		<path class="st5" d="M26.3,25c0,0.1-0.4,0.4-1,0.6s-1.1,0.2-1.2,0.1c0-0.1,0.4-0.4,1-0.6C25.7,24.9,26.2,24.8,26.3,25z"/>
		<path class="st5" d="M25.4,28.2c0,0.1-0.4,0.4-1,0.6s-1.1,0.2-1.2,0.1c0-0.1,0.4-0.4,1-0.6S25.4,28.1,25.4,28.2z"/>
		<path class="st5" d="M28.4,29.4c0,0.1-0.4,0.4-1,0.6s-1.1,0.2-1.2,0.1c0-0.1,0.4-0.4,1-0.6C27.8,29.4,28.3,29.3,28.4,29.4z"/>
		<path class="st5" d="M28.2,32.6c0,0.1-0.4,0.4-1,0.6c-0.6,0.2-1.1,0.2-1.2,0.1c0-0.1,0.4-0.4,1-0.6S28.2,32.5,28.2,32.6z"/>
		<path class="st5" d="M29.6,36.4c0,0.1-0.4,0.4-1,0.6c-0.6,0.2-1.1,0.2-1.2,0.1c0-0.1,0.4-0.4,1-0.6C29,36.3,29.5,36.3,29.6,36.4z"
			/>
		<path class="st9" d="M22.1,21.1c0.6,1.6,0.7,3.1,0.2,3.2c-0.5,0.2-1.3-1-1.9-2.6s-0.7-3.1-0.2-3.2C20.7,18.3,21.6,19.5,22.1,21.1z
			"/>
		<path class="st5" d="M22.3,20.6c0,0.1-0.4,0.4-1,0.6s-1.1,0.2-1.2,0.1c0-0.1,0.4-0.4,1-0.6C21.8,20.5,22.3,20.5,22.3,20.6z"/>
		<path class="st5" d="M23.5,24c0,0.1-0.4,0.4-1,0.6s-1.1,0.2-1.2,0.1c0-0.1,0.4-0.4,1-0.6S23.5,23.9,23.5,24z"/>
	</g>
	<g>
		<path class="st3" d="M32.7,40.4l-1.2-0.2c-0.5-0.1-0.8-0.5-0.7-0.9l0.2-1.7c0.1-0.5,0.5-0.8,0.9-0.7l1.2,0.2
			c0.5,0.1,0.8,0.5,0.7,0.9l-0.2,1.7C33.5,40.2,33.1,40.5,32.7,40.4z"/>
		<path class="st3" d="M34.2,17.1c0.8,7.3,0.7,12.9-1,13.1s-2.9-4.6-3.7-11.9C28.7,11,31.2,2.6,31.2,2.6S33.4,9.8,34.2,17.1z"/>
		<path class="st10" d="M38.5,20.5c-0.8,8.1-3.3,14.5-5.7,14.3c-2.3-0.2-3.6-7-2.8-15.1c0.8-8.1,3.3-14.5,5.7-14.3
			C38.1,5.6,39.3,12.4,38.5,20.5z"/>
		<path class="st11" d="M36.9,20.1c0.7-6.9-0.1-12.8-1.8-14.5c-2.1,0.9-4.3,6.8-5,14.1c-0.7,6.9,0.1,12.8,1.8,14.5
			C34,33.3,36.1,27.4,36.9,20.1z"/>
		<path class="st12" d="M31,23.7c1.8,7.8,2.6,13.9,1.1,14.2c-1.5,0.3-3.2-4.7-5-12.5C25.4,17.6,26.5,8,26.5,8S29.2,15.9,31,23.7z"/>
		<path class="st3" d="M26.2,11.6c1,3,2.6,7.8,3.9,12.6c1.8,6.7,2.7,12.2,2,13.7l0,0c1.5-0.3,0.7-6.4-1.1-14.2S26.5,8,26.5,8
			S26.4,9.4,26.2,11.6z"/>
		<path class="st12" d="M34.8,26.4c-2.5,6.2-3.8,11.3-2.2,12c1.7,0.7,4-3.2,6.6-9.5c2.5-6.2,3-17.1,3-17.1S37.3,20.1,34.8,26.4z"/>
		<path class="st3" d="M40.4,14.9c-0.4,3.7-1.1,9.6-2.8,13.6c-2.1,5.1-4,8.6-5.5,9.4c0.1,0.2,0.3,0.4,0.5,0.5c1.7,0.7,4-3.2,6.6-9.5
			c2.5-6.2,3-17.1,3-17.1S41.5,13,40.4,14.9z"/>
		<path class="st13" d="M32,21.3c-0.6-0.1-0.7-2.2-0.3-4.7s1.2-4.5,1.8-4.4s0.7,2.2,0.3,4.7C33.4,19.4,32.6,21.4,32,21.3z"/>
	</g>
	<g>
		<g>
			<path class="st14" d="M18.8,31.2L18.8,31.2c-1.6,1.2-3.9,0.9-5.2-0.7l-2.8-3.6c-1.2-1.6-0.9-3.9,0.7-5.2l0,0
				c1.6-1.2,3.9-0.9,5.2,0.7l2.8,3.6C20.7,27.7,20.4,30,18.8,31.2z"/>
			<path class="st15" d="M18.8,31.2L18.8,31.2c-1.6,1.2-3.9,0.9-5.2-0.7l-2.8-3.6c-1.2-1.6-0.9-3.9,0.7-5.2l0,0
				c1.6-1.2,3.9-0.9,5.2,0.7l2.8,3.6C20.7,27.7,20.4,30,18.8,31.2z"/>
		</g>
		<path class="st16" d="M11.6,21.7c1.6-1.2,3.9-0.9,5.2,0.7l2.8,3.6c0.8,1,0.9,2.4,0.5,3.5c-0.2,0.2-0.3,0.3-0.5,0.5l0,0
			c-1.6,1.2-3.9,0.9-5.2-0.7l-2.8-3.6c-0.8-1-0.9-2.4-0.5-3.5C11.2,22,11.4,21.9,11.6,21.7L11.6,21.7z"/>
		<path class="st15" d="M11.5,21.8L11.5,21.8c0.1-0.1,0.2-0.1,0.3-0.2c0.9,0.2,1.7,0.6,2.2,1.4l3.9,5.1c0.8,1,0.9,2.3,0.6,3.4
			c-1.6,1-3.8,0.7-4.9-0.9L10.8,27C9.6,25.3,9.9,23,11.5,21.8z"/>
		<path class="st17" d="M8.8,24c0.1,0,0.1-0.1,0.2-0.2c0.2-0.3,0.1-0.8-0.2-1s-2-2.1-3.3-2.3C4,20.3,3.2,21.7,3,22.6
			c-0.2,0.4,0,0.8,0.4,0.9s1.3,0.4,1.6-0.2c0.3-0.5-0.2-1.4,0.2-1.4C6,22.1,7,23.4,7.9,24C8.2,24.2,8.5,24.2,8.8,24z"/>
		<g>
			<path class="st14" d="M13.1,35.5L13.1,35.5c-1.6,1.2-3.9,0.9-5.2-0.7l-2.8-3.6c-1.2-1.6-0.9-3.9,0.7-5.2l0,0
				c1.6-1.2,3.9-0.9,5.2,0.7l2.8,3.6C15,32,14.7,34.3,13.1,35.5z"/>
			<path class="st15" d="M13.1,35.5L13.1,35.5c-1.6,1.2-3.9,0.9-5.2-0.7l-2.8-3.6c-1.2-1.6-0.9-3.9,0.7-5.2l0,0
				c1.6-1.2,3.9-0.9,5.2,0.7l2.8,3.6C15,32,14.7,34.3,13.1,35.5z"/>
		</g>
		<path class="st16" d="M5.9,26c1.6-1.2,3.9-0.9,5.2,0.7l2.8,3.6c0.8,1,0.9,2.4,0.5,3.5c-0.2,0.2-0.3,0.3-0.5,0.5l0,0
			c-1.6,1.2-3.9,0.9-5.2-0.7L5.9,30c-0.8-1-0.9-2.4-0.5-3.5C5.5,26.3,5.7,26.2,5.9,26L5.9,26z"/>
		<path class="st15" d="M16.3,34L16.3,34c1.6-1.2,1.9-3.6,0.7-5.2l-3.9-5.1c-1.2-1.6-3.6-1.9-5.2-0.7l0,0c-1.6,1.2-1.9,3.6-0.7,5.2
			l3.9,5.1C12.3,34.9,14.6,35.2,16.3,34z"/>
		<path class="st16" d="M7.9,22.9c1.6-1.2,3.9-0.9,5.2,0.7l3.9,5.1c0.9,1.2,1,2.8,0.3,4.1c-0.1,0.1-0.2,0.1-0.2,0.2l0,0
			c-1.6,1.2-3.9,0.9-5.2-0.7L8,27.2c-1-1.2-1-2.8-0.3-4.1C7.7,23.1,7.8,23,7.9,22.9L7.9,22.9z"/>
		
			<ellipse transform="matrix(0.7967 -0.6043 0.6043 0.7967 -13.0561 12.6021)" class="st18" cx="12.2" cy="25.7" rx="0.8" ry="1.9"/>
	</g>
	<g>
		<path class="st19" d="M75.4,21.9c-0.5-0.6-1-0.7-1.4-0.8c0.2-0.5-0.3-1.5-1.4-2c-0.9-0.4-1.6-0.4-2.1-0.3c-0.2-0.3-0.6-0.5-1-0.5
			c-0.5-0.1-1,0.1-1.3,0.4c-0.3-0.2-2.7-1.4-3.9,0.7c-0.8-0.2-1.7-0.1-2.5,0.4c-0.9,0.6-1.5,1.6-1.5,2.5c-0.8,0.2-1.6,0.7-1.9,1.6
			c-0.3,0.8-0.1,1.7,0.4,2.4c0,0.2,0,0.4,0,0.6c0.2,2,1.2,3.6,1.7,3.5s0.4-1.5,0.3-3.2c1,0,1.9-0.7,2.3-1.6c0.1-0.4,0.2-0.9,0.1-1.3
			c0.4-0.1,0.8-0.2,1.1-0.5c0.4-0.3,0.7-0.6,1-1c0.1,0,0.2,0.1,0.3,0.1c1.3,0.5,2.7-0.2,3.2-1.5C69,21,69,20.7,69,20.3
			c0.1,0,0.1,0,0.2,0c0.4,0.1,0.8,0,1-0.2c0.3,0.3,0.8,0.7,1.3,1c0.5,0.2,1.1,0.4,1.5,0.4c0.2,0.4,0.6,0.9,1.1,1.4
			c0.9,0.9,1.1,1.7,1.4,1.4C75.8,24.1,76.2,22.8,75.4,21.9z"/>
		<ellipse class="st20" cx="68.2" cy="27.6" rx="7.9" ry="7.9"/>
		<ellipse class="st20" cx="68.2" cy="27.6" rx="7.9" ry="7.9"/>
		<g>
			<path class="st21" d="M67.3,25.2c-0.1,0-0.2-0.2-0.3-0.3c0-0.1-0.7-1.9,0-3.4c0.3-0.7,1-1.1,1-1.1s-0.3,0.8-0.4,1.2
				c-0.5,1.4,0.2,3.1,0.2,3.2c0,0.2-0.1,0.4-0.3,0.5C67.5,25.2,67.4,25.2,67.3,25.2z"/>
			<path class="st21" d="M66,28.3c-0.1,0-0.2-0.1-0.2-0.2s-1.2-2.4-1.2-4.3c0-1.6,0.7-2.7,0.7-2.7s0,1.6,0.1,2.7
				c0.2,1.8,1.1,4,1.1,4c0.1,0.2,0,0.4-0.2,0.5C66.2,28.4,66.1,28.4,66,28.3z"/>
			<path class="st21" d="M65.6,31.7c-0.1,0-0.1-0.1-0.2-0.1c-0.1-0.1-2-2.8-2.6-4.3c-0.8-2.2-0.6-3.7-0.6-3.7s0.7,1.7,1.4,3.4
				c0.5,1.3,2.4,4,2.5,4.1c0.1,0.2,0.1,0.4-0.1,0.6C65.9,31.8,65.7,31.8,65.6,31.7z"/>
			<path class="st21" d="M66.5,26.7c-0.1,0-0.2-0.1-0.2-0.2c-0.1-0.2,0.3-0.6,0.5-0.7c0.1-0.1,1.9-1.2,4.4-1.5
				c1.5-0.2,2.6,0.2,2.6,0.2s-1.1,0.2-2.4,0.5c-2.3,0.5-4.5,1.7-4.5,1.7C66.7,26.7,66.6,26.7,66.5,26.7z"/>
			<path class="st21" d="M65.6,30.4c0,0-0.1,0-0.1-0.1c-0.2-0.1-0.2-0.4-0.1-0.6c0-0.1,1.2-1.3,3.6-2.3c2.1-0.8,4-0.2,4-0.2
				s-2.3,0.3-3.8,1c-2.2,1-3.2,2-3.2,2C65.9,30.4,65.7,30.4,65.6,30.4z"/>
			<path class="st21" d="M66.4,32.8c-0.1,0-0.2-0.1-0.2-0.2c-0.1-0.2-0.1-0.4,0.1-0.6c0.1,0,1.3-0.8,3.2-1.6c2.3-0.9,4-0.6,4-0.5
				c0.2,0,0.4,0.3,0.3,0.5c0,0.2-0.3,0.4-0.5,0.3c0,0-1.5-0.3-3.6,0.5c-1.8,0.7-3,1.5-3,1.5C66.6,32.9,66.5,32.9,66.4,32.8z"/>
			<path class="st21" d="M72.9,21.2c-0.4,0-0.8,0-1.3,0.1c-0.8,0.1-1.5,0.4-2.1,0.8c-0.8,0.5-1.6,1.2-2.2,2.1
				c-0.8,1.2-1.4,2.8-1.7,4.8c-0.2,1.5-0.2,2.6-0.2,2.6c0,0.2,0.1,0.4,0.3,0.5c0.1,0,0.1,0,0.2,0c0.3,0,0.5-0.2,0.5-0.5
				c0,0,0-4.3,1.8-6.9c1-1.4,2.3-2.4,3.7-2.7c1-0.3,1.7-0.3,1.7-0.3S73.1,21.4,72.9,21.2z"/>
		</g>
		<path class="st22" d="M64.5,30c-1.2-2.6-1.6,0.9-2.5-1.4c-0.4,0.1-0.7,0.3-0.9,0.6c-0.9,1.2,0.1,3.5,2.3,5s4.9,1.7,4.5,1.2
			s0.2-1.6,0.3-1.8C67.8,32.5,65.2,31.5,64.5,30z"/>
		<path class="st22" d="M76.9,29c0.4-1.8,0-3.4-1.2-4.2c-0.8-0.5,0.7,0.5-0.3,0.7c0.5,1.5-1.9,2.2-2.5,3.9c-1,2.8-1.5,3.6-2.8,5.6
			c0,0-0.5,0.7-1.6,0.7c-0.3,0-0.6-0.1-0.6-0.1c1.2,1.5,2.3,0.9,4.2-0.2c1.4-0.1,2.9-1,3.8-2.5C76.8,31.6,77.1,30.1,76.9,29z"/>
		<path class="st19" d="M77,24.3c-0.6-0.4-1.4-0.1-1.7,0.5c0,0.1-0.1,0.1-0.1,0.2c-0.1,0.7-0.3,1.5-0.9,2.2c-0.7,1-1.3,1.4-2.1,2.4
			c-0.1,0.2-0.3,0.3-0.4,0.5c-0.3,0.4-0.9,1.4-1.1,2.8C70.5,34,70,35,69.4,35.3c-0.6,0.3-1.5,0.3-1.5,0.3s1.4,0.8,2.7-0.6
			c1.1-1.2,1.2-2.2,2-2.5c0.7-0.2,1.4-0.9,1.7-1.2c0.1-0.1,0.2-0.3,0.3-0.4c0.3-0.6,0.4-1.2,0.3-1.7c0.1-0.2,0.2-0.3,0.3-0.5
			c0.1-0.2,0.3-0.5,0.4-0.7c0.3-0.1,0.7-0.3,0.8-0.7c0.1-0.2,0.2-0.4,0.2-0.6c0.3-0.1,0.6-0.3,0.8-0.6C77.8,25.4,77.6,24.6,77,24.3z
			"/>
		<path class="st19" d="M68,34.9c0.2-0.3,0.9-0.5,0.7-1.2c-0.1-0.4-0.6-0.4-0.6-0.4s0.4-0.7-0.1-1.1c-0.4-0.3-0.7-0.1-1.1-0.2
			c-0.4-0.1-0.5-1.2-0.9-1.8c-0.3-0.5-0.9-0.8-1.1-0.8c0-0.5-0.3-1-0.7-1.4c-0.3-0.3-1.2-0.6-1.9-0.5c-0.5,0.1-0.9,0.4-1.1,0.7
			c-0.5,0.7-0.6,1.8-0.6,1.8s0.3-0.4,0.8-0.9c0.2-0.2,0.3-0.3,0.4-0.4c0,0.6,0.3,1.3,0.8,1.6c0.5,0.3,1.1,0.3,1.7,0.1
			c0,0.7,0.4,1.4,1.2,1.8c0.3,0.2,0.7,0.3,1,0.3c0.3,0.1,0.8,0.2,0.9,0.4c0.2,0.3,0.3,0.7,0,1.1c-0.4,0.7,0.4,1.4,0.4,1.4
			S67.8,35.2,68,34.9z"/>
	</g>
	<g>
		<g>
			<path class="st23" d="M73.2,45.4c0,0.4-0.3,0.7-0.7,0.7H8.8c-0.4,0-0.7-0.3-0.7-0.7v-9.7c0-0.4,0.3-0.7,0.7-0.7h63.8
				c0.4,0,0.7,0.3,0.7,0.7L73.2,45.4L73.2,45.4z"/>
		</g>
		<g>
			<path class="st24" d="M11.1,44.9v-7.7h-2v-1.4H17v1.4h-2.1v7.7H11.1z"/>
			<path class="st24" d="M22.1,45.2c-3,0-5.1-1.7-5.1-4.9c0-3.1,2.1-4.9,5.1-4.9s5.1,1.8,5.1,4.9C27.2,43.5,25.1,45.2,22.1,45.2z
				 M23.2,40.3c0-2.7-0.5-3.4-1.1-3.4s-1.2,0.8-1.2,3.4c0,2.6,0.5,3.5,1.2,3.5C22.8,43.8,23.2,43,23.2,40.3z"/>
			<path class="st24" d="M31.1,44.9v-7.7H29v-1.4h7.9v1.4h-2.1v7.7H31.1z"/>
			<path class="st24" d="M42.1,44.9l-0.4-1.6h-2.9l-0.5,1.6H36l3.1-9.1h4.3l2.9,9.1H42.1z M40.5,38.3h-0.2l-1.1,3.8h2.2L40.5,38.3z"
				/>
			<path class="st24" d="M47,44.9v-9.1h6c1.5,0,3.1,0.4,3.1,2.2c0,1.4-1.1,2-2.4,2.2c1.7,0.1,2.8,0.7,2.8,2.3c0,1.7-1.3,2.4-3.3,2.4
				C53.2,44.9,47,44.9,47,44.9z M51.5,39.7c0.5,0,1.1-0.2,1.1-1.3s-0.5-1.2-1.1-1.2h-0.8v2.5H51.5z M51.7,43.5c0.6,0,1-0.3,1-1.3
				c0-0.9-0.5-1.3-1-1.3h-1v2.6H51.7z"/>
			<path class="st24" d="M57.3,44.9v-9.1H61v7.7h2.8v1.4C63.8,44.9,57.3,44.9,57.3,44.9z"/>
			<path class="st24" d="M64.7,44.9v-9.1h7.5v1.4h-4v2.3h3.6V41h-3.6v2.5h4v1.4H64.7z"/>
		</g>
		<g>
			<g>
				<defs>
					<rect id="SVGID_1_" x="9.6" y="19.9" width="60.8" height="15.3"/>
				</defs>
				<clipPath id="SVGID_2_">
					<use xlink:href="#SVGID_1_"  style="overflow:visible;"/>
				</clipPath>
				<g class="st25">
					<g>
						<path class="st24" d="M13.8,35.2c-0.3,0-0.5-0.2-0.5-0.5v-12c0-0.3,0.2-0.5,0.5-0.5h9.9c0.3,0,0.5,0.2,0.5,0.5v1.9
							c0,0.3-0.2,0.5-0.5,0.5H19v2.3h3.8c0.3,0,0.5,0.2,0.5,0.5v1.9c0,0.3-0.2,0.5-0.5,0.5H19v4.3c0,0.3-0.2,0.5-0.5,0.5h-4.7V35.2z
							"/>
						<path class="st23" d="M23.7,22.7v1.9h-5.2V28h4.4v1.9h-4.4v4.9h-4.7v-12L23.7,22.7 M23.7,21.6h-9.9c-0.6,0-1.1,0.5-1.1,1.1v12
							c0,0.6,0.5,1.1,1.1,1.1h4.7c0.6,0,1.1-0.5,1.1-1.1v-3.8h3.3c0.6,0,1.1-0.5,1.1-1.1v-1.9c0-0.6-0.5-1.1-1.1-1.1h-3.3v-1.2h4.1
							c0.6,0,1.1-0.5,1.1-1.1v-1.9C24.8,22,24.3,21.6,23.7,21.6L23.7,21.6z"/>
					</g>
					<g>
						<path class="st24" d="M30.7,35.2c-0.3,0-0.5-0.2-0.5-0.4l-0.4-1.7h-2.9l-0.5,1.8c-0.1,0.2-0.3,0.4-0.5,0.4h-3.1
							c-0.2,0-0.3-0.1-0.4-0.2c-0.1-0.1-0.1-0.3-0.1-0.5l4.1-12c0.1-0.2,0.3-0.4,0.5-0.4h5.7c0.2,0,0.5,0.2,0.5,0.4l3.8,12
							c0.1,0.2,0,0.3-0.1,0.5s-0.3,0.2-0.4,0.2L30.7,35.2L30.7,35.2z M29.1,30.4l-0.7-2.9l-0.8,2.9H29.1z"/>
						<path class="st23" d="M32.4,22.7l3.8,12h-5.5l-0.5-2.2h-3.8l-0.6,2.2h-3.1l4.1-12H32.4 M26.8,31h3l-1.2-5h-0.3L26.8,31
							 M32.4,21.6h-5.7c-0.5,0-0.9,0.3-1,0.7l-4.1,12c-0.1,0.3-0.1,0.7,0.1,1s0.5,0.5,0.9,0.5h3.1c0.5,0,0.9-0.3,1.1-0.8l0.4-1.4
							h2.1l0.3,1.3c0.1,0.5,0.6,0.8,1.1,0.8h5.5c0.4,0,0.7-0.2,0.9-0.4c0.2-0.3,0.3-0.6,0.2-1l-3.8-12
							C33.3,21.9,32.9,21.6,32.4,21.6L32.4,21.6z M28.3,29.9l0.1-0.2L28.3,29.9L28.3,29.9L28.3,29.9z"/>
					</g>
					<g>
						<path class="st24" d="M46.6,35.3c-1.2,0-2.7-0.6-2.7-3.2v-1c0-0.5-0.2-0.9-1-0.9h-0.3v4.4c0,0.3-0.2,0.5-0.5,0.5h-4.9
							c-0.3,0-0.5-0.2-0.5-0.5v-12c0-0.3,0.2-0.5,0.5-0.5H45c4.2,0,5.1,2,5.1,3.7c0,1.4-0.6,2.3-1.7,2.9c0.9,0.4,1.6,1.3,1.6,2.9
							v0.9c0,0.9,0.3,1.2,0.4,1.2c0.3,0,0.5,0.2,0.5,0.5v0.4c0,0.3-0.2,0.5-0.5,0.5h-3.8V35.3z M42.8,27.8c0.5,0,1.1-0.2,1.1-1.4
							c0-1.2-0.5-1.3-1.1-1.3h-0.3v2.7C42.5,27.8,42.8,27.8,42.8,27.8z"/>
						<path class="st23" d="M44.9,22.6c2,0,4.6,0.6,4.6,3.2c0,2.1-1.6,2.8-3.4,3c2.3,0.1,3.3,0.8,3.3,2.8v0.9c0,1.3,0.5,1.8,0.9,1.8
							v0.4h-3.7c-1.3,0-2.2-0.7-2.2-2.7v-1c0-1-0.5-1.4-1.5-1.4H42v5h-4.9v-12H44.9 M42,28.3h0.8c0.9,0,1.6-0.4,1.6-2
							s-0.8-1.8-1.6-1.8H42V28.3 M44.9,21.6h-7.8c-0.6,0-1.1,0.5-1.1,1.1v12c0,0.6,0.5,1.1,1.1,1.1H42c0.6,0,1.1-0.5,1.1-1.1v-3.9
							c0.1,0,0.1,0,0.2,0c0,0,0,0.1,0,0.3v1c0,3.3,2.1,3.8,3.3,3.8h3.7c0.6,0,1.1-0.5,1.1-1.1v-0.4c0-0.5-0.4-1-0.8-1.1
							c0-0.1-0.1-0.3-0.1-0.7v-0.9c0-1.5-0.5-2.4-1.1-3c1-0.8,1.2-2,1.2-2.9C50.5,24.2,49.8,21.6,44.9,21.6L44.9,21.6z M43.1,27.2
							v-1.6c0.2,0,0.2,0.2,0.2,0.7C43.4,26.9,43.3,27.1,43.1,27.2L43.1,27.2z"/>
					</g>
					<g>
						<path class="st24" d="M51.1,35.2c-0.3,0-0.5-0.2-0.5-0.5v-12c0-0.3,0.2-0.5,0.5-0.5h5.4c0.2,0,0.4,0.1,0.5,0.3l2.4,5.3
							l2.5-5.3c0.1-0.2,0.3-0.3,0.5-0.3h5c0.3,0,0.5,0.2,0.5,0.5v12c0,0.3-0.2,0.5-0.5,0.5h-4.9c-0.3,0-0.5-0.2-0.5-0.5v-5L59.6,35
							c-0.1,0.2-0.3,0.3-0.5,0.3h-1.8c-0.2,0-0.4-0.1-0.5-0.3l-2.6-5.4v5.2c0,0.1-0.1,0.3-0.2,0.4c-0.1,0.1-0.2,0.2-0.4,0.2
							C53.7,35.2,51.1,35.2,51.1,35.2z"/>
						<path class="st23" d="M67.5,22.7v12h-4.9v-7.5l-3.5,7.5h-1.8l-3.6-7.6v7.6h-2.6v-12h5.4l2.9,6.3l3-6.3H67.5 M67.5,21.6h-5
							c-0.4,0-0.8,0.2-1,0.6l-2,4.2l-1.9-4.2c-0.2-0.4-0.6-0.6-1-0.6h-5.4c-0.6,0-1.1,0.5-1.1,1.1v12c0,0.6,0.5,1.1,1.1,1.1h2.6l0,0
							c0.3,0,0.6-0.1,0.8-0.3s0.3-0.5,0.3-0.8V32l1.5,3.2c0.2,0.4,0.6,0.6,1,0.6h1.8c0.4,0,0.8-0.2,1-0.6l1.4-3v2.5
							c0,0.6,0.5,1.1,1.1,1.1h4.9c0.6,0,1.1-0.5,1.1-1.1v-12C68.6,22,68.1,21.6,67.5,21.6L67.5,21.6z"/>
					</g>
				</g>
			</g>
		</g>
	</g>
</g>
</svg>
