<?xml version="1.0" encoding="utf-8"?>
<!-- Generator: Adobe Illustrator 24.2.3, SVG Export Plug-In . SVG Version: 6.00 Build 0)  -->
<svg version="1.1" id="Layer_1" xmlns="http://www.w3.org/2000/svg" xmlns:xlink="http://www.w3.org/1999/xlink" x="0px" y="0px"
	 viewBox="0 0 72.3 53.2" style="enable-background:new 0 0 72.3 53.2;" xml:space="preserve">
<style type="text/css">
	.st0{fill:#FFFFFF;}
	.st1{fill:#67A7BC;}
	.st2{fill:#7A9C4E;}
	.st3{fill:#73B05A;}
	.st4{fill:#FDC24E;}
	.st5{fill:#EF4E4C;}
	.st6{fill-rule:evenodd;clip-rule:evenodd;fill:#FFACA9;}
	.st7{fill-rule:evenodd;clip-rule:evenodd;fill:#FFFFEC;}
	.st8{fill-rule:evenodd;clip-rule:evenodd;}
	.st9{fill-rule:evenodd;clip-rule:evenodd;fill:#FD767F;}
</style>
<g>
	<g>
		<path class="st0" d="M3296.8,2871.4c0-41.2-33.4-74.6-74.6-74.6c-41.2,0-74.6,33.4-74.6,74.6c0,41.2,33.4,74.6,74.6,74.6
			C3263.4,2946,3296.8,2912.6,3296.8,2871.4z"/>
		<g>
			<path class="st1" d="M3254.9,2871.4c0-18.1-14.7-32.8-32.8-32.8s-32.8,14.7-32.8,32.8s14.7,32.8,32.8,32.8
				S3254.9,2889.5,3254.9,2871.4z"/>
		</g>
		<path class="st2" d="M3397.7,2477.6c-11.4-2-23,8.6-28.2,24.6c-10.4-13.2-24.9-19.2-34.9-13.4c-11.5,6.7-12.6,26.5-2.4,44.2
			c14.3,24.7,49.3,37,49.3,37s28.7-23.5,33.6-51.6C3418.5,2498.2,3410.8,2479.9,3397.7,2477.6z"/>
		<g>
			<path class="st3" d="M3502.9,2680.5l-14.7,97.6c-3.4,22.5-24.8,41-47.6,41h-138.8c-22.8,0-53-14.6-67.2-32.4l-84.2-106.1h352.5
				V2680.5z"/>
		</g>
		<path class="st4" d="M3375.2,2680.5L3375.2,2680.5c0-40.7-13.7-73.8-48.2-73.8c-9.6,0-17.2,1.7-23.4,4.7
			c-5.7-6.3-13.7-9.9-24.8-9.9s-19.1,3.6-24.8,9.9c-6.2-3-13.8-4.7-23.4-4.7c-34.5,0-48.2,33-48.2,73.8l0,0H3375.2z"/>
		<path class="st0" d="M3508.2,2584.7c-14.5-14.3-37.9-14-52.2,0.5c-2.8,2.9-4.9,6.5-6.6,9.7c-13.4,25.4-45.4,51.2-75.4,65.3
			c0.8,6.4,1.3,13.2,1.3,20.3l0,0h112.3c14.4-18.7,25.8-39.6,30.5-60.8C3520.7,2607.6,3517.8,2594.1,3508.2,2584.7z"/>
		<path class="st5" d="M3437.9,2609.4c-4.7-26.5-21.4-45.7-56.5-39.5c-27.1,4.8-38.7,20.1-40.4,39c19.3,6.2,29.6,25.9,33,51.3
			c23.4-11,48.1-29.1,64.1-48.7C3438,2610.8,3438,2610.1,3437.9,2609.4z"/>
	</g>
	<g>
		<path d="M3222.1,2829.7c-23,0-41.8,18.7-41.8,41.8c0,5,4,9,9,9s9-4,9-9c0-13.1,10.7-23.8,23.8-23.8s23.8,10.7,23.8,23.8
			s-10.7,23.8-23.8,23.8c-5,0-9,4-9,9s4,9,9,9c23,0,41.8-18.7,41.8-41.7C3263.9,2848.4,3245.2,2829.7,3222.1,2829.7z"/>
		<path d="M3719.4,2668h-46.8c-3.7,0-6.9,1.6-9.2,4.1c-68.9,6.1-121.5,79.4-141.9,107.7l-2.7,3.7c-9.4,12.9-16.6,20.2-34.7,23.8
			c6.7-7.9,11.4-17.4,13-27.7l8.5-56.8c0.7-4.9-2.6-9.5-7.6-10.2c-4.9-0.7-9.5,2.6-10.2,7.6l-8.5,56.8
			c-2.7,18.1-20.4,33.3-38.7,33.3h-138.8c-20.1,0-47.7-13.3-60.2-29l-72.6-91.5h348.3c5,0,9-4,9-9s-4-9-9-9h-12.5
			c10.9-16.8,18.3-33.6,21.9-49.9c3.5-16.1-1.1-32.3-12.4-43.4c-2.1-2-4.3-3.9-6.7-5.4c4.5-15.5,1-32.5-9.8-45
			c-3.3-3.7-8.9-4.2-12.7-0.9c-3.8,3.2-4.2,8.9-0.9,12.7c6.3,7.4,8.6,17.1,6.6,26.4c-2.8-0.5-5.7-0.8-8.6-0.8c-0.2,0-0.3,0-0.5,0
			c-12.2,0.1-23.7,5-32.3,13.8c-3.7,3.7-6.2,8.1-8.1,11.6c-7.5-16.9-20.8-27.2-38.5-29.9c8.6-10.3,18-24.7,20.8-40.7
			c4.5-25.4-6.3-47.9-24.6-51.1c-12.2-2.1-24.4,5.1-32.5,18.1c-7.4-5.8-15.7-9.3-23.7-9.3c-4.7,0-9.1,1.1-13,3.4
			c-16.1,9.3-18.6,34.1-5.7,56.4c8.2,14.1,21.9,24.4,33.5,31.2c-12.2,6.6-20.5,16.6-24,29.6c-2.2-0.3-4.4-0.4-6.7-0.4
			c-8,0-15.2,1.1-21.5,3.2c-4.6-3.6-10.2-6.2-17.1-7.5c2.4-8.7,8.6-16.1,17.2-19.8c4.6-2,6.7-7.3,4.7-11.8c-2-4.6-7.2-6.7-11.8-4.7
			c-15.2,6.5-25.7,20.2-28.5,36.1c-7.2,1.2-13.1,3.9-17.9,7.7c-6.3-2.1-13.5-3.2-21.5-3.2c-33.7,0-54.5,27.4-56.9,73.8H3136
			c-5,0-9,4-9,9s4,9,9,9h10.2l78.1,98.4c-0.7,0-1.4-0.1-2.1-0.1c-46.1,0-83.6,37.5-83.6,83.6s37.5,83.6,83.6,83.6
			s83.6-37.5,83.6-83.6c0-16.2-4.7-31.2-12.7-44c3,0.4,5.9,0.6,8.8,0.6h138.8c12,0,22.2-0.3,31-1.1l-9.4,66.7
			c-3.4,24-12,40-23.1,42.8c-10.9,2.8-25.2-6.4-39.3-25.1l-42.8-56.9c-3-4-8.6-4.8-12.6-1.8s-4.8,8.6-1.8,12.6l42.8,56.9
			c16.1,21.4,33.5,32.8,49.6,32.8c2.9,0,5.7-0.4,8.4-1.1c18.8-4.8,31.8-25.3,36.4-57.7l10.2-71.9c19.5-4.4,30.8-13.4,43.1-30.3
			l2.7-3.7c17.1-23.8,67.8-94.2,128.3-100.2c2.2,1.9,5.1,3.1,8.2,3.1h46.8c7,0,12.6-5.6,12.6-12.6
			C3731.9,2673.6,3726.3,2668,3719.4,2668z M3384,2671.6c-0.1-2.1-0.3-4-0.5-6c24.9-12.8,53.5-34.7,69.3-59
			c13.5,7.7,15.9,17.4,15.9,17.7c0.6,3,2.6,5.4,5.3,6.6c1.1,0.5,2.3,0.7,3.5,0.7c1.7,0,3.5-0.5,5-1.5c0.1-0.1,9-5.5,23.7-1.9
			c-4.7,14.1-12.6,28.8-23.3,43.4H3384z M3482.1,2583.2c0.1,0,0.2,0,0.3,0c7.3,0,14.3,2.8,19.5,8c5.2,5.1,8,12,8.1,19.4
			c-11.6-2.7-21.1-1.5-27.6,0.4c-3.3-5.8-9.4-13.3-19.9-19.5C3467.7,2586.2,3474.7,2583.2,3482.1,2583.2z M3396.1,2486.5
			c7,1.2,12.8,14.5,10,30.3c-1.9,10.8-8,21-14.2,29c-0.4-12.9-2.7-28.5-10.2-41.5c-0.7-1.2-1.5-2.3-2.2-3.4
			C3383.6,2491.6,3390.4,2485.5,3396.1,2486.5z M3339.9,2528.4c-8-13.9-7.1-28.3-0.9-31.9c1.2-0.7,2.5-1,4-1
			c6.2,0,16.1,5.6,23.1,17.7c7.8,13.6,8.3,31.9,7.6,43.6C3363.3,2551.6,3347.8,2542.1,3339.9,2528.4z M3382.9,2578.8
			c25.2-4.5,40.5,5.8,45.5,30.1c-12.2,13.9-29.5,27.6-47.9,37.9c-5.1-20.9-15.2-35.9-29.6-43.4
			C3354.5,2590.1,3365,2582,3382.9,2578.8z M3366,2671.6h-39.3c-0.2-17.7-1.4-39-9.1-55c2.9-0.5,6-0.8,9.5-0.8
			C3357.2,2615.8,3364.7,2647.5,3366,2671.6z M3278.9,2610.5c21,0,28.9,15.6,29.8,61h-59.6C3250,2626.2,3257.9,2610.5,3278.9,2610.5
			z M3230.7,2615.8c3.4,0,6.5,0.3,9.4,0.7c-7.7,16.1-8.9,37.4-9.1,55h-39.3C3193.1,2647.5,3200.6,2615.8,3230.7,2615.8z
			 M3222.1,2937.1c-36.2,0-65.6-29.4-65.6-65.6c0-36.2,29.4-65.6,65.6-65.6c36.2,0,65.6,29.4,65.6,65.6
			C3287.8,2907.6,3258.3,2937.1,3222.1,2937.1z"/>
	</g>
</g>
<g>
	<g>
		<g>
			<path class="st4" d="M2572.3,2709.7c0,55.5-45,100.4-100.4,100.4s-100.4-45-100.4-100.4c0-55.5,45-100.4,100.4-100.4
				S2572.3,2654.3,2572.3,2709.7z"/>
		</g>
		<g>
			<path class="st0" d="M2531.3,2709.7c0,25.7-8.6,46.6-19.2,46.6c-10.6,0-19.3-20.9-19.3-46.6c0-25.7,8.6-46.6,19.3-46.6
				C2522.7,2663.2,2531.3,2684,2531.3,2709.7z"/>
		</g>
		<g>
			<path class="st3" d="M2472.6,2811.5c77.2-33.3,162.1-52,251.3-52.6l0,0c-22.9,118.3-127,207.6-252,207.6h-0.3
				c-125,0-229.1-89.3-252-207.6c25.4,0,50.4,1.6,75,4.5L2472.6,2811.5z"/>
		</g>
		<g>
			<g>
				<polygon class="st0" points="2463.7,2807.7 2463.7,2742 2412.8,2683.1 2346.3,2683.1 2294.6,2738.5 2294.6,2796.8 2362,2808.5 
									"/>
			</g>
		</g>
	</g>
	<g>
		<path d="M2728.6,2700.8H2617c-5,0-9,4-9,9s4,9,9,9h111.6c5,0,9-4,9-9S2733.5,2700.8,2728.6,2700.8z"/>
		<path d="M2270.5,2718.7c5,0,9-4,9-9s-4-9-9-9h-55.3c-5,0-9,4-9,9s4,9,9,9H2270.5z"/>
		<path d="M2599.8,2663.2c1.3,3.7,4.8,5.9,8.4,5.9c1,0,2.1-0.2,3.1-0.5l104.8-38.1c4.7-1.7,7.1-6.9,5.4-11.5
			c-1.7-4.7-6.8-7-11.5-5.4l-104.8,38.1C2600.5,2653.4,2598.1,2658.5,2599.8,2663.2z"/>
		<path d="M2576.2,2622.3c1.8,2.1,4.3,3.2,6.9,3.2c2,0,4.1-0.7,5.8-2.1l85.5-71.7c3.8-3.2,4.3-8.9,1.1-12.7s-8.9-4.3-12.7-1.1
			l-85.5,71.7C2573.5,2612.8,2573,2618.5,2576.2,2622.3z"/>
		<path d="M2540,2591.9c1.4,0.8,3,1.2,4.5,1.2c3.1,0,6.1-1.6,7.8-4.5l55.8-96.6c2.5-4.3,1-9.8-3.3-12.3s-9.8-1-12.3,3.3l-55.8,96.6
			C2534.2,2583.9,2535.7,2589.4,2540,2591.9z"/>
		<path d="M2495.6,2575.7c0.5,0.1,1.1,0.1,1.6,0.1c4.3,0,8.1-3.1,8.8-7.4l19.4-109.9c0.9-4.9-2.4-9.5-7.3-10.4
			c-4.9-0.8-9.5,2.4-10.4,7.3l-19.4,109.9C2487.4,2570.2,2490.7,2574.8,2495.6,2575.7z"/>
		<path d="M2446.7,2575.8c0.5,0,1,0,1.6-0.1c4.9-0.9,8.2-5.5,7.3-10.4l-19.4-109.9c-0.9-4.9-5.6-8.1-10.4-7.3
			c-4.9,0.9-8.2,5.5-7.3,10.4l19.4,109.9C2438.6,2572.8,2442.4,2575.8,2446.7,2575.8z"/>
		<path d="M2391.6,2588.6c1.7,2.9,4.7,4.5,7.8,4.5c1.5,0,3.1-0.4,4.5-1.2c4.3-2.5,5.8-8,3.3-12.3l-55.8-96.6
			c-2.5-4.3-8-5.8-12.3-3.3s-5.8,8-3.3,12.3L2391.6,2588.6z"/>
		<path d="M2355,2623.4c1.7,1.4,3.7,2.1,5.8,2.1c2.6,0,5.1-1.1,6.9-3.2c3.2-3.8,2.7-9.5-1.1-12.7l-85.5-71.7
			c-3.8-3.2-9.5-2.7-12.7,1.1s-2.7,9.5,1.1,12.7L2355,2623.4z"/>
		<path d="M2227.7,2630.4l91.9,33.4c1,0.4,2.1,0.5,3.1,0.5c3.7,0,7.1-2.3,8.4-5.9c1.7-4.7-0.7-9.8-5.4-11.5l-91.9-33.4
			c-4.7-1.7-9.8,0.7-11.5,5.4S2223,2628.7,2227.7,2630.4z"/>
		<path d="M2391.4,2649c3.7,3.3,9.4,3.1,12.7-0.6c17.3-19.1,42-30.1,67.8-30.1c50.4,0,91.4,41,91.4,91.5c0,8.4-1.1,16.7-3.4,24.7
			c-1.3,4.8,1.5,9.7,6.2,11.1c0.8,0.2,1.6,0.3,2.4,0.3c3.9,0,7.5-2.6,8.6-6.6c2.7-9.6,4-19.5,4-29.6c0-60.3-49.1-109.4-109.4-109.4
			c-30.8,0-60.4,13.1-81.1,36C2387.4,2640,2387.7,2645.7,2391.4,2649z"/>
		<path d="M2723.9,2749.9L2723.9,2749.9c-69.8,0.5-137.8,11.9-202.9,33.7v-20.5c12.7-7.4,19.2-30.3,19.2-53.1
			c0-27.6-9.7-55.5-28.2-55.5s-28.2,27.9-28.2,55.5c0,22.7,6.6,45.7,19.3,53.1v26.7c-10.2,3.7-20.3,7.7-30.3,12l0,0V2742
			c0-2.2-0.8-4.2-2.2-5.9l-50.9-58.8c-0.1-0.2-0.3-0.3-0.5-0.5l0,0c-0.1-0.1-0.1-0.1-0.2-0.2l0,0l0,0l0,0l0,0
			c-1.6-1.5-3.7-2.4-6.1-2.4l0,0l0,0l0,0l0,0l0,0h-66.5c-2.5,0-4.9,1-6.6,2.9l-51.7,55.4c-1.6,1.7-2.4,3.9-2.4,6.1v14.9
			c-21.8-2.2-43.9-3.5-65.9-3.5l0,0c-2.7,0-5.2,1.2-6.9,3.3s-2.4,4.8-1.9,7.4c24.1,124.5,133.8,214.9,261.1,214.9
			c127,0,236.7-90.3,260.8-214.8c0.5-2.6-0.2-5.4-1.9-7.5C2729.1,2751.1,2726.6,2749.9,2723.9,2749.9z M2511.8,2672.4
			c2.9,0.9,10.5,13.9,10.5,37.6c0,23.2-7.3,36.1-10.3,37.5c-3-1.4-10.3-14.3-10.3-37.5C2501.7,2686.3,2509.3,2673.3,2511.8,2672.4z
			 M2412.8,2696.9l41.9,48.5v62.4c0,3.6,2.2,6.9,5.5,8.3c56.6,23.6,109.2,55.4,156.7,94.4c-18.7,13.5-39.2,24.4-61.2,32.3
			c-53.3-57.9-115.4-104.9-184.9-139.6v-57.8L2412.8,2696.9z M2303.6,2748l49.4,2.5v47.4l-49.4-8.6V2748z M2350.2,2692.1h42.9
			l-35.1,40.7l-43.7-2.2L2350.2,2692.1z M2249.5,2819.4c64.4,34.3,121.4,78.7,170,132.5C2345.6,2936,2282.8,2886.8,2249.5,2819.4z
			 M2471.6,2957.4c-8.2,0-16.3-0.4-24.4-1.2c-57.7-68.3-127.9-123-208.7-162.6c-3-8.3-5.6-16.9-7.7-25.6c18.3,0.4,36.7,1.6,54.8,3.6
			v25.3c0,4.4,3.1,8.1,7.4,8.9l66,11.5c66.5,32.7,126.2,77,177.7,131.6C2515.9,2954.4,2494.1,2957.4,2471.6,2957.4z M2631.5,2899.1
			c-41.7-34.7-87.3-64-136.1-87.1c26.4-10.4,53.3-18.9,80.7-25.6c-5.3,9.5-10.4,19.1-15.1,28.8c-2.2,4.5-0.4,9.8,4.1,12
			c1.3,0.6,2.6,0.9,4,0.9c3.3,0,6.5-1.8,8.1-5c7-14.3,14.7-28.4,22.7-42.1c16.6-3.4,33.3-6.2,50.2-8.3c-15,25.6-28.3,52.2-39.6,79.3
			c-1.9,4.6,0.3,9.8,4.8,11.7c1.1,0.5,2.3,0.7,3.4,0.7c3.5,0,6.9-2.1,8.3-5.5c12.6-30.4,27.9-60.1,45.2-88.4
			c13.4-1.2,26.9-2.1,40.5-2.4C2700.1,2820.5,2670.9,2865.9,2631.5,2899.1z"/>
		<path d="M2412.8,2806.2c5,0,9-4,9-9v-22.5c0-5-4-9-9-9s-9,4-9,9v22.6C2403.8,2802.2,2407.8,2806.2,2412.8,2806.2z"/>
	</g>
</g>
<g>
	<g>
		<path class="st0" d="M2421.2,1286.1c0-60.3-48.9-109.2-109.2-109.2s-109.2,48.9-109.2,109.2s48.9,109.2,109.2,109.2
			S2421.2,1346.4,2421.2,1286.1z"/>
		
			<ellipse transform="matrix(0.9892 -0.1466 0.1466 0.9892 -164.2562 407.834)" class="st0" cx="2684.8" cy="1318.3" rx="76.9" ry="76.9"/>
		<polygon class="st0" points="2606.5,1103.2 2606.5,1024.9 2568.5,1024.9 2568.5,1099 		"/>
		<path class="st1" d="M2356.5,1286.1c0-24.6-19.9-44.5-44.5-44.5s-44.5,19.9-44.5,44.5s19.9,44.5,44.5,44.5
			S2356.5,1310.6,2356.5,1286.1z"/>
		<path class="st1" d="M2718.8,1318.4c0-18.7-15.2-33.9-33.9-33.9s-33.9,15.2-33.9,33.9c0,18.7,15.2,33.9,33.9,33.9
			S2718.8,1337.2,2718.8,1318.4z"/>
		<path class="st3" d="M2668.4,1110.2l-158.2-17.9L2462,926.6h-205.3l-22.8,232.7c22.7-14,49.4-22.1,78-22.1
			c82.2,0,148.8,66.6,148.8,148.8v12h149.5l0.5-0.3c9-32.4,38.7-56.2,74-56.2c10.2,0,19.9,2,28.7,5.6l0,0l11.9-58.4
			C2733.4,1150,2707.7,1114.7,2668.4,1110.2z M2448,1150.7c-34.8-34.9-82.9-56.6-136-56.6c-9.6,0-19.1,0.7-28.5,2.1l12.4-126.5
			h133.7l52.6,181H2448z"/>
	</g>
	<g>
		<path d="M2312,1167.8c-65.2,0-118.2,53-118.2,118.2s53,118.2,118.2,118.2s118.2-53,118.2-118.2S2377.2,1167.8,2312,1167.8z
			 M2312,1386.3c-55.3,0-100.2-45-100.2-100.2s45-100.2,100.2-100.2s100.2,45,100.2,100.2S2367.3,1386.3,2312,1386.3z"/>
		<path d="M2312,1232.6c-29.5,0-53.5,24-53.5,53.5c0,6.6,1.2,13,3.5,19.1c1.8,4.6,7,7,11.6,5.2s7-7,5.2-11.6
			c-1.5-4-2.3-8.3-2.3-12.7c0-19.6,15.9-35.5,35.5-35.5s35.5,15.9,35.5,35.5s-15.9,35.5-35.5,35.5c-5,0-9,4-9,9s4,9,9,9
			c29.5,0,53.5-24,53.5-53.5S2341.5,1232.6,2312,1232.6z"/>
		<path d="M2723.8,1242l10.5-51.5c4.3-21.2-0.1-42.3-12.4-59.2c-12.3-16.9-31-27.6-52.5-30.1l-53.9-6.1v-70.3c0-5-4-9-9-9h-10v-38
			c0-4,3.3-7.3,7.3-7.3c5,0,9-4,9-9s-4-9-9-9c-13.9,0-25.3,11.3-25.3,25.3v38h-10c-5,0-9,4-9,9v63.9l-42.4-4.8L2474,935.6h12.5
			c5,0,9-4,9-9s-4-9-9-9h-254.2c-5,0-9,4-9,9s4,9,9,9h14.6l-21.4,218.6c-20.9,13.7-38.6,32.3-51.2,54.8c-2.4,4.3-0.9,9.8,3.4,12.2
			c4.3,2.4,9.8,0.9,12.2-3.4c24.7-44.2,71.5-71.6,122.1-71.6c77.1,0,139.8,62.7,139.8,139.8v12c0,5,4,9,9,9s9-4,9-9v-12
			c0-87-70.8-157.8-157.8-157.8c-23.7,0-46.7,5.4-67.4,15.3l20.3-207.9h190.4l46.2,159.3c1,3.6,4.1,6,7.6,6.4l0,0l158.2,17.9
			c16.5,1.9,30.7,10,40,22.8s12.6,28.8,9.3,45.1l-9.9,48.5c-7-1.9-14.4-3-22-3c-37,0-68.5,23.6-80.6,56.5h-102.7c-5,0-9,4-9,9
			s4,9,9,9h98.3c-0.5,3.7-0.8,7.5-0.8,11.4c0,47.3,38.5,85.8,85.8,85.8s85.8-38.5,85.8-85.8
			C2770.7,1285.1,2751.6,1256.3,2723.8,1242z M2577.5,1033.9h20v59.2l-20-2.3V1033.9z M2684.8,1386.3c-37.4,0-67.9-30.4-67.9-67.9
			c0-37.4,30.4-67.9,67.9-67.9s67.9,30.4,67.9,67.9S2722.3,1386.3,2684.8,1386.3z"/>
		<path d="M2684.8,1275.5c-23.7,0-42.9,19.2-42.9,42.9c0,5,4,9,9,9s9-4,9-9c0-13.8,11.2-24.9,24.9-24.9c13.8,0,24.9,11.2,24.9,24.9
			c0,13.8-11.2,24.9-24.9,24.9c-5,0-9,4-9,9s4,9,9,9c23.7,0,42.9-19.2,42.9-42.9S2708.5,1275.5,2684.8,1275.5z"/>
		<path d="M2438.2,967.3c-1.1-3.8-4.6-6.5-8.6-6.5h-133.7c-4.6,0-8.5,3.5-8.9,8.1l-12.4,126.5c-0.3,2.8,0.7,5.5,2.8,7.4
			c2,1.9,4.8,2.8,7.5,2.4c9-1.3,18.1-2,27.1-2c48.9,0,94.9,19.2,129.6,54c1.7,1.7,4,2.6,6.4,2.6h34.2c2.8,0,5.5-1.3,7.2-3.6
			c1.7-2.3,2.2-5.2,1.4-7.9L2438.2,967.3z M2451.6,1141.8c-24.5-23.8-54.1-40.5-86.1-49.4v-81.8c0-5-4-9-9-9s-9,4-9,9v77.8
			c-11.6-2.1-23.5-3.2-35.5-3.2c-6.1,0-12.3,0.3-18.4,0.8l10.5-107.2h118.8l47.3,163H2451.6L2451.6,1141.8z"/>
		<path d="M2575,1168.3h65.7c5,0,9-4,9-9s-4-9-9-9H2575c-5,0-9,4-9,9S2570.1,1168.3,2575,1168.3z"/>
		<path d="M2575,1208.7h65.7c5,0,9-4,9-9s-4-9-9-9H2575c-5,0-9,4-9,9S2570.1,1208.7,2575,1208.7z"/>
	</g>
</g>
<g>
	<path class="st6" d="M52.5,18.3c-3-2.5-8.1-4.3-13.7-5.2c-6.1-0.9-10.4-0.6-16.2,1.4c-5.9,2.1-10.7,5.3-11.4,12
		c-0.4,3.9,0.3,9.4,1.4,13.2c0.9,2.9,2.1,5.5,3.6,7.4l0.1,0.1l0,0c0,0,1.1-0.1,1.3-0.1c-0.1-1.7,0-3.3,0.3-4.8
		c0.3-1.6,0.9-3,1.6-3.9l0.6-0.8l0.8,0.5c1.8,1.1,4,1.8,6.9,2.3c3,0.5,6.8,0.7,11.9,0.6h0.8l0.3,0.7c0.4,1,0.8,2,1.3,2.9
		s0.9,1.8,1.5,2.6H45c-0.2-0.8-0.3-1.6-0.3-2.4c-0.1-1.1,0-2.2,0.2-3.3l0.1-0.9l0.9-0.1c3.7-0.3,7.3-0.7,10.5-1.3
		c3-0.6,5.7-1.3,7.8-2.2c1.1-0.5,2.1-1,2.9-1.5c0.7-0.4,1.2-0.9,1.6-1.4c0.2-0.5,0.5-1.7,0.5-2.6v-0.2c-1.5-0.1-3.7-0.6-5.7-2.1
		C62,28.1,60.7,26.4,60,24l-0.3-1.1l1.1-0.3c1.3-0.4,2.4-1.3,3.3-2.4c0.4-0.6,0.8-1.2,1-1.8c-1.5,0.4-3.3,0.5-5.2,0.6
		c-3.3,0.2-6.8,0.4-8.4,2.7C50.4,21.6,50.6,19.1,52.5,18.3L52.5,18.3z"/>
	<path class="st7" d="M38.8,16c4.7,0.7,9.2,2,12.2,3.7c0.3-0.6,0.7-1.2,1.5-1.5c-3-2.5-8.1-4.3-13.7-5.2c-6.1-0.9-10.4-0.6-16.2,1.4
		c-5.9,2.1-10.7,5.3-11.4,12c-0.2,1.6-0.1,3.2,0,4.8c-0.1-7.4,2.6-10.6,9.4-13.2c4.9-1.8,10.1-2.8,15.4-2.3
		C36.9,15.8,37.9,15.9,38.8,16L38.8,16L38.8,16z M64.9,18.7c-0.9,2.8-3.4,2.7-6.1,2.9c-3,0.2-6.1,0.1-7.5,0.5
		c1.7-2.4,5.2-2.6,8.4-2.7C61.6,19.2,63.4,19.1,64.9,18.7L64.9,18.7z"/>
	<path class="st8" d="M52.5,18.3c-7.3-6.1-21.2-6.8-29.8-3.7c-5.9,2.1-10.7,5.3-11.4,12c-0.4,3.9,0.3,9.4,1.4,13.2
		c0.9,2.9,2.1,5.5,3.6,7.4l0.1,0.1l0,0c0,0,1.1-0.1,1.3-0.1c-0.1-1.7,0-3.3,0.3-4.8c0.3-1.6,0.9-3,1.6-3.9l0.6-0.8l0,0
		c1.1-1.8,1.9-3.5,1.6-5.6c2,1.6,1.5,4.4,0.5,6.4L22,38.7c1.6,0.8,3.4,1.4,5.8,1.8c3,0.5,6.8,0.7,11.9,0.6h0.8l0.3,0.7
		c0.4,1,0.8,2,1.3,2.9s0.9,1.8,1.5,2.6H45c-0.2-0.8-0.3-1.6-0.3-2.4c-0.1-1.1,0-2.2,0.2-3.3c0.4-2.3,1.3-4.1,2.4-5.2
		c0.3,0-0.6,4.2-0.3,4.2c3.3-0.3,6.5-0.7,9.5-1.3c3-0.6,5.7-1.3,7.8-2.2c1.1-0.5,2.1-1,2.9-1.5c0.7-0.4,1.2-0.9,1.6-1.4
		c0.2-0.5,0.5-1.7,0.5-2.6c0-0.1,0-0.1,0-0.2c-1.5-0.1-3.7-0.6-5.7-2.1c-1.5-1.1-2.8-2.8-3.5-5.2L59.8,23l1.1-0.3
		c1.3-0.4,2.4-1.3,3.3-2.4c0.4-0.6,0.8-1.2,1-1.8c-1.5,0.4-3.3,0.5-5.2,0.6c-3.3,0.2-6.8,0.4-8.4,2.7C50.4,21.6,50.6,19.1,52.5,18.3
		L52.5,18.3L52.5,18.3z M56.4,26.1c0.9,0,1.7,0.8,1.7,1.7c0,0.9-0.8-0.1-1.7-0.1s-1.7,1-1.7,0.1C54.7,26.9,55.4,26.1,56.4,26.1
		L56.4,26.1L56.4,26.1z M54.9,17.5c1.5-0.3,3.1-0.4,4.7-0.5c2.4-0.1,4.7-0.2,6-1.1l1.5-1l0.3,1.8c0.2,1.6-0.4,3.6-1.6,5.2
		c-0.9,1.2-2,2.2-3.3,2.9c0.6,1.4,1.4,2.3,2.4,3c1.7,1.3,3.6,1.6,4.8,1.6c0.2,0,0.4,0,0.6,0.1c0.5,0.2,0.8,0.6,1,1.1
		c0.1,0.3,0.2,0.7,0.2,1.2c0,1.3-0.5,3.1-0.7,3.5l-0.1,0.1l-0.1,0.1c-0.6,0.7-1.3,1.4-2.3,2.1c-0.9,0.6-2,1.2-3.3,1.7
		c-2.3,0.9-5.1,1.7-8.3,2.3c-0.6,0.1-1.2,0.2-1.8,0.3c0,0.5,0.1,1,0.2,1.5c0.3,1.5,0.7,3,1,3.9l0,0c0,0.2,0.1,0.3,0.1,0.5
		c0,0.3-0.1,0.7-0.3,1l0,0c-0.2,0.3-0.5,0.5-0.9,0.7c-0.2,0.1-0.4,0.1-0.5,0.1h-2.2c-0.4,0-0.7-0.1-1-0.3s-0.6-0.4-0.8-0.7
		c-0.4-0.7-1-1.8-1.6-2.9c-0.5-1-1-2-1.3-2.8c-0.2,0-0.4,0-0.5,0c-0.1,0.6-0.1,1.3,0,1.9c0.1,0.9,0.2,1.7,0.4,2.5
		c0.1,0.2,0.1,0.3,0.1,0.5c0,0.3-0.1,0.7-0.3,1s-0.5,0.5-0.9,0.7c-0.2,0.1-0.3,0.1-0.5,0.1h-2.2c-0.4,0-0.7-0.1-1-0.3
		s-0.6-0.4-0.8-0.7c-0.6-0.9-1.1-1.9-1.6-2.9c-0.4-0.8-0.7-1.6-1.1-2.4c-3.6,0.1-6.5-0.1-9-0.3c0.1,0.5,0.1,1,0.2,1.5
		c0.2,1.2,0.5,2.3,0.6,2.9c0.1,0.2,0.1,0.3,0.1,0.5c0,0.3-0.1,0.7-0.3,1l0,0c-0.2,0.3-0.5,0.5-0.9,0.7c-0.2,0.1-0.3,0.1-0.5,0.1
		h-2.2c-0.4,0-0.7-0.1-1-0.3s-0.6-0.4-0.8-0.7c-0.9-1.4-2-4.3-2.8-6.6c-0.1-0.2-0.2-0.5-0.3-0.9c-0.4-0.2-0.8-0.3-1.1-0.5
		c-0.3,0.6-0.5,1.3-0.7,2.2c-0.3,1.4-0.4,2.9-0.3,4.5c0,0.6-0.1,1.1-0.5,1.4c-0.4,0.4-0.9,0.6-1.4,0.7c-0.4,0.1-0.9,0-1.3,0
		c-0.9-0.1-1.9-0.6-2.2-0.8l0,0c-1.6-2.1-3-4.9-4-8.1c-1.5-5-2.4-13-0.6-18c-1.5-0.1-2.8-0.9-3.8-2c-0.1-0.1-0.8-0.1-1.1-0.1
		c-2.5-0.2-4.1-1.5-4.7-4C1.8,18,3,18.4,4.9,18.4c-0.8-2-0.7-4.5,1.8-4.6c3.1-0.1,5.1,4.1,1.7,6.2c0.8,0.6,1.6,0.8,2.5,0.5
		c0.4-0.2,0.4-0.3,0.7-0.8C19.6,8.3,45.4,7.5,54.9,17.5L54.9,17.5z M6.8,17.9c1.9-0.8,0.8-2.6-0.2-2.1C5.8,16.2,6.7,17.9,6.8,17.9
		L6.8,17.9z M49.8,42.7c1-0.1,1.9-0.2,2.9-0.4c0,0.5,0.1,1,0.2,1.6c0.2,1.2,0.6,2.5,0.8,3.5h-1.5c-0.4-0.7-0.9-1.6-1.5-2.7
		C50.5,44,50.1,43.3,49.8,42.7L49.8,42.7L49.8,42.7z M27.6,42.7c0.1,0.7,0.2,1.5,0.3,2.2c0.2,0.9,0.3,1.8,0.5,2.4h-1.5
		c-0.7-1.1-1.5-3.3-2.3-5.3c0.8,0.2,1.8,0.4,2.8,0.6L27.6,42.7L27.6,42.7z"/>
	<path class="st9" d="M68.5,34.6c-6.2,3.4-18.3,4.3-21.5,4c-0.4,2.4-0.4,2.1,0.4,2.1l4.2-0.5c5.1-0.7,11.9-2,15.6-4.5L68.5,34.6
		L68.5,34.6L68.5,34.6z M22.9,34c3.4,1.5,7.6,2.8,12.3,3.2c-3.3,0.6-7,0.2-11.5-1.3c4.9,1.9,10.9,3.2,17.4,3
		c-5.1,2-11.2,1.6-18.8-0.8C22.9,36.6,23.2,35.2,22.9,34L22.9,34L22.9,34z M12.6,39.7c0.7,2.3,1.6,4.4,2.7,6.1
		c0.8-0.5,1.2-1.3,0.9-2c-2.2-6.2-0.1-5.1,0.3-10.5c0.3-3.4-1.7-4.7-4.3-6.3c-1.2-0.7-1-1.4-1.1,0.5C10.9,31.3,11.6,36.1,12.6,39.7
		L12.6,39.7z M34.2,24.8c5.2,0.9,7.6-1.3,10.6-5.1c0.7-0.9,1-1.2,2.1-1.5c0.6-0.2-0.3-0.3-0.7-0.4c-5.7-1.6-11.7-2.9-17.5-1.9
		c-3.1,0.5-7.4,1.8-10.2,3.1c4.3,0.1,5.8,0.5,9.3,2.9C29.9,23.5,31.6,24.3,34.2,24.8L34.2,24.8z M27.9,44.9
		c-0.1-0.7-0.2-1.5-0.3-2.2h-0.2c-1-0.2-1.9-0.4-2.8-0.6c0.7,2,1.6,4.2,2.3,5.3h1.5C28.2,46.7,28.1,45.8,27.9,44.9L27.9,44.9
		L27.9,44.9z M50.8,44.7c0.5,1,1.1,2,1.5,2.7h1.5c-0.3-1-0.6-2.2-0.8-3.5c-0.1-0.5-0.2-1.1-0.2-1.6c-0.9,0.1-1.9,0.2-2.9,0.4
		C50.1,43.3,50.5,44,50.8,44.7L50.8,44.7z"/>
</g>
</svg>
