<?xml version="1.0" encoding="utf-8"?>
<!-- Generator: Adobe Illustrator 24.2.3, SVG Export Plug-In . SVG Version: 6.00 Build 0)  -->
<svg version="1.1" id="Layer_1" xmlns="http://www.w3.org/2000/svg" xmlns:xlink="http://www.w3.org/1999/xlink" x="0px" y="0px"
	 viewBox="0 0 75 75" style="enable-background:new 0 0 75 75;" xml:space="preserve">
<style type="text/css">
	.st0{fill:#231F20;stroke:#000000;stroke-width:0.75;stroke-miterlimit:10;}
</style>
<g>
	<path class="st0" d="M35.3,55.9L35.3,55.9c-6.8,0-12.9-2.3-16.7-6.2c-1.3-1.3-2.4-2.9-3.1-4.7c-2.6-6.7,0.4-14.5,6.8-17.6l0.3-0.2
		c1.8-0.9,1.8-0.9,3.5-3.4c2.2-3.3,5.2-5.7,8.9-7.2c2.3-0.9,4.6-1.3,7-1.3c7.9,0,15,4.8,17.8,12.1c3.5,9-0.2,18.8-8.9,24
		C46.5,54.5,41,55.9,35.3,55.9z M42.2,16.7c-2.2,0-4.4,0.4-6.5,1.2c-3.4,1.3-6.3,3.6-8.2,6.6c-1.8,2.7-2,2.9-4.1,3.8L23,28.5
		c-5.8,2.9-8.6,9.9-6.2,16c0.7,1.6,1.5,3,2.8,4.2c3.5,3.7,9.3,5.8,15.7,5.8v0.7v-0.7c5.4,0,10.6-1.5,15.2-4.2
		c8.1-4.8,11.6-14,8.3-22.3C56.1,21.2,49.6,16.7,42.2,16.7z"/>
	<path class="st0" d="M35.5,51.4V50c4.5,0,8.8-1.2,12.6-3.5c6.2-3.7,8.8-10.6,6.4-16.7c-2-5.1-6.8-8.4-12.4-8.4
		c-1.6,0-3.3,0.3-4.9,0.9c-2.5,1-4.6,2.7-6.1,5c-2.2,3.3-2.9,3.7-5.4,5l-0.2,0.2l-0.7-1.2L25,31c2.4-1.1,2.8-1.5,4.9-4.6
		c1.6-2.4,4-4.3,6.8-5.5c1.7-0.7,3.5-1,5.4-1c6,0,11.4,3.7,13.6,9.3c2.7,6.8-0.2,14.3-6.9,18.4C44.8,50.1,40.1,51.4,35.5,51.4z"/>
	<path class="st0" d="M35.5,51.4c-5.5,0-10.4-1.8-13.3-4.8c-0.9-0.9-1.6-2-2.1-3.3c-1.9-4.6,0.2-10,4.6-12.1l0.6,1.2
		c-3.8,1.9-5.6,6.4-4.1,10.4c0.4,1.1,1.1,2,1.9,2.8c2.7,2.8,7.3,4.4,12.3,4.4L35.5,51.4z"/>
	<path class="st0" d="M42.2,39.5L42.2,39.5c-2,0-3.8-1.2-4.6-3.1c-1-2.5,0.2-5.3,2.8-6.3c0.6-0.2,1.1-0.3,1.8-0.3
		c2,0,3.8,1.2,4.6,3.1c1,2.5-0.2,5.3-2.8,6.3C43.4,39.3,42.8,39.5,42.2,39.5z M42.2,31.1c-0.4,0-0.9,0.1-1.3,0.2
		c-1.8,0.7-2.7,2.8-2,4.6c0.6,1.4,1.8,2.2,3.3,2.2c0.4,0,0.9-0.1,1.3-0.2c1.8-0.7,2.7-2.8,2-4.6C45,32,43.6,31.1,42.2,31.1z"/>
</g>
</svg>
