<?xml version="1.0" encoding="utf-8"?>
<!-- Generator: Adobe Illustrator 24.2.3, SVG Export Plug-In . SVG Version: 6.00 Build 0)  -->
<svg version="1.1" id="Layer_1" xmlns="http://www.w3.org/2000/svg" xmlns:xlink="http://www.w3.org/1999/xlink" x="0px" y="0px"
	 viewBox="0 0 75 75" style="enable-background:new 0 0 75 75;" xml:space="preserve">
<style type="text/css">
	.st0{fill:#E89492;}
	.st1{fill:#D82E2E;}
	.st2{fill:#FFD3C5;}
	.st3{fill:#EA6060;}
	.st4{fill:#231F20;stroke:#000000;stroke-width:0.75;stroke-miterlimit:10;}
</style>
<g>
	<path class="st0" d="M61.3,31.1c-3.1-8-10.6-13-19.2-13c-2.5,0-5.1,0.5-7.5,1.4c-3.9,1.5-7.1,4.2-9.5,7.6c-2,3-2.1,3-4.3,4.1
		l-0.3,0.2c-6.9,3.3-10,11.5-7.2,18.6c0.7,1.9,1.8,3.6,3.3,5c4.1,4.3,10.6,6.7,18,6.7l0,0c6.2,0,12-1.6,17.2-4.8
		C61.1,51.3,65.1,40.7,61.3,31.1z"/>
	<path class="st1" d="M59.2,28.1C55.5,18.7,44.8,14,35.4,17.7c-3.6,1.4-6.5,3.8-8.5,6.8l0,0c-2.4,3.6-2.7,3.6-5.4,5l0,0
		c-5.8,2.8-8.6,9.7-6.2,15.8c0.6,1.6,1.6,3.1,2.8,4.3c6.6,6.9,20.7,8.1,32.5,1.5l0,0C58.9,46.8,62.8,36.9,59.2,28.1z"/>
	<path class="st2" d="M37.9,36.5c0.9,2.4,3.6,3.5,6.1,2.6c2.4-0.9,3.5-3.6,2.6-6.1c-0.9-2.4-3.6-3.5-6.1-2.6
		C38.1,31.3,36.9,34.1,37.9,36.5z"/>
	<path class="st2" d="M34.5,57.8L34.5,57.8c-7.4,0-13.9-2.4-18-6.7c-1.4-1.4-2.5-3.1-3.3-5c-2.8-7.1,0.4-15.3,7.2-18.6l0.4-0.2
		c2.1-1,2.2-1.1,4.3-4.1c2.4-3.4,5.6-6.2,9.5-7.6c2.4-0.9,5-1.4,7.5-1.4c8.5,0,16,5.2,19.2,13c3.8,9.6-0.2,20.2-9.6,25.7
		C46.7,56,40.7,57.8,34.5,57.8z M42.1,18.6c-2,0-4,0.4-5.9,1.1c-3.1,1.2-5.7,3.3-7.5,6c-2.4,3.7-3.1,4.2-5.9,5.5l-0.4,0.2
		c-4.8,2.4-7.1,8.1-5.1,13.1c0.5,1.4,1.3,2.5,2.3,3.5c3.3,3.3,8.8,5.3,14.8,5.3l0,0c5.3,0,10.5-1.4,14.9-4.2
		c7.5-4.4,10.7-12.8,7.7-20.4C54.8,22.7,48.8,18.6,42.1,18.6z"/>
	<path class="st3" d="M41.1,22.6c0.9,1.6,0,3.8-2,4.9c-2,1.1-4.3,0.6-5.2-1c-0.9-1.6,0-3.8,2-4.9C37.9,20.5,40.2,20.9,41.1,22.6z"/>
</g>
<g>
	<path class="st4" d="M34.6,58.4L34.6,58.4c-7.6,0-14.3-2.5-18.5-6.9c-1.4-1.4-2.6-3.3-3.4-5.2c-2.9-7.4,0.5-16.1,7.6-19.5l0.4-0.2
		c2-1,2-1,3.9-3.8c2.4-3.6,5.8-6.3,9.9-8c2.5-1,5.2-1.4,7.8-1.4c8.8,0,16.6,5.3,19.8,13.5c3.9,10-0.2,20.9-9.9,26.6
		C47,56.8,40.9,58.4,34.6,58.4z M42.2,14.9c-2.4,0-4.9,0.5-7.2,1.4c-3.8,1.4-7,4-9.1,7.3c-2,3-2.2,3.2-4.5,4.3L21,28
		c-6.4,3.3-9.5,11-6.9,17.7c0.7,1.8,1.7,3.3,3.1,4.7c3.9,4.1,10.3,6.4,17.5,6.4v0.7v-0.7c6,0,11.8-1.6,16.8-4.7
		c9-5.3,12.8-15.6,9.2-24.8C57.7,19.9,50.5,14.9,42.2,14.9z"/>
	<path class="st4" d="M34.8,53.3v-1.5c5,0,9.8-1.4,13.9-3.9c6.9-4.1,9.8-11.8,7.1-18.5c-2.3-5.7-7.6-9.3-13.8-9.3
		c-1.8,0-3.6,0.4-5.4,1c-2.8,1.1-5.2,3-6.8,5.5c-2.4,3.6-3.2,4.2-6,5.5l-0.3,0.2l-0.8-1.4l0.3-0.2c2.6-1.3,3.1-1.6,5.4-5.1
		c1.8-2.7,4.4-4.8,7.5-6.1c1.9-0.7,3.9-1.1,6-1.1c6.7,0,12.7,4.1,15.1,10.3c3,7.6-0.2,15.9-7.7,20.4C45.1,51.9,40,53.3,34.8,53.3z"
		/>
	<path class="st4" d="M34.8,53.3c-6.1,0-11.6-2-14.7-5.3c-1-1-1.8-2.3-2.4-3.6c-2.1-5.2,0.3-11.1,5.2-13.5l0.6,1.4
		c-4.3,2.1-6.2,7.1-4.5,11.6c0.5,1.2,1.2,2.3,2.1,3.1c3,3.1,8.1,4.9,13.7,4.9L34.8,53.3z"/>
	<path class="st4" d="M42.2,40.1L42.2,40.1c-2.3,0-4.3-1.4-5.1-3.4c-1.1-2.8,0.3-5.9,3.1-7c0.6-0.3,1.3-0.4,2-0.4
		c2.3,0,4.3,1.4,5.1,3.4c1.1,2.8-0.3,5.9-3.1,7C43.6,39.9,42.9,40.1,42.2,40.1z M42.2,30.8c-0.5,0-1,0.1-1.4,0.3
		c-2,0.8-3,3.1-2.2,5.1c0.6,1.5,2,2.4,3.6,2.4c0.5,0,1-0.1,1.4-0.3c2-0.8,3-3.1,2.2-5.1C45.3,31.8,43.8,30.8,42.2,30.8z"/>
</g>
</svg>
