<?xml version="1.0" encoding="utf-8"?>
<!-- Generator: Adobe Illustrator 24.2.3, SVG Export Plug-In . SVG Version: 6.00 Build 0)  -->
<svg version="1.1" id="Layer_1" xmlns="http://www.w3.org/2000/svg" xmlns:xlink="http://www.w3.org/1999/xlink" x="0px" y="0px"
	 viewBox="0 0 75 75" style="enable-background:new 0 0 75 75;" xml:space="preserve">
<style type="text/css">
	.st0{fill:#ADADAD;}
</style>
<path class="st0" d="M37.5,11.9c-14.1,0-25.6,11.5-25.6,25.6s11.5,25.6,25.6,25.6s25.6-11.5,25.6-25.6S51.6,11.9,37.5,11.9z
	 M17.7,37.5c0-4.4,1.5-8.5,3.9-11.8l27.7,27.7c-3.3,2.5-7.4,3.9-11.8,3.9C26.6,57.3,17.7,48.4,17.7,37.5z M53.4,49.3L25.7,21.6
	c3.3-2.5,7.4-3.9,11.8-3.9c10.9,0,19.8,8.9,19.8,19.8C57.3,41.9,55.8,46,53.4,49.3z"/>
</svg>
