<?xml version="1.0" encoding="utf-8"?>
<!-- Generator: Adobe Illustrator 24.2.3, SVG Export Plug-In . SVG Version: 6.00 Build 0)  -->
<svg version="1.1" id="Layer_1" xmlns="http://www.w3.org/2000/svg" xmlns:xlink="http://www.w3.org/1999/xlink" x="0px" y="0px"
	 viewBox="0 0 78.7 55.5" style="enable-background:new 0 0 78.7 55.5;" xml:space="preserve">
<style type="text/css">
	.st0{fill:#FFFFFF;}
	.st1{fill:#67A7BC;}
	.st2{fill:#7A9C4E;}
	.st3{fill:#73B05A;}
	.st4{fill:#FDC24E;}
	.st5{fill:#EF4E4C;}
	.st6{fill:#E83636;}
	.st7{fill:#BF132C;}
	.st8{fill:#68A508;}
	.st9{fill:#92C100;}
	.st10{fill:#FFA05F;}
	.st11{fill:#231F20;}
	.st12{fill:#665DBA;}
	.st13{fill:#453E9B;}
	.st14{fill:#856FD0;}
</style>
<g>
	<g>
		<path class="st0" d="M3296.8,2873.7c0-41.2-33.4-74.6-74.6-74.6c-41.2,0-74.6,33.4-74.6,74.6c0,41.2,33.4,74.6,74.6,74.6
			C3263.4,2948.3,3296.8,2914.9,3296.8,2873.7z"/>
		<g>
			<path class="st1" d="M3254.9,2873.7c0-18.1-14.7-32.8-32.8-32.8s-32.8,14.7-32.8,32.8s14.7,32.8,32.8,32.8
				S3254.9,2891.8,3254.9,2873.7z"/>
		</g>
		<path class="st2" d="M3397.7,2479.9c-11.4-2-23,8.6-28.2,24.6c-10.4-13.2-24.9-19.2-34.9-13.4c-11.5,6.7-12.6,26.5-2.4,44.2
			c14.3,24.7,49.3,37,49.3,37s28.7-23.5,33.6-51.6C3418.5,2500.5,3410.8,2482.2,3397.7,2479.9z"/>
		<g>
			<path class="st3" d="M3502.9,2682.8l-14.7,97.6c-3.4,22.5-24.8,41-47.6,41h-138.8c-22.8,0-53-14.6-67.2-32.4l-84.2-106.1h352.5
				V2682.8z"/>
		</g>
		<path class="st4" d="M3375.2,2682.8L3375.2,2682.8c0-40.7-13.7-73.8-48.2-73.8c-9.6,0-17.2,1.7-23.4,4.7
			c-5.7-6.3-13.7-9.9-24.8-9.9s-19.1,3.6-24.8,9.9c-6.2-3-13.8-4.7-23.4-4.7c-34.5,0-48.2,33-48.2,73.8l0,0H3375.2z"/>
		<path class="st0" d="M3508.2,2587c-14.5-14.3-37.9-14-52.2,0.5c-2.8,2.9-4.9,6.5-6.6,9.7c-13.4,25.4-45.4,51.2-75.4,65.3
			c0.8,6.4,1.3,13.2,1.3,20.3l0,0h112.3c14.4-18.7,25.8-39.6,30.5-60.8C3520.7,2609.9,3517.8,2596.4,3508.2,2587z"/>
		<path class="st5" d="M3437.9,2611.7c-4.7-26.5-21.4-45.7-56.5-39.5c-27.1,4.8-38.7,20.1-40.4,39c19.3,6.2,29.6,25.9,33,51.3
			c23.4-11,48.1-29.1,64.1-48.7C3438,2613.1,3438,2612.4,3437.9,2611.7z"/>
	</g>
	<g>
		<path d="M3222.1,2832c-23,0-41.8,18.7-41.8,41.8c0,5,4,9,9,9s9-4,9-9c0-13.1,10.7-23.8,23.8-23.8s23.8,10.7,23.8,23.8
			s-10.7,23.8-23.8,23.8c-5,0-9,4-9,9s4,9,9,9c23,0,41.8-18.7,41.8-41.7C3263.9,2850.7,3245.2,2832,3222.1,2832z"/>
		<path d="M3719.4,2670.3h-46.8c-3.7,0-6.9,1.6-9.2,4.1c-68.9,6.1-121.5,79.4-141.9,107.7l-2.7,3.7c-9.4,12.9-16.6,20.2-34.7,23.8
			c6.7-7.9,11.4-17.4,13-27.7l8.5-56.8c0.7-4.9-2.6-9.5-7.6-10.2c-4.9-0.7-9.5,2.6-10.2,7.6l-8.5,56.8
			c-2.7,18.1-20.4,33.3-38.7,33.3h-138.8c-20.1,0-47.7-13.3-60.2-29l-72.6-91.5h348.3c5,0,9-4,9-9s-4-9-9-9h-12.5
			c10.9-16.8,18.3-33.6,21.9-49.9c3.5-16.1-1.1-32.3-12.4-43.4c-2.1-2-4.3-3.9-6.7-5.4c4.5-15.5,1-32.5-9.8-45
			c-3.3-3.7-8.9-4.2-12.7-0.9c-3.8,3.2-4.2,8.9-0.9,12.7c6.3,7.4,8.6,17.1,6.6,26.4c-2.8-0.5-5.7-0.8-8.6-0.8c-0.2,0-0.3,0-0.5,0
			c-12.2,0.1-23.7,5-32.3,13.8c-3.7,3.7-6.2,8.1-8.1,11.6c-7.5-16.9-20.8-27.2-38.5-29.9c8.6-10.3,18-24.7,20.8-40.7
			c4.5-25.4-6.3-47.9-24.6-51.1c-12.2-2.1-24.4,5.1-32.5,18.1c-7.4-5.8-15.7-9.3-23.7-9.3c-4.7,0-9.1,1.1-13,3.4
			c-16.1,9.3-18.6,34.1-5.7,56.4c8.2,14.1,21.9,24.4,33.5,31.2c-12.2,6.6-20.5,16.6-24,29.6c-2.2-0.3-4.4-0.4-6.7-0.4
			c-8,0-15.2,1.1-21.5,3.2c-4.6-3.6-10.2-6.2-17.1-7.5c2.4-8.7,8.6-16.1,17.2-19.8c4.6-2,6.7-7.3,4.7-11.8c-2-4.6-7.2-6.7-11.8-4.7
			c-15.2,6.5-25.7,20.2-28.5,36.1c-7.2,1.2-13.1,3.9-17.9,7.7c-6.3-2.1-13.5-3.2-21.5-3.2c-33.7,0-54.5,27.4-56.9,73.8H3136
			c-5,0-9,4-9,9s4,9,9,9h10.2l78.1,98.4c-0.7,0-1.4-0.1-2.1-0.1c-46.1,0-83.6,37.5-83.6,83.6s37.5,83.6,83.6,83.6
			s83.6-37.5,83.6-83.6c0-16.2-4.7-31.2-12.7-44c3,0.4,5.9,0.6,8.8,0.6h138.8c12,0,22.2-0.3,31-1.1l-9.4,66.7
			c-3.4,24-12,40-23.1,42.8c-10.9,2.8-25.2-6.4-39.3-25.1l-42.8-56.9c-3-4-8.6-4.8-12.6-1.8s-4.8,8.6-1.8,12.6l42.8,56.9
			c16.1,21.4,33.5,32.8,49.6,32.8c2.9,0,5.7-0.4,8.4-1.1c18.8-4.8,31.8-25.3,36.4-57.7l10.2-71.9c19.5-4.4,30.8-13.4,43.1-30.3
			l2.7-3.7c17.1-23.8,67.8-94.2,128.3-100.2c2.2,1.9,5.1,3.1,8.2,3.1h46.8c7,0,12.6-5.6,12.6-12.6
			C3731.9,2675.9,3726.3,2670.3,3719.4,2670.3z M3384,2673.9c-0.1-2.1-0.3-4-0.5-6c24.9-12.8,53.5-34.7,69.3-59
			c13.5,7.7,15.9,17.4,15.9,17.7c0.6,3,2.6,5.4,5.3,6.6c1.1,0.5,2.3,0.7,3.5,0.7c1.7,0,3.5-0.5,5-1.5c0.1-0.1,9-5.5,23.7-1.9
			c-4.7,14.1-12.6,28.8-23.3,43.4H3384z M3482.1,2585.5c0.1,0,0.2,0,0.3,0c7.3,0,14.3,2.8,19.5,8c5.2,5.1,8,12,8.1,19.4
			c-11.6-2.7-21.1-1.5-27.6,0.4c-3.3-5.8-9.4-13.3-19.9-19.5C3467.7,2588.5,3474.7,2585.5,3482.1,2585.5z M3396.1,2488.8
			c7,1.2,12.8,14.5,10,30.3c-1.9,10.8-8,21-14.2,29c-0.4-12.9-2.7-28.5-10.2-41.5c-0.7-1.2-1.5-2.3-2.2-3.4
			C3383.6,2493.9,3390.4,2487.8,3396.1,2488.8z M3339.9,2530.7c-8-13.9-7.1-28.3-0.9-31.9c1.2-0.7,2.5-1,4-1
			c6.2,0,16.1,5.6,23.1,17.7c7.8,13.6,8.3,31.9,7.6,43.6C3363.3,2553.9,3347.8,2544.4,3339.9,2530.7z M3382.9,2581.1
			c25.2-4.5,40.5,5.8,45.5,30.1c-12.2,13.9-29.5,27.6-47.9,37.9c-5.1-20.9-15.2-35.9-29.6-43.4
			C3354.5,2592.4,3365,2584.3,3382.9,2581.1z M3366,2673.9h-39.3c-0.2-17.7-1.4-39-9.1-55c2.9-0.5,6-0.8,9.5-0.8
			C3357.2,2618.1,3364.7,2649.8,3366,2673.9z M3278.9,2612.8c21,0,28.9,15.6,29.8,61h-59.6C3250,2628.5,3257.9,2612.8,3278.9,2612.8
			z M3230.7,2618.1c3.4,0,6.5,0.3,9.4,0.7c-7.7,16.1-8.9,37.4-9.1,55h-39.3C3193.1,2649.8,3200.6,2618.1,3230.7,2618.1z
			 M3222.1,2939.4c-36.2,0-65.6-29.4-65.6-65.6c0-36.2,29.4-65.6,65.6-65.6c36.2,0,65.6,29.4,65.6,65.6
			C3287.8,2909.9,3258.3,2939.4,3222.1,2939.4z"/>
	</g>
</g>
<g>
	<g>
		<g>
			<path class="st4" d="M2572.3,2712c0,55.5-45,100.4-100.4,100.4s-100.4-45-100.4-100.4c0-55.5,45-100.4,100.4-100.4
				S2572.3,2656.6,2572.3,2712z"/>
		</g>
		<g>
			<path class="st0" d="M2531.3,2712c0,25.7-8.6,46.6-19.2,46.6c-10.6,0-19.3-20.9-19.3-46.6c0-25.7,8.6-46.6,19.3-46.6
				C2522.7,2665.5,2531.3,2686.3,2531.3,2712z"/>
		</g>
		<g>
			<path class="st3" d="M2472.6,2813.8c77.2-33.3,162.1-52,251.3-52.6l0,0c-22.9,118.3-127,207.6-252,207.6h-0.3
				c-125,0-229.1-89.3-252-207.6c25.4,0,50.4,1.6,75,4.5L2472.6,2813.8z"/>
		</g>
		<g>
			<g>
				<polygon class="st0" points="2463.7,2810 2463.7,2744.3 2412.8,2685.4 2346.3,2685.4 2294.6,2740.8 2294.6,2799.1 2362,2810.8 
									"/>
			</g>
		</g>
	</g>
	<g>
		<path d="M2728.6,2703.1H2617c-5,0-9,4-9,9s4,9,9,9h111.6c5,0,9-4,9-9S2733.5,2703.1,2728.6,2703.1z"/>
		<path d="M2270.5,2721c5,0,9-4,9-9s-4-9-9-9h-55.3c-5,0-9,4-9,9s4,9,9,9H2270.5z"/>
		<path d="M2599.8,2665.5c1.3,3.7,4.8,5.9,8.4,5.9c1,0,2.1-0.2,3.1-0.5l104.8-38.1c4.7-1.7,7.1-6.9,5.4-11.5
			c-1.7-4.7-6.8-7-11.5-5.4l-104.8,38.1C2600.5,2655.7,2598.1,2660.8,2599.8,2665.5z"/>
		<path d="M2576.2,2624.6c1.8,2.1,4.3,3.2,6.9,3.2c2,0,4.1-0.7,5.8-2.1l85.5-71.7c3.8-3.2,4.3-8.9,1.1-12.7s-8.9-4.3-12.7-1.1
			l-85.5,71.7C2573.5,2615.1,2573,2620.8,2576.2,2624.6z"/>
		<path d="M2540,2594.2c1.4,0.8,3,1.2,4.5,1.2c3.1,0,6.1-1.6,7.8-4.5l55.8-96.6c2.5-4.3,1-9.8-3.3-12.3s-9.8-1-12.3,3.3l-55.8,96.6
			C2534.2,2586.2,2535.7,2591.7,2540,2594.2z"/>
		<path d="M2495.6,2578c0.5,0.1,1.1,0.1,1.6,0.1c4.3,0,8.1-3.1,8.8-7.4l19.4-109.9c0.9-4.9-2.4-9.5-7.3-10.4
			c-4.9-0.8-9.5,2.4-10.4,7.3l-19.4,109.9C2487.4,2572.5,2490.7,2577.1,2495.6,2578z"/>
		<path d="M2446.7,2578.1c0.5,0,1,0,1.6-0.1c4.9-0.9,8.2-5.5,7.3-10.4l-19.4-109.9c-0.9-4.9-5.6-8.1-10.4-7.3
			c-4.9,0.9-8.2,5.5-7.3,10.4l19.4,109.9C2438.6,2575.1,2442.4,2578.1,2446.7,2578.1z"/>
		<path d="M2391.6,2590.9c1.7,2.9,4.7,4.5,7.8,4.5c1.5,0,3.1-0.4,4.5-1.2c4.3-2.5,5.8-8,3.3-12.3l-55.8-96.6
			c-2.5-4.3-8-5.8-12.3-3.3s-5.8,8-3.3,12.3L2391.6,2590.9z"/>
		<path d="M2355,2625.7c1.7,1.4,3.7,2.1,5.8,2.1c2.6,0,5.1-1.1,6.9-3.2c3.2-3.8,2.7-9.5-1.1-12.7l-85.5-71.7
			c-3.8-3.2-9.5-2.7-12.7,1.1s-2.7,9.5,1.1,12.7L2355,2625.7z"/>
		<path d="M2227.7,2632.7l91.9,33.4c1,0.4,2.1,0.5,3.1,0.5c3.7,0,7.1-2.3,8.4-5.9c1.7-4.7-0.7-9.8-5.4-11.5l-91.9-33.4
			c-4.7-1.7-9.8,0.7-11.5,5.4S2223,2631,2227.7,2632.7z"/>
		<path d="M2391.4,2651.3c3.7,3.3,9.4,3.1,12.7-0.6c17.3-19.1,42-30.1,67.8-30.1c50.4,0,91.4,41,91.4,91.5c0,8.4-1.1,16.7-3.4,24.7
			c-1.3,4.8,1.5,9.7,6.2,11.1c0.8,0.2,1.6,0.3,2.4,0.3c3.9,0,7.5-2.6,8.6-6.6c2.7-9.6,4-19.5,4-29.6c0-60.3-49.1-109.4-109.4-109.4
			c-30.8,0-60.4,13.1-81.1,36C2387.4,2642.3,2387.7,2648,2391.4,2651.3z"/>
		<path d="M2723.9,2752.2L2723.9,2752.2c-69.8,0.5-137.8,11.9-202.9,33.7v-20.5c12.7-7.4,19.2-30.3,19.2-53.1
			c0-27.6-9.7-55.5-28.2-55.5s-28.2,27.9-28.2,55.5c0,22.7,6.6,45.7,19.3,53.1v26.7c-10.2,3.7-20.3,7.7-30.3,12l0,0v-59.8
			c0-2.2-0.8-4.2-2.2-5.9l-50.9-58.8c-0.1-0.2-0.3-0.3-0.5-0.5l0,0c-0.1-0.1-0.1-0.1-0.2-0.2l0,0l0,0l0,0l0,0
			c-1.6-1.5-3.7-2.4-6.1-2.4l0,0l0,0l0,0l0,0l0,0h-66.5c-2.5,0-4.9,1-6.6,2.9l-51.7,55.4c-1.6,1.7-2.4,3.9-2.4,6.1v14.9
			c-21.8-2.2-43.9-3.5-65.9-3.5l0,0c-2.7,0-5.2,1.2-6.9,3.3s-2.4,4.8-1.9,7.4c24.1,124.5,133.8,214.9,261.1,214.9
			c127,0,236.7-90.3,260.8-214.8c0.5-2.6-0.2-5.4-1.9-7.5C2729.1,2753.4,2726.6,2752.2,2723.9,2752.2z M2511.8,2674.7
			c2.9,0.9,10.5,13.9,10.5,37.6c0,23.2-7.3,36.1-10.3,37.5c-3-1.4-10.3-14.3-10.3-37.5C2501.7,2688.6,2509.3,2675.6,2511.8,2674.7z
			 M2412.8,2699.2l41.9,48.5v62.4c0,3.6,2.2,6.9,5.5,8.3c56.6,23.6,109.2,55.4,156.7,94.4c-18.7,13.5-39.2,24.4-61.2,32.3
			c-53.3-57.9-115.4-104.9-184.9-139.6v-57.8L2412.8,2699.2z M2303.6,2750.3l49.4,2.5v47.4l-49.4-8.6V2750.3z M2350.2,2694.4h42.9
			l-35.1,40.7l-43.7-2.2L2350.2,2694.4z M2249.5,2821.7c64.4,34.3,121.4,78.7,170,132.5C2345.6,2938.3,2282.8,2889.1,2249.5,2821.7z
			 M2471.6,2959.7c-8.2,0-16.3-0.4-24.4-1.2c-57.7-68.3-127.9-123-208.7-162.6c-3-8.3-5.6-16.9-7.7-25.6c18.3,0.4,36.7,1.6,54.8,3.6
			v25.3c0,4.4,3.1,8.1,7.4,8.9l66,11.5c66.5,32.7,126.2,77,177.7,131.6C2515.9,2956.7,2494.1,2959.7,2471.6,2959.7z M2631.5,2901.4
			c-41.7-34.7-87.3-64-136.1-87.1c26.4-10.4,53.3-18.9,80.7-25.6c-5.3,9.5-10.4,19.1-15.1,28.8c-2.2,4.5-0.4,9.8,4.1,12
			c1.3,0.6,2.6,0.9,4,0.9c3.3,0,6.5-1.8,8.1-5c7-14.3,14.7-28.4,22.7-42.1c16.6-3.4,33.3-6.2,50.2-8.3c-15,25.6-28.3,52.2-39.6,79.3
			c-1.9,4.6,0.3,9.8,4.8,11.7c1.1,0.5,2.3,0.7,3.4,0.7c3.5,0,6.9-2.1,8.3-5.5c12.6-30.4,27.9-60.1,45.2-88.4
			c13.4-1.2,26.9-2.1,40.5-2.4C2700.1,2822.8,2670.9,2868.2,2631.5,2901.4z"/>
		<path d="M2412.8,2808.5c5,0,9-4,9-9V2777c0-5-4-9-9-9s-9,4-9,9v22.6C2403.8,2804.5,2407.8,2808.5,2412.8,2808.5z"/>
	</g>
</g>
<g>
	<g>
		<g>
			<g>
				<path class="st6" d="M77,26.6c0.1-1.4-0.1-2.7-0.7-3.9c-1.4-3.2-4.6-5.5-8.4-5.5H50.4c-3.8,0-7,2.3-8.4,5.5
					c-2.7,6.7,2.8,13.4,6,18.7c2.8,4.7,6.4,9.9,11.9,9.4c5.2-0.5,8.2-5.5,10.6-9.7c1.7-2.9,3.6-5.7,4.8-8.7
					C76.1,30.7,76.9,28.7,77,26.6z"/>
				<path class="st7" d="M76.2,22.7c-1.2-2.9-3.9-5-7.1-5.4c0.6,0.7,1,1.5,1.4,2.3c0.6,1.2,0.8,2.5,0.7,3.9
					c-0.1,2.1-0.8,4.2-1.6,5.9c-1.4,3-3.2,5.9-4.8,8.7c-2.4,4.2-5.3,9.3-10.6,9.7c-0.6,0.1-1.2,0-1.8,0c2,2.1,4.5,3.5,7.4,3.1
					c5.2-0.5,8.2-5.5,10.6-9.7c1.7-2.9,3.6-5.7,4.8-8.7c0.7-1.7,1.5-3.8,1.6-5.9C77.1,25.2,76.9,23.8,76.2,22.7z"/>
			</g>
			<g>
				<g>
					<path class="st8" d="M63.3,11.5L63.3,11.5c0-4.8-4.1-7.3-4.1-7.3s-4.1,2.7-4.1,7.3l0,0l0,0c0,4.5,4.1,7.3,4.1,7.3
						S63.3,16,63.3,11.5L63.3,11.5z"/>
				</g>
				<g>
					<path class="st9" d="M68.3,16.3L68.3,16.3c4-3.3,3.2-7.6,3.2-7.6s-5.2-0.5-9.1,2.7l0,0l0,0c-3.8,3.1-3.2,7.6-3.2,7.6
						S64.4,19.4,68.3,16.3L68.3,16.3z"/>
					<path class="st8" d="M68.3,16.3L68.3,16.3c4-3.3,3.2-7.6,3.2-7.6L59.2,19C59.2,19,64.4,19.4,68.3,16.3L68.3,16.3z"/>
				</g>
				<g>
					<path class="st9" d="M50.1,16.2L50.1,16.2c4,3.3,9.1,2.7,9.1,2.7s0.6-4.4-3.2-7.6l0,0l0,0c-3.8-3.1-9.1-2.7-9.1-2.7
						S46.3,13.1,50.1,16.2L50.1,16.2z"/>
					<path class="st8" d="M50.1,16.2L50.1,16.2c4,3.3,9.1,2.7,9.1,2.7L46.7,8.6C46.7,8.6,46.3,13.1,50.1,16.2L50.1,16.2z"/>
				</g>
			</g>
			<path class="st10" d="M52.1,24.7c0.3,1.5-0.6,2.8-2.1,3c-1.5,0.3-2.8-0.6-3-2.1c-0.3-1.5,0.6-2.8,2.1-3
				C50.5,22.3,51.8,23.2,52.1,24.7z"/>
			<path class="st10" d="M61.2,24.7c0.3,1.5-0.6,2.8-2.1,3c-1.5,0.3-2.8-0.6-3-2.1c-0.3-1.5,0.6-2.8,2.1-3
				C59.5,22.3,60.8,23.2,61.2,24.7z"/>
			<path class="st10" d="M56.6,31.7c0.3,1.5-0.6,2.8-2.1,3c-1.5,0.3-2.8-0.6-3-2.1c-0.3-1.5,0.6-2.8,2.1-3
				C55,29.3,56.3,30.2,56.6,31.7z"/>
		</g>
		<path class="st11" d="M76.9,23.3c-1.3-3.1-4.1-5.3-7.3-6c3.3-3.6,2.7-7.6,2.7-7.7c-0.1-0.5-0.5-0.9-1-1c0,0-0.3,0-0.9,0
			c-1.3,0-4,0.2-6.6,1.5c-1-3.8-4.2-5.8-4.3-5.9c-0.4-0.2-0.9-0.2-1.4,0c-0.1,0.1-3.1,2.2-4.3,5.8c-2.7-1.4-5.5-1.5-6.8-1.5
			c-0.5,0-0.7,0-0.7,0c-0.5,0-1,0.5-1.2,1c0,0.2-0.4,4.3,2.7,7.7c-3.2,0.7-6,2.9-7.3,6.1c-2.5,6.2,1.4,12.4,4.4,17.3
			c0.5,0.9,1,1.8,1.6,2.5c3,5.2,6.7,10,12.2,10l0,0c0.3,0,0.6,0,0.9,0c5.9-0.5,9-6,11.5-10.4c0.4-0.8,0.9-1.6,1.4-2.3
			c1.3-2.1,2.5-4.2,3.6-6.5c0.9-2.3,1.6-4.4,1.7-6.3C77.7,26,77.5,24.6,76.9,23.3z M67,16.4C67,16.4,66.9,16.4,67,16.4
			c-2.5,2.1-5.5,2.5-7.2,2.5c0.1-1.4,0.6-3.7,2.7-5.4l0,0c0,0,0.1,0,0.1-0.1c2.5-2,5.7-2.4,7.2-2.4C69.7,12.2,69.3,14.4,67,16.4z
			 M58.6,6.8c0.8,0.7,2.4,2.3,2.7,4.6c-0.1,0.1-0.1,0.1-0.2,0.2c0,0-0.1,0-0.1,0.1c-1.2,0.9-2,2-2.5,3c-0.5-1-1.4-2.1-2.5-3
			l-0.1-0.1c-0.1-0.1-0.1-0.1-0.2-0.2C56.2,9.2,57.8,7.5,58.6,6.8z M54.5,13.4C54.5,13.4,54.6,13.4,54.5,13.4c2.3,2,2.8,4.3,2.9,5.5
			c-1.7,0-4.6-0.4-7-2.5c0,0,0,0-0.1-0.1c-2.2-1.9-2.7-4.2-2.8-5.4C49,11,52.2,11.4,54.5,13.4z M75.2,27.6c-0.1,1.6-0.6,3.5-1.5,5.4
			c-0.9,2.1-2.2,4.2-3.3,6.2c-0.5,0.8-0.9,1.6-1.5,2.4c-2.4,4.1-5,8.8-9.6,9.2c-0.2,0-0.4,0-0.7,0l0,0c-4.3,0-7.4-4.3-10.2-8.9
			c-0.5-0.8-1-1.7-1.6-2.6c-2.9-4.7-6.3-10-4.2-15.1c1.2-2.9,4-4.8,7.2-4.8h0.6c2.7,1.6,5.5,1.9,7.1,1.9c0.4,0,0.7,0,0.8,0l0,0
			c0,0,0.3,0,0.7,0l0,0c1.4,0,4.5-0.2,7.4-1.9h0.6c3.1,0,6,1.9,7.2,4.8v0.1C75.1,25.3,75.3,26.3,75.2,27.6z"/>
	</g>
	<g>
		<g>
			<g>
				<path class="st9" d="M25.9,21.7L25.9,21.7c-5-7.2-12.9-7.5-12.9-7.5s-2.4,7.7,2.4,14.7l0,0l0,0c4.7,6.8,12.9,7.5,12.9,7.5
					S30.5,28.5,25.9,21.7L25.9,21.7z"/>
				<path class="st8" d="M25.9,21.7L25.9,21.7c-5-7.2-12.9-7.5-12.9-7.5l15.3,22.3C28.3,36.5,30.5,28.5,25.9,21.7L25.9,21.7z"/>
			</g>
			<g>
				<path class="st9" d="M14.2,28.9L14.2,28.9C5.5,30.1,1.7,37,1.7,37s5.9,5.5,14.2,4.4l0,0l0,0c8.2-1.2,12.5-8.2,12.5-8.2
					S22.4,27.7,14.2,28.9L14.2,28.9z"/>
				<path class="st8" d="M14.2,28.9L14.2,28.9C5.5,30.1,1.7,37,1.7,37l26.8-3.8C28.5,33.2,22.4,27.7,14.2,28.9L14.2,28.9z"/>
			</g>
			<g>
				<ellipse class="st12" cx="42.8" cy="41.3" rx="10" ry="10"/>
				<path class="st13" d="M42.1,51.4c-1.7-0.9-3-2.3-4-4c-2.6-4.9-0.8-11,4.1-13.7c1.8-0.9,3.7-1.4,5.5-1.2c-2.9-1.6-6.6-1.8-9.7,0
					c-4.9,2.6-6.7,8.8-4.1,13.7C35.6,49.3,38.8,51.1,42.1,51.4z"/>
			</g>
			<g>
				<path class="st12" d="M23.2,30.7c-2.6-4.9-0.8-11,4.1-13.7c4.9-2.6,11-0.8,13.7,4.1c2.6,4.9,0.8,11-4.1,13.7
					C32,37.4,25.9,35.7,23.2,30.7z"/>
				<path class="st13" d="M31.3,36c-1.7-0.9-3-2.3-4-4c-2.6-4.9-0.8-11,4.1-13.7c1.8-0.9,3.7-1.4,5.5-1.2c-2.9-1.6-6.6-1.8-9.7,0
					c-4.9,2.6-6.7,8.8-4.1,13.7C24.9,33.9,28.1,35.8,31.3,36z"/>
			</g>
			<g>
				<ellipse class="st12" cx="26" cy="43.1" rx="10" ry="10"/>
				<path class="st13" d="M25.3,53.1c-1.7-0.9-3-2.3-4-4c-2.6-4.9-0.8-11,4.1-13.7c1.8-0.9,3.7-1.4,5.5-1.2c-2.9-1.6-6.6-1.8-9.7,0
					c-4.9,2.6-6.7,8.8-4.1,13.7C18.8,51,21.9,52.8,25.3,53.1z"/>
			</g>
			<path class="st14" d="M28.8,26c0.4-1.6,1.9-2.4,3.1-2.1c1.3,0.4,1.9,1.9,1.5,3.5c-0.4,1.6-1.9,2.4-3.1,2.1
				C29,29.1,28.3,27.6,28.8,26z"/>
			<path class="st14" d="M22.6,43.1c0.4-1.6,1.9-2.4,3.1-2.1c1.3,0.4,1.9,1.9,1.5,3.5c-0.4,1.6-1.9,2.4-3.1,2.1
				C22.8,46.1,22.2,44.7,22.6,43.1z"/>
			<path class="st14" d="M39.5,41.4c0.4-1.6,1.9-2.4,3.1-2.1c1.3,0.4,1.9,1.9,1.5,3.5c-0.4,1.6-1.9,2.4-3.1,2.1
				C39.7,44.4,39.1,42.9,39.5,41.4z"/>
			<path class="st13" d="M43.4,41.4c0.7-2.4,2.9-3.9,4.9-3.3c2,0.6,3,3,2.4,5.4c-0.7,2.4-2.9,3.9-4.9,3.3
				C43.7,46.3,42.6,43.8,43.4,41.4z"/>
			<path class="st13" d="M32.6,26c0.7-2.4,2.9-3.9,5-3.3c2,0.6,3,3,2.4,5.4c-0.7,2.4-2.9,3.9-4.9,3.3C32.9,30.9,31.8,28.5,32.6,26z"
				/>
			<path class="st13" d="M26.4,43.2c0.7-2.4,2.9-3.9,4.9-3.3c2,0.6,3,3,2.4,5.4c-0.7,2.4-2.9,3.9-4.9,3.3
				C26.8,48.1,25.7,45.6,26.4,43.2z"/>
		</g>
		<g>
			<path class="st11" d="M43.8,37.1c-1.5,0.6-2.6,1.9-3.2,3.5c-0.5,1.4-0.6,2.9-0.2,4.3c0.4,1.5,1.5,2.5,2.7,3
				c1.2,0.4,2.4,0.4,3.6-0.1c1.5-0.6,2.6-1.9,3.2-3.5c0.5-1.4,0.6-2.9,0.2-4.3c-0.4-1.5-1.5-2.5-2.7-3
				C46.2,36.6,44.9,36.6,43.8,37.1z M47.7,43.4c-0.4,0.9-1,1.8-2,2.1c-0.4,0.2-1,0.3-1.8,0.1c-0.6-0.2-1-0.7-1.3-1.5
				c-0.2-0.8-0.2-1.8,0.1-2.6c0.4-0.9,1-1.8,2-2.1c0.4-0.2,1-0.3,1.8-0.1c0.6,0.2,1,0.7,1.3,1.5C48,41.6,48,42.5,47.7,43.4z"/>
			<path class="st11" d="M37.2,33.5c1.5-0.6,2.6-1.9,3.2-3.5c0.5-1.4,0.6-2.9,0.2-4.3c-0.4-1.5-1.5-2.5-2.7-3
				c-1.2-0.4-2.4-0.4-3.6,0.1c-1.5,0.6-2.6,1.9-3.2,3.5c-1.2,2.9-0.1,6.2,2.5,7.2C34.7,34.1,35.9,34,37.2,33.5z M33.3,27.2
				c0.4-0.9,1-1.8,2-2.1c0.4-0.2,1-0.3,1.8-0.1c0.6,0.2,1,0.7,1.3,1.5c0.2,0.8,0.2,1.8-0.1,2.6c-0.4,0.9-1,1.8-2,2.1
				c-0.4,0.2-1,0.3-1.8,0.1c-0.6-0.2-1-0.7-1.3-1.5C32.9,29.1,32.9,28.1,33.3,27.2z"/>
			<path class="st11" d="M30.2,39.3c-1.2-0.4-2.4-0.4-3.6,0.1c-1.5,0.6-2.6,1.9-3.2,3.5c-1.2,2.9-0.1,6.2,2.5,7.2
				c1.2,0.4,2.4,0.4,3.6-0.1c1.5-0.6,2.6-1.9,3.2-3.5C33.9,43.6,32.8,40.4,30.2,39.3z M30.5,45.7c-0.4,0.9-1,1.8-2,2.1
				c-0.4,0.2-1,0.3-1.8,0.1c-1.4-0.5-1.9-2.4-1.2-4.1c0.4-0.9,1-1.8,2-2.1c0.4-0.2,1-0.3,1.8-0.1C30.6,42.1,31.1,43.9,30.5,45.7z"/>
			<path class="st11" d="M1.5,38.1c0.2,0.2,5.4,4.4,12.9,4c-0.2,1.9,0.1,3.8,0.8,5.7c2.4,5.8,9.1,8.4,14.9,6
				c2.2-0.9,3.9-2.5,5.1-4.3c3.1,2.9,7.9,3.9,12,2.1c5.8-2.4,8.4-9.1,6-14.9c-1.7-3.8-5.1-6.3-9-6.7c0.6-2.4,0.5-5-0.5-7.4
				c-2.4-5.8-9.1-8.4-14.9-6c-1.3,0.5-2.4,1.3-3.3,2.2c-6-5.7-13.2-5.2-13.5-5.2c-0.1,0-0.3,0-0.4,0.1c-0.3,0.1-0.6,0.5-0.7,0.9
				c-0.1,0.3-1.2,6.6,2.5,12.8c-1,0.2-2,0.5-2.9,0.9c-6.6,2.8-9.2,8.4-9.3,8.7C0.9,37.1,1.1,37.7,1.5,38.1z M17.4,46.6
				c-1.9-4.5,0.2-9.7,4.7-11.6s9.7,0.2,11.6,4.7c1.9,4.5-0.2,9.7-4.7,11.6S19.3,51.1,17.4,46.6z M50.9,37.4
				c1.9,4.5-0.2,9.7-4.7,11.6c-3.6,1.5-7.5,0.5-10-2.1c0.9-2.6,0.9-5.4-0.2-8.2c-0.1-0.3-0.3-0.6-0.5-0.9c0.7-0.1,1.5-0.3,2.2-0.6
				c2.4-1,4.3-2.8,5.4-5C46.4,32.2,49.5,34.2,50.9,37.4z M41.4,23.2c1.9,4.5-0.2,9.7-4.7,11.6c-0.9,0.4-1.9,0.6-2.8,0.7
				c-2-2.2-4.8-3.5-7.9-3.7c-0.4-0.5-0.7-1.2-0.9-1.8c-1.9-4.5,0.2-9.7,4.7-11.6S39.5,18.7,41.4,23.2z M13.1,15.7
				c2,0.1,6.8,0.7,10.8,4.6c-1.4,2-2,4.3-2,6.7c-1.8-0.4-3.8-0.6-6-0.4C13.1,22.4,13,17.6,13.1,15.7z M11.3,30.2
				c0.9-0.4,1.9-0.7,2.9-0.9l0,0h0.1c2.9-0.6,5.8-0.3,8,0.4c0.1,0.5,0.3,0.9,0.5,1.5c0.1,0.3,0.3,0.6,0.5,0.9
				c-0.7,0.1-1.5,0.4-2.2,0.7c-3,1.4-5.2,3.8-6.3,6.7c-5.2,0.5-9.4-1.7-11.1-2.7C4.7,35.2,7.1,32,11.3,30.2z"/>
		</g>
	</g>
</g>
</svg>
