<?xml version="1.0" encoding="utf-8"?>
<!-- Generator: Adobe Illustrator 24.2.3, SVG Export Plug-In . SVG Version: 6.00 Build 0)  -->
<svg version="1.1" id="Layer_1" xmlns="http://www.w3.org/2000/svg" xmlns:xlink="http://www.w3.org/1999/xlink" x="0px" y="0px"
	 viewBox="0 0 72.3 55.5" style="enable-background:new 0 0 72.3 55.5;" xml:space="preserve">
<style type="text/css">
	.st0{fill:#FFFFFF;}
	.st1{fill:#67A7BC;}
	.st2{fill:#7A9C4E;}
	.st3{fill:#73B05A;}
	.st4{fill:#FDC24E;}
	.st5{fill:#EF4E4C;}
	.st6{fill:#FDD6A9;}
</style>
<g>
	<g>
		<path class="st0" d="M3296.8,2873.7c0-41.2-33.4-74.6-74.6-74.6c-41.2,0-74.6,33.4-74.6,74.6c0,41.2,33.4,74.6,74.6,74.6
			C3263.4,2948.3,3296.8,2914.9,3296.8,2873.7z"/>
		<g>
			<path class="st1" d="M3254.9,2873.7c0-18.1-14.7-32.8-32.8-32.8s-32.8,14.7-32.8,32.8s14.7,32.8,32.8,32.8
				S3254.9,2891.8,3254.9,2873.7z"/>
		</g>
		<path class="st2" d="M3397.7,2479.9c-11.4-2-23,8.6-28.2,24.6c-10.4-13.2-24.9-19.2-34.9-13.4c-11.5,6.7-12.6,26.5-2.4,44.2
			c14.3,24.7,49.3,37,49.3,37s28.7-23.5,33.6-51.6C3418.5,2500.5,3410.8,2482.2,3397.7,2479.9z"/>
		<g>
			<path class="st3" d="M3502.9,2682.8l-14.7,97.6c-3.4,22.5-24.8,41-47.6,41h-138.8c-22.8,0-53-14.6-67.2-32.4l-84.2-106.1h352.5
				V2682.8z"/>
		</g>
		<path class="st4" d="M3375.2,2682.8L3375.2,2682.8c0-40.7-13.7-73.8-48.2-73.8c-9.6,0-17.2,1.7-23.4,4.7
			c-5.7-6.3-13.7-9.9-24.8-9.9s-19.1,3.6-24.8,9.9c-6.2-3-13.8-4.7-23.4-4.7c-34.5,0-48.2,33-48.2,73.8l0,0H3375.2z"/>
		<path class="st0" d="M3508.2,2587c-14.5-14.3-37.9-14-52.2,0.5c-2.8,2.9-4.9,6.5-6.6,9.7c-13.4,25.4-45.4,51.2-75.4,65.3
			c0.8,6.4,1.3,13.2,1.3,20.3l0,0h112.3c14.4-18.7,25.8-39.6,30.5-60.8C3520.7,2609.9,3517.8,2596.4,3508.2,2587z"/>
		<path class="st5" d="M3437.9,2611.7c-4.7-26.5-21.4-45.7-56.5-39.5c-27.1,4.8-38.7,20.1-40.4,39c19.3,6.2,29.6,25.9,33,51.3
			c23.4-11,48.1-29.1,64.1-48.7C3438,2613.1,3438,2612.4,3437.9,2611.7z"/>
	</g>
	<g>
		<path d="M3222.1,2832c-23,0-41.8,18.7-41.8,41.8c0,5,4,9,9,9s9-4,9-9c0-13.1,10.7-23.8,23.8-23.8s23.8,10.7,23.8,23.8
			s-10.7,23.8-23.8,23.8c-5,0-9,4-9,9s4,9,9,9c23,0,41.8-18.7,41.8-41.7C3263.9,2850.7,3245.2,2832,3222.1,2832z"/>
		<path d="M3719.4,2670.3h-46.8c-3.7,0-6.9,1.6-9.2,4.1c-68.9,6.1-121.5,79.4-141.9,107.7l-2.7,3.7c-9.4,12.9-16.6,20.2-34.7,23.8
			c6.7-7.9,11.4-17.4,13-27.7l8.5-56.8c0.7-4.9-2.6-9.5-7.6-10.2c-4.9-0.7-9.5,2.6-10.2,7.6l-8.5,56.8
			c-2.7,18.1-20.4,33.3-38.7,33.3h-138.8c-20.1,0-47.7-13.3-60.2-29l-72.6-91.5h348.3c5,0,9-4,9-9s-4-9-9-9h-12.5
			c10.9-16.8,18.3-33.6,21.9-49.9c3.5-16.1-1.1-32.3-12.4-43.4c-2.1-2-4.3-3.9-6.7-5.4c4.5-15.5,1-32.5-9.8-45
			c-3.3-3.7-8.9-4.2-12.7-0.9c-3.8,3.2-4.2,8.9-0.9,12.7c6.3,7.4,8.6,17.1,6.6,26.4c-2.8-0.5-5.7-0.8-8.6-0.8c-0.2,0-0.3,0-0.5,0
			c-12.2,0.1-23.7,5-32.3,13.8c-3.7,3.7-6.2,8.1-8.1,11.6c-7.5-16.9-20.8-27.2-38.5-29.9c8.6-10.3,18-24.7,20.8-40.7
			c4.5-25.4-6.3-47.9-24.6-51.1c-12.2-2.1-24.4,5.1-32.5,18.1c-7.4-5.8-15.7-9.3-23.7-9.3c-4.7,0-9.1,1.1-13,3.4
			c-16.1,9.3-18.6,34.1-5.7,56.4c8.2,14.1,21.9,24.4,33.5,31.2c-12.2,6.6-20.5,16.6-24,29.6c-2.2-0.3-4.4-0.4-6.7-0.4
			c-8,0-15.2,1.1-21.5,3.2c-4.6-3.6-10.2-6.2-17.1-7.5c2.4-8.7,8.6-16.1,17.2-19.8c4.6-2,6.7-7.3,4.7-11.8c-2-4.6-7.2-6.7-11.8-4.7
			c-15.2,6.5-25.7,20.2-28.5,36.1c-7.2,1.2-13.1,3.9-17.9,7.7c-6.3-2.1-13.5-3.2-21.5-3.2c-33.7,0-54.5,27.4-56.9,73.8H3136
			c-5,0-9,4-9,9s4,9,9,9h10.2l78.1,98.4c-0.7,0-1.4-0.1-2.1-0.1c-46.1,0-83.6,37.5-83.6,83.6s37.5,83.6,83.6,83.6
			s83.6-37.5,83.6-83.6c0-16.2-4.7-31.2-12.7-44c3,0.4,5.9,0.6,8.8,0.6h138.8c12,0,22.2-0.3,31-1.1l-9.4,66.7
			c-3.4,24-12,40-23.1,42.8c-10.9,2.8-25.2-6.4-39.3-25.1l-42.8-56.9c-3-4-8.6-4.8-12.6-1.8s-4.8,8.6-1.8,12.6l42.8,56.9
			c16.1,21.4,33.5,32.8,49.6,32.8c2.9,0,5.7-0.4,8.4-1.1c18.8-4.8,31.8-25.3,36.4-57.7l10.2-71.9c19.5-4.4,30.8-13.4,43.1-30.3
			l2.7-3.7c17.1-23.8,67.8-94.2,128.3-100.2c2.2,1.9,5.1,3.1,8.2,3.1h46.8c7,0,12.6-5.6,12.6-12.6
			C3731.9,2675.9,3726.3,2670.3,3719.4,2670.3z M3384,2673.9c-0.1-2.1-0.3-4-0.5-6c24.9-12.8,53.5-34.7,69.3-59
			c13.5,7.7,15.9,17.4,15.9,17.7c0.6,3,2.6,5.4,5.3,6.6c1.1,0.5,2.3,0.7,3.5,0.7c1.7,0,3.5-0.5,5-1.5c0.1-0.1,9-5.5,23.7-1.9
			c-4.7,14.1-12.6,28.8-23.3,43.4H3384z M3482.1,2585.5c0.1,0,0.2,0,0.3,0c7.3,0,14.3,2.8,19.5,8c5.2,5.1,8,12,8.1,19.4
			c-11.6-2.7-21.1-1.5-27.6,0.4c-3.3-5.8-9.4-13.3-19.9-19.5C3467.7,2588.5,3474.7,2585.5,3482.1,2585.5z M3396.1,2488.8
			c7,1.2,12.8,14.5,10,30.3c-1.9,10.8-8,21-14.2,29c-0.4-12.9-2.7-28.5-10.2-41.5c-0.7-1.2-1.5-2.3-2.2-3.4
			C3383.6,2493.9,3390.4,2487.8,3396.1,2488.8z M3339.9,2530.7c-8-13.9-7.1-28.3-0.9-31.9c1.2-0.7,2.5-1,4-1
			c6.2,0,16.1,5.6,23.1,17.7c7.8,13.6,8.3,31.9,7.6,43.6C3363.3,2553.9,3347.8,2544.4,3339.9,2530.7z M3382.9,2581.1
			c25.2-4.5,40.5,5.8,45.5,30.1c-12.2,13.9-29.5,27.6-47.9,37.9c-5.1-20.9-15.2-35.9-29.6-43.4
			C3354.5,2592.4,3365,2584.3,3382.9,2581.1z M3366,2673.9h-39.3c-0.2-17.7-1.4-39-9.1-55c2.9-0.5,6-0.8,9.5-0.8
			C3357.2,2618.1,3364.7,2649.8,3366,2673.9z M3278.9,2612.8c21,0,28.9,15.6,29.8,61h-59.6C3250,2628.5,3257.9,2612.8,3278.9,2612.8
			z M3230.7,2618.1c3.4,0,6.5,0.3,9.4,0.7c-7.7,16.1-8.9,37.4-9.1,55h-39.3C3193.1,2649.8,3200.6,2618.1,3230.7,2618.1z
			 M3222.1,2939.4c-36.2,0-65.6-29.4-65.6-65.6c0-36.2,29.4-65.6,65.6-65.6c36.2,0,65.6,29.4,65.6,65.6
			C3287.8,2909.9,3258.3,2939.4,3222.1,2939.4z"/>
	</g>
</g>
<g>
	<g>
		<g>
			<path class="st4" d="M2572.3,2712c0,55.5-45,100.4-100.4,100.4s-100.4-45-100.4-100.4c0-55.5,45-100.4,100.4-100.4
				S2572.3,2656.6,2572.3,2712z"/>
		</g>
		<g>
			<path class="st0" d="M2531.3,2712c0,25.7-8.6,46.6-19.2,46.6c-10.6,0-19.3-20.9-19.3-46.6c0-25.7,8.6-46.6,19.3-46.6
				C2522.7,2665.5,2531.3,2686.3,2531.3,2712z"/>
		</g>
		<g>
			<path class="st3" d="M2472.6,2813.8c77.2-33.3,162.1-52,251.3-52.6l0,0c-22.9,118.3-127,207.6-252,207.6h-0.3
				c-125,0-229.1-89.3-252-207.6c25.4,0,50.4,1.6,75,4.5L2472.6,2813.8z"/>
		</g>
		<g>
			<g>
				<polygon class="st0" points="2463.7,2810 2463.7,2744.3 2412.8,2685.4 2346.3,2685.4 2294.6,2740.8 2294.6,2799.1 2362,2810.8 
									"/>
			</g>
		</g>
	</g>
	<g>
		<path d="M2728.6,2703.1H2617c-5,0-9,4-9,9s4,9,9,9h111.6c5,0,9-4,9-9S2733.5,2703.1,2728.6,2703.1z"/>
		<path d="M2270.5,2721c5,0,9-4,9-9s-4-9-9-9h-55.3c-5,0-9,4-9,9s4,9,9,9H2270.5z"/>
		<path d="M2599.8,2665.5c1.3,3.7,4.8,5.9,8.4,5.9c1,0,2.1-0.2,3.1-0.5l104.8-38.1c4.7-1.7,7.1-6.9,5.4-11.5
			c-1.7-4.7-6.8-7-11.5-5.4l-104.8,38.1C2600.5,2655.7,2598.1,2660.8,2599.8,2665.5z"/>
		<path d="M2576.2,2624.6c1.8,2.1,4.3,3.2,6.9,3.2c2,0,4.1-0.7,5.8-2.1l85.5-71.7c3.8-3.2,4.3-8.9,1.1-12.7
			c-3.2-3.8-8.9-4.3-12.7-1.1l-85.5,71.7C2573.5,2615.1,2573,2620.8,2576.2,2624.6z"/>
		<path d="M2540,2594.2c1.4,0.8,3,1.2,4.5,1.2c3.1,0,6.1-1.6,7.8-4.5l55.8-96.6c2.5-4.3,1-9.8-3.3-12.3c-4.3-2.5-9.8-1-12.3,3.3
			l-55.8,96.6C2534.2,2586.2,2535.7,2591.7,2540,2594.2z"/>
		<path d="M2495.6,2578c0.5,0.1,1.1,0.1,1.6,0.1c4.3,0,8.1-3.1,8.8-7.4l19.4-109.9c0.9-4.9-2.4-9.5-7.3-10.4
			c-4.9-0.8-9.5,2.4-10.4,7.3l-19.4,109.9C2487.4,2572.5,2490.7,2577.1,2495.6,2578z"/>
		<path d="M2446.7,2578.1c0.5,0,1,0,1.6-0.1c4.9-0.9,8.2-5.5,7.3-10.4l-19.4-109.9c-0.9-4.9-5.6-8.1-10.4-7.3
			c-4.9,0.9-8.2,5.5-7.3,10.4l19.4,109.9C2438.6,2575.1,2442.4,2578.1,2446.7,2578.1z"/>
		<path d="M2391.6,2590.9c1.7,2.9,4.7,4.5,7.8,4.5c1.5,0,3.1-0.4,4.5-1.2c4.3-2.5,5.8-8,3.3-12.3l-55.8-96.6
			c-2.5-4.3-8-5.8-12.3-3.3c-4.3,2.5-5.8,8-3.3,12.3L2391.6,2590.9z"/>
		<path d="M2355,2625.7c1.7,1.4,3.7,2.1,5.8,2.1c2.6,0,5.1-1.1,6.9-3.2c3.2-3.8,2.7-9.5-1.1-12.7l-85.5-71.7
			c-3.8-3.2-9.5-2.7-12.7,1.1c-3.2,3.8-2.7,9.5,1.1,12.7L2355,2625.7z"/>
		<path d="M2227.7,2632.7l91.9,33.4c1,0.4,2.1,0.5,3.1,0.5c3.7,0,7.1-2.3,8.4-5.9c1.7-4.7-0.7-9.8-5.4-11.5l-91.9-33.4
			c-4.7-1.7-9.8,0.7-11.5,5.4S2223,2631,2227.7,2632.7z"/>
		<path d="M2391.4,2651.3c3.7,3.3,9.4,3.1,12.7-0.6c17.3-19.1,42-30.1,67.8-30.1c50.4,0,91.4,41,91.4,91.5c0,8.4-1.1,16.7-3.4,24.7
			c-1.3,4.8,1.5,9.7,6.2,11.1c0.8,0.2,1.6,0.3,2.4,0.3c3.9,0,7.5-2.6,8.6-6.6c2.7-9.6,4-19.5,4-29.6c0-60.3-49.1-109.4-109.4-109.4
			c-30.8,0-60.4,13.1-81.1,36C2387.4,2642.3,2387.7,2648,2391.4,2651.3z"/>
		<path d="M2723.9,2752.2C2723.9,2752.2,2723.9,2752.2,2723.9,2752.2c-69.8,0.5-137.8,11.9-202.9,33.7v-20.5
			c12.7-7.4,19.2-30.3,19.2-53.1c0-27.6-9.7-55.5-28.2-55.5c-18.5,0-28.2,27.9-28.2,55.5c0,22.7,6.6,45.7,19.3,53.1v26.7
			c-10.2,3.7-20.3,7.7-30.3,12l0,0v-59.8c0-2.2-0.8-4.2-2.2-5.9l-50.9-58.8c-0.1-0.2-0.3-0.3-0.5-0.5l0,0c-0.1-0.1-0.1-0.1-0.2-0.2
			v0l0,0h0l0,0c-1.6-1.5-3.7-2.4-6.1-2.4h0h0h0c0,0,0,0,0,0h0h-66.5c-2.5,0-4.9,1-6.6,2.9l-51.7,55.4c-1.6,1.7-2.4,3.9-2.4,6.1v14.9
			c-21.8-2.2-43.9-3.5-65.9-3.5h0c-2.7,0-5.2,1.2-6.9,3.3c-1.7,2.1-2.4,4.8-1.9,7.4c24.1,124.5,133.8,214.9,261.1,214.9
			c127,0,236.7-90.3,260.8-214.8c0.5-2.6-0.2-5.4-1.9-7.5C2729.1,2753.4,2726.6,2752.2,2723.9,2752.2z M2511.8,2674.7
			c2.9,0.9,10.5,13.9,10.5,37.6c0,23.2-7.3,36.1-10.3,37.5c-3-1.4-10.3-14.3-10.3-37.5C2501.7,2688.6,2509.3,2675.6,2511.8,2674.7z
			 M2412.8,2699.2l41.9,48.5v62.4c0,3.6,2.2,6.9,5.5,8.3c56.6,23.6,109.2,55.4,156.7,94.4c-18.7,13.5-39.2,24.4-61.2,32.3
			c-53.3-57.9-115.4-104.9-184.9-139.6v-57.8L2412.8,2699.2z M2303.6,2750.3l49.4,2.5v47.4l-49.4-8.6V2750.3z M2350.2,2694.4h42.9
			l-35.1,40.7l-43.7-2.2L2350.2,2694.4z M2249.5,2821.7c64.4,34.3,121.4,78.7,170,132.5C2345.6,2938.3,2282.8,2889.1,2249.5,2821.7z
			 M2471.6,2959.7c-8.2,0-16.3-0.4-24.4-1.2c-57.7-68.3-127.9-123-208.7-162.6c-3-8.3-5.6-16.9-7.7-25.6c18.3,0.4,36.7,1.6,54.8,3.6
			v25.3c0,4.4,3.1,8.1,7.4,8.9l66,11.5c66.5,32.7,126.2,77,177.7,131.6C2515.9,2956.7,2494.1,2959.7,2471.6,2959.7z M2631.5,2901.4
			c-41.7-34.7-87.3-64-136.1-87.1c26.4-10.4,53.3-18.9,80.7-25.6c-5.3,9.5-10.4,19.1-15.1,28.8c-2.2,4.5-0.4,9.8,4.1,12
			c1.3,0.6,2.6,0.9,4,0.9c3.3,0,6.5-1.8,8.1-5c7-14.3,14.7-28.4,22.7-42.1c16.6-3.4,33.3-6.2,50.2-8.3c-15,25.6-28.3,52.2-39.6,79.3
			c-1.9,4.6,0.3,9.8,4.8,11.7c1.1,0.5,2.3,0.7,3.4,0.7c3.5,0,6.9-2.1,8.3-5.5c12.6-30.4,27.9-60.1,45.2-88.4
			c13.4-1.2,26.9-2.1,40.5-2.4C2700.1,2822.8,2670.9,2868.2,2631.5,2901.4z"/>
		<path d="M2412.8,2808.5c5,0,9-4,9-9V2777c0-5-4-9-9-9s-9,4-9,9v22.6C2403.8,2804.5,2407.8,2808.5,2412.8,2808.5z"/>
	</g>
</g>
<g>
	<g>
		<path class="st0" d="M2421.2,1288.4c0-60.3-48.9-109.2-109.2-109.2c-60.3,0-109.2,48.9-109.2,109.2s48.9,109.2,109.2,109.2
			C2372.3,1397.6,2421.2,1348.7,2421.2,1288.4z"/>
		
			<ellipse transform="matrix(0.9892 -0.1466 0.1466 0.9892 -164.5993 407.8276)" class="st0" cx="2684.8" cy="1320.7" rx="76.9" ry="76.9"/>
		<polygon class="st0" points="2606.5,1105.5 2606.5,1027.2 2568.5,1027.2 2568.5,1101.3 		"/>
		<path class="st1" d="M2356.5,1288.4c0-24.6-19.9-44.5-44.5-44.5s-44.5,19.9-44.5,44.5s19.9,44.5,44.5,44.5
			S2356.5,1312.9,2356.5,1288.4z"/>
		<path class="st1" d="M2718.8,1320.7c0-18.7-15.2-33.9-33.9-33.9s-33.9,15.2-33.9,33.9c0,18.7,15.2,33.9,33.9,33.9
			S2718.8,1339.5,2718.8,1320.7z"/>
		<path class="st3" d="M2668.4,1112.5l-158.2-17.9L2462,928.9h-205.3l-22.8,232.7c22.7-14,49.4-22.1,78-22.1
			c82.2,0,148.8,66.6,148.8,148.8v12h149.5l0.5-0.3c9-32.4,38.7-56.2,74-56.2c10.2,0,19.9,2,28.7,5.6l0,0l11.9-58.4
			C2733.4,1152.3,2707.7,1117,2668.4,1112.5z M2448,1153c-34.8-34.9-82.9-56.6-136-56.6c-9.6,0-19.1,0.7-28.5,2.1l12.4-126.5h133.7
			l52.6,181H2448z"/>
	</g>
	<g>
		<path d="M2312,1170.1c-65.2,0-118.2,53-118.2,118.2s53,118.2,118.2,118.2s118.2-53,118.2-118.2S2377.2,1170.1,2312,1170.1z
			 M2312,1388.6c-55.3,0-100.2-45-100.2-100.2s45-100.2,100.2-100.2s100.2,45,100.2,100.2S2367.3,1388.6,2312,1388.6z"/>
		<path d="M2312,1234.9c-29.5,0-53.5,24-53.5,53.5c0,6.6,1.2,13,3.5,19.1c1.8,4.6,7,7,11.6,5.2c4.6-1.8,7-7,5.2-11.6
			c-1.5-4-2.3-8.3-2.3-12.7c0-19.6,15.9-35.5,35.5-35.5c19.6,0,35.5,15.9,35.5,35.5s-15.9,35.5-35.5,35.5c-5,0-9,4-9,9c0,5,4,9,9,9
			c29.5,0,53.5-24,53.5-53.5C2365.5,1258.9,2341.5,1234.9,2312,1234.9z"/>
		<path d="M2723.8,1244.3l10.5-51.5c4.3-21.2-0.1-42.3-12.4-59.2c-12.3-16.9-31-27.6-52.5-30.1l-53.9-6.1v-70.3c0-5-4-9-9-9h-10v-38
			c0-4,3.3-7.3,7.3-7.3c5,0,9-4,9-9c0-5-4-9-9-9c-13.9,0-25.3,11.3-25.3,25.3v38h-10c-5,0-9,4-9,9v63.9l-42.4-4.8L2474,937.9h12.5
			c5,0,9-4,9-9c0-5-4-9-9-9h-254.2c-5,0-9,4-9,9c0,5,4,9,9,9h14.6l-21.4,218.6c-20.9,13.7-38.6,32.3-51.2,54.8
			c-2.4,4.3-0.9,9.8,3.4,12.2c4.3,2.4,9.8,0.9,12.2-3.4c24.7-44.2,71.5-71.6,122.1-71.6c77.1,0,139.8,62.7,139.8,139.8v12
			c0,5,4,9,9,9s9-4,9-9v-12c0-87-70.8-157.8-157.8-157.8c-23.7,0-46.7,5.4-67.4,15.3l20.3-207.9h190.4l46.2,159.3
			c1,3.6,4.1,6,7.6,6.4c0,0,0,0,0,0l158.2,17.9c16.5,1.9,30.7,10,40,22.8c9.3,12.8,12.6,28.8,9.3,45.1l-9.9,48.5c-7-1.9-14.4-3-22-3
			c-37,0-68.5,23.6-80.6,56.5h-102.7c-5,0-9,4-9,9c0,5,4,9,9,9h98.3c-0.5,3.7-0.8,7.5-0.8,11.4c0,47.3,38.5,85.8,85.8,85.8
			c47.3,0,85.8-38.5,85.8-85.8C2770.7,1287.4,2751.6,1258.6,2723.8,1244.3z M2577.5,1036.2h20v59.2l-20-2.3V1036.2z M2684.8,1388.6
			c-37.4,0-67.9-30.4-67.9-67.9c0-37.4,30.4-67.9,67.9-67.9s67.9,30.4,67.9,67.9C2752.7,1358.2,2722.3,1388.6,2684.8,1388.6z"/>
		<path d="M2684.8,1277.8c-23.7,0-42.9,19.2-42.9,42.9c0,5,4,9,9,9s9-4,9-9c0-13.8,11.2-24.9,24.9-24.9c13.8,0,24.9,11.2,24.9,24.9
			c0,13.8-11.2,24.9-24.9,24.9c-5,0-9,4-9,9c0,5,4,9,9,9c23.7,0,42.9-19.2,42.9-42.9S2708.5,1277.8,2684.8,1277.8z"/>
		<path d="M2438.2,969.6c-1.1-3.8-4.6-6.5-8.6-6.5h-133.7c-4.6,0-8.5,3.5-8.9,8.1l-12.4,126.5c-0.3,2.8,0.7,5.5,2.8,7.4
			c2,1.9,4.8,2.8,7.5,2.4c9-1.3,18.1-2,27.1-2c48.9,0,94.9,19.2,129.6,54c1.7,1.7,4,2.6,6.4,2.6h34.2c2.8,0,5.5-1.3,7.2-3.6
			c1.7-2.3,2.2-5.2,1.4-7.9L2438.2,969.6z M2451.6,1144.1c-24.5-23.8-54.1-40.5-86.1-49.4v-81.8c0-5-4-9-9-9c-5,0-9,4-9,9v77.8
			c-11.6-2.1-23.5-3.2-35.5-3.2c-6.1,0-12.3,0.3-18.4,0.8l10.5-107.2h118.8l47.3,163H2451.6z"/>
		<path d="M2575,1170.6h65.7c5,0,9-4,9-9s-4-9-9-9H2575c-5,0-9,4-9,9S2570.1,1170.6,2575,1170.6z"/>
		<path d="M2575,1211h65.7c5,0,9-4,9-9c0-5-4-9-9-9H2575c-5,0-9,4-9,9C2566,1207,2570.1,1211,2575,1211z"/>
	</g>
</g>
<g>
	<g>
		<g>
			<path class="st0" d="M68.8,14.8l-8.4-7.1c-1-0.8-2.8-1.5-4-1.5h-1.8c-0.9,0-2,0.3-2.9,0.9c-0.2-0.2-0.4-0.3-0.7-0.5
				c-1.6-0.9-3.5-1-5.2-0.4c0.3,1.5,1.1,3,2.5,3.9l-0.3,0.3c-1.7,1.7-4,1.6-6.6,1.6H14.2c-3.6,0-6.6,2.9-6.6,6.6V53h4l1.5-12.7
				c2,1.2,4.3,1.9,6.8,1.9c4.8,0,9.1-2.6,11.4-6.4h7.9V53h4l1.5-12.7c3.5-1.4,6.4-4,8.1-7.4c1.7-3.4,6-12,6-12h7.9
				c1.3,0,1.8-0.9,2.4-2l0.3-0.5C70.1,17.2,69.8,15.6,68.8,14.8z"/>
		</g>
		<g>
			<path class="st6" d="M13.2,40.2c2,1.2,4.3,1.9,6.8,1.9c4.8,0,9.1-2.6,11.4-6.4H19.5C17.8,37.7,15.6,39.3,13.2,40.2z"/>
		</g>
		<g>
			<path class="st1" d="M52.9,32.8c0.5-0.9,1.1-2.3,1.9-3.7c-0.9-0.8-2.1-1.2-3.4-1.2c-3,0-5.5,2.5-5.5,5.5c0,2,1.1,3.7,2.7,4.7
				C50.3,36.8,51.8,35,52.9,32.8z"/>
		</g>
		<g>
			<path class="st1" d="M21.4,12c0,0.2-0.1,0.5-0.1,0.7c0,2,1.1,3.8,2.8,4.8c-0.6,0.9-1,2-1,3.1c0,3.1,2.5,5.5,5.5,5.5
				s5.5-2.5,5.5-5.5c0,0,0,0,0-0.1c0.3,0,0.5,0.1,0.8,0.1c3,0,5.5-2.5,5.5-5.5c0-1.2-0.4-2.2-1-3.1H21.4z"/>
		</g>
	</g>
	<g>
		<path d="M69.5,14.1l-8.4-7.1c-0.5-0.4-1.1-0.8-1.9-1.1c0.1-1.2,0.7-2.4,1.6-3.3c0.4-0.4,0.4-1,0-1.4c-0.4-0.4-1-0.4-1.4,0
			c-1.1,1.1-1.9,2.6-2.1,4.1c-0.3-0.1-0.6-0.1-0.9-0.1h-1c0.2-1,0.7-1.9,1.5-2.6c0.4-0.4,0.4-1,0-1.4c-0.4-0.4-1-0.4-1.4,0
			c-1.1,1.1-1.9,2.6-2.1,4.2c-0.5,0.1-1,0.3-1.5,0.5c-0.1-0.1-0.2-0.1-0.3-0.2c-1.8-1.1-4-1.2-6-0.5c-0.4,0.2-0.7,0.6-0.6,1.1
			c0.3,1.5,1,2.8,2,3.8c-1.3,1-3,1-5.2,1H14.2H9.6c-4.2,0-7.5,3.4-7.5,7.5v12.8c-0.5,0.3-0.9,0.9-0.9,1.6c0,0.2,0,0.6,0.7,1.9
			c0.2,0.4,0.7,0.7,1.2,0.7c0.5,0,1-0.3,1.2-0.7C5,33.7,5,33.2,5,33c0-0.7-0.4-1.3-0.9-1.6V18.6c0-2.9,2.2-5.3,5.1-5.6
			c-1.5,1.4-2.5,3.4-2.5,5.6V53c0,0.5,0.4,1,1,1h4c0.5,0,0.9-0.4,1-0.9L14,41.7c1.3,0.6,2.6,1,4,1.2l-0.1,0.9c0,0.5,0.4,1,0.9,1
			c0,0,0,0,0.1,0c0.5,0,0.9-0.4,1-0.9l0.1-0.9c0,0,0.1,0,0.1,0c1.2,0,2.4-0.2,3.6-0.4l0.3,0.8c0.1,0.4,0.5,0.7,0.9,0.7
			c0.1,0,0.2,0,0.3-0.1c0.5-0.2,0.8-0.7,0.6-1.2L25.4,42c1.1-0.5,2.2-1.1,3.2-1.8l0.5,0.6c0.2,0.2,0.5,0.3,0.7,0.3
			c0.2,0,0.5-0.1,0.6-0.2c0.4-0.4,0.5-1,0.1-1.4l-0.5-0.6c0.7-0.7,1.3-1.5,1.9-2.3h6.4V53c0,0.5,0.4,1,1,1h4c0.5,0,0.9-0.4,1-0.9
			l1.5-12.2c3.5-1.5,6.4-4.2,8.1-7.6c0.9-1.7,2.5-4.9,3.8-7.5c0.2-0.5,0.1-1.1-0.4-1.3c-0.5-0.2-1.1-0.1-1.3,0.4
			c-0.5,0.9-1,1.9-1.4,2.9c-0.9-0.5-2-0.8-3.1-0.8c-3.6,0-6.5,2.9-6.5,6.5c0,1.8,0.7,3.5,2,4.7c-0.7,0.5-1.5,0.9-2.4,1.2
			c-0.3,0.1-0.6,0.4-0.6,0.8L42.4,52h-2.1V35.7c0-0.5-0.4-1-1-1H25c-0.5,0-1,0.4-1,1c0,0.5,0.4,1,1,1h4.5c-2.3,2.8-5.8,4.5-9.5,4.5
			c-1.6,0-3.1-0.3-4.5-0.9c1.8-1,3.4-2.3,4.7-3.9c0,0,0,0,0.1-0.1c1.2-1.5,2.2-3.2,2.8-5.1c0.2-0.5-0.1-1.1-0.6-1.2
			c-0.5-0.2-1.1,0.1-1.2,0.6c-0.5,1.6-1.3,3.1-2.4,4.4c0,0,0,0-0.1,0.1c-1.6,1.9-3.6,3.4-5.9,4.3c-0.3,0.1-0.6,0.4-0.6,0.8L10.8,52
			H8.6V18.6c0-3.1,2.5-5.6,5.6-5.6h6.1c0.1,1.9,1,3.6,2.4,4.8c-0.4,0.9-0.7,1.8-0.7,2.8c0,3.6,2.9,6.5,6.5,6.5
			c3.2,0,5.9-2.4,6.4-5.5c3.5-0.1,6.4-3,6.4-6.5c0-0.7-0.1-1.4-0.4-2.1h0.7c2.6,0,5.1,0,7-1.9l0.2-0.2c0.1-0.1,0.2-0.1,0.2-0.2
			c0.3-0.4,0.2-1.1-0.2-1.4c-0.9-0.6-1.5-1.5-1.9-2.5c1.2-0.2,2.4,0,3.5,0.6c1,0.6,1.7,1.4,2.2,2.4c0.2,0.5,0.8,0.7,1.3,0.5
			c0.5-0.2,0.7-0.8,0.5-1.3c-0.3-0.6-0.6-1.2-1.1-1.7c0.4-0.1,0.8-0.2,1.2-0.2h1.8c1,0,2.6,0.6,3.4,1.2l8.4,7.1
			c0.6,0.5,0.8,1.6,0.5,2.3l-0.3,0.5c-0.6,1.2-0.9,1.5-1.5,1.5h-7.9c-0.5,0-1,0.4-1,1c0,0.5,0.4,1,1,1h7.9c2,0,2.8-1.6,3.3-2.6
			l0.3-0.5C71.2,17.2,70.8,15.2,69.5,14.1z M46.8,33.5c0-2.5,2-4.5,4.5-4.5c0.8,0,1.5,0.2,2.2,0.6c-0.6,1.1-1.1,2.2-1.5,2.9
			c-0.9,1.8-2.1,3.3-3.6,4.6C47.4,36.1,46.8,34.8,46.8,33.5z M39.5,15.2c0,2.5-2,4.5-4.5,4.5c-0.2,0-0.4,0-0.6-0.1
			c-0.3,0-0.6,0.1-0.8,0.3c-0.2,0.2-0.3,0.5-0.3,0.8c0,2.5-2,4.5-4.5,4.5c-2.5,0-4.5-2-4.5-4.5c0-0.9,0.3-1.8,0.8-2.6
			c0.2-0.2,0.2-0.5,0.2-0.8c-0.1-0.3-0.2-0.5-0.5-0.6c-1.3-0.8-2.2-2.2-2.3-3.7h16.6C39.3,13.7,39.5,14.4,39.5,15.2z"/>
		<path d="M59.3,12.7c0.3-0.3,0.4-0.6,0.4-1c0-0.4-0.1-0.7-0.4-1c-0.5-0.5-1.4-0.5-1.9,0c-0.3,0.3-0.4,0.6-0.4,1
			c0,0.4,0.1,0.7,0.4,1c0.3,0.3,0.6,0.4,1,0.4C58.7,13.1,59,13,59.3,12.7z"/>
	</g>
</g>
</svg>
