<?xml version="1.0" encoding="utf-8"?>
<!-- Generator: Adobe Illustrator 24.2.3, SVG Export Plug-In . SVG Version: 6.00 Build 0)  -->
<svg version="1.1" id="Layer_1" xmlns="http://www.w3.org/2000/svg" xmlns:xlink="http://www.w3.org/1999/xlink" x="0px" y="0px"
	 viewBox="0 0 78.7 55.5" style="enable-background:new 0 0 78.7 55.5;" xml:space="preserve">
<style type="text/css">
	.st0{fill:#E83636;}
	.st1{fill:#BF132C;}
	.st2{fill:#68A508;}
	.st3{fill:#92C100;}
	.st4{fill:#FFA05F;}
	.st5{fill:#231F20;}
	.st6{fill:#665DBA;}
	.st7{fill:#453E9B;}
	.st8{fill:#856FD0;}
</style>
<g>
	<g>
		<g>
			<g>
				<path class="st0" d="M77,26.6c0.1-1.4-0.1-2.7-0.7-3.9c-1.4-3.2-4.6-5.5-8.4-5.5H50.4c-3.8,0-7,2.3-8.4,5.5
					c-2.7,6.7,2.8,13.4,6,18.7c2.8,4.7,6.4,9.9,11.9,9.4c5.2-0.5,8.2-5.5,10.6-9.7c1.7-2.9,3.6-5.7,4.8-8.7
					C76.1,30.7,76.9,28.7,77,26.6z"/>
				<path class="st1" d="M76.2,22.7c-1.2-2.9-3.9-5-7.1-5.4c0.6,0.7,1,1.5,1.4,2.3c0.6,1.2,0.8,2.5,0.7,3.9
					c-0.1,2.1-0.8,4.2-1.6,5.9c-1.4,3-3.2,5.9-4.8,8.7c-2.4,4.2-5.3,9.3-10.6,9.7c-0.6,0.1-1.2,0-1.8,0c2,2.1,4.5,3.5,7.4,3.1
					c5.2-0.5,8.2-5.5,10.6-9.7c1.7-2.9,3.6-5.7,4.8-8.7c0.7-1.7,1.5-3.8,1.6-5.9C77.1,25.2,76.9,23.8,76.2,22.7z"/>
			</g>
			<g>
				<g>
					<path class="st2" d="M63.3,11.5L63.3,11.5c0-4.8-4.1-7.3-4.1-7.3s-4.1,2.7-4.1,7.3l0,0l0,0c0,4.5,4.1,7.3,4.1,7.3
						S63.3,16,63.3,11.5L63.3,11.5z"/>
				</g>
				<g>
					<path class="st3" d="M68.3,16.3L68.3,16.3c4-3.3,3.2-7.6,3.2-7.6s-5.2-0.5-9.1,2.7l0,0l0,0c-3.8,3.1-3.2,7.6-3.2,7.6
						S64.4,19.4,68.3,16.3L68.3,16.3z"/>
					<path class="st2" d="M68.3,16.3L68.3,16.3c4-3.3,3.2-7.6,3.2-7.6L59.2,19C59.2,19,64.4,19.4,68.3,16.3L68.3,16.3z"/>
				</g>
				<g>
					<path class="st3" d="M50.1,16.2L50.1,16.2c4,3.3,9.1,2.7,9.1,2.7s0.6-4.4-3.2-7.6l0,0l0,0c-3.8-3.1-9.1-2.7-9.1-2.7
						S46.3,13.1,50.1,16.2L50.1,16.2z"/>
					<path class="st2" d="M50.1,16.2L50.1,16.2c4,3.3,9.1,2.7,9.1,2.7L46.7,8.6C46.7,8.6,46.3,13.1,50.1,16.2L50.1,16.2z"/>
				</g>
			</g>
			<path class="st4" d="M52.1,24.7c0.3,1.5-0.6,2.8-2.1,3c-1.5,0.3-2.8-0.6-3-2.1c-0.3-1.5,0.6-2.8,2.1-3
				C50.5,22.3,51.8,23.2,52.1,24.7z"/>
			<path class="st4" d="M61.2,24.7c0.3,1.5-0.6,2.8-2.1,3c-1.5,0.3-2.8-0.6-3-2.1c-0.3-1.5,0.6-2.8,2.1-3
				C59.5,22.3,60.8,23.2,61.2,24.7z"/>
			<path class="st4" d="M56.6,31.7c0.3,1.5-0.6,2.8-2.1,3c-1.5,0.3-2.8-0.6-3-2.1c-0.3-1.5,0.6-2.8,2.1-3
				C55,29.3,56.3,30.2,56.6,31.7z"/>
		</g>
		<path class="st5" d="M76.9,23.3c-1.3-3.1-4.1-5.3-7.3-6c3.3-3.6,2.7-7.6,2.7-7.7c-0.1-0.5-0.5-0.9-1-1c0,0-0.3,0-0.9,0
			c-1.3,0-4,0.2-6.6,1.5c-1-3.8-4.2-5.8-4.3-5.9c-0.4-0.2-0.9-0.2-1.4,0C58,4.3,55,6.4,53.8,10c-2.7-1.4-5.5-1.5-6.8-1.5
			c-0.5,0-0.7,0-0.7,0c-0.5,0-1,0.5-1.2,1c0,0.2-0.4,4.3,2.7,7.7c-3.2,0.7-6,2.9-7.3,6.1c-2.5,6.2,1.4,12.4,4.4,17.3
			c0.5,0.9,1,1.8,1.6,2.5c3,5.2,6.7,10,12.2,10l0,0c0.3,0,0.6,0,0.9,0c5.9-0.5,9-6,11.5-10.4c0.4-0.8,0.9-1.6,1.4-2.3
			c1.3-2.1,2.5-4.2,3.6-6.5c0.9-2.3,1.6-4.4,1.7-6.3C77.7,26,77.5,24.6,76.9,23.3z M67,16.4C67,16.4,66.9,16.4,67,16.4
			c-2.5,2.1-5.5,2.5-7.2,2.5c0.1-1.4,0.6-3.7,2.7-5.4l0,0c0,0,0.1,0,0.1-0.1c2.5-2,5.7-2.4,7.2-2.4C69.7,12.2,69.3,14.4,67,16.4z
			 M58.6,6.8c0.8,0.7,2.4,2.3,2.7,4.6c-0.1,0.1-0.1,0.1-0.2,0.2c0,0-0.1,0-0.1,0.1c-1.2,0.9-2,2-2.5,3c-0.5-1-1.4-2.1-2.5-3
			l-0.1-0.1c-0.1-0.1-0.1-0.1-0.2-0.2C56.2,9.2,57.8,7.5,58.6,6.8z M54.5,13.4C54.5,13.4,54.6,13.4,54.5,13.4c2.3,2,2.8,4.3,2.9,5.5
			c-1.7,0-4.6-0.4-7-2.5c0,0,0,0-0.1-0.1c-2.2-1.9-2.7-4.2-2.8-5.4C49,11,52.2,11.4,54.5,13.4z M75.2,27.6c-0.1,1.6-0.6,3.5-1.5,5.4
			c-0.9,2.1-2.2,4.2-3.3,6.2c-0.5,0.8-0.9,1.6-1.5,2.4c-2.4,4.1-5,8.8-9.6,9.2c-0.2,0-0.4,0-0.7,0l0,0c-4.3,0-7.4-4.3-10.2-8.9
			c-0.5-0.8-1-1.7-1.6-2.6c-2.9-4.7-6.3-10-4.2-15.1c1.2-2.9,4-4.8,7.2-4.8h0.6c2.7,1.6,5.5,1.9,7.1,1.9c0.4,0,0.7,0,0.8,0l0,0
			c0,0,0.3,0,0.7,0l0,0c1.4,0,4.5-0.2,7.4-1.9H67c3.1,0,6,1.9,7.2,4.8v0.1C75.1,25.3,75.3,26.3,75.2,27.6z"/>
	</g>
	<g>
		<g>
			<g>
				<path class="st3" d="M25.9,21.7L25.9,21.7c-5-7.2-12.9-7.5-12.9-7.5s-2.4,7.7,2.4,14.7l0,0l0,0c4.7,6.8,12.9,7.5,12.9,7.5
					S30.5,28.5,25.9,21.7L25.9,21.7z"/>
				<path class="st2" d="M25.9,21.7L25.9,21.7c-5-7.2-12.9-7.5-12.9-7.5l15.3,22.3C28.3,36.5,30.5,28.5,25.9,21.7L25.9,21.7z"/>
			</g>
			<g>
				<path class="st3" d="M14.2,28.9L14.2,28.9C5.5,30.1,1.7,37,1.7,37s5.9,5.5,14.2,4.4l0,0l0,0c8.2-1.2,12.5-8.2,12.5-8.2
					S22.4,27.7,14.2,28.9L14.2,28.9z"/>
				<path class="st2" d="M14.2,28.9L14.2,28.9C5.5,30.1,1.7,37,1.7,37l26.8-3.8C28.5,33.2,22.4,27.7,14.2,28.9L14.2,28.9z"/>
			</g>
			<g>
				<ellipse class="st6" cx="42.8" cy="41.3" rx="10" ry="10"/>
				<path class="st7" d="M42.1,51.4c-1.7-0.9-3-2.3-4-4c-2.6-4.9-0.8-11,4.1-13.7c1.8-0.9,3.7-1.4,5.5-1.2c-2.9-1.6-6.6-1.8-9.7,0
					c-4.9,2.6-6.7,8.8-4.1,13.7C35.6,49.3,38.8,51.1,42.1,51.4z"/>
			</g>
			<g>
				<path class="st6" d="M23.2,30.7c-2.6-4.9-0.8-11,4.1-13.7c4.9-2.6,11-0.8,13.7,4.1c2.6,4.9,0.8,11-4.1,13.7
					C32,37.4,25.9,35.7,23.2,30.7z"/>
				<path class="st7" d="M31.3,36c-1.7-0.9-3-2.3-4-4c-2.6-4.9-0.8-11,4.1-13.7c1.8-0.9,3.7-1.4,5.5-1.2c-2.9-1.6-6.6-1.8-9.7,0
					c-4.9,2.6-6.7,8.8-4.1,13.7C24.9,33.9,28.1,35.8,31.3,36z"/>
			</g>
			<g>
				<ellipse class="st6" cx="26" cy="43.1" rx="10" ry="10"/>
				<path class="st7" d="M25.3,53.1c-1.7-0.9-3-2.3-4-4c-2.6-4.9-0.8-11,4.1-13.7c1.8-0.9,3.7-1.4,5.5-1.2c-2.9-1.6-6.6-1.8-9.7,0
					c-4.9,2.6-6.7,8.8-4.1,13.7C18.8,51,21.9,52.8,25.3,53.1z"/>
			</g>
			<path class="st8" d="M28.8,26c0.4-1.6,1.9-2.4,3.1-2.1c1.3,0.4,1.9,1.9,1.5,3.5c-0.4,1.6-1.9,2.4-3.1,2.1
				C29,29.1,28.3,27.6,28.8,26z"/>
			<path class="st8" d="M22.6,43.1c0.4-1.6,1.9-2.4,3.1-2.1c1.3,0.4,1.9,1.9,1.5,3.5s-1.9,2.4-3.1,2.1
				C22.8,46.1,22.2,44.7,22.6,43.1z"/>
			<path class="st8" d="M39.5,41.4c0.4-1.6,1.9-2.4,3.1-2.1c1.3,0.4,1.9,1.9,1.5,3.5s-1.9,2.4-3.1,2.1
				C39.7,44.4,39.1,42.9,39.5,41.4z"/>
			<path class="st7" d="M43.4,41.4c0.7-2.4,2.9-3.9,4.9-3.3c2,0.6,3,3,2.4,5.4c-0.7,2.4-2.9,3.9-4.9,3.3
				C43.7,46.3,42.6,43.8,43.4,41.4z"/>
			<path class="st7" d="M32.6,26c0.7-2.4,2.9-3.9,5-3.3c2,0.6,3,3,2.4,5.4c-0.7,2.4-2.9,3.9-4.9,3.3C32.9,30.9,31.8,28.5,32.6,26z"
				/>
			<path class="st7" d="M26.4,43.2c0.7-2.4,2.9-3.9,4.9-3.3c2,0.6,3,3,2.4,5.4c-0.7,2.4-2.9,3.9-4.9,3.3
				C26.8,48.1,25.7,45.6,26.4,43.2z"/>
		</g>
		<g>
			<path class="st5" d="M43.8,37.1c-1.5,0.6-2.6,1.9-3.2,3.5c-0.5,1.4-0.6,2.9-0.2,4.3c0.4,1.5,1.5,2.5,2.7,3
				c1.2,0.4,2.4,0.4,3.6-0.1c1.5-0.6,2.6-1.9,3.2-3.5c0.5-1.4,0.6-2.9,0.2-4.3c-0.4-1.5-1.5-2.5-2.7-3
				C46.2,36.6,44.9,36.6,43.8,37.1z M47.7,43.4c-0.4,0.9-1,1.8-2,2.1c-0.4,0.2-1,0.3-1.8,0.1c-0.6-0.2-1-0.7-1.3-1.5
				c-0.2-0.8-0.2-1.8,0.1-2.6c0.4-0.9,1-1.8,2-2.1c0.4-0.2,1-0.3,1.8-0.1c0.6,0.2,1,0.7,1.3,1.5C48,41.6,48,42.5,47.7,43.4z"/>
			<path class="st5" d="M37.2,33.5c1.5-0.6,2.6-1.9,3.2-3.5c0.5-1.4,0.6-2.9,0.2-4.3c-0.4-1.5-1.5-2.5-2.7-3
				c-1.2-0.4-2.4-0.4-3.6,0.1c-1.5,0.6-2.6,1.9-3.2,3.5c-1.2,2.9-0.1,6.2,2.5,7.2C34.7,34.1,35.9,34,37.2,33.5z M33.3,27.2
				c0.4-0.9,1-1.8,2-2.1c0.4-0.2,1-0.3,1.8-0.1c0.6,0.2,1,0.7,1.3,1.5c0.2,0.8,0.2,1.8-0.1,2.6c-0.4,0.9-1,1.8-2,2.1
				c-0.4,0.2-1,0.3-1.8,0.1c-0.6-0.2-1-0.7-1.3-1.5C32.9,29.1,32.9,28.1,33.3,27.2z"/>
			<path class="st5" d="M30.2,39.3c-1.2-0.4-2.4-0.4-3.6,0.1c-1.5,0.6-2.6,1.9-3.2,3.5c-1.2,2.9-0.1,6.2,2.5,7.2
				c1.2,0.4,2.4,0.4,3.6-0.1c1.5-0.6,2.6-1.9,3.2-3.5C33.9,43.6,32.8,40.4,30.2,39.3z M30.5,45.7c-0.4,0.9-1,1.8-2,2.1
				c-0.4,0.2-1,0.3-1.8,0.1c-1.4-0.5-1.9-2.4-1.2-4.1c0.4-0.9,1-1.8,2-2.1c0.4-0.2,1-0.3,1.8-0.1C30.6,42.1,31.1,43.9,30.5,45.7z"/>
			<path class="st5" d="M1.5,38.1c0.2,0.2,5.4,4.4,12.9,4c-0.2,1.9,0.1,3.8,0.8,5.7c2.4,5.8,9.1,8.4,14.9,6c2.2-0.9,3.9-2.5,5.1-4.3
				c3.1,2.9,7.9,3.9,12,2.1c5.8-2.4,8.4-9.1,6-14.9c-1.7-3.8-5.1-6.3-9-6.7c0.6-2.4,0.5-5-0.5-7.4c-2.4-5.8-9.1-8.4-14.9-6
				c-1.3,0.5-2.4,1.3-3.3,2.2c-6-5.7-13.2-5.2-13.5-5.2c-0.1,0-0.3,0-0.4,0.1c-0.3,0.1-0.6,0.5-0.7,0.9c-0.1,0.3-1.2,6.6,2.5,12.8
				c-1,0.2-2,0.5-2.9,0.9c-6.6,2.8-9.2,8.4-9.3,8.7C0.9,37.1,1.1,37.7,1.5,38.1z M17.4,46.6c-1.9-4.5,0.2-9.7,4.7-11.6
				s9.7,0.2,11.6,4.7c1.9,4.5-0.2,9.7-4.7,11.6S19.3,51.1,17.4,46.6z M50.9,37.4c1.9,4.5-0.2,9.7-4.7,11.6c-3.6,1.5-7.5,0.5-10-2.1
				c0.9-2.6,0.9-5.4-0.2-8.2c-0.1-0.3-0.3-0.6-0.5-0.9c0.7-0.1,1.5-0.3,2.2-0.6c2.4-1,4.3-2.8,5.4-5C46.4,32.2,49.5,34.2,50.9,37.4z
				 M41.4,23.2c1.9,4.5-0.2,9.7-4.7,11.6c-0.9,0.4-1.9,0.6-2.8,0.7c-2-2.2-4.8-3.5-7.9-3.7c-0.4-0.5-0.7-1.2-0.9-1.8
				c-1.9-4.5,0.2-9.7,4.7-11.6S39.5,18.7,41.4,23.2z M13.1,15.7c2,0.1,6.8,0.7,10.8,4.6c-1.4,2-2,4.3-2,6.7c-1.8-0.4-3.8-0.6-6-0.4
				C13.1,22.4,13,17.6,13.1,15.7z M11.3,30.2c0.9-0.4,1.9-0.7,2.9-0.9l0,0h0.1c2.9-0.6,5.8-0.3,8,0.4c0.1,0.5,0.3,0.9,0.5,1.5
				c0.1,0.3,0.3,0.6,0.5,0.9c-0.7,0.1-1.5,0.4-2.2,0.7c-3,1.4-5.2,3.8-6.3,6.7C9.6,40,5.4,37.8,3.7,36.8C4.7,35.2,7.1,32,11.3,30.2z
				"/>
		</g>
	</g>
</g>
</svg>
