<?xml version="1.0" encoding="utf-8"?>
<!-- Generator: Adobe Illustrator 24.2.3, SVG Export Plug-In . SVG Version: 6.00 Build 0)  -->
<svg version="1.1" id="Layer_1" xmlns="http://www.w3.org/2000/svg" xmlns:xlink="http://www.w3.org/1999/xlink" x="0px" y="0px"
	 viewBox="0 0 75 75" style="enable-background:new 0 0 75 75;" xml:space="preserve">
<style type="text/css">
	.st0{fill:#231F20;}
</style>
<g>
	<path class="st0" d="M32.2,27.2c0.6-1.1,1.1-2.4,1.2-4.1c0-0.1,0-0.1,0-0.2c0.2-4.2-2.8-6.6-2.9-6.7c-0.4-0.3-0.9-0.3-1.3,0
		c0,0-0.2,0.2-0.4,0.4c-0.7,0.7-2,2.1-2.6,4.2c-2.6-1.4-5.2-1-5.4-0.9c-0.4,0.1-0.8,0.4-0.8,0.9c0,0.2-0.4,2.9,1,5.4
		c-2.1,0.7-3.7,2-4.4,2.7c-0.2,0.2-0.4,0.4-0.4,0.4c-0.3,0.4-0.3,0.9,0,1.3c0.2,0.2,2.6,3.1,6.8,2.9H23c1.6-0.2,2.9-0.6,4-1.2
		c-0.7,1.3-0.9,2.6-0.8,4c0.2,2.8,2,4.9,2.9,5.6l11.1,7.6c0.1,0.1,0.1,0.2,0.2,0.2c0.2,0.2,0.4,0.2,0.5,0.3l11.6,7.9
		c0.8,0.5,3.1,2.3,5.3,0.2c0.1,0,0.1-0.1,0.2-0.1c0,0,0,0,0.1-0.1c0,0,0.1-0.1,0.1-0.2c2.1-2.3,0.4-4.5-0.2-5.2L41.8,29.2
		c-0.7-0.9-2.7-2.7-5.5-2.9C34.9,26.2,33.5,26.6,32.2,27.2z M31.3,23c0,0.1,0,0.1,0,0.2c-0.2,2.3-1.3,3.9-2.1,4.8
		c-0.7-0.8-1.7-2.3-1.5-4.4v-0.1l0,0c0.2-2.2,1.3-3.9,2.1-4.8C30.4,19.4,31.4,21,31.3,23z M21.8,22c0.9,0,2.5,0.2,3.9,1.1
		c0,0.1,0,0.2,0,0.2v0.1l0,0c-0.1,1.1,0.2,2,0.4,2.9c-0.8-0.2-1.8-0.4-2.9-0.4H23C22,24.5,21.8,22.9,21.8,22z M22.6,31.6
		c-2,0.1-3.6-0.8-4.4-1.5c0.9-0.8,2.6-2,4.8-2.1h0.1c2.2-0.2,3.6,0.8,4.4,1.5C26.6,30.3,24.9,31.5,22.6,31.6
		C22.7,31.6,22.6,31.6,22.6,31.6z M40,30.4l10.1,14.8l-1.4,1.4c-0.4,0.4-0.4,1.1,0,1.4s1.1,0.4,1.4,0l1.2-1.2l4.7,6.9
		c1.1,1.4,0.9,2,0.2,2.7l0,0c-0.7,0.7-1.3,0.8-2.7-0.3l-10.9-7.4l0.9-0.9c0.4-0.4,0.4-1.1,0-1.4c-0.4-0.4-1.1-0.4-1.4,0l-1.1,1.1
		l-10.7-7.2c-0.5-0.4-1.9-1.9-2-4.1c-0.2-1.8,0.7-3.6,2.5-5.4c1.7-1.7,3.6-2.6,5.4-2.5C38.2,28.5,39.7,30,40,30.4z"/>
	<path class="st0" d="M33.1,35.8l-1.8,1.8c-0.4,0.4-0.4,1.1,0,1.4s1.1,0.4,1.4,0l1.8-1.8c0.4-0.4,0.4-1.1,0-1.4
		C34.1,35.4,33.5,35.4,33.1,35.8z"/>
	<path class="st0" d="M41.1,37.1L39.3,39c-0.4,0.4-0.4,1.1,0,1.4c0.4,0.4,1.1,0.4,1.4,0l1.8-1.8c0.4-0.4,0.4-1.1,0-1.4
		C42.2,36.7,41.5,36.7,41.1,37.1z"/>
</g>
</svg>
